<svg width="582" height="457" viewBox="0 0 582 457" fill="none" xmlns="http://www.w3.org/2000/svg">
<rect width="582" height="457" rx="8" fill="#F8F8F8"/>
<g clip-path="url(#clip0_320_7065)">
<path d="M485.034 288.257C441.756 369.078 326.469 414.353 226.502 402.137C210.231 400.147 165.639 394.23 126.153 366.306C50.1295 312.538 33.8769 206.085 95.1928 131.064C139.821 76.4608 219.823 45.5074 295.837 47.0533C312.214 47.3909 374.96 49.4432 430.113 85.5051C438.212 90.8002 456.081 103.389 472.183 123.362C509.99 170.254 513.232 235.59 485.034 288.257Z" fill="#BDD0FB"/>
<path d="M257.728 292.752C257.595 292.761 257.462 292.779 257.329 292.806C255.428 292.903 249.362 291.979 249.362 291.979C249.362 291.979 251.272 300.037 252.329 300.348C255.171 301.184 257.569 303.698 259.958 304.275C261.592 304.666 263.226 303.627 263.537 301.983C263.59 301.805 263.626 301.637 263.643 301.45C263.697 300.908 263.599 300.348 263.332 299.824L260.499 294.343C259.958 293.276 258.847 292.69 257.728 292.752Z" fill="#E7B2B6"/>
<path d="M247.994 290.78L252.923 291.802L253.918 301.041L247.825 301.015L247.994 290.78Z" fill="#D0D6EC"/>
<path d="M247.994 290.78L247.834 301.024C247.834 301.024 239.122 301.361 230.391 301.015C222.718 300.713 215.027 299.878 213.224 297.825C211.164 295.48 209.68 277.462 208.748 261.159C207.931 246.9 207.54 233.964 207.54 233.964C207.54 233.964 214.121 237.047 215.293 237.838C220.276 241.214 227.674 284.587 227.674 284.587C227.674 284.587 245.587 289.829 247.994 290.78Z" fill="#DFE5F4"/>
<path d="M275.535 398.397L277.489 405.842L297.747 405.851C297.738 405.842 292.676 396.016 275.535 398.397Z" fill="#221E50"/>
<path d="M188.766 401.649C188.766 401.649 187.673 402.617 185.089 402.617C182.158 402.617 181.412 401.649 181.412 401.649V360.505H188.766V401.649Z" fill="#B9C0D6"/>
<path d="M229.219 343.784C229.21 343.811 229.21 343.847 229.21 343.873C228.962 345.703 228.589 347.409 228.153 348.973C227.31 352.002 226.208 354.472 225.187 356.205C221.208 362.921 213.659 370.393 195.55 372.836C194.671 372.952 193.765 373.067 192.842 373.156C191.154 373.325 189.378 373.458 187.513 373.547C187.397 373.556 187.273 373.556 187.158 373.556C187.042 373.565 186.918 373.565 186.802 373.565C181.536 373.432 175.648 372.472 169.075 370.909C155.585 367.71 146.801 361.118 141.242 353.104C140.771 352.42 140.318 351.736 139.892 351.034C138.782 349.213 137.822 347.329 137.005 345.401C133.915 338.187 132.742 330.413 132.627 323.208C132.734 316.367 133.79 310.192 134.972 305.795C135.886 302.365 137.316 299.113 139.261 296.244C139.767 295.489 140.318 294.76 140.904 294.067C142.752 291.846 144.972 289.936 147.556 288.461C154.004 284.792 175.195 281.131 193.144 290.602C226.164 308.042 231.137 329.587 229.219 343.784Z" fill="#B7451D"/>
<path d="M215.063 405.842H154.076C152.655 405.842 151.491 404.678 151.491 403.257C151.491 401.835 152.655 400.671 154.076 400.671H215.063C216.484 400.671 217.647 401.835 217.647 403.257C217.647 404.678 216.484 405.842 215.063 405.842Z" fill="#B9C0D6"/>
<path d="M229.201 349.062C228.464 353.504 226.732 357.067 225.178 359.234C221.199 364.778 213.65 370.944 195.541 372.961C194.662 373.059 193.756 373.147 192.833 373.218C191.145 373.361 189.369 373.467 187.504 373.538C187.388 373.547 187.264 373.547 187.149 373.547C187.033 373.556 186.909 373.556 186.793 373.556C181.527 373.423 175.639 372.463 169.067 370.9C155.576 367.701 146.792 361.109 141.233 353.095C140.762 352.411 140.309 351.727 139.883 351.025C150.114 348.582 171.971 344.3 193.694 346.05C205.48 347.001 217.691 348.049 228.162 348.973C228.5 349 228.855 349.035 229.201 349.062Z" fill="#C5592D"/>
<path d="M207.531 233.955C207.531 233.955 201.883 232.374 201.643 232.356C201.91 232.765 199.236 235.768 193.632 236.558C193.623 236.558 192.46 237.624 191.678 237.669C184.582 238.033 176.474 234.275 175.639 232.009C157.175 235.625 155.923 237.331 155.434 237.838C141.517 252.168 133.426 286.382 131.97 292.965C131.819 293.65 132.112 294.351 132.698 294.725C134.776 296.066 140.158 299.167 148.391 301.237C150.825 301.85 153.498 302.365 156.42 302.729C157.388 311.01 159.555 315.914 161.607 318.482C161.607 318.482 170.772 318.348 180.763 317.975C192.122 317.54 206.244 317.167 207.522 315.887C209.325 314.084 215.8 270.132 207.531 233.955ZM155.63 282.047C155.301 286.658 156.003 284.712 155.985 288.168C154.67 287.724 153.498 287.306 152.574 286.924C151.402 286.444 150.629 286.036 150.47 285.725C150.47 285.725 152.637 282.5 154.679 278.759C155.603 277.062 156.509 275.259 157.175 273.597C156.26 275.89 155.949 277.649 155.63 282.047Z" fill="#DFE5F4"/>
<path d="M194.849 222.539C194.849 222.539 196.395 235.243 196.572 237.047L186.288 238.637L179.538 233.04C179.538 233.04 182.86 226.776 182.194 217.474L194.849 222.539Z" fill="url(#paint0_linear_320_7065)"/>
<path d="M180.772 317.966C170.781 318.348 161.802 322.329 161.802 322.329C159.742 319.752 157.397 311.001 156.429 302.721C153.516 302.365 150.834 301.841 148.4 301.228C149.91 296.022 151.464 290.718 152.575 286.915C153.498 287.297 154.671 287.715 155.985 288.159C155.994 284.703 155.301 286.649 155.63 282.038C155.941 277.64 157.175 270.515 159.475 270.088C161.784 269.662 162.353 280.536 163.392 290.513C163.907 295.444 164.538 300.171 165.559 303.227C165.923 304.32 166.34 305.208 166.82 305.812C171.119 311.223 181.936 314.661 180.772 317.966Z" fill="#D0D6EC"/>
<path d="M196.137 223.525C196.137 223.525 181.412 224.2 181.127 215.013C180.852 205.836 178.765 199.732 188.152 198.915C197.54 198.098 199.476 201.545 200.32 204.583C201.155 207.639 199.956 223.116 196.137 223.525Z" fill="url(#paint1_linear_320_7065)"/>
<path d="M181.127 215.022C181.127 215.022 182.228 202.771 195.346 203.206C208.464 203.641 202.789 191.23 191.518 189.4C191.518 189.4 192.699 193.771 185.603 194.464C170.718 195.921 179.804 213.077 181.127 215.022Z" fill="url(#paint2_linear_320_7065)"/>
<path d="M188.144 237.793L194.903 237.073C194.903 237.073 195.746 237.26 195.586 238.326C195.426 239.392 193.197 242.28 192.354 242.422C191.519 242.564 186.314 239.757 188.144 237.793Z" fill="#C5592D"/>
<path d="M163.614 325.847C163.614 325.847 172.131 348.031 199.983 348.555C243.714 349.382 243.714 349.55 243.714 349.55C243.714 349.55 240.383 370.731 271.406 399.463H288.875L255.331 317.673L198.26 315.523C198.26 315.523 158.357 314.626 155.221 320.134C154.546 321.333 163.614 325.847 163.614 325.847Z" fill="#333383"/>
<path d="M195.542 372.836C195.542 372.943 191.98 373.45 190.035 373.538C189.245 373.574 188.446 373.592 187.629 373.583C187.557 373.583 187.486 373.583 187.415 373.583C187.202 373.574 186.998 373.574 186.785 373.574C181.518 373.441 175.63 372.481 169.058 370.917C151.438 366.733 141.846 356.773 136.988 345.41C133.897 338.196 132.725 330.422 132.609 323.217C132.716 316.376 133.773 310.201 134.954 305.803C135.869 302.374 137.299 299.122 139.244 296.253C139.626 295.684 140.034 295.133 140.46 294.591C140.594 294.414 140.736 294.245 140.887 294.067C153.018 306.763 189.707 347.143 195.542 372.836Z" fill="#E09139"/>
<path d="M194.627 372.836C194.627 372.943 191.065 373.45 189.12 373.538C188.632 373.565 188.135 373.574 187.637 373.583C187.566 373.583 187.495 373.583 187.424 373.583C187.211 373.574 187.007 373.574 186.794 373.574C181.527 373.441 175.639 372.481 169.067 370.917C151.446 366.733 141.855 356.773 136.997 345.41C133.906 338.196 132.734 330.422 132.618 323.217C132.725 316.376 133.782 310.201 134.963 305.803C135.878 302.374 137.307 299.122 139.252 296.253C139.634 295.684 140.043 295.133 140.469 294.591C153.072 307.829 188.863 347.48 194.627 372.836Z" fill="#D5652C"/>
<path d="M195.782 230.206C195.782 230.206 194.654 235.234 191.688 237.669L196.261 243.621C196.261 243.621 201.803 237.056 201.643 232.356C201.643 232.356 197.247 230.384 195.782 230.206Z" fill="#D0D6EC"/>
<path d="M195.782 230.206C195.782 230.206 194.92 234.941 191.954 237.367L196.35 242.786C196.35 242.786 201.173 237.171 201.643 232.356C201.643 232.356 197.247 230.384 195.782 230.206Z" fill="#DFE5F4"/>
<path d="M180.373 230.206C180.373 230.206 187.371 236.843 191.954 237.367L188.819 245.194C188.819 245.194 175.186 237.109 175.142 232.267C175.142 232.267 178.898 230.25 180.373 230.206Z" fill="#D0D6EC"/>
<path d="M180.879 229.939C180.879 229.939 187.38 236.843 191.962 237.367L189.422 244.581C189.422 244.581 175.692 236.843 175.647 232.009C175.647 232.009 179.395 229.984 180.879 229.939Z" fill="#DFE5F4"/>
<path d="M147.965 285.405C147.965 285.405 168.311 290.966 170.185 293.188L170.026 303.431C170.026 303.431 148.755 304.773 133.382 295.151C132.6 294.662 132.591 293.516 133.373 293.019C137.076 290.656 145.993 285.147 147.965 285.405Z" fill="#DFE5F4"/>
<path d="M230.392 301.006C222.719 300.704 214.61 300.18 213.225 297.816C208.589 289.909 213.145 269.759 212.212 253.456C219.557 268.418 214.113 280.35 215.525 288.159C216.91 295.915 223.864 299.424 230.392 301.006Z" fill="#D0D6EC"/>
<path d="M239.246 338.649C238.465 338.543 237.603 338.161 236.777 337.796C236.005 337.459 235.214 337.103 234.539 337.006C225.862 335.735 217.994 334.189 211.057 332.821C209.237 332.466 207.452 332.11 205.711 331.773C189.92 328.725 180.959 327.064 180.87 327.055C180.959 327.064 189.982 328.201 205.8 331.24C207.549 331.577 209.334 331.924 211.155 332.288C218.091 333.656 225.942 335.202 234.61 336.464C235.365 336.57 236.2 336.943 236.999 337.299C237.79 337.645 238.607 338.01 239.309 338.107C241.582 338.427 241.529 338.96 239.246 338.649Z" fill="#2B295E"/>
<path d="M233.571 292.397L233.366 291.828C233.349 291.784 233.331 291.739 233.313 291.695L233.278 291.597L233.224 291.446C233.207 291.393 233.198 291.357 233.18 291.322C233.171 291.286 233.162 291.26 233.153 291.242L233.571 292.397Z" fill="#2B295E"/>
<path d="M233.162 291.233C233.171 291.251 233.18 291.277 233.189 291.313C233.198 291.348 233.215 291.384 233.233 291.437L233.286 291.588L233.322 291.686C233.34 291.731 233.349 291.775 233.375 291.819L233.58 292.388L233.677 292.672L233.162 291.233Z" fill="#2B295E"/>
<path d="M233.162 291.233C233.171 291.251 233.18 291.277 233.189 291.313L233.162 291.233Z" fill="#2B295E"/>
<path d="M274.06 393.022L273.909 393.066C268.563 383.515 262.799 371.992 257.452 359.741C256.635 357.875 255.809 355.938 254.992 354.001C254.095 351.869 253.198 349.701 252.328 347.56C252.097 346.992 251.981 346.29 251.901 345.588C252.061 345.357 252.212 345.126 252.363 344.886C252.363 344.904 252.363 344.922 252.372 344.939C252.461 345.801 252.559 346.69 252.825 347.347C253.695 349.479 254.592 351.647 255.489 353.779C256.306 355.707 257.132 357.644 257.949 359.51C263.287 371.735 268.722 383.489 274.06 393.022Z" fill="#2B295E"/>
<path d="M191.314 241.631C191.314 241.631 190.035 253.732 189.804 257.783C189.165 269.173 188.925 303.405 188.925 303.405C188.925 303.405 188.587 306.39 190.586 308.78C192.584 311.161 194.662 312.795 194.662 312.795C194.662 312.795 197.584 310.237 198.747 305.421C199.52 302.223 197.664 275.339 195.799 257.428C194.857 248.428 193.303 241.382 193.303 241.382C193.303 241.382 191.776 241.125 191.314 241.631Z" fill="#D5652C"/>
<path d="M185.559 301.637L183.019 296.706C182.53 295.755 181.536 295.231 180.532 295.284C180.408 295.293 173.01 294.582 173.01 294.582C173.01 294.582 176.926 304.426 177.646 305.164C177.903 305.43 178.25 305.581 178.623 305.581C180.346 305.59 185.435 305.466 185.754 303.565C185.799 303.405 185.834 303.254 185.843 303.085C185.888 302.605 185.799 302.099 185.559 301.637Z" fill="#E7B2B6"/>
<path d="M170.177 293.188L175.107 294.209L176.11 303.449L170.018 303.422L170.177 293.188Z" fill="#D0D6EC"/>
<path d="M199.503 209.843C199.591 210.26 199.316 210.678 198.881 210.785C198.446 210.882 198.028 210.633 197.931 210.216C197.842 209.798 198.117 209.381 198.552 209.274C198.996 209.176 199.414 209.425 199.503 209.843Z" fill="#263238"/>
<path d="M200.133 208.91C200.053 209.034 199.369 208.697 198.517 208.848C197.664 208.99 197.114 209.541 197.007 209.452C196.954 209.416 197.016 209.212 197.256 208.963C197.487 208.714 197.913 208.439 198.446 208.35C198.979 208.261 199.458 208.377 199.751 208.528C200.053 208.688 200.178 208.857 200.133 208.91Z" fill="#263238"/>
<path d="M191.172 211.646C191.26 212.064 190.985 212.481 190.55 212.588C190.115 212.686 189.697 212.437 189.6 212.019C189.511 211.602 189.786 211.184 190.221 211.078C190.657 210.98 191.083 211.238 191.172 211.646Z" fill="#263238"/>
<path d="M191.776 210.58C191.696 210.705 191.012 210.367 190.159 210.518C189.307 210.66 188.756 211.211 188.65 211.122C188.596 211.087 188.658 210.882 188.898 210.633C189.129 210.385 189.555 210.109 190.088 210.02C190.621 209.932 191.101 210.047 191.394 210.198C191.687 210.349 191.811 210.527 191.776 210.58Z" fill="#263238"/>
<path d="M196.003 216.355C195.994 216.311 196.501 216.124 197.344 215.858C197.557 215.795 197.753 215.715 197.771 215.564C197.797 215.396 197.664 215.182 197.513 214.942C197.211 214.454 196.9 213.938 196.572 213.397C195.248 211.193 194.254 209.363 194.342 209.319C194.431 209.265 195.577 211.007 196.891 213.21C197.211 213.752 197.513 214.276 197.806 214.765C197.93 214.996 198.126 215.253 198.073 215.6C198.046 215.778 197.904 215.92 197.771 215.982C197.637 216.053 197.513 216.071 197.406 216.097C196.554 216.302 196.021 216.399 196.003 216.355Z" fill="#263238"/>
<path d="M193.605 217.394C193.739 217.359 193.907 218.292 194.822 218.807C195.728 219.322 196.705 219.047 196.731 219.171C196.758 219.225 196.545 219.393 196.128 219.473C195.719 219.562 195.097 219.536 194.547 219.225C193.987 218.905 193.685 218.407 193.588 218.034C193.472 217.652 193.534 217.403 193.605 217.394Z" fill="#263238"/>
<path d="M191.394 207.195C191.35 207.444 190.48 207.488 189.503 207.79C188.517 208.075 187.762 208.51 187.593 208.324C187.513 208.235 187.62 207.995 187.904 207.71C188.188 207.426 188.668 207.124 189.254 206.946C189.84 206.769 190.409 206.769 190.799 206.849C191.19 206.929 191.412 207.08 191.394 207.195Z" fill="#263238"/>
<path d="M199.379 206.493C199.263 206.715 198.642 206.618 197.931 206.733C197.221 206.822 196.652 207.097 196.475 206.92C196.395 206.831 196.457 206.618 196.688 206.387C196.91 206.156 197.318 205.934 197.807 205.854C198.295 205.783 198.748 205.88 199.032 206.04C199.308 206.209 199.423 206.387 199.379 206.493Z" fill="#263238"/>
<path d="M493.302 307.98H77.5459V406.42H493.302V307.98Z" fill="url(#paint3_linear_320_7065)"/>
<path d="M533.259 406.42H194.601H153.809H47.7407C46.7815 406.42 46 407.228 46 408.205C46 409.191 46.7815 409.991 47.7407 409.991H153.809H194.601H533.259C534.218 409.991 535 409.183 535 408.205C535 407.219 534.21 406.42 533.259 406.42Z" fill="#D0D6EC"/>
<path d="M507.726 301.868H70.2012V309.197H507.726V301.868Z" fill="url(#paint4_linear_320_7065)"/>
<path d="M231.742 270.088H277.889L265.899 301.868H220.818L231.742 270.088Z" fill="#D35C2B"/>
<path d="M398.114 100.52V69.3088H391.72V100.52H307.881V165.536H479.235V100.52H398.114Z" fill="#D0D6EC"/>
<path d="M476.482 103.283H310.954V162.24H476.482V103.283Z" fill="#DFE5F4"/>
<path d="M346.301 108.605H318.316V155.799H346.301V108.605Z" fill="#D0D6EC"/>
<path d="M470.851 108.605H353.184V114.539H470.851V108.605Z" fill="#D0D6EC"/>
<path d="M470.851 119.648H353.184V125.583H470.851V119.648Z" fill="#D0D6EC"/>
<path d="M470.851 132.202H353.184V138.136H470.851V132.202Z" fill="#D0D6EC"/>
<path d="M188.099 100.52V69.3088H181.714V100.52H97.875V165.536H269.229V100.52H188.099Z" fill="#D0D6EC"/>
<path d="M266.476 103.283H100.948V162.24H266.476V103.283Z" fill="#DFE5F4"/>
<path d="M109.678 153.125V111.839H124.136C126.534 111.839 128.684 112.07 130.566 112.523C132.458 112.976 134.057 113.669 135.371 114.611C136.686 115.543 137.689 116.725 138.373 118.138C139.066 119.559 139.403 121.229 139.403 123.157C139.403 124.099 139.288 125.014 139.048 125.876C138.808 126.747 138.453 127.555 137.973 128.31C137.494 129.065 136.881 129.75 136.144 130.363C135.407 130.976 134.527 131.482 133.506 131.882C134.714 132.184 135.753 132.646 136.606 133.259C137.467 133.872 138.178 134.592 138.728 135.4C139.288 136.217 139.687 137.097 139.945 138.048C140.202 138.998 140.327 139.984 140.327 140.979C140.327 144.986 139.039 148.007 136.455 150.05C133.879 152.094 130.202 153.116 125.442 153.116H109.678V153.125ZM118.186 129.137H124.483C126.659 129.101 128.275 128.639 129.332 127.759C130.389 126.88 130.922 125.627 130.922 124.001C130.922 122.127 130.38 120.785 129.287 119.959C128.204 119.133 126.49 118.724 124.145 118.724H118.195V129.137H118.186ZM118.186 135.142V146.283H125.469C126.561 146.283 127.511 146.15 128.302 145.875C129.092 145.599 129.758 145.226 130.282 144.738C130.815 144.258 131.206 143.689 131.454 143.041C131.712 142.392 131.836 141.672 131.836 140.9C131.836 140.011 131.721 139.211 131.499 138.501C131.268 137.79 130.922 137.186 130.433 136.688C129.954 136.191 129.323 135.809 128.55 135.542C127.778 135.276 126.854 135.142 125.771 135.142H118.186Z" fill="#D0D6EC"/>
<path d="M170.026 144.613H155.114L152.281 153.116H143.24L158.605 111.83H166.482L181.927 153.116H172.886L170.026 144.613ZM157.415 137.728H167.735L162.548 122.278L157.415 137.728Z" fill="#D0D6EC"/>
<path d="M219.343 153.125H210.844L194.289 125.965V153.125H185.79V111.839H194.289L210.871 139.06V111.839H219.343V153.125Z" fill="#D0D6EC"/>
<path d="M239.699 136.564L235.276 141.326V153.124H226.776V111.839H235.276V130.549L239.015 125.414L249.53 111.83H259.992L245.338 130.176L260.418 153.116H250.303L239.699 136.564Z" fill="#D0D6EC"/>
<path d="M353.637 374.747L341.603 374.729V371.433C341.603 369.816 340.289 368.492 338.672 368.492L322.997 368.474C321.381 368.474 320.057 369.789 320.057 371.406V374.702L308.023 374.684C306.176 374.684 304.684 376.177 304.675 378.025L304.648 403.017C304.648 404.865 306.14 406.357 307.988 406.357L353.593 406.411C355.44 406.411 356.932 404.918 356.941 403.07L356.968 378.078C356.977 376.248 355.485 374.747 353.637 374.747ZM322.979 371.415C322.979 371.397 322.988 371.388 323.006 371.388L338.681 371.406C338.699 371.406 338.708 371.415 338.708 371.433V374.729L322.979 374.711V371.415Z" fill="#D5652C"/>
<path d="M356.96 386.488L304.676 386.424L304.675 387.402L356.958 387.466L356.96 386.488Z" fill="#C5592D"/>
<path d="M382.456 312.236C382.456 312.236 314.355 336.819 313.574 338.747L288.067 399.516C281.095 401.8 278.715 406.42 278.715 406.42L299.843 406.411L301.584 399.774H306.176C332.269 375.608 335.057 356.56 335.164 350.092C335.182 348.742 336.256 347.649 337.606 347.605C341.727 347.48 333.849 347.205 362.021 346.672C391.062 346.121 400.485 319.414 400.485 319.414L382.456 312.236Z" fill="#2B295E"/>
<path d="M283.235 398.646L281.202 406.411L260.073 406.42C260.073 406.42 265.358 396.167 283.235 398.646Z" fill="#221E50"/>
<path d="M399.952 322.995C399.952 322.995 391.071 346.13 362.029 346.681C333.858 347.214 323.085 347.489 318.973 347.614C317.623 347.658 316.549 348.751 316.531 350.101C316.424 356.569 313.636 375.608 287.543 399.783H269.327L298.502 326.913C299.292 324.985 363.823 312.245 363.823 312.245L399.952 322.995Z" fill="#333383"/>
<path d="M321.087 336.339C321.904 336.224 322.801 335.833 323.663 335.451C324.462 335.095 325.297 334.722 325.999 334.625C335.048 333.301 343.255 331.684 350.484 330.262C352.385 329.889 354.241 329.525 356.061 329.169C372.527 325.998 381.879 324.256 381.968 324.247C381.879 324.256 372.465 325.438 355.973 328.619C354.152 328.974 352.287 329.338 350.395 329.711C343.166 331.133 334.969 332.75 325.936 334.065C325.146 334.18 324.276 334.562 323.441 334.935C322.615 335.3 321.762 335.682 321.034 335.78C318.645 336.108 318.698 336.668 321.087 336.339Z" fill="#2B295E"/>
<path d="M284.772 393.048L284.932 393.093C290.51 383.133 296.513 371.113 302.091 358.346C302.943 356.391 303.805 354.383 304.658 352.367C305.599 350.146 306.531 347.88 307.437 345.65C307.686 345.055 307.801 344.326 307.881 343.589C307.722 343.349 307.562 343.109 307.402 342.86C307.402 342.878 307.402 342.896 307.393 342.914C307.295 343.811 307.198 344.735 306.922 345.419C306.016 347.649 305.084 349.906 304.142 352.127C303.29 354.144 302.428 356.151 301.576 358.106C296.007 370.846 290.341 383.107 284.772 393.048Z" fill="#2B295E"/>
<path d="M353.504 242.253C349.481 236.283 347.944 231.361 347.944 231.361L358.087 225.373C361.666 232.88 370.067 238.504 370.067 238.504C370.067 238.504 353.548 242.315 353.504 242.253Z" fill="url(#paint5_linear_320_7065)"/>
<path d="M344.854 231.849C344.854 231.849 360.787 232.578 361.089 222.645C361.39 212.712 363.646 206.12 353.486 205.232C343.326 204.343 341.239 208.075 340.333 211.371C339.418 214.658 340.715 231.405 344.854 231.849Z" fill="url(#paint6_linear_320_7065)"/>
<path d="M340.324 211.371C340.324 211.371 345.671 212.215 347.421 218.478C349.17 224.751 356.684 230.997 359.011 230.686C359.011 230.686 372.776 212.108 358.753 204.468C348.362 198.808 338.708 205.489 340.324 211.371Z" fill="url(#paint7_linear_320_7065)"/>
<path d="M285.962 301.912C286.859 299.433 287.739 295.72 287.739 295.72C287.739 295.72 281.673 296.644 279.772 296.546C279.639 296.519 279.506 296.501 279.372 296.493C278.253 296.43 277.143 297.017 276.602 298.074L274.63 301.903H285.962V301.912Z" fill="#A05F32"/>
<path d="M388.834 250.071C388.168 249.059 387.519 248.081 386.889 247.14C383.514 242.093 381.818 239.055 379.287 236.834C374.109 232.303 364.162 233.502 364.126 233.511C364.126 233.511 360.139 234.915 358.256 235.377C355.849 235.963 353.282 236.709 350.778 237.642C350.529 237.713 335.325 241.862 333.93 247.468C331.577 256.966 316.328 288.523 316.328 288.523C316.328 288.523 293.538 293.578 286.957 295.924L285.607 301.921L324.036 301.877C324.036 301.877 335.724 290.105 342.403 279.719C342.429 279.79 342.456 279.861 342.474 279.923C343.993 284.205 345.485 288.523 346.675 292.548C349.836 303.263 352.403 312.689 358.664 313.968C362.554 314.759 365.92 315.443 368.842 315.994C391.33 320.294 387.475 317.273 391.809 300.464C393.497 293.925 393.372 287.404 392.191 281.096C393.479 280.616 394.731 280.119 395.886 279.586C397.475 278.857 398.879 278.066 399.962 277.249C403.896 274.228 395.77 260.626 388.834 250.071Z" fill="#F2D370"/>
<path opacity="0.2" d="M399.953 277.231C398.869 278.057 397.466 278.839 395.876 279.568C390.716 268.364 387.448 253.296 386.134 246.455C386.995 247.602 387.901 248.81 388.834 250.063C395.77 260.626 403.896 274.228 399.953 277.231Z" fill="#DE8F39"/>
<path opacity="0.2" d="M368.833 315.985C365.911 315.425 362.536 314.75 358.655 313.959C352.394 312.689 349.827 303.254 346.666 292.539C345.476 288.514 343.984 284.196 342.465 279.914C343.095 277.951 344.25 276.218 346.319 275.632C351.017 274.281 368.771 307.651 368.833 315.985Z" fill="#DE8F39"/>
<path d="M382.145 400.911H353.512V357.049H345.483V400.911H315.705C314.266 400.911 312.996 401.96 312.827 403.39C312.623 405.096 313.964 406.562 315.634 406.562H382.216C383.886 406.562 385.227 405.096 385.023 403.39C384.854 401.96 383.584 400.911 382.145 400.911Z" fill="#B9C0D6"/>
<path d="M421.036 296.457C417.581 317.948 412.634 348.538 411.799 352.633C410.805 357.493 403.256 358.586 386.293 358.586C380.937 358.586 374.64 358.479 367.313 358.346C336.771 357.786 325.758 358.577 325.758 358.577C325.758 358.577 317.206 342.807 367.305 347.978C373.015 348.564 375.502 319.636 376.559 297.328C377.216 283.468 389.108 272.842 402.945 273.748C409.171 274.157 414.482 277.409 417.759 282.118C420.565 286.133 421.88 291.197 421.036 296.457Z" fill="#D35C2B"/>
<path d="M421.036 296.457C417.581 317.948 412.634 348.537 411.799 352.633C410.805 357.493 403.256 358.586 386.293 358.586H325.758C325.758 358.586 317.206 342.816 367.305 347.987C386.017 351.816 382.127 299.149 382.554 294.769C382.98 290.389 390.946 279.488 399.952 277.24C408.957 274.992 417.759 282.126 417.759 282.126C420.565 286.133 421.88 291.197 421.036 296.457Z" fill="#B65224"/>
</g>
<defs>
<linearGradient id="paint0_linear_320_7065" x1="179.545" y1="228.052" x2="196.577" y2="228.052" gradientUnits="userSpaceOnUse">
<stop stop-color="#FEBBBA"/>
<stop offset="1" stop-color="#FF928E"/>
</linearGradient>
<linearGradient id="paint1_linear_320_7065" x1="180.738" y1="211.169" x2="200.57" y2="211.169" gradientUnits="userSpaceOnUse">
<stop stop-color="#FEBBBA"/>
<stop offset="1" stop-color="#FF928E"/>
</linearGradient>
<linearGradient id="paint2_linear_320_7065" x1="177.174" y1="202.211" x2="202.917" y2="202.211" gradientUnits="userSpaceOnUse">
<stop stop-color="#09005D"/>
<stop offset="1" stop-color="#1A0F91"/>
</linearGradient>
<linearGradient id="paint3_linear_320_7065" x1="77.5474" y1="357.197" x2="493.302" y2="357.197" gradientUnits="userSpaceOnUse">
<stop stop-color="#4F52FF"/>
<stop offset="1" stop-color="#4042E2"/>
</linearGradient>
<linearGradient id="paint4_linear_320_7065" x1="70.204" y1="305.526" x2="507.725" y2="305.526" gradientUnits="userSpaceOnUse">
<stop stop-color="#09005D"/>
<stop offset="1" stop-color="#1A0F91"/>
</linearGradient>
<linearGradient id="paint5_linear_320_7065" x1="347.948" y1="233.815" x2="370.068" y2="233.815" gradientUnits="userSpaceOnUse">
<stop stop-color="#FEBBBA"/>
<stop offset="1" stop-color="#FF928E"/>
</linearGradient>
<linearGradient id="paint6_linear_320_7065" x1="340.051" y1="218.481" x2="361.503" y2="218.481" gradientUnits="userSpaceOnUse">
<stop stop-color="#FEBBBA"/>
<stop offset="1" stop-color="#FF928E"/>
</linearGradient>
<linearGradient id="paint7_linear_320_7065" x1="340.146" y1="216.513" x2="365.051" y2="216.513" gradientUnits="userSpaceOnUse">
<stop stop-color="#09005D"/>
<stop offset="1" stop-color="#1A0F91"/>
</linearGradient>
<clipPath id="clip0_320_7065">
<rect width="489" height="363" fill="white" transform="translate(46 47)"/>
</clipPath>
</defs>
</svg>
