<svg width="33" height="42" viewBox="0 0 33 42" fill="none" xmlns="http://www.w3.org/2000/svg">
<path d="M32.2759 8.4828L24.0001 0.206944C23.9385 0.140686 23.8637 0.0880487 23.7806 0.0524163C23.6975 0.016784 23.6078 -0.00105448 23.5173 4.81711e-05H3.42079C2.71589 0.00367244 2.04088 0.285303 1.54243 0.783754C1.04398 1.2822 0.762352 1.95721 0.758728 2.66211V15.8621C0.758728 16.045 0.831388 16.2204 0.960723 16.3498C1.09006 16.4791 1.26547 16.5518 1.44838 16.5518C1.63129 16.5518 1.80671 16.4791 1.93604 16.3498C2.06538 16.2204 2.13804 16.045 2.13804 15.8621V2.66211C2.13804 2.32191 2.27318 1.99563 2.51375 1.75507C2.75431 1.5145 3.08059 1.37936 3.42079 1.37936H22.8277V8.96555C22.8277 9.14846 22.9003 9.32388 23.0297 9.45321C23.159 9.58255 23.3344 9.65521 23.5173 9.65521H31.1035V38.7345C31.1035 39.0747 30.9684 39.401 30.7278 39.6415C30.4872 39.8821 30.161 40.0172 29.8208 40.0172H3.42079C3.08059 40.0172 2.75431 39.8821 2.51375 39.6415C2.27318 39.401 2.13804 39.0747 2.13804 38.7345V35.1897C2.13804 35.0067 2.06538 34.8313 1.93604 34.702C1.80671 34.5727 1.63129 34.5 1.44838 34.5C1.26547 34.5 1.09006 34.5727 0.960723 34.702C0.831388 34.8313 0.758728 35.0067 0.758728 35.1897V38.7345C0.762352 39.4394 1.04398 40.1144 1.54243 40.6128C2.04088 41.1113 2.71589 41.3929 3.42079 41.3965H29.8208C30.5257 41.3929 31.2007 41.1113 31.6991 40.6128C32.1976 40.1144 32.4792 39.4394 32.4828 38.7345V8.96555C32.4839 8.8751 32.4661 8.78543 32.4305 8.70228C32.3948 8.61914 32.3422 8.54438 32.2759 8.4828ZM24.207 2.35867L30.1242 8.2759H24.207V2.35867Z" fill="#EC542F"/>
</svg>
