<svg width="16" height="16" viewBox="0 0 16 16" fill="none" xmlns="http://www.w3.org/2000/svg">
<path d="M7.99316 15.1328C11.8691 15.1328 15.0684 11.9336 15.0684 8.06445C15.0684 4.19531 11.8623 0.996094 7.98633 0.996094C4.11719 0.996094 0.924805 4.19531 0.924805 8.06445C0.924805 11.9336 4.12402 15.1328 7.99316 15.1328ZM4.54785 8.92578C4.24023 8.92578 4.00098 8.68652 4.00098 8.37891C4.00098 8.07129 4.24023 7.83203 4.54785 7.83203H7.44629V3.9082C7.44629 3.60059 7.68555 3.36133 7.98633 3.36133C8.30078 3.36133 8.54004 3.60059 8.54004 3.9082V8.37891C8.54004 8.68652 8.30078 8.92578 7.98633 8.92578H4.54785Z" fill="#1F56CE"/>
</svg>
