<?xml version="1.0" encoding="utf-8"?>
<svg width="59" height="59" viewBox="0 0 59 59" fill="none" xmlns="http://www.w3.org/2000/svg">
  <defs>
    <clipPath id="clip0_182_61">
      <rect width="36" height="33" fill="white"/>
    </clipPath>
  </defs>
  <circle cx="29.5" cy="29.5" r="29.5" fill="white"/>
  <g clip-path="url(#clip0_182_61)" transform="matrix(1, 0, 0, 1, 12.355725, 11.692977)">
    <path d="M24.3653 28.975H24.3538C24.1116 28.9636 23.9156 28.7578 23.9271 28.5177C23.9271 28.4148 23.8925 28.106 23.7196 27.9231C23.6043 27.8087 23.4544 27.763 23.2353 27.763C23.0623 27.763 22.7856 27.7859 22.4396 27.8087C20.6408 27.9345 17.2852 28.1632 15.9246 26.9168C15.521 26.5509 15.325 26.0821 15.325 25.5333C15.325 24.9615 15.5094 24.4927 15.8784 24.1497C16.7548 23.315 18.4268 23.3836 19.9028 23.4293C20.4909 23.4522 21.0444 23.475 21.4479 23.4293C22.4627 23.3264 23.7888 22.8004 24.8496 22.3659C25.6453 22.0457 26.3256 21.7713 26.7753 21.7141C27.8016 21.5655 31.3993 21.7027 31.5607 21.7141C31.8029 21.7256 31.9989 21.9314 31.9873 22.1715C31.9758 22.4116 31.7683 22.606 31.5261 22.5946C30.5114 22.5488 27.6978 22.4802 26.9137 22.5946C26.5562 22.6518 25.8989 22.9148 25.184 23.2006C24.0655 23.6466 22.6702 24.2069 21.5402 24.3212C21.0674 24.3669 20.4909 24.3441 19.8682 24.3212C18.6344 24.2755 17.0892 24.2183 16.4896 24.79C16.3051 24.973 16.2128 25.2131 16.2128 25.5447C16.2128 25.842 16.3166 26.0821 16.5357 26.2765C17.6081 27.2599 20.8253 27.0426 22.3704 26.9397C22.7394 26.9168 23.0392 26.894 23.2237 26.894C23.8003 26.894 24.1578 27.1341 24.3538 27.3285C24.815 27.8087 24.815 28.4834 24.8035 28.5634C24.8035 28.7921 24.6075 28.975 24.3653 28.975Z" fill="#003CB6"/>
    <path d="M20.756 33C19.7874 33 18.7957 32.6798 17.3774 31.9594C16.282 31.3992 12.938 29.7983 10.5049 28.632C8.91362 27.8659 7.65673 27.2599 7.43764 27.1455C6.59587 26.711 6.20381 25.6819 6.52668 24.7557C6.81496 23.921 7.74898 23.132 9.52476 23.4522C12.3845 23.9667 15.8784 24.7671 15.913 24.7786C16.1551 24.8357 16.305 25.0759 16.2474 25.3046C16.1897 25.5447 15.9476 25.6933 15.7169 25.6362C15.6824 25.6247 12.2115 24.8243 9.37486 24.3212C8.34859 24.1382 7.59907 24.4127 7.37998 25.0416C7.20702 25.5561 7.41458 26.1393 7.86429 26.368C8.07185 26.4823 9.38639 27.1112 10.9085 27.843C13.4915 29.0779 16.6971 30.6216 17.8041 31.1819C19.7413 32.1767 20.6177 32.2453 21.6324 32.0395C23.2698 31.6965 24.9187 30.9875 26.3717 30.3586C27.7669 29.7526 28.8739 29.2723 29.635 29.2723H31.5606C31.8028 29.2723 32.0104 29.4667 32.0104 29.7183C32.0104 29.9584 31.8143 30.1642 31.5606 30.1642H29.635C29.0584 30.1642 27.9284 30.6559 26.7291 31.1705C25.3108 31.7879 23.5465 32.554 21.8169 32.9085C21.4364 32.9542 21.102 33 20.756 33Z" fill="#003CB6"/>
    <path d="M32.2987 20.9709H36.0002V31.159H32.2987C31.7683 31.159 31.3301 30.736 31.3301 30.1985V21.92C31.3416 21.394 31.7683 20.9709 32.2987 20.9709Z" fill="#FF4415"/>
    <path d="M7.48373 11.3544C6.12306 11.3544 4.54331 11.2972 4.45106 11.2858C4.20891 11.2744 4.01288 11.0686 4.02441 10.8284C4.03594 10.5883 4.2435 10.3939 4.48565 10.4054C5.50039 10.4397 8.31397 10.5197 9.09808 10.4054C9.45554 10.3482 10.1128 10.0852 10.8277 9.79932C11.9463 9.35338 13.3415 8.79309 14.4716 8.67874C14.9443 8.633 15.5209 8.65587 16.1436 8.67874C17.3774 8.72448 18.9226 8.78165 19.5222 8.20992C19.7067 8.02697 19.7989 7.78685 19.7989 7.45525C19.7989 7.15795 19.6951 6.91783 19.476 6.72344C18.4037 5.74007 15.1865 5.95733 13.6298 6.06024C13.2608 6.08311 12.961 6.10598 12.7765 6.10598C12.1999 6.10598 11.8425 5.86585 11.6464 5.67146C11.1852 5.20265 11.1967 4.52801 11.1967 4.44797C11.2083 4.20785 11.4158 4.01346 11.658 4.02489C11.9001 4.03633 12.0962 4.24215 12.0846 4.48227C12.0846 4.58519 12.1192 4.89392 12.2922 5.06543C12.4075 5.17978 12.5574 5.22552 12.7765 5.22552C12.9495 5.22552 13.2262 5.20265 13.5721 5.17978C15.371 5.054 18.7265 4.82531 20.0872 6.07167C20.4908 6.43758 20.6868 6.90639 20.6868 7.45525C20.6868 8.02697 20.5023 8.49579 20.1333 8.83882C19.257 9.67354 17.5849 9.60493 16.109 9.5592C15.5209 9.53633 14.9674 9.51346 14.5638 9.5592C13.5491 9.67354 12.223 10.1995 11.1621 10.634C10.3665 10.9428 9.68617 11.2172 9.22492 11.2858C8.86746 11.343 8.19866 11.3544 7.48373 11.3544Z" fill="#003CB6"/>
    <path d="M27.3516 6.19748C27.2824 6.19748 27.2247 6.18605 27.1556 6.15174L25.1376 5.17981C22.6815 4.00206 19.3375 2.40122 18.2305 1.8295C16.2933 0.834697 15.4169 0.766089 14.4022 0.971911C12.7648 1.31495 11.1158 2.02389 9.66292 2.65278C8.25613 3.27025 7.14915 3.7505 6.3881 3.7505H4.46241C4.22025 3.7505 4.0127 3.55611 4.0127 3.30455C4.0127 3.05299 4.20872 2.85861 4.46241 2.85861H6.3881C6.96465 2.85861 8.09469 2.36692 9.29393 1.85237C10.7122 1.2349 12.4765 0.468792 14.2062 0.114322C15.5899 -0.17154 16.6969 0.0685842 18.6341 1.05195C19.7295 1.61224 23.0851 3.22451 25.5181 4.39083L27.5361 5.36276C27.7552 5.46567 27.8474 5.72867 27.7436 5.95736C27.6744 6.10601 27.513 6.19748 27.3516 6.19748Z" fill="#003CB6"/>
    <path d="M3.70147 12.0291H0V1.84094H3.70147C4.2319 1.84094 4.67008 2.26402 4.67008 2.80144V11.08C4.67008 11.606 4.2319 12.0291 3.70147 12.0291Z" fill="#FF4415"/>
    <path d="M33.0135 17.6663H11.5657C11.3235 17.6663 11.116 17.4719 11.116 17.2204V9.99375C11.116 9.75363 11.312 9.54781 11.5657 9.54781C11.8194 9.54781 12.0154 9.74219 12.0154 9.99375V16.7859H32.5753V6.1975H18.5074C18.2652 6.1975 18.0577 6.00311 18.0577 5.75155C18.0577 5.49999 18.2537 5.3056 18.5074 5.3056H33.025C33.2672 5.3056 33.4747 5.49999 33.4747 5.75155V17.2204C33.4632 17.4719 33.2671 17.6663 33.0135 17.6663Z" fill="#003CB6"/>
    <path d="M22.2896 14.659C21.4709 14.659 20.7444 14.3617 20.1679 13.79C19.5913 13.2183 19.2915 12.4865 19.2915 11.686C19.2915 10.8742 19.5913 10.1538 20.1679 9.5821C20.7444 9.01037 21.4824 8.71307 22.2896 8.71307C23.0968 8.71307 23.8347 9.01037 24.4113 9.5821C24.9879 10.1538 25.2877 10.8856 25.2877 11.686C25.2877 12.4979 24.9879 13.2183 24.4113 13.79C23.8347 14.3617 23.1083 14.659 22.2896 14.659Z" fill="#FF4415"/>
    <path d="M23.1084 11.8233C23.0507 11.7318 22.97 11.6518 22.8547 11.5946C22.7509 11.5374 22.5779 11.4802 22.3473 11.4231C22.1052 11.3659 21.9552 11.3087 21.8861 11.263C21.8284 11.2172 21.8053 11.1601 21.8053 11.0915C21.8053 11.0229 21.8399 10.9657 21.8976 10.9199C21.9783 10.8628 22.1052 10.8285 22.2435 10.8285C22.3819 10.8285 22.4972 10.8628 22.5664 10.9199C22.6125 10.9542 22.6471 11 22.6702 11.0457C22.7048 11.1143 22.7855 11.1601 22.8662 11.1601H22.8777C22.9469 11.1601 23.0161 11.1143 23.0507 11.0572C23.0853 11 23.0853 10.9199 23.0507 10.8628C23.0161 10.7942 22.97 10.737 22.9123 10.6913C22.774 10.5655 22.5433 10.5083 22.2551 10.5083C22.0821 10.5083 21.9207 10.5312 21.7938 10.5883C21.667 10.6455 21.5747 10.7141 21.5171 10.817C21.4479 10.9199 21.4133 11.0229 21.4133 11.1372C21.4133 11.3202 21.4825 11.4688 21.6208 11.5831C21.7246 11.6746 21.8976 11.7432 22.1513 11.8118C22.3588 11.8576 22.4857 11.8919 22.5433 11.9147C22.6356 11.9491 22.6932 11.9834 22.7278 12.0291C22.7624 12.0748 22.7855 12.132 22.7855 12.1892C22.7855 12.2921 22.7394 12.3721 22.6586 12.4407C22.5779 12.5093 22.4511 12.5436 22.2897 12.5436C22.1397 12.5436 22.0129 12.5093 21.9207 12.4293C21.863 12.3836 21.8169 12.315 21.7823 12.2349C21.7477 12.1549 21.6785 12.1091 21.5978 12.1091C21.5863 12.1091 21.5863 12.1091 21.5747 12.1091C21.5055 12.1206 21.4594 12.1549 21.4248 12.2006C21.3902 12.2578 21.3902 12.315 21.4133 12.3721C21.4594 12.4865 21.5286 12.5894 21.6208 12.6694C21.7708 12.8066 22.0014 12.8638 22.2897 12.8638C22.4857 12.8638 22.6586 12.8409 22.797 12.7838C22.9239 12.7266 23.0276 12.6466 23.1084 12.5322C23.1775 12.4179 23.2121 12.3035 23.2121 12.1663C23.2006 12.0405 23.166 11.9147 23.1084 11.8233Z" fill="white"/>
    <path d="M22.2896 10.7484C22.1743 10.7484 22.082 10.657 22.082 10.5426V10.3711C22.082 10.2568 22.1743 10.1653 22.2896 10.1653C22.4049 10.1653 22.4972 10.2568 22.4972 10.3711V10.5426C22.4972 10.657 22.4049 10.7484 22.2896 10.7484Z" fill="white"/>
    <path d="M22.2896 13.2183C22.1743 13.2183 22.082 13.1268 22.082 13.0125V12.841C22.082 12.7266 22.1743 12.6351 22.2896 12.6351C22.4049 12.6351 22.4972 12.7266 22.4972 12.841V13.0125C22.4972 13.1268 22.4049 13.2183 22.2896 13.2183Z" fill="white"/>
    <path d="M30.396 9.23908C30.8609 9.23908 31.2377 8.86536 31.2377 8.40436C31.2377 7.94336 30.8609 7.56964 30.396 7.56964C29.9311 7.56964 29.5542 7.94336 29.5542 8.40436C29.5542 8.86536 29.9311 9.23908 30.396 9.23908Z" fill="#003CB6"/>
    <path d="M30.396 15.4709C30.8609 15.4709 31.2377 15.0972 31.2377 14.6362C31.2377 14.1752 30.8609 13.8015 30.396 13.8015C29.9311 13.8015 29.5542 14.1752 29.5542 14.6362C29.5542 15.0972 29.9311 15.4709 30.396 15.4709Z" fill="#003CB6"/>
    <path d="M14.2063 15.4709C14.6712 15.4709 15.048 15.0972 15.048 14.6362C15.048 14.1752 14.6712 13.8015 14.2063 13.8015C13.7414 13.8015 13.3645 14.1752 13.3645 14.6362C13.3645 15.0972 13.7414 15.4709 14.2063 15.4709Z" fill="#003CB6"/>
  </g>
</svg>