<?xml version="1.0" encoding="utf-8"?>
<svg width="59" height="59" viewBox="0 0 59 59" fill="none" xmlns="http://www.w3.org/2000/svg">
  <circle cx="29.5" cy="29.5" r="29.5" fill="white"/>
  <path d="M32.0024 27C31.7502 27 31.5339 26.7962 31.5339 26.5326V19.462C31.5339 19.2103 31.7382 18.9946 32.0024 18.9946C32.2547 18.9946 32.4709 19.1984 32.4709 19.462V26.5326C32.4709 26.7962 32.2667 27 32.0024 27Z" fill="#003CB6" transform="matrix(1, 0, 0, 1, 9.22519, 13.793129)"/>
  <path d="M36.9517 17.281H40.5315V5.35687C38.5494 5.35687 36.9517 6.95075 36.9517 8.92811V17.281Z" fill="#FF4415" transform="matrix(1, 0, 0, 1, 9.22519, 13.793129)"/>
  <path d="M40.7237 16.6817V19.7376H31.0173V19.5699C31.0173 17.964 32.3147 16.6697 33.9245 16.6697H40.3033H40.7237V16.6817Z" fill="#FF4415" transform="matrix(1, 0, 0, 1, 9.22519, 13.793129)"/>
  <path d="M40.5315 27C40.2792 27 40.063 26.7963 40.063 26.5326V5.66843C40.063 5.41676 40.2672 5.20105 40.5315 5.20105C40.7958 5.20105 41 5.40478 41 5.66843V26.5446C41 26.7963 40.7958 27 40.5315 27Z" fill="#003CB6" transform="matrix(1, 0, 0, 1, 9.22519, 13.793129)"/>
  <path d="M20.4939 26.5446C20.2416 26.5446 20.0254 26.3409 20.0254 26.0772V13.0985C20.0254 12.8469 20.2296 12.6312 20.4939 12.6312C20.7582 12.6312 20.9624 12.8349 20.9624 13.0985V26.0772C20.9624 26.3289 20.7582 26.5446 20.4939 26.5446Z" fill="#003CB6" transform="matrix(1, 0, 0, 1, 9.22519, 13.793129)"/>
  <path d="M10.6434 14.3329H30.3686C30.8971 14.3329 31.3296 13.9015 31.3296 13.3742C31.3296 12.8469 30.8971 12.4155 30.3686 12.4155H10.6434C10.1148 12.4155 9.68237 12.8469 9.68237 13.3742C9.67036 13.9015 10.1028 14.3329 10.6434 14.3329Z" fill="#003CB6" transform="matrix(1, 0, 0, 1, 9.22519, 13.793129)"/>
  <path d="M18.74 25.9215V26.8682H22.2598V25.9215C22.2598 25.7657 22.1276 25.6339 21.9715 25.6339H19.0283C18.8721 25.6339 18.74 25.7657 18.74 25.9215Z" fill="#FF4415" transform="matrix(1, 0, 0, 1, 9.22519, 13.793129)"/>
  <path d="M28.6748 12.4274C28.7829 12.4394 33.2997 12.4034 33.8643 12.4034C34.4289 12.4034 34.7052 11.0133 34.7052 11.0133C34.7653 10.7856 35.1017 10.8335 35.1017 11.0612V14.7044L29.7799 15.8069C29.2153 15.9267 28.7589 16.3342 28.5787 16.8735L25.0829 25.7297C24.9868 25.9454 25.0829 26.197 25.2991 26.2929L25.8037 26.5206C26.0199 26.6165 26.2722 26.5206 26.3683 26.3049L30.2485 18.8748C30.4407 18.4554 30.8731 18.1797 31.3416 18.1797C31.3416 18.1797 39.114 19.6298 39.114 16.9693V7.478C39.114 6.47135 38.2971 5.65643 37.288 5.65643H36.2309C35.5581 5.65643 34.9455 6.07587 34.7172 6.72301L33.2397 10.8695C33.1556 10.9773 33.0234 11.0492 32.8913 11.0492H28.7228C28.4826 11.0492 28.2903 11.241 28.2903 11.4807V12.0199C28.3024 12.2357 28.4705 12.4034 28.6748 12.4274Z" fill="#003CB6" transform="matrix(1, 0, 0, 1, 9.22519, 13.793129)"/>
  <path d="M35.3659 4.90146C36.5913 4.90146 37.5883 3.90679 37.5883 2.68442V2.21704C37.5883 0.994674 36.5913 0 35.3659 0C34.1406 0 33.1436 0.994674 33.1436 2.21704V2.68442C33.1436 3.90679 34.1406 4.90146 35.3659 4.90146Z" fill="#003CB6" transform="matrix(1, 0, 0, 1, 9.22519, 13.793129)"/>
  <path d="M8.98559 27C8.73332 27 8.51709 26.7962 8.51709 26.5326V19.462C8.51709 19.2103 8.72131 18.9946 8.98559 18.9946C9.23786 18.9946 9.45409 19.1984 9.45409 19.462V26.5326C9.45409 26.7962 9.24988 27 8.98559 27Z" fill="#003CB6" transform="matrix(1, 0, 0, 1, 9.22519, 13.793129)"/>
  <path d="M4.04835 17.281H0.468506V5.35687C2.45063 5.35687 4.04835 6.95075 4.04835 8.92811V17.281Z" fill="#FF4415" transform="matrix(1, 0, 0, 1, 9.22519, 13.793129)"/>
  <path d="M0.276367 16.6817V19.7376H9.98278V19.5699C9.98278 17.964 8.68539 16.6697 7.07566 16.6697H0.696818H0.276367V16.6817Z" fill="#FF4415" transform="matrix(1, 0, 0, 1, 9.22519, 13.793129)"/>
  <path d="M0.468503 27C0.204219 27 0 26.7963 0 26.5446V5.66843C0 5.41676 0.204219 5.20105 0.468503 5.20105C0.732786 5.20105 0.937006 5.40478 0.937006 5.66843V26.5446C0.924993 26.7963 0.720773 27 0.468503 27Z" fill="#003CB6" transform="matrix(1, 0, 0, 1, 9.22519, 13.793129)"/>
  <path d="M12.6976 12.02V11.4807C12.6976 11.241 12.5054 11.0493 12.2651 11.0493H8.10866C7.97652 11.0493 7.84438 10.9774 7.76029 10.8695L6.27069 6.72305C6.04245 6.0879 5.4418 5.66846 4.76908 5.66846H3.71195C2.70286 5.66846 1.88599 6.48337 1.88599 7.49003V17.0173C1.88599 19.6778 9.65833 18.2277 9.65833 18.2277C10.1268 18.2277 10.5473 18.5033 10.7515 18.9228L14.6317 26.3529C14.7278 26.5686 14.9921 26.6645 15.1963 26.5686L15.7008 26.3409C15.917 26.245 16.0131 25.9814 15.917 25.7776L12.4213 16.9215C12.2411 16.3702 11.7846 15.9627 11.22 15.8549L5.89829 14.7523V11.0732C5.89829 10.8336 6.23465 10.7976 6.29472 11.0253C6.29472 11.0253 6.57101 12.4155 7.13562 12.4155C7.70023 12.4155 12.2171 12.4514 12.3252 12.4394C12.5294 12.4035 12.6976 12.2357 12.6976 12.02Z" fill="#003CB6" transform="matrix(1, 0, 0, 1, 9.22519, 13.793129)"/>
  <path d="M7.85639 2.68442V2.21704C7.85639 0.994674 6.85932 0 5.63401 0C4.40869 0 3.41162 0.994674 3.41162 2.21704V2.68442C3.41162 3.90679 4.40869 4.90146 5.63401 4.90146C6.85932 4.90146 7.85639 3.90679 7.85639 2.68442Z" fill="#003CB6" transform="matrix(1, 0, 0, 1, 9.22519, 13.793129)"/>
  <path d="M40.3153 16.502H38.5854C38.3332 16.502 38.1169 16.2983 38.1169 16.0346C38.1169 15.783 38.3212 15.5673 38.5854 15.5673H40.3153C40.5676 15.5673 40.7838 15.771 40.7838 16.0346C40.7718 16.2983 40.5676 16.502 40.3153 16.502Z" fill="#003CB6" transform="matrix(1, 0, 0, 1, 9.22519, 13.793129)"/>
  <path d="M2.75085 16.502H1.02099C0.768722 16.502 0.55249 16.2983 0.55249 16.0346C0.55249 15.783 0.756709 15.5673 1.02099 15.5673H2.75085C3.00312 15.5673 3.21935 15.771 3.21935 16.0346C3.21935 16.2983 3.00312 16.502 2.75085 16.502Z" fill="#003CB6" transform="matrix(1, 0, 0, 1, 9.22519, 13.793129)"/>
  <path d="M14.2234 12.5953H12.7699C12.5536 12.5953 12.3614 12.4395 12.3134 12.2237L11.6286 8.86822C11.6046 8.7364 11.6407 8.59259 11.7247 8.48473C11.8088 8.37688 11.941 8.31696 12.0851 8.31696H14.8841C15.0283 8.31696 15.1484 8.37688 15.2445 8.48473C15.3286 8.59259 15.3647 8.7364 15.3406 8.86822L14.6799 12.2237C14.6319 12.4395 14.4397 12.5953 14.2234 12.5953ZM13.1423 11.6725H13.839L14.3195 9.23973H12.6497L13.1423 11.6725Z" fill="#FF4415" transform="matrix(1, 0, 0, 1, 9.22519, 13.793129)"/>
  <path d="M12.9139 8.96407C12.6977 8.96407 12.5055 8.82026 12.4574 8.59257L12.1091 6.96274L11.7967 6.92679C11.5445 6.89083 11.3643 6.65115 11.4123 6.39949C11.4484 6.14783 11.6886 5.96806 11.9409 6.016L12.5896 6.11187C12.7818 6.13584 12.938 6.27965 12.974 6.47139L13.3824 8.41281C13.4305 8.66447 13.2743 8.90415 13.022 8.96407C12.986 8.96407 12.95 8.96407 12.9139 8.96407Z" fill="#FF4415" transform="matrix(1, 0, 0, 1, 9.22519, 13.793129)"/>
  <path d="M28.2424 12.5952H26.7888C26.5726 12.5952 26.3804 12.4394 26.3323 12.2237L25.6716 8.86816C25.6476 8.73634 25.6836 8.59253 25.7677 8.48467C25.8518 8.37681 25.9839 8.31689 26.1281 8.31689H28.9271C29.0713 8.31689 29.2034 8.37681 29.2875 8.48467C29.3716 8.59253 29.4076 8.73634 29.3836 8.86816L28.6989 12.2237C28.6508 12.4394 28.4586 12.5952 28.2424 12.5952ZM27.1612 11.6724H27.858L28.3505 9.23966H26.6807L27.1612 11.6724Z" fill="#FF4415" transform="matrix(1, 0, 0, 1, 9.22519, 13.793129)"/>
</svg>