<?xml version="1.0" encoding="utf-8"?>
<svg width="59" height="59" viewBox="0 0 59 59" fill="none" xmlns="http://www.w3.org/2000/svg">
  <defs>
    <clipPath id="clip0_182_196">
      <rect width="34" height="37" fill="white"/>
    </clipPath>
  </defs>
  <circle cx="29.5" cy="29.5" r="29.5" fill="white"/>
  <g clip-path="url(#clip0_182_196)" transform="matrix(1, 0, 0, 1, 13.355724, 11.225241)">
    <path d="M17.6793 6.24429L16.7385 4.85962L15.8107 6.24429C15.7193 6.37743 15.5886 6.47063 15.4318 6.52389L13.8638 7.0032L14.8569 8.33461C14.9483 8.46775 15.0006 8.62752 15.0006 8.78729L14.9614 10.4649L16.5163 9.90568C16.6601 9.85242 16.83 9.85242 16.9737 9.90568L18.5286 10.4649L18.4894 8.78729C18.4894 8.62752 18.5417 8.46775 18.6332 8.33461L19.6263 7.0032L18.0582 6.52389C17.9014 6.47063 17.7708 6.37743 17.6793 6.24429Z" fill="#FF4415"/>
    <path d="M22.3574 13.5005C25.3628 10.3451 25.2713 5.299 22.1744 2.23675C19.0776 -0.825503 14.1253 -0.732303 11.1199 2.42315C8.19289 5.51203 8.19289 10.4116 11.1329 13.5005L11.2767 13.647C12.4135 14.8053 13.89 15.5642 15.4711 15.8172C16.3205 15.9636 17.1829 15.9636 18.0192 15.8172C19.6133 15.5509 21.0768 14.792 22.2136 13.6337L22.3574 13.5005ZM21.3382 7.04315L19.8747 8.98702L19.94 11.4368C19.94 11.6632 19.8355 11.8895 19.6525 12.036C19.5349 12.1158 19.3912 12.1691 19.2475 12.1691C19.1691 12.1691 19.0907 12.1558 19.0123 12.1292L16.7386 11.3037L14.465 12.1158C14.2559 12.1957 14.0077 12.1558 13.8247 12.0226C13.6418 11.8762 13.5372 11.6632 13.5372 11.4235L13.6026 8.97371L12.1522 7.04315C12.0084 6.85676 11.9692 6.60379 12.0346 6.39076C12.113 6.16442 12.2828 5.99134 12.4919 5.92477L14.8047 5.23243L16.1637 3.20868C16.3989 2.88914 16.8562 2.82257 17.1698 3.07554C17.2221 3.11548 17.2613 3.15543 17.3005 3.20868L18.6595 5.23243L20.9723 5.92477C21.1944 5.99134 21.3643 6.16442 21.4296 6.37745C21.5211 6.60379 21.4819 6.85676 21.3382 7.04315Z" fill="#003CB6"/>
    <path d="M10.1528 14.499C9.99604 14.326 9.83924 14.1529 9.6955 13.9798L8.19281 15.4976C8.03601 15.6574 7.97068 15.8837 7.99681 16.1101C8.03601 16.3364 8.17975 16.5228 8.37575 16.6293L10.179 17.548L11.0806 19.3853C11.1851 19.5851 11.3681 19.7315 11.5902 19.7715C11.6294 19.7715 11.6686 19.7848 11.6947 19.7848C11.8777 19.7848 12.0475 19.7182 12.1782 19.5851L14.6086 17.1086C12.9753 16.7092 11.4726 15.8704 10.2704 14.6588L10.1528 14.499Z" fill="#FF4415"/>
    <path d="M25.2843 15.4976L23.7946 13.9798C23.6509 14.1529 23.5072 14.3127 23.3504 14.4857L23.1936 14.6455C21.9914 15.8571 20.4887 16.7092 18.8423 17.0953L21.2858 19.5851C21.4165 19.7182 21.5863 19.7981 21.7693 19.7848C21.8085 19.7848 21.8477 19.7848 21.8738 19.7714C22.0959 19.7315 22.2919 19.5984 22.3834 19.3853L23.285 17.548L25.0883 16.6293C25.2843 16.5228 25.428 16.3231 25.4672 16.1101C25.5195 15.8837 25.4411 15.6574 25.2843 15.4976Z" fill="#FF4415"/>
    <path d="M13.3677 32.2468C13.0933 32.2468 12.8711 32.0205 12.858 31.7409C12.858 31.6477 12.845 30.8488 13.3807 30.2896C13.6029 30.05 14.0079 29.7704 14.6743 29.7704C14.8965 29.7704 15.2362 29.797 15.6544 29.8236C17.4315 29.9435 21.1294 30.2097 22.3577 29.0514C22.6059 28.8118 22.7235 28.5322 22.7235 28.186C22.7235 27.7999 22.619 27.507 22.4099 27.294C21.7174 26.6149 19.9534 26.6815 18.5291 26.7348C17.8235 26.7614 17.144 26.788 16.6082 26.7348C15.3016 26.6016 13.7074 25.9359 12.4138 25.4167C11.6167 25.0838 10.8588 24.7643 10.4537 24.711C9.55213 24.5779 6.32461 24.6711 5.14859 24.711C4.86112 24.7243 4.62592 24.498 4.61285 24.2051C4.59979 23.9122 4.82192 23.6725 5.10939 23.6592C5.27926 23.6459 9.42146 23.4861 10.5975 23.6592C11.1202 23.7391 11.9042 24.0586 12.8188 24.4314C14.0471 24.9374 15.5629 25.5631 16.7258 25.6829C17.1963 25.7362 17.8365 25.7096 18.5029 25.6829C20.2016 25.6164 22.1225 25.5498 23.1286 26.535C23.5468 26.9478 23.7558 27.4937 23.7558 28.1727C23.7558 28.8118 23.5206 29.371 23.0633 29.797C21.5083 31.2749 17.6536 30.9953 15.589 30.8488C15.184 30.8222 14.8703 30.7956 14.6743 30.7956C14.4261 30.7956 14.2431 30.8621 14.1125 30.9953C13.8773 31.2483 13.8773 31.6876 13.8773 31.6876C13.8903 31.9805 13.6682 32.2202 13.3807 32.2202C13.3807 32.2468 13.3807 32.2468 13.3677 32.2468Z" fill="#003CB6"/>
    <path d="M17.5093 36.9999C17.1173 36.9999 16.7253 36.96 16.3202 36.8668C14.3341 36.4407 12.3087 35.5354 10.6753 34.8164C9.30331 34.204 7.99662 33.6181 7.34328 33.6181H5.12191C4.83444 33.6181 4.6123 33.3785 4.6123 33.0989C4.6123 32.8193 4.84751 32.5796 5.12191 32.5796H7.34328C8.21876 32.5796 9.48625 33.1388 11.0935 33.8578C12.766 34.6034 14.6607 35.4422 16.5424 35.8416C17.7053 36.0946 18.7115 36.0014 20.9459 34.8297C22.2134 34.164 25.8982 32.34 28.8644 30.8887C30.6154 30.0233 32.1181 29.2777 32.3663 29.1579C32.8759 28.8783 33.1242 28.1993 32.9282 27.5868C32.6799 26.8412 31.8175 26.5217 30.6415 26.7347C27.3879 27.3339 23.4025 28.2792 23.3633 28.2925C23.0889 28.3591 22.8145 28.186 22.7491 27.9064C22.6838 27.6268 22.8537 27.3472 23.1281 27.2806C23.1673 27.2673 27.1788 26.3087 30.4586 25.7095C32.4839 25.3367 33.5685 26.2554 33.8952 27.254C34.261 28.3457 33.8168 29.5706 32.8498 30.0766C32.5885 30.2097 31.1511 30.9287 29.3218 31.8207C26.5254 33.2054 22.6838 35.096 21.4294 35.7484C19.7568 36.6271 18.6331 36.9999 17.5093 36.9999Z" fill="#003CB6"/>
    <path d="M4.24673 22.7938H0V34.8164H4.24673C4.86088 34.8164 5.35742 34.3105 5.35742 33.6847V23.9121C5.35742 23.2997 4.86088 22.7938 4.24673 22.7938Z" fill="#FF4415"/>
  </g>
</svg>