<?xml version="1.0" encoding="utf-8"?>
<svg width="59" height="59" viewBox="0 0 59 59" fill="none" xmlns="http://www.w3.org/2000/svg">
  <defs>
    <clipPath id="clip0_182_239">
      <rect width="34" height="40" fill="white"/>
    </clipPath>
  </defs>
  <circle cx="29.5" cy="29.5" r="29.5" fill="white"/>
  <g clip-path="url(#clip0_182_239)" transform="matrix(1, 0, 0, 1, 12.815267, 8.28287)">
    <path d="M22.4844 13.002C25.4154 9.95422 25.3373 5.10137 22.302 2.15827C19.2668 -0.784829 14.4338 -0.706346 11.5028 2.3414C8.63688 5.31066 8.63688 10.0327 11.5158 13.002L11.6461 13.1328C12.7664 14.2446 14.1993 14.9771 15.7365 15.2256C16.5572 15.3564 17.4039 15.3564 18.2246 15.2256C19.7748 14.9771 21.2078 14.2315 22.3281 13.1197L22.4844 13.002Z" fill="#FF4415"/>
    <path d="M16.4142 24.5128L13.9521 27.4035C13.8479 27.5343 13.6786 27.6128 13.5092 27.6128C13.4701 27.6128 13.431 27.6128 13.392 27.5997L3.03564 25.3368V36.5206L16.4012 39.8692L16.4142 24.5128Z" fill="#003CB6"/>
    <path d="M16.4011 39.9869C16.388 39.9869 16.375 39.9869 16.375 39.9869L3.00949 36.6383C2.94435 36.6253 2.90527 36.5729 2.90527 36.5075V25.3368C2.90527 25.2976 2.9183 25.2584 2.95738 25.2322C2.98343 25.206 3.02251 25.1929 3.0616 25.206L13.4179 27.4689C13.444 27.482 13.483 27.482 13.5091 27.482C13.6394 27.482 13.7696 27.4297 13.8608 27.3251L16.3229 24.4343C16.362 24.395 16.4141 24.382 16.4662 24.395C16.5183 24.4081 16.5444 24.4604 16.5444 24.5128L16.5313 39.8561C16.5313 39.8954 16.5183 39.9346 16.4792 39.9608C16.4532 39.9869 16.4271 39.9869 16.4011 39.9869ZM3.16581 36.4029L16.2708 39.6992L16.2838 24.8659L14.0432 27.482C13.9129 27.639 13.7175 27.7306 13.5091 27.7306C13.457 27.7306 13.4049 27.7306 13.3528 27.7175L3.15278 25.4938V36.4029H3.16581Z" fill="#003CB6"/>
    <path d="M13.5089 26.4356L17.0001 22.3414L6.86524 20.5756L13.0399 19.4114L12.8185 18.2603L3.51734 20.0131L3.53037 20.1047L0.130371 23.5187L13.5089 26.4356Z" fill="#003CB6"/>
    <path d="M13.509 26.5664C13.496 26.5664 13.496 26.5664 13.483 26.5664L0.104442 23.6364C0.052335 23.6233 0.0132545 23.5971 0.000227672 23.5448C-0.0127991 23.5056 0.000227673 23.4532 0.0262813 23.414L3.37417 20.0523V20.0392C3.36115 19.9738 3.41325 19.9084 3.47839 19.8954L12.7926 18.1426C12.8186 18.1426 12.8577 18.1426 12.8838 18.1687C12.9098 18.1818 12.9359 18.2211 12.9359 18.2472L13.1443 19.3983C13.1573 19.4637 13.1052 19.5291 13.0401 19.5422L7.56881 20.5755L17.0133 22.2237C17.0523 22.2368 17.0914 22.2629 17.1175 22.3022C17.1305 22.3414 17.1175 22.3937 17.0914 22.433L13.6002 26.5271C13.5872 26.5533 13.5481 26.5664 13.509 26.5664ZM0.378005 23.4402L13.4569 26.2917L16.7527 22.433L6.83931 20.7063C6.77417 20.6933 6.73509 20.6409 6.73509 20.5755C6.73509 20.5101 6.77417 20.4578 6.83931 20.4447L12.8838 19.3067L12.7144 18.4042L3.64774 20.1177C3.64774 20.1439 3.63471 20.17 3.60866 20.1831L0.378005 23.4402Z" fill="#003CB6"/>
    <path d="M33.8828 23.5187L30.4828 20.1047L30.4958 20.0131L21.1816 18.2603L20.9732 19.4114L27.1349 20.5756L17 22.3414L20.4912 26.4356L33.8828 23.5187Z" fill="#003CB6"/>
    <path d="M20.4915 26.5664C20.4524 26.5664 20.4133 26.5533 20.4003 26.5271L16.9091 22.433C16.883 22.3937 16.87 22.3545 16.883 22.3022C16.8961 22.2629 16.9351 22.2237 16.9873 22.2237L26.4317 20.5755L20.9604 19.5422C20.8953 19.5291 20.8432 19.4637 20.8562 19.3983L21.0646 18.2472C21.0646 18.208 21.0907 18.1818 21.1168 18.1687C21.1428 18.1557 21.1819 18.1426 21.2079 18.1426L30.5221 19.8954C30.5873 19.9084 30.6394 19.9738 30.6263 20.0392V20.0523L33.9742 23.414C34.0133 23.4532 34.0133 23.4925 34.0003 23.5448C33.9873 23.584 33.9482 23.6233 33.9091 23.6364L20.5306 26.5533C20.5175 26.5664 20.5045 26.5664 20.4915 26.5664ZM17.2478 22.433L20.5436 26.2917L33.6225 23.4402L30.3919 20.1962C30.3788 20.1831 30.3658 20.157 30.3528 20.1308L21.2861 18.4173L21.1168 19.3198L27.1612 20.4578C27.2263 20.4709 27.2654 20.5232 27.2654 20.5886C27.2654 20.654 27.2263 20.7063 27.1612 20.7194L17.2478 22.433Z" fill="#003CB6"/>
    <path d="M30.9651 25.3368L20.6088 27.5997C20.5697 27.6128 20.5307 27.6128 20.4916 27.6128C20.3222 27.6128 20.1659 27.5343 20.0487 27.4035L17.5736 24.5128L17.5605 39.8823L30.9651 36.1805V25.3368Z" fill="#003CB6"/>
    <path d="M17.5604 40C17.5344 40 17.5083 39.9869 17.4823 39.9738C17.4562 39.9476 17.4302 39.9084 17.4302 39.8692L17.4432 24.4996C17.4432 24.4473 17.4823 24.395 17.5214 24.3819C17.5735 24.3688 17.6256 24.3819 17.6647 24.4212L20.1398 27.3119C20.2309 27.4166 20.3482 27.4689 20.4915 27.4689C20.5175 27.4689 20.5566 27.4689 20.5827 27.4558L30.939 25.1929C30.9781 25.1798 31.0171 25.1929 31.0432 25.2191C31.0693 25.2452 31.0953 25.2845 31.0953 25.3237V36.1543C31.0953 36.2066 31.0562 36.259 31.0041 36.272L17.5995 39.9738C17.5865 40 17.5735 40 17.5604 40ZM17.7037 24.8528L17.6907 39.7122L30.8348 36.0758V25.4938L20.6348 27.7174C20.5827 27.7305 20.5306 27.7305 20.4785 27.7305C20.27 27.7305 20.0746 27.639 19.9444 27.482L17.7037 24.8528Z" fill="#003CB6"/>
    <path d="M13.8578 6.27C14.1911 6.27 14.4595 6.37 14.6628 6.57C14.8695 6.77 14.9728 7.06667 14.9728 7.46V9H14.1928V7.58C14.1928 7.36667 14.1461 7.20833 14.0528 7.105C13.9595 6.99833 13.8245 6.945 13.6478 6.945C13.4511 6.945 13.2945 7.00667 13.1778 7.13C13.0611 7.25 13.0028 7.43 13.0028 7.67V9H12.2228V6.31H12.9678V6.625C13.0711 6.51167 13.1995 6.425 13.3528 6.365C13.5061 6.30167 13.6745 6.27 13.8578 6.27ZM18.3441 7.665C18.3441 7.675 18.3391 7.745 18.3291 7.875H16.2941C16.3308 8.04167 16.4175 8.17333 16.5541 8.27C16.6908 8.36667 16.8608 8.415 17.0641 8.415C17.2041 8.415 17.3275 8.395 17.4341 8.355C17.5441 8.31167 17.6458 8.245 17.7391 8.155L18.1541 8.605C17.9008 8.895 17.5308 9.04 17.0441 9.04C16.7408 9.04 16.4725 8.98167 16.2391 8.865C16.0058 8.745 15.8258 8.58 15.6991 8.37C15.5725 8.16 15.5091 7.92167 15.5091 7.655C15.5091 7.39167 15.5708 7.155 15.6941 6.945C15.8208 6.73167 15.9925 6.56667 16.2091 6.45C16.4291 6.33 16.6741 6.27 16.9441 6.27C17.2075 6.27 17.4458 6.32667 17.6591 6.44C17.8725 6.55333 18.0391 6.71667 18.1591 6.93C18.2825 7.14 18.3441 7.385 18.3441 7.665ZM16.9491 6.86C16.7725 6.86 16.6241 6.91 16.5041 7.01C16.3841 7.11 16.3108 7.24667 16.2841 7.42H17.6091C17.5825 7.25 17.5091 7.115 17.3891 7.015C17.2691 6.91167 17.1225 6.86 16.9491 6.86ZM23.1346 6.31L22.1596 9H21.4096L20.8046 7.33L20.1796 9H19.4296L18.4596 6.31H19.1946L19.8296 8.13L20.4896 6.31H21.1496L21.7896 8.13L22.4446 6.31H23.1346Z" fill="white"/>
  </g>
</svg>