<?xml version="1.0" encoding="utf-8"?>
<svg width="59" height="59" viewBox="0 0 59 59" fill="none" xmlns="http://www.w3.org/2000/svg">
  <circle cx="29.5" cy="29.5" r="29.5" fill="white"/>
  <path d="M 21.928 34.503 C 15.046 34.503 9.455 28.899 9.455 22.018 C 9.455 15.136 15.046 9.545 21.928 9.545 C 28.809 9.545 34.4 15.136 34.4 22.018 C 34.4 23.335 34.2 24.627 33.788 25.865 C 33.695 26.144 33.402 26.29 33.136 26.197 C 32.856 26.104 32.71 25.811 32.803 25.545 C 33.176 24.414 33.362 23.242 33.362 22.031 C 33.362 15.721 28.237 10.597 21.928 10.597 C 15.618 10.597 10.493 15.721 10.493 22.018 C 10.493 28.327 15.618 33.452 21.928 33.452 C 23.126 33.452 24.31 33.266 25.442 32.906 C 25.708 32.813 26.014 32.973 26.094 33.239 C 26.187 33.518 26.027 33.811 25.761 33.891 C 24.523 34.29 23.232 34.503 21.928 34.503 Z" fill="#FF4415"/>
  <path d="M 41.801 43.076 L 40.177 44.633 L 38.526 43.142 L 36.996 44.633 L 35.505 43.169 L 33.881 44.633 L 32.31 43.076 L 32.31 30.111 L 41.801 30.111 L 41.801 43.076 Z" fill="#FF4415"/>
  <path d="M 36.996 45.152 C 36.863 45.152 36.73 45.099 36.636 45.006 L 35.492 43.888 L 34.227 45.019 C 34.027 45.206 33.708 45.192 33.508 45.006 L 31.938 43.462 C 31.844 43.369 31.778 43.236 31.778 43.089 L 31.778 30.124 C 31.778 29.831 32.017 29.605 32.297 29.605 L 41.788 29.605 C 42.081 29.605 42.307 29.845 42.307 30.124 L 42.307 43.089 C 42.307 43.236 42.254 43.369 42.147 43.462 L 40.523 45.006 C 40.324 45.192 40.017 45.192 39.818 45.019 L 38.54 43.861 L 37.355 45.006 C 37.262 45.099 37.129 45.152 36.996 45.152 Z M 38.527 42.623 C 38.646 42.623 38.779 42.663 38.873 42.756 L 40.164 43.914 L 41.282 42.85 L 41.282 30.63 L 32.829 30.63 L 32.829 42.863 L 33.894 43.914 L 35.159 42.783 C 35.359 42.597 35.678 42.61 35.864 42.796 L 36.996 43.901 L 38.167 42.77 C 38.274 42.676 38.393 42.623 38.527 42.623 Z" fill="#FF4415"/>
  <path d="M 39.737 33.039 L 34.373 33.039 C 34.08 33.039 33.853 32.8 33.853 32.52 C 33.853 32.241 34.093 32.001 34.373 32.001 L 39.737 32.001 C 40.03 32.001 40.256 32.241 40.256 32.52 C 40.256 32.8 40.017 33.039 39.737 33.039 Z" fill="#003CB6"/>
  <path d="M 39.738 35.875 L 34.373 35.875 C 34.08 35.875 33.854 35.635 33.854 35.355 C 33.854 35.076 34.08 34.836 34.373 34.836 L 39.738 34.836 C 40.03 34.836 40.257 35.076 40.257 35.355 C 40.257 35.635 40.017 35.875 39.738 35.875 Z" fill="#003CB6"/>
  <path d="M 39.738 38.71 L 34.373 38.71 C 34.08 38.71 33.854 38.47 33.854 38.191 C 33.854 37.911 34.094 37.672 34.373 37.672 L 39.738 37.672 C 40.03 37.672 40.257 37.911 40.257 38.191 C 40.257 38.47 40.017 38.71 39.738 38.71 Z" fill="#003CB6"/>
  <path d="M 36.942 41.545 L 34.36 41.545 C 34.067 41.545 33.841 41.306 33.841 41.026 C 33.841 40.746 34.08 40.507 34.36 40.507 L 36.942 40.507 C 37.235 40.507 37.461 40.746 37.461 41.026 C 37.461 41.306 37.235 41.545 36.942 41.545 Z" fill="#003CB6"/>
  <path d="M 26.919 25.851 L 18.547 25.851 C 18.307 25.851 18.107 25.691 18.041 25.465 L 16.377 19.196 C 16.337 19.036 16.364 18.876 16.47 18.743 C 16.563 18.61 16.71 18.53 16.883 18.543 L 29.102 18.597 C 29.275 18.597 29.422 18.676 29.528 18.823 C 29.622 18.956 29.648 19.142 29.595 19.289 L 27.412 25.505 C 27.345 25.718 27.146 25.851 26.919 25.851 Z M 18.959 24.813 L 26.56 24.813 L 28.37 19.635 L 17.562 19.582 L 18.959 24.813 Z" fill="#003CB6"/>
  <path fill-rule="evenodd" clip-rule="evenodd" d="M 29.102 19.116 L 26.919 25.332 L 18.56 25.332 L 16.883 19.062 L 29.102 19.116 Z" fill="#003CB6"/>
  <path d="M 16.883 19.582 C 16.656 19.582 16.443 19.422 16.377 19.196 L 15.951 17.585 L 14.22 17.585 C 13.927 17.585 13.701 17.345 13.701 17.066 C 13.701 16.786 13.941 16.547 14.22 16.547 L 16.35 16.547 C 16.59 16.547 16.789 16.706 16.856 16.933 L 17.388 18.929 C 17.468 19.209 17.295 19.488 17.016 19.568 C 16.976 19.582 16.922 19.582 16.883 19.582 Z" fill="#003CB6"/>
  <path d="M 20.556 28.274 C 21.019 28.274 21.395 27.898 21.395 27.435 C 21.395 26.972 21.019 26.597 20.556 26.597 C 20.093 26.597 19.718 26.972 19.718 27.435 C 19.718 27.898 20.093 28.274 20.556 28.274 Z" fill="#003CB6"/>
  <path d="M 24.803 28.274 C 25.266 28.274 25.642 27.898 25.642 27.435 C 25.642 26.972 25.266 26.597 24.803 26.597 C 24.34 26.597 23.964 26.972 23.964 27.435 C 23.964 27.898 24.34 28.274 24.803 28.274 Z" fill="#003CB6"/>
  <path d="M 36.982 49.545 C 30.1 49.545 24.51 43.954 24.51 37.073 C 24.51 30.191 30.1 24.6 36.982 24.6 C 43.864 24.6 49.455 30.191 49.455 37.073 C 49.455 43.954 43.864 49.545 36.982 49.545 Z M 36.982 25.638 C 30.673 25.638 25.548 30.763 25.548 37.073 C 25.548 43.382 30.673 48.507 36.982 48.507 C 43.292 48.507 48.417 43.382 48.417 37.073 C 48.417 30.763 43.292 25.638 36.982 25.638 Z" fill="#003CB6"/>
</svg>