<?xml version="1.0" encoding="utf-8"?>
<svg width="59" height="59" viewBox="0 0 59 59" fill="none" xmlns="http://www.w3.org/2000/svg">
  <circle cx="29.5" cy="29.5" r="29.5" fill="white"/>
  <path d="M28.1101 26.48H26.9301C26.7401 26.48 26.5801 26.32 26.5801 26.13C26.5801 25.94 26.7401 25.78 26.9301 25.78H28.1101C28.5201 25.78 28.8501 25.45 28.8501 25.04V1.45C28.8501 1.03 28.5201 0.71 28.1101 0.71H4.52008C4.10008 0.71 3.78008 1.04 3.78008 1.45V2.4C3.78008 2.59 3.62008 2.75 3.43008 2.75C3.24008 2.75 3.08008 2.59 3.08008 2.4V1.45C3.08008 0.65 3.73008 0 4.52008 0H28.1101C28.9101 0 29.5601 0.65 29.5601 1.45V25.04C29.5601 25.83 28.9101 26.48 28.1101 26.48Z" fill="#003CB6" transform="matrix(1, 0, 0, 1, 15.035217, 14.789961)"/>
  <path d="M25.8 29.33H1.48C0.66 29.33 0 28.66 0 27.85V3.52999C0 2.70999 0.66 2.04999 1.48 2.04999H25.8C26.62 2.04999 27.28 2.70999 27.28 3.52999V27.85C27.28 28.66 26.62 29.33 25.8 29.33ZM1.48 2.74999C1.05 2.74999 0.7 3.09999 0.7 3.52999V27.85C0.7 28.28 1.05 28.63 1.48 28.63H25.8C26.23 28.63 26.58 28.28 26.58 27.85V3.52999C26.58 3.09999 26.23 2.74999 25.8 2.74999H1.48Z" fill="#FF4415" transform="matrix(1, 0, 0, 1, 15.035217, 14.789961)"/>
  <path d="M22.6595 22.49H4.61953C4.42953 22.49 4.26953 22.33 4.26953 22.14C4.26953 21.95 4.42953 21.79 4.61953 21.79H22.6495C22.8395 21.79 22.9995 21.95 22.9995 22.14C23.0095 22.33 22.8495 22.49 22.6595 22.49Z" fill="#003CB6" transform="matrix(1, 0, 0, 1, 15.035217, 14.789961)"/>
  <path d="M15.5595 25.87H4.61953C4.42953 25.87 4.26953 25.71 4.26953 25.52C4.26953 25.33 4.42953 25.17 4.61953 25.17H15.5495C15.7395 25.17 15.8995 25.33 15.8995 25.52C15.9095 25.71 15.7495 25.87 15.5595 25.87Z" fill="#003CB6" transform="matrix(1, 0, 0, 1, 15.035217, 14.789961)"/>
  <path d="M9.90035 10.98H6.18035C4.89035 10.98 3.86035 12.02 3.86035 13.31V15.67C3.86035 16.21 4.25035 16.68 4.79035 16.74C5.02035 16.76 5.23035 16.71 5.40035 16.6V17.8H10.6804V16.6C10.8604 16.71 11.0604 16.76 11.2904 16.74C11.8304 16.69 12.2204 16.22 12.2204 15.67V13.31C12.2204 12.02 11.1904 10.98 9.90035 10.98Z" fill="#003CB6" transform="matrix(1, 0, 0, 1, 15.035217, 14.789961)"/>
  <path d="M8.04055 10.39C9.27214 10.39 10.2705 9.39159 10.2705 8.15999C10.2705 6.9284 9.27214 5.92999 8.04055 5.92999C6.80895 5.92999 5.81055 6.9284 5.81055 8.15999C5.81055 9.39159 6.80895 10.39 8.04055 10.39Z" fill="#003CB6" transform="matrix(1, 0, 0, 1, 15.035217, 14.789961)"/>
  <path d="M21.7298 6.97998H20.5998L20.2598 5.90998C20.1598 5.61998 19.8898 5.41998 19.5898 5.41998C19.2898 5.41998 19.0198 5.61998 18.9198 5.90998L18.5798 6.97998H17.4598C17.1498 6.97998 16.8898 7.17998 16.7898 7.46998C16.6898 7.75998 16.7998 8.06998 17.0398 8.25998L17.9498 8.91998L17.5998 9.96998C17.5098 10.26 17.6098 10.58 17.8598 10.76C17.9798 10.85 18.1298 10.89 18.2698 10.89C18.4098 10.89 18.5598 10.85 18.6898 10.76L19.5998 10.1L20.5098 10.76C20.7598 10.94 21.0898 10.94 21.3398 10.76C21.5898 10.58 21.6898 10.27 21.5998 9.96998L21.2298 8.89998L22.1398 8.23998C22.3898 8.05998 22.4898 7.74998 22.3898 7.44998C22.2998 7.16998 22.0298 6.97998 21.7298 6.97998Z" fill="#FF4415" transform="matrix(1, 0, 0, 1, 15.035217, 14.789961)"/>
  <path d="M21.5596 14.29H20.4396L20.0996 13.22C19.9996 12.93 19.7296 12.73 19.4296 12.73C19.1296 12.73 18.8596 12.93 18.7596 13.22L18.4196 14.29H17.2996C16.9896 14.29 16.7296 14.49 16.6296 14.78C16.5296 15.07 16.6396 15.38 16.8796 15.57L17.7897 16.23L17.4396 17.3C17.3496 17.59 17.4497 17.91 17.6997 18.09C17.8197 18.18 17.9696 18.22 18.1096 18.22C18.2496 18.22 18.3996 18.18 18.5296 18.09L19.4396 17.43L20.3496 18.09C20.5996 18.27 20.9296 18.27 21.1796 18.09C21.4296 17.91 21.5296 17.6 21.4396 17.3L21.0896 16.23L21.9996 15.57C22.2496 15.39 22.3496 15.08 22.2496 14.78C22.1396 14.49 21.8696 14.29 21.5596 14.29Z" fill="#FF4415" transform="matrix(1, 0, 0, 1, 15.035217, 14.789961)"/>
</svg>