<?xml version="1.0" encoding="utf-8"?>
<svg width="59" height="59" viewBox="0 0 59 59" fill="none" xmlns="http://www.w3.org/2000/svg">
  <circle cx="29.5" cy="29.5" r="29.5" fill="white"/>
  <path d="M4.34025 14.89C3.96025 14.89 3.61025 14.7 3.40025 14.38L0.190247 9.52C-0.0397527 9.17 -0.0597527 8.72 0.140247 8.35C0.340247 7.98 0.710247 7.76 1.13025 7.76H1.61025C1.82025 7.76 1.98025 7.59 1.98025 7.38V1.13C1.98025 0.51 2.48025 0 3.10025 0H29.3402C29.9602 0 30.4602 0.51 30.4602 1.13V7.37C30.4602 8 29.9602 8.5 29.3402 8.5H26.9202C26.3002 8.5 25.8002 7.99 25.8002 7.37V4.72C25.8002 4.62 25.7602 4.52 25.6902 4.45C25.6202 4.38 25.5302 4.34 25.4302 4.34L6.92025 4.39C6.71025 4.39 6.55025 4.56 6.55025 4.77V7.41C6.55025 7.62 6.72025 7.79 6.92025 7.79H7.46025C7.88025 7.79 8.25025 8.01 8.45025 8.38C8.65025 8.75 8.63025 9.2 8.40025 9.55L5.27025 14.37C5.07025 14.7 4.72025 14.89 4.34025 14.89ZM1.13025 8.51C0.930247 8.51 0.840247 8.65 0.800247 8.71C0.730247 8.83 0.740247 8.98 0.820247 9.1L4.03025 13.97C4.10025 14.08 4.21025 14.14 4.34025 14.14C4.47025 14.14 4.58025 14.08 4.65025 13.97L7.78025 9.15C7.86025 9.03 7.86025 8.88 7.80025 8.75C7.77025 8.69 7.67025 8.55 7.47025 8.55H6.93025C6.31025 8.55 5.81025 8.04 5.81025 7.42V4.77C5.81025 4.15 6.31025 3.64 6.93025 3.64L25.4302 3.59C25.7302 3.59 26.0102 3.71 26.2202 3.92C26.4402 4.13 26.5502 4.42 26.5502 4.73V7.38C26.5502 7.59 26.7202 7.76 26.9202 7.76H29.3402C29.5502 7.76 29.7102 7.59 29.7102 7.38V1.13C29.7102 0.92 29.5402 0.75 29.3402 0.75H3.10025C2.89025 0.75 2.73025 0.92 2.73025 1.13V7.37C2.73025 8 2.23025 8.5 1.61025 8.5H1.13025V8.51Z" fill="#FF4415" transform="matrix(1, 0, 0, 1, 13.259664, 10.959732)"/>
  <path d="M29.4605 36.45H3.19055C2.57055 36.45 2.06055 35.94 2.06055 35.32V29.08C2.06055 28.45 2.56055 27.95 3.19055 27.95H5.62055C6.24055 27.95 6.74055 28.46 6.74055 29.08V31.73C6.74055 31.83 6.78055 31.93 6.85055 32C6.92055 32.07 7.01055 32.11 7.11055 32.11L25.6305 32.06C25.8405 32.06 26.0005 31.89 26.0005 31.68V29.04C26.0005 28.83 25.8305 28.66 25.6305 28.66H25.0905C24.6705 28.66 24.3005 28.44 24.1005 28.07C23.9005 27.7 23.9205 27.26 24.1505 26.9L27.2905 22.08C27.5005 21.76 27.8505 21.57 28.2305 21.57C28.5905 21.56 28.9605 21.76 29.1705 22.08L32.3805 26.95C32.6105 27.3 32.6305 27.75 32.4305 28.12C32.2305 28.49 31.8505 28.71 31.4405 28.71H30.9605C30.7505 28.71 30.5905 28.88 30.5905 29.09V35.33C30.5805 35.94 30.0805 36.45 29.4605 36.45ZM3.19055 28.69C2.98055 28.69 2.82055 28.86 2.82055 29.07V35.31C2.82055 35.52 2.99055 35.69 3.19055 35.69H29.4605C29.6705 35.69 29.8305 35.52 29.8305 35.31V29.07C29.8305 28.44 30.3305 27.94 30.9505 27.94H31.4305C31.6305 27.94 31.7205 27.8 31.7605 27.74C31.8305 27.61 31.8205 27.46 31.7405 27.34L28.5305 22.47C28.4605 22.36 28.3505 22.3 28.2205 22.3C28.0905 22.3 27.9805 22.36 27.9105 22.47L24.7705 27.29C24.6905 27.41 24.6905 27.56 24.7505 27.69C24.7805 27.75 24.8805 27.89 25.0805 27.89H25.6205C26.2405 27.89 26.7405 28.4 26.7405 29.02V31.66C26.7405 32.28 26.2405 32.79 25.6205 32.79L7.12055 32.86C6.82055 32.86 6.54055 32.74 6.33055 32.53C6.11055 32.32 6.00055 32.03 6.00055 31.72V29.07C6.00055 28.86 5.83055 28.69 5.63055 28.69H3.19055Z" fill="#FF4415" transform="matrix(1, 0, 0, 1, 13.259664, 10.959732)"/>
  <path d="M6.23025 20.47H5.25025L4.95025 19.53C4.87025 19.27 4.63025 19.1 4.36025 19.1C4.09025 19.1 3.86025 19.27 3.77025 19.53L3.47025 20.47H2.48025C2.21025 20.47 1.98025 20.64 1.89025 20.9C1.81025 21.16 1.90025 21.43 2.11025 21.59L2.91025 22.17L2.60025 23.11C2.52025 23.37 2.61025 23.64 2.83025 23.8C2.94025 23.88 3.06025 23.92 3.19025 23.92C3.32025 23.92 3.45025 23.88 3.56025 23.8L4.36025 23.22L5.16025 23.8C5.38025 23.96 5.67025 23.96 5.89025 23.8C6.11025 23.64 6.20025 23.37 6.12025 23.11L5.80025 22.17L6.60025 21.59C6.82025 21.43 6.91025 21.16 6.82025 20.9C6.74025 20.65 6.50025 20.47 6.23025 20.47Z" fill="#FF4415" transform="matrix(1, 0, 0, 1, 13.259664, 10.959732)"/>
  <path d="M30.1104 14.22H29.1204L28.8204 13.28C28.7404 13.02 28.5004 12.85 28.2304 12.85C27.9604 12.85 27.7304 13.02 27.6404 13.28L27.3404 14.22H26.3504C26.0804 14.22 25.8504 14.39 25.7604 14.65C25.6804 14.91 25.7704 15.18 25.9804 15.34L26.7804 15.92L26.4704 16.86C26.3904 17.12 26.4804 17.39 26.7004 17.55C26.8104 17.63 26.9304 17.67 27.0604 17.67C27.1904 17.67 27.3204 17.63 27.4304 17.55L28.2304 16.97L29.0304 17.55C29.2504 17.71 29.5404 17.71 29.7604 17.55C29.9804 17.39 30.0704 17.12 29.9904 16.86L29.6804 15.92L30.4804 15.34C30.7004 15.18 30.7904 14.91 30.7004 14.65C30.6204 14.39 30.3804 14.22 30.1104 14.22Z" fill="#FF4415" transform="matrix(1, 0, 0, 1, 13.259664, 10.959732)"/>
  <path d="M18.0998 15.37H14.0598C12.6598 15.37 11.5498 16.5 11.5498 17.9V20.46C11.5498 21.05 11.9698 21.56 12.5598 21.62C12.8098 21.64 13.0298 21.59 13.2298 21.47V26.56H18.9498V21.48C19.1398 21.6 19.3598 21.65 19.6198 21.63C20.2098 21.57 20.6298 21.06 20.6298 20.47V17.9C20.6098 16.5 19.4998 15.37 18.0998 15.37Z" fill="#003CB6" transform="matrix(1, 0, 0, 1, 13.259664, 10.959732)"/>
  <path d="M16.0799 14.72C17.4109 14.72 18.4899 13.641 18.4899 12.31C18.4899 10.979 17.4109 9.90002 16.0799 9.90002C14.7489 9.90002 13.6699 10.979 13.6699 12.31C13.6699 13.641 14.7489 14.72 16.0799 14.72Z" fill="#003CB6" transform="matrix(1, 0, 0, 1, 13.259664, 10.959732)"/>
</svg>