<svg width="109" height="113" viewBox="0 0 109 113" fill="none" xmlns="http://www.w3.org/2000/svg">
<path fill-rule="evenodd" clip-rule="evenodd" d="M35.3963 10.5642C35.8829 11.0569 36.1566 11.7137 36.1505 12.4071C36.1505 13.1065 35.8768 13.7572 35.3842 14.2499C34.9098 14.7364 34.2347 15.0101 33.5535 15.0101C32.8602 15.004 32.1912 14.7303 31.7168 14.2438L31.6742 14.2012C31.212 13.7147 30.9565 13.0761 30.9565 12.401C30.9626 11.7016 31.2302 11.0508 31.7229 10.5642C32.2216 10.0716 32.8723 9.79793 33.5535 9.79793C33.5596 9.79793 33.5596 9.79793 33.5596 9.79793C34.2529 9.80401 34.9159 10.0716 35.3963 10.5642Z" fill="#003CB6"/>
<path fill-rule="evenodd" clip-rule="evenodd" d="M39.7085 12.2611V11.884L39.6902 11.8719V11.6772L39.6659 11.659V11.5252L39.6476 11.5069V11.4522L39.6233 11.3549V11.3427C39.4044 10.0777 38.8083 8.94647 37.9265 8.05243C37.1966 7.3226 36.2783 6.77523 35.2443 6.4833L35.2261 6.47114H35.1835V6.45897H35.1592V6.44681C34.77 6.3495 34.3625 6.2826 33.9793 6.25219H33.1583C31.6317 6.36775 30.2329 7.01851 29.1989 8.02202C28.6637 8.59372 28.2076 9.24448 27.9096 9.98039L27.8853 9.98647V10.023L27.8609 10.029C27.6724 10.5034 27.5386 11.0082 27.4717 11.513V11.5252L27.4534 11.586V11.6833L27.4291 11.7077V11.9144L27.4109 11.9205V12.1942L27.4048 12.2124V12.8571L27.4291 12.8815V13.0213L27.4474 13.0943V13.2464L27.4717 13.3011V13.368L27.4899 13.3863V13.5079L27.5143 13.5383V13.5687L27.5325 13.6113V13.6964L27.5568 13.7633V13.7755L27.5751 13.8302V13.9154L27.5994 13.9701V13.9884L27.6177 14.0309V14.0553L27.642 14.0978V14.1282L27.6602 14.1647V14.2073L27.6846 14.2256V14.2803L27.7028 14.2925L27.7271 14.3472V14.4202L27.7454 14.4749L27.7697 14.4871L27.7879 14.5479L27.8123 14.6148V14.627L27.8305 14.6695V14.6878L27.8548 14.7304L27.8792 14.7668V14.7851L27.8974 14.8277L27.9157 14.852L27.94 14.9067V14.9189L27.9643 14.9615V14.9797L27.9826 15.0344V15.0466L28.0251 15.1013L28.0495 15.1622L28.092 15.2169V15.2412L28.1103 15.2716L28.1346 15.296V15.3385L28.1529 15.3568L28.1772 15.3872L28.1954 15.4359V15.4541L28.2198 15.4845L28.2441 15.5088L28.2623 15.5514L28.2806 15.5636L28.3049 15.6183V15.6244L28.3475 15.6791L28.3657 15.7339V15.746L28.4144 15.7886V15.8008L28.457 15.8433V15.8616L28.4995 15.8981V15.9163L28.5178 15.9528L28.5421 15.9832L28.5603 16.0015L28.5847 16.038L28.6029 16.0562L28.6272 16.0988L28.6455 16.1109L28.6698 16.1535L28.6941 16.1657L28.7124 16.2083L28.7367 16.2204L28.755 16.2752L28.7975 16.3177L28.8219 16.3299L28.8401 16.3725L28.8644 16.3907V16.4029L28.8827 16.4272H28.907V16.4455L28.9253 16.4576L28.9496 16.4759V16.488L28.9678 16.5002V16.5123L28.9922 16.5245V16.5367H29.0104L29.0347 16.5671V16.5793L29.0591 16.5975L29.0773 16.6218L29.1016 16.634V16.6522L29.1442 16.6766V16.6948H29.1625L29.1868 16.7435C29.7828 17.3334 30.4944 17.8078 31.285 18.1241L31.3337 18.1423L31.3519 18.1545L31.5648 18.2274H31.5891L31.656 18.2518V18.2639L31.7169 18.27L31.8446 18.3187H31.8689L31.9115 18.3369H31.9358L31.9966 18.3612H32.0209L32.0635 18.3673H32.0818L32.1243 18.3917H32.1487L32.1912 18.4038L32.2338 18.4221H32.2581L32.3859 18.4403L32.4041 18.4525L32.471 18.4646L32.5318 18.4768V18.4829H32.6231L32.6839 18.495L32.7508 18.5072H32.769L32.8359 18.5194H32.9028L32.9211 18.5315H32.9636L32.988 18.5376H33.0731L33.1157 18.5437L33.1583 18.5498H33.2677L33.3103 18.562H33.8212L33.8455 18.5559H33.9307L33.955 18.5437H34.1253L34.1496 18.5315H34.1679L34.2104 18.5194H34.2956L34.3199 18.5133H34.3625L34.3868 18.5011H34.4476L34.4719 18.489L34.5571 18.4768L34.8612 18.4281L34.922 18.4038H34.9463L35.0072 18.3856L35.0923 18.3734L35.141 18.3612L35.1592 18.3491H35.1774L35.2018 18.343L35.2261 18.3308L35.3721 18.2883H35.3964L35.4572 18.2639L35.5241 18.2457L35.5484 18.2335L35.591 18.2214V18.2092H35.6093L35.6518 18.191L35.7187 18.1788L35.7431 18.1666L35.8039 18.1362L35.8708 18.118L35.9559 18.0815L35.9985 18.0632L36.0228 18.0511L36.1506 17.9963V17.9842L36.1688 17.9781L36.2114 17.9659L36.2357 17.9538L36.406 17.8565H36.4303L36.4486 17.8382L36.4972 17.826L36.558 17.7835L36.6249 17.7531C36.7283 17.6862 36.8135 17.6253 36.923 17.5584L36.9473 17.5463L36.9899 17.5159L37.1176 17.4307L37.1601 17.4064L37.1845 17.3881L37.2027 17.3638L37.2453 17.3456L37.2696 17.3212L37.2879 17.303L37.3122 17.2787L37.3548 17.2543L37.3791 17.2361L37.3973 17.2118L37.4217 17.2057L37.4399 17.1935L37.4642 17.1631L37.4825 17.151L37.5068 17.1266L37.5251 17.1145L37.5494 17.1084L37.5676 17.0719L37.592 17.0658V17.0536L37.6163 17.0293L37.6345 17.0232L37.6589 17.0111L37.6771 16.9867L37.7014 16.9685V16.9563L37.7197 16.932L37.744 16.9138L37.7866 16.8894L37.8109 16.8712V16.859L37.8292 16.8347L37.8717 16.7921L37.8961 16.7617C38.4738 16.2143 38.9057 15.5514 39.228 14.8094V14.7973L39.2523 14.7425L39.2949 14.6695L39.3375 14.5418L39.3618 14.4749V14.4628L39.38 14.3898L39.4044 14.3472L39.4226 14.3229V14.2742L39.4469 14.2499V14.2073L39.4713 14.1769V14.1343L39.4895 14.0978V14.0674L39.5138 14.037V13.9884L39.5321 13.9458V13.8485L39.5564 13.8059V13.7816L39.5747 13.7268V13.7147L39.599 13.6539V13.5748L39.6233 13.5018L39.6416 13.4288V13.3437L39.6659 13.2889V13.1977L39.6841 13.1491V12.9605L39.7085 12.924V12.5591L39.7328 12.4983V12.2794L39.7085 12.2611ZM35.816 14.6756C35.2261 15.2716 34.405 15.6122 33.5536 15.6122C33.5536 15.6122 33.5536 15.6122 33.5475 15.6122C32.696 15.6061 31.875 15.2656 31.285 14.6635L31.2425 14.6209C30.6647 14.0127 30.3484 13.222 30.3484 12.3888C30.3545 11.5252 30.689 10.7224 31.2972 10.1264C31.9054 9.51817 32.7204 9.19583 33.5657 9.18366C34.4172 9.18975 35.2383 9.53033 35.8282 10.1324C36.4303 10.7345 36.7648 11.5434 36.7587 12.4071C36.7587 13.2646 36.4242 14.0674 35.816 14.6756Z" fill="#003CB6"/>
<path fill-rule="evenodd" clip-rule="evenodd" d="M33.5376 21.3615L26.2576 48.2496C27.0361 48.7483 27.8267 49.1801 28.6843 49.5268C29.4141 49.8065 30.1683 50.0316 30.9407 50.1836V49.393C30.9407 48.9186 31.3299 48.5415 31.8043 48.5415L35.6055 48.5537C36.0799 48.5537 36.4691 48.9307 36.463 49.3991V50.135C37.1503 49.9829 37.8193 49.77 38.464 49.5146C39.2607 49.2044 40.0149 48.8213 40.7021 48.3712L33.5376 21.3615ZM26.5009 15.8391L26.4826 15.8148C26.3975 15.6263 26.3063 15.4317 26.2211 15.237L26.2029 15.1641V15.1458L26.1785 15.0911L26.1603 15.0485L26.136 14.9634L26.1177 14.939L26.0934 14.8782V14.8539L26.0751 14.7809L26.0082 14.5984V14.5498L25.99 14.5072V14.4768L25.9657 14.416V14.4038L25.9474 14.3247V14.3187L25.9231 14.2274L25.9049 14.1666V14.1362L25.8805 14.0389V14.0146L25.8623 13.9416V13.9294L25.838 13.8564V13.8443L25.8197 13.7652V13.6922L25.7954 13.6618V13.5645L25.7771 13.5341V13.455L25.7528 13.3699V13.2726L25.7346 13.2118V13.0476L25.7102 12.9867V12.6401L25.692 12.5732V12.19L25.7102 12.1778V12.1109L25.7163 12.0927V11.7886L25.7346 11.7825V11.5757L25.7589 11.5453V11.3811L25.7771 11.3507V11.2351L25.8015 11.223V11.1257L25.8258 11.0953V10.9736L25.844 10.9554V10.8763L25.8684 10.8581V10.8337L25.9292 10.5236L0.488609 10.4688L0.391299 53.6503C0.500773 54.4349 1.87528 63.4117 16.2894 68.3198L17.6335 63.2962C17.0496 62.9678 16.5813 62.4995 16.259 61.946C15.8089 61.1493 15.6629 60.1944 15.9245 59.2517L20.1271 43.7186C19.6527 42.7637 19.2878 41.7541 19.0323 40.7019V40.6654C18.7586 39.5403 18.6066 38.3665 18.6127 37.1744C18.6127 36.7122 19.0019 36.323 19.4702 36.3291C19.9446 36.3291 20.3338 36.7183 20.3278 37.1744C20.3278 38.2509 20.4555 39.2849 20.6683 40.264L20.6866 40.2944C20.7352 40.5195 20.7961 40.7445 20.863 40.9635L27.2976 17.1407C26.9935 16.7393 26.7137 16.2953 26.5009 15.8391ZM108.242 10.8702L108.223 10.408L108.181 9.95795V9.81807C107.889 7.26975 106.447 5.61547 104.665 4.84916C103.875 4.51465 103.011 4.33828 102.172 4.33828C101.314 4.33219 100.432 4.50249 99.66 4.83699C97.8719 5.59723 96.4305 7.24542 96.1264 9.76941V9.82415L96.0595 10.8459L96.0413 19.099V19.1416L95.9136 77.7772C96.1508 77.4792 96.388 77.1872 96.6434 76.9318C98.0483 75.5147 99.9398 74.6511 102.026 74.6572C104.088 74.6572 105.979 75.533 107.372 76.9561C107.694 77.2663 107.968 77.6251 108.229 77.99C108.898 56.0952 108.199 32.7651 108.242 10.8702ZM104.957 12.4029V42.6177C104.957 42.9522 104.684 43.2259 104.349 43.2259C104.009 43.2259 103.741 42.9522 103.741 42.6177V12.4029C103.741 12.0684 104.009 11.7947 104.349 11.7947C104.684 11.7947 104.957 12.0684 104.957 12.4029ZM103.741 46.9967C103.741 46.6561 104.009 46.3885 104.349 46.3885C104.684 46.3885 104.957 46.6561 104.957 46.9967V49.8978C104.957 50.2323 104.684 50.506 104.349 50.506C104.009 50.506 103.741 50.2323 103.741 49.8978V46.9967ZM106.162 78.1543C105.067 77.0534 103.607 76.3723 102.02 76.3723C100.408 76.3662 98.9424 77.0413 97.8415 78.136C96.7225 79.249 96.0109 80.8181 95.9014 82.5454C95.8771 82.9772 95.5365 83.3299 95.0804 83.3421C94.6303 83.3604 94.2228 82.9954 94.2046 82.5332V82.071L94.3384 19.9748L51.4853 19.8775C51.017 19.8775 50.6278 19.4944 50.6278 19.0321C50.6278 18.5578 51.017 18.1807 51.4914 18.1807L94.3444 18.2719L94.3627 10.852V10.6756L41.1947 10.5601L41.2556 10.8763L41.2799 10.8946V10.9615L41.2981 10.9919V11.077L41.3164 11.1135V11.2108L41.3407 11.2656V11.3689L41.359 11.3933V11.521L41.3833 11.5453V11.8312L41.4076 11.8677V11.965L41.4015 11.9832V12.2569L41.4259 12.2752V12.5245L41.4015 12.5975V13.0171L41.3772 13.0293V13.2543L41.359 13.3212V13.4185L41.3346 13.4976V13.6132L41.3103 13.6557V13.7409L41.2921 13.8078V13.82L41.2677 13.9051L41.2495 13.9781V14.0571L41.2252 14.0997V14.1423L41.2069 14.197V14.2153L41.1826 14.2943L41.1583 14.3673V14.3856L41.14 14.4525V14.4768L41.1218 14.5255L41.1157 14.568L41.0974 14.6045V14.6653L41.0731 14.6775L41.0549 14.7626L41.0305 14.8417V14.8478L41.0123 14.9147L40.9697 15.0546L40.9454 15.1215L40.9211 15.1276L40.8785 15.2796L40.8602 15.3039L40.8359 15.3526V15.3891L40.8177 15.4317L40.7933 15.4864L40.769 15.5046L40.7508 15.5715V15.5837L40.7264 15.6445L40.7082 15.6567L40.6839 15.7236V15.7418L40.6413 15.7966V15.827L40.623 15.8635L40.5744 15.9243L40.5561 16.0034V16.0094L40.5136 16.0763V16.0885L40.471 16.1372L40.4467 16.1615L40.4223 16.2162L40.4041 16.2466L40.3859 16.277L40.3615 16.3318V16.3439L40.1912 16.6115L40.1669 16.6541L40.1426 16.6906L40.0574 16.8183L40.0149 16.8791V16.8913L39.9723 16.946L39.954 16.9643L39.9297 17.0008L39.9054 17.0434L39.8871 17.0616L39.8446 17.1163V17.1407L39.7777 17.1954L46.1758 41.2676C46.261 40.9939 46.3461 40.7263 46.413 40.4465C46.6745 39.4308 46.8023 38.3543 46.8083 37.2353C46.8083 36.773 47.1976 36.3899 47.6659 36.3899C48.1403 36.3899 48.5295 36.7791 48.5234 37.2413C48.5234 38.4881 48.3471 39.6984 48.0673 40.8601C47.7814 41.9487 47.3983 42.9887 46.8996 43.9618L50.9927 59.3308C51.2299 60.2735 51.0778 61.2283 50.6217 62.0251C50.2993 62.5724 49.825 63.0407 49.2411 63.3631L50.7555 69.1166C50.865 69.5666 50.6034 70.0288 50.1534 70.1444C49.7033 70.266 49.2289 69.9923 49.1195 69.5423L47.6111 63.7888C46.9421 63.8131 46.2975 63.6368 45.7622 63.3144C44.9655 62.8522 44.3452 62.098 44.0897 61.1493L41.1461 50.0863C40.5014 50.4755 39.8142 50.8161 39.1026 51.102C38.245 51.4365 37.3632 51.7041 36.4569 51.8805V53.2246C36.4569 53.6868 36.0677 54.076 35.5933 54.0699L31.7921 54.0639C31.3177 54.0639 30.9346 53.6746 30.9346 53.2124V51.923C29.9493 51.7527 28.9823 51.4669 28.0578 51.1141C27.2854 50.7979 26.513 50.4086 25.8015 49.9768L22.7909 61.1067C22.5355 62.0494 21.9091 62.8036 21.1306 63.2597C20.571 63.582 19.9264 63.7523 19.2634 63.728L17.895 68.8307C28.0153 71.8534 43.9377 72.9177 69.0255 68.5327C69.4999 68.4475 69.9256 68.7577 70.0108 69.2199C70.0959 69.6822 69.7736 70.1262 69.3235 70.2113C19.1661 78.9753 4.59997 65.9661 0.385217 58.4611L0.306152 93.6266L76.2751 93.7908L76.3481 61.5872V61.5628L76.3542 56.9467V56.8798L76.3785 56.8615V56.7521L76.4028 56.7399V56.6852L76.4211 56.6791V56.6122L76.4454 56.6V56.5696L76.4637 56.5574V56.527L80.502 48.1097V48.0671H80.5264V48.0489L80.5446 48.0428V48.0185L80.5689 47.9941V47.9759H80.5872V47.9455L80.6115 47.9333V47.909L80.6298 47.9029L80.6541 47.8907V47.8786L80.6723 47.8664V47.8482L80.6967 47.836L80.7149 47.8238V47.8056H80.7392V47.7995L80.7575 47.7873V47.7752H80.7818V47.7569H80.8061V47.7448H80.8244V47.7326L80.8487 47.7204H80.867L80.8913 47.7083V47.7022H80.9095V47.69H80.9339V47.6779H80.9521V47.6657H80.9764V47.6596H81.019V47.6475H81.0373L81.0616 47.6353H81.1042V47.6231H81.2136V47.6171H81.2988V47.6231H81.4265V47.6353H81.4691L81.4934 47.6475H81.5116V47.6596L81.5542 47.6718L81.5785 47.6779H81.5968V47.69L81.6211 47.7022H81.6394L81.6637 47.7144V47.7265H81.6819V47.7326L81.7245 47.7569H81.7488V47.7752H81.7671V47.7873L81.7914 47.7995V47.8117L81.8157 47.8238L81.834 47.8299V47.8542H81.8583V47.8725H81.8765V47.8968H81.9009V47.9212H81.9191V47.9272L81.9435 47.9516V47.9698H81.9617V47.9941L81.986 48.0185V48.0245L82.0043 48.0367V48.0671L82.0286 48.0914V48.1097L86.0305 56.5635V56.5939L86.0487 56.6183V56.6487H86.0731V56.7034L86.0913 56.7156V56.7703L86.1156 56.7764V56.8859L86.1096 56.898L86.1339 56.9102V56.971L86.1217 61.5933V61.6115L86.0548 93.8091L96.4123 93.8273C99.6175 93.8334 102.543 92.5319 104.653 90.4275C106.679 88.4022 107.974 85.635 108.083 82.5819V82.5636C107.98 80.8242 107.256 79.2672 106.162 78.1543Z" fill="#003CB6"/>
<path d="M106.372 77.9274C105.174 76.7231 103.629 76.0602 102.018 76.0602C100.376 76.0541 98.8308 76.711 97.6266 77.9091C96.4346 79.1012 95.7108 80.7372 95.5952 82.5253C95.5831 82.805 95.3581 83.024 95.0661 83.0301C94.9323 83.0362 94.7924 82.9814 94.683 82.8841C94.5735 82.7807 94.5127 82.653 94.5066 82.5253L94.6404 19.6628L51.4833 19.5655C51.3373 19.5655 51.1974 19.5107 51.094 19.4013C50.9906 19.2979 50.9298 19.1641 50.9298 19.0242C50.9298 18.7201 51.1731 18.5072 51.4893 18.4768L94.6465 18.5741L94.6647 10.3636L40.8156 10.248L41.0102 11.1968V11.2029L41.0528 11.361H41.0346L41.0771 11.659V11.6772L41.1562 11.7381L41.0771 11.7624H41.3812L41.5333 11.7198L41.4725 11.7624H41.3812L41.0771 11.8232L41.0954 11.9509V12.0969L41.3995 12.1151L41.0954 12.1699L41.3995 12.2064L41.0954 12.2429L41.1197 12.3888L41.1379 12.4132L41.0954 12.6747H41.3995L41.0954 12.7537L41.071 13.1734H41.0832L41.0285 13.514L41.0406 13.5201L40.1648 16.0441L40.4203 16.2143L40.1284 16.111L39.7999 16.6462L39.435 17.078L46.1433 42.3422L46.4596 41.3569C46.5508 41.0771 46.636 40.8035 46.7029 40.5237C46.9705 39.4837 47.1043 38.3768 47.1104 37.2334C47.1104 36.9415 47.3658 36.6921 47.6638 36.6921C47.7976 36.686 47.9497 36.7529 48.0591 36.8563C48.1625 36.9597 48.2234 37.0935 48.2173 37.2395C48.2173 38.3707 48.0652 39.5627 47.7672 40.7852C47.4874 41.8617 47.1043 42.8835 46.6238 43.8262L46.5752 43.9295L50.6987 59.4019C50.9055 60.2412 50.7838 61.1231 50.3581 61.8651C50.054 62.382 49.6161 62.8078 49.0931 63.0936L48.8863 63.2092L50.4615 69.1816C50.5284 69.4857 50.3581 69.7776 50.0723 69.8506C49.9324 69.8871 49.7742 69.8628 49.6526 69.7898C49.531 69.7168 49.4458 69.6012 49.4154 69.4613L47.8402 63.4768L47.5969 63.4828C47.0009 63.5011 46.417 63.3551 45.9122 63.051C45.152 62.601 44.6046 61.9016 44.3796 61.0683L41.3326 49.6161L40.992 49.8229C40.3534 50.2 39.6844 50.5406 38.991 50.8203C38.1152 51.1548 37.2395 51.4103 36.4002 51.5806L36.1508 51.6292V53.2227C36.1508 53.3626 36.09 53.5025 35.9866 53.6058C35.8832 53.7092 35.7433 53.7518 35.5913 53.764L31.7901 53.7579C31.486 53.7579 31.2366 53.5085 31.2366 53.2105V51.6657L30.9873 51.6231C30.0567 51.4589 29.108 51.1913 28.1713 50.8264C27.4172 50.5223 26.6509 50.1392 25.9575 49.7195L25.6169 49.5066L22.4969 61.0197C22.2719 61.8468 21.7306 62.5462 20.9765 62.9963C20.4534 63.2943 19.8635 63.4464 19.2735 63.422L19.0303 63.4159L17.5219 69.0356L17.8078 69.1208C29.9594 72.7517 47.2077 72.6483 69.0782 68.8288C69.3762 68.7741 69.656 68.9748 69.7107 69.2728C69.7654 69.5647 69.5586 69.8506 69.2667 69.9053C20.0642 78.5112 5.15137 66.3292 0.644681 58.3072L0.0790647 57.2976L0 93.9288L76.5772 94.093L76.6501 61.567L76.7657 56.5921L80.7189 48.3572L80.8223 48.345V48.2477L80.8892 48.2416V48.1078L81.0413 48.1017V48.0592H81.0838L81.1264 47.9983L81.321 47.9497V47.9375H81.3697L81.3758 48.0227H81.4548L81.4609 48.0774H81.54L81.5461 48.1565L81.6495 48.2234L81.6555 48.272H81.765L85.7304 56.6407L85.7669 56.9448H85.8034L85.8277 57.0847L85.7487 94.1052L96.4102 94.1234H96.4406C99.6154 94.1234 102.608 92.8888 104.864 90.6385C107.023 88.4794 108.276 85.621 108.385 82.5374C108.282 80.7858 107.57 79.1498 106.372 77.9274ZM41.2474 11.1481L41.3143 11.1603L41.2109 11.1725L41.2474 11.1481ZM41.2961 11.0386L41.363 11.0265L41.3447 11.0386H41.2961ZM41.1136 11.3549L41.2109 11.3123L41.3386 11.3184L41.3934 11.3063L41.3812 11.3184H41.3386L41.1136 11.3549ZM41.5515 12.103L41.515 12.1334L41.3995 12.1273L41.5515 12.103ZM41.3204 12.3706L41.3447 12.3463H41.4238L41.3204 12.3706ZM41.3751 13.1734L41.2353 13.2038L41.1075 13.1734H41.3751ZM41.3326 13.5687L41.2474 13.5809L41.071 13.5201L41.3326 13.5687ZM41.1075 15.521L41.3326 14.8885L41.3995 14.8581V14.7L41.5089 14.2499L41.7036 12.7537H41.3995L41.7036 12.6808L41.7279 12.4192H41.4238L41.7279 12.3463V12.2672L41.7036 12.1212L41.6671 12.0847L41.7036 12.0726V11.9996L41.3995 11.9753L41.7096 11.9266V11.8597L41.6853 11.732L41.6549 11.6833L41.6853 11.6772H41.6488L41.6306 11.6529L41.5941 11.6772H41.3812L41.1744 11.732L41.2353 11.6772H41.3812L41.6853 11.6103V11.5374L41.6671 11.3914L41.661 11.3853H41.6671L41.6427 11.2394L41.6184 11.142V11.1056L41.5819 10.8623L94.0565 10.9717L94.0383 17.9598L51.4893 17.8686C50.8568 17.8625 50.3216 18.3856 50.3216 19.0181C50.3216 19.3283 50.4433 19.6141 50.6622 19.8331C50.8872 20.052 51.1731 20.1737 51.4833 20.1737L94.0322 20.2649L93.8984 82.063V82.5374C93.9106 82.8415 94.0444 83.1213 94.2755 83.3342C94.5005 83.541 94.7985 83.6504 95.0905 83.6383C95.6926 83.62 96.173 83.1578 96.2034 82.5557C96.3068 80.9257 96.9637 79.4296 98.0584 78.3409C99.1471 77.2583 100.54 76.6623 102.012 76.6684C103.465 76.6684 104.858 77.2705 105.941 78.3531C107.029 79.4722 107.686 80.9683 107.777 82.5618C107.674 85.4446 106.482 88.1571 104.432 90.2067C102.291 92.3415 99.4512 93.5153 96.4345 93.5153H96.4102L86.3568 93.497L86.4359 56.9631L86.1318 56.9509L86.4359 56.9022L86.3508 56.3366H86.2595L82.3185 48.0227L82.2455 47.6638H82.2029V47.6152L82.0569 47.5483L82.0509 47.4692L81.9718 47.451L81.9657 47.4206H81.8806V47.378H81.7954V47.3415L81.2116 47.3111L80.6703 47.3597L80.5851 47.4449H80.5L80.4513 47.5118H80.4148V47.6395L80.2628 47.6821V47.7916L80.1959 47.8037V48.047L76.2001 56.3731L76.1149 56.4218L76.0724 56.7806L76.048 56.8171L75.969 93.4909L0.60819 93.3206L0.681172 59.5479C4.59183 65.648 14.4445 73.4572 39.2708 73.4572C47.5361 73.4572 57.4618 72.5874 69.3762 70.5074C70.0026 70.3858 70.4223 69.7837 70.3128 69.1633C70.1912 68.5247 69.6012 68.1173 68.9687 68.2328C47.3719 72.0036 30.3122 72.1374 18.2639 68.6221L19.4925 64.0302C20.1189 64.012 20.7332 63.8417 21.2866 63.5193C22.1746 62.9902 22.8132 62.1631 23.0808 61.1839L25.9879 50.4433C26.6144 50.8021 27.2834 51.1244 27.9463 51.392C28.8404 51.7387 29.7405 52.0002 30.6284 52.1766V53.2105C30.6223 53.8491 31.1454 54.3661 31.7901 54.3661L35.5913 54.3722C35.8954 54.3904 36.1934 54.2566 36.4123 54.0377C36.6373 53.8187 36.759 53.5329 36.759 53.2227V52.1279C37.5618 51.9516 38.3889 51.7022 39.2161 51.386C39.8121 51.1427 40.396 50.8629 40.9555 50.5467L43.7957 61.2265C44.0633 62.2117 44.7019 63.051 45.6021 63.5741C46.1312 63.8964 46.7394 64.0728 47.3719 64.091L48.8255 69.6134C48.8924 69.9053 49.0748 70.1547 49.3363 70.3067C49.604 70.4709 49.9263 70.5196 50.2243 70.4405C50.8325 70.2824 51.1974 69.6681 51.0514 69.0356L49.5918 63.5072C50.1209 63.1727 50.5649 62.7165 50.8811 62.1752C51.392 61.2873 51.5319 60.2473 51.2826 59.2498L47.2198 43.9964C47.6942 43.0416 48.0774 42.0138 48.3572 40.9312C48.6673 39.6601 48.8255 38.4194 48.8255 37.2395C48.8315 36.9354 48.7099 36.6434 48.4849 36.4245C48.2659 36.2055 47.974 36.0839 47.6638 36.0839C47.0191 36.0717 46.5022 36.6009 46.5022 37.2334C46.4961 38.2247 46.3927 39.1918 46.1798 40.1101L40.1162 17.2848L40.6636 16.4211V16.3725L40.6757 16.3786L41.071 15.6001L41.0528 15.5879V15.5697L40.8156 15.4298L41.1075 15.521ZM86.1136 56.8232L86.144 56.8171V56.8293L86.1136 56.8232ZM40.5358 16.3299H40.4629L40.3838 16.2752L40.5358 16.3299ZM76.3886 56.6346L76.3825 56.6285H76.419L76.3886 56.6346ZM108.683 34.3506C108.604 26.5901 108.531 18.562 108.544 10.8623L108.483 9.94391V9.78578C108.203 7.36518 106.853 5.46155 104.785 4.57359C103.958 4.22084 103.058 4.03839 102.176 4.03839C101.257 4.02622 100.345 4.21476 99.5363 4.56143C97.4685 5.4433 96.1122 7.32869 95.8203 9.73712L95.7534 10.8501L95.6074 78.6633L96.1487 77.9699C96.3676 77.6962 96.6048 77.4043 96.8603 77.1489C98.2591 75.7379 100.102 74.9594 102.024 74.9655C103.934 74.9655 105.758 75.75 107.157 77.1793C107.425 77.4347 107.686 77.751 107.978 78.1706L108.501 78.9126L108.531 78.0003C108.963 63.7869 108.823 48.8194 108.683 34.3506ZM96.2156 76.936L96.3555 10.8623L96.4224 9.80403C96.69 7.62062 97.9125 5.90553 99.7796 5.11488C100.509 4.79862 101.349 4.63441 102.17 4.64049C102.973 4.64049 103.794 4.81079 104.548 5.12705C106.433 5.93594 107.619 7.61454 107.875 9.81619L107.935 10.8684C107.923 18.562 107.996 26.584 108.075 34.3445C108.209 48.5275 108.349 63.1848 107.948 77.1306C107.826 76.9847 107.704 76.8569 107.589 76.7414C106.074 75.2027 104.104 74.3512 102.024 74.3512H102.006C99.9195 74.3512 97.9368 75.1905 96.4285 76.7171C96.3555 76.7961 96.2886 76.863 96.2156 76.936ZM27.5327 16.9503C27.2226 16.5367 26.9671 16.117 26.7725 15.7035L26.511 15.1439L26.4927 15.0649L26.4867 15.0709L26.292 14.4323V14.4263L26.2069 14.1161V14.0978L26.1826 14.0127V13.9701L26.1217 13.7268V13.6904L26.0548 13.3315V13.2221L26.0366 13.1247H25.7325L26.0366 13.0457V12.997L26.0123 12.9301V12.5895L25.994 12.5226L26.0123 12.1638L25.7082 12.1334L26.0184 12.0787L26.0366 11.7259L25.7325 11.6955L25.915 11.6651L26.0123 11.7077L26.0609 11.6225L26.1035 11.1907L26.3042 10.2176L0.182457 10.1629L0.0912284 53.6849C0.182457 54.3478 0.638599 56.7502 2.73077 59.6087C5.57102 63.5011 10.102 66.5238 16.19 68.5977L16.4941 68.7072L17.9842 63.1362L17.7774 63.0206C17.2604 62.7287 16.8225 62.303 16.5184 61.7921C16.0927 61.0318 15.9832 60.156 16.2143 59.3228L20.4473 43.6802L20.3926 43.5768C19.9365 42.6523 19.5776 41.6549 19.3343 40.6575V40.621L19.3283 40.5845C19.0485 39.4594 18.9086 38.3099 18.9147 37.1665C18.9147 36.8685 19.1701 36.6252 19.4681 36.6252C19.7722 36.6252 20.0277 36.8745 20.0216 37.1665C20.0216 38.2004 20.1372 39.2587 20.3683 40.3169L20.3987 40.402C20.4413 40.6149 20.5082 40.8339 20.569 41.0407L20.8731 42.0624L27.624 17.0658L27.5327 16.9503ZM26.1765 15.0892L26.0853 15.1439L25.9758 15.15L26.1765 15.0892ZM25.7933 13.6052L25.7143 13.6174L25.7447 13.5991L25.7933 13.6052ZM25.7143 12.2246L25.7203 12.2307H25.6899L25.7143 12.2246ZM25.7386 11.8475H25.7143H25.7386ZM25.7082 11.732L25.7021 11.7198L25.7325 11.7259L25.7082 11.732ZM25.5865 11.4583L25.4831 11.4096L25.4102 11.884L25.7143 11.9205L25.5683 11.9449L25.55 11.9144L25.4102 11.9692L25.3858 12.3037H25.6899L25.3858 12.3827V12.5713L25.4041 12.7112V13.0335L25.4284 13.1187V13.2525L25.4467 13.3194V13.4045L25.471 13.4897V13.5261L25.4892 13.6599L25.5987 14.1647V14.2134L25.6595 14.4384V14.4567L25.7872 14.8946V14.9189L25.8846 15.1804L25.8967 15.1743L26.2008 15.9346L26.2434 16.0076C26.4319 16.4029 26.6752 16.8043 26.961 17.1935L20.8731 39.7391C20.7089 38.8694 20.6298 38.0119 20.6298 37.1726C20.6359 36.534 20.1128 36.017 19.4742 36.017C18.7991 36.017 18.3065 36.5279 18.3065 37.1665C18.3004 38.3585 18.4464 39.5567 18.7262 40.6879V40.7244L18.7383 40.7609C18.9877 41.8009 19.3465 42.8044 19.7966 43.741L15.6244 59.1586C15.3568 60.15 15.4845 61.19 15.9954 62.0962C16.3116 62.6375 16.7495 63.0936 17.2787 63.4281L16.0745 67.9165C2.37194 63.1301 0.827138 54.5729 0.693336 53.6484L0.790646 10.771L25.5379 10.8258L25.4527 11.4036L25.4831 11.4096L25.7568 11.434L25.5865 11.4583ZM25.8846 11.0265L25.9028 11.0386H25.8237L25.8846 11.0265ZM25.842 10.9231L25.8906 10.917L25.9089 10.9292L25.842 10.9231ZM25.7994 11.1907L25.8967 11.1664L25.9393 11.1907H25.7994ZM33.5417 20.1858L25.9089 48.3876L26.0913 48.5092C26.9428 49.0505 27.7578 49.4762 28.5727 49.8047C29.3573 50.1088 30.1297 50.3338 30.8778 50.4797L31.2427 50.5527V49.3911C31.2427 49.2451 31.3035 49.1052 31.4069 49.0018C31.5103 48.8985 31.6684 48.8437 31.8022 48.8437L35.6034 48.8559C35.7555 48.8559 35.8954 48.9106 35.9987 49.014C36.1021 49.1174 36.163 49.2512 36.1569 49.3972V50.5102L36.5279 50.425C37.1969 50.2851 37.8659 50.0783 38.5714 49.7986C39.3864 49.4762 40.1588 49.0809 40.8643 48.6248L41.0528 48.5031L33.5417 20.1858ZM36.7651 49.7499V49.4033C36.7711 49.0931 36.6495 48.8011 36.4245 48.5822C36.2055 48.3632 35.9136 48.2477 35.6095 48.2477L31.8022 48.2355C31.486 48.2477 31.2001 48.3572 30.9812 48.57C30.7622 48.789 30.6345 49.0748 30.6345 49.385V49.8107C30.0324 49.6709 29.4181 49.4823 28.7978 49.239C28.0801 48.9532 27.3625 48.5822 26.6083 48.1139L33.5356 22.5334L40.3473 48.2295C39.7269 48.6187 39.0579 48.9532 38.3524 49.2269C37.8051 49.4458 37.282 49.6161 36.7651 49.7499Z" fill="#003CB6"/>
<path fill-rule="evenodd" clip-rule="evenodd" d="M34.2898 0.291931C34.1195 0.121638 33.864 0 33.5843 0C33.3045 0 33.0673 0.115556 32.8727 0.285849C32.7024 0.468306 32.5686 0.723746 32.5686 0.997431L32.5625 4.61008C32.7754 4.57967 32.9943 4.55534 33.2315 4.55534H33.2498H33.268H33.2923H33.3106L33.3288 4.54318H33.3531H33.3714H33.3896H33.4079H33.4322H33.4505H33.4687H33.493H33.5113H33.5295H33.5538H33.5721H33.5903H33.6086H33.6329H33.6512H33.6694H33.6937H33.712H33.7302H33.7546H33.7728H33.791V4.55534H33.8093H33.8336H33.8519H33.8701H33.8944C34.1073 4.5675 34.3262 4.57967 34.5391 4.61008L34.5452 0.997431C34.5452 0.741991 34.4357 0.504797 34.2898 0.328422V0.291931Z" fill="#FF4415"/>
<path fill-rule="evenodd" clip-rule="evenodd" d="M84.3009 111.542L84.3131 106.403L77.9697 106.391L77.9575 111.53C77.9575 111.883 78.0852 112.199 78.2981 112.436L78.3407 112.466C78.5779 112.716 78.9002 112.856 79.2651 112.856L82.9812 112.862C83.3278 112.862 83.6684 112.722 83.9056 112.479C84.1671 112.235 84.3009 111.907 84.3009 111.542Z" fill="#FF4415"/>
<path fill-rule="evenodd" clip-rule="evenodd" d="M78.0674 60.7217L84.4108 60.7338L84.4169 57.1455L81.2482 50.4433L78.0735 57.1333L78.0674 60.7217Z" fill="#FF4415"/>
<path d="M77.9661 102.438L77.96 105.302L84.3034 105.316L84.3095 102.451L77.9661 102.438Z" fill="#003CB6"/>
<path fill-rule="evenodd" clip-rule="evenodd" d="M84.4044 62.4428L84.3375 94.6465V94.6891L84.3193 101.361L77.9819 101.349L77.9941 94.6526V94.6343L78.061 62.4246L80.6336 62.4307V97.4502C80.6336 97.7847 80.9073 98.0584 81.2418 98.0584C81.5763 98.0584 81.85 97.7847 81.85 97.4502V62.4368L84.4044 62.4428Z" fill="#FF4415"/>
<path fill-rule="evenodd" clip-rule="evenodd" d="M35.3788 49.61L32.0034 49.6039L31.9973 51.1244V51.1548L31.9912 52.9855L35.3727 52.9916L35.3788 49.61Z" fill="#FF4415"/>
<path fill-rule="evenodd" clip-rule="evenodd" d="M35.2571 10.6986C34.8253 10.2667 34.2293 9.99914 33.5603 9.99914C32.8913 9.99914 32.2892 10.2667 31.8634 10.6925C31.4134 11.1304 31.1519 11.7325 31.1519 12.4015C31.1519 13.0462 31.4073 13.6361 31.8148 14.0801L31.8574 14.1105C32.2892 14.5545 32.8852 14.8221 33.5542 14.8221C34.2232 14.8221 34.8192 14.5545 35.2511 14.1166C35.7011 13.6787 35.9626 13.0766 35.9626 12.4076C35.9626 11.7386 35.7072 11.1365 35.2571 10.6986Z" fill="#003CB6"/>
<path d="M35.3113 10.6433C34.8491 10.1811 34.2288 9.91957 33.5598 9.91957C33.5598 9.91957 33.5598 9.91957 33.5537 9.91957C32.8968 9.91957 32.2704 10.175 31.8082 10.6372C31.3338 11.0995 31.0723 11.7259 31.0723 12.401C31.0723 13.0335 31.3155 13.6478 31.7656 14.1343L31.8021 14.1587C32.2582 14.633 32.8847 14.8946 33.5537 14.8946C33.5537 14.8946 33.5537 14.8946 33.5598 14.8946C34.2227 14.8946 34.843 14.6391 35.3053 14.1708C35.7736 13.7086 36.0351 13.0822 36.0412 12.4071C36.0412 11.732 35.7797 11.0995 35.3113 10.6433ZM33.5598 14.7364C33.5537 14.7364 33.5537 14.7364 33.5598 14.7364C32.9212 14.7364 32.3434 14.4932 31.8994 14.0431L31.869 14.0188C31.4493 13.5687 31.2243 12.9909 31.2243 12.3949C31.2243 11.7563 31.4737 11.1724 31.9176 10.7406C32.3495 10.3027 32.9333 10.0655 33.5537 10.0655C33.5598 10.0655 33.5598 10.0655 33.5598 10.0655C34.1862 10.0655 34.7701 10.3088 35.2019 10.7467C35.6459 11.1785 35.8891 11.7685 35.8891 12.401C35.883 13.0396 35.6398 13.6234 35.1958 14.0553C34.764 14.4992 34.1801 14.7364 33.5598 14.7364Z" fill="white"/>
<path fill-rule="evenodd" clip-rule="evenodd" d="M36.1505 12.401C36.1505 13.1004 35.8768 13.7512 35.3842 14.2438C34.9098 14.7304 34.2347 15.004 33.5535 15.004C32.8602 14.998 32.1912 14.7243 31.7168 14.2377L31.6742 14.1951C31.212 13.7086 30.9565 13.07 30.9565 12.3949C30.9626 11.6955 31.2302 11.0447 31.7229 10.5582C32.2216 10.0655 32.8723 9.79186 33.5535 9.79186C33.5596 9.79186 33.5596 9.79186 33.5596 9.79186C34.2529 9.79794 34.9159 10.0716 35.3963 10.5582C35.8829 11.0508 36.1566 11.7077 36.1505 12.401Z" fill="#FF4415"/>
<path fill-rule="evenodd" clip-rule="evenodd" d="M32.1 20.125L32.0574 20.1128H32.0392L31.9966 20.1007L31.954 20.0885H31.9358L31.8628 20.0703L31.7959 20.0581L31.7777 20.0459H31.7351L31.6925 20.0216H31.6743L31.6256 20.0155H31.583L31.5648 20.0034L31.5222 19.9912L31.4796 19.979L31.4614 19.9669L31.3945 19.9425L31.3276 19.9304L31.3033 19.9182H31.285L31.2181 19.8939V19.8817L31.1512 19.8695L31.1086 19.8574L31.0417 19.8331L31.0235 19.8209L30.9992 19.8087L30.9323 19.7844L30.8654 19.7601L30.8228 19.7479V19.7357L30.7559 19.7236L30.7376 19.7114L30.6951 19.6871L30.6525 19.6628L30.5917 19.6384L30.5674 19.6263L30.5491 19.6141L30.4822 19.5898L30.4153 19.5655L30.3971 19.5533L30.3788 19.5411L30.3362 19.5107H30.318L30.2754 19.4864L30.2085 19.4621L30.1659 19.4317L30.1416 19.4195L30.1234 19.4621L30.0565 19.4377V19.4256L29.9896 19.4012L29.9713 19.3769L29.9044 19.3526V19.3404L29.8862 19.3283L29.8436 19.3039L29.801 19.2979L29.7585 19.2674L29.7159 19.2553L29.6976 19.2431L29.6551 19.2127L29.6368 19.2005L29.5943 19.1884L29.5517 19.158V19.1458L29.4848 19.1215L29.4665 19.0971L29.4422 19.085L29.3996 19.0546L29.3571 19.0242L29.3145 18.9998L29.2902 18.9877L29.2476 18.9573L29.2233 18.9451L29.1807 18.9208L29.1624 18.8904H29.1442L29.1016 18.86L29.0712 18.8539L29.053 18.8295L28.9861 18.787L28.9678 18.7566L28.9252 18.7322L28.907 18.7201L28.8644 18.6897L28.8462 18.6775L28.8279 18.6532L28.7854 18.6228L28.7671 18.6106L28.7489 18.5802L28.7063 18.5559L28.688 18.5437L21.8398 43.814V43.8383L17.5521 59.6877C17.4244 60.1804 17.5095 60.6852 17.7406 61.0987C17.9778 61.5062 18.361 61.8407 18.8536 61.9684C19.3463 62.0962 19.8632 62.011 20.2707 61.7799C20.6782 61.5427 21.0005 61.1474 21.1526 60.6548L32.1 20.125Z" fill="#FF4415"/>
<path fill-rule="evenodd" clip-rule="evenodd" d="M35.0195 20.1189L34.9526 20.1432L45.7419 60.7095C45.8696 61.2021 46.192 61.6035 46.5995 61.8407C47.007 62.0779 47.5239 62.1631 48.0165 62.0354C48.5092 61.9076 48.8984 61.5731 49.1356 61.1656C49.3728 60.7582 49.458 60.2534 49.3302 59.7607L38.4011 18.5924L38.3585 18.6228L38.3159 18.641L38.1639 18.7566L38.097 18.8113L38.0787 18.8356L37.8841 18.9634L37.8659 18.9755L37.8415 18.9999L37.7746 19.0303L37.7321 19.0607L37.6895 19.085L37.6712 19.0972L37.6287 19.1276L37.5861 19.1519L37.5435 19.1823V19.1945L37.4766 19.2188L37.4584 19.231L37.4401 19.2553L37.3732 19.2796V19.2918L37.3307 19.3161L37.2881 19.3404H37.2638L37.2212 19.3708V19.383L37.1786 19.4073L37.136 19.4317H37.1178L37.0752 19.4621L37.0326 19.4742V19.4864L36.9657 19.5168L36.8988 19.5472L36.8806 19.5594H36.8624L36.8198 19.5898L36.8015 19.602L36.759 19.6141L36.6921 19.6385V19.6506L36.6495 19.6628L36.6252 19.6871H36.5826L36.54 19.7175H36.5218L36.4792 19.7418L36.4366 19.754L36.4123 19.7662L36.3454 19.7966L36.3028 19.8087L36.2602 19.827L36.1933 19.8513L36.1508 19.8756L36.0839 19.8878L36.0656 19.9L36.023 19.9121L35.9805 19.9365L35.9136 19.9608H35.8953L35.8528 19.9851L35.7859 19.9973L35.7433 20.0216H35.7007L35.6825 20.0338L35.6156 20.0459V20.0581L35.573 20.0703L35.5304 20.0946H35.5122L35.4453 20.1068H35.427L35.3845 20.1189L35.275 20.1493H35.2324L35.2142 20.1615L35.1716 20.1737H35.1533L35.1108 20.1858L35.0195 20.1189Z" fill="#FF4415"/>
</svg>
