<?xml version="1.0" encoding="utf-8"?>
<svg width="250" height="203" viewBox="0 0 250 203" fill="none" xmlns="http://www.w3.org/2000/svg">
  <rect width="250" height="203" rx="8" fill="#EEEEEE"/>
  <path d="M 209.864 78.327 C 209.858 78.321 209.852 78.315 209.846 78.315 C 206.908 77.026 203.722 76.247 200.407 76.065 L 200.407 56.396 L 218.349 56.396 C 219.097 56.396 219.711 55.782 219.711 55.022 L 219.711 29.593 C 219.711 23.706 215.095 18.877 209.226 18.579 L 209.226 18.567 L 141.929 18.567 C 135.051 18.579 129.486 24.144 129.474 31.022 L 129.474 120.725 C 129.474 121.479 130.088 122.099 130.848 122.099 C 131.152 122.099 131.45 121.996 131.694 121.801 L 139.369 115.658 L 147.044 121.801 C 147.543 122.203 148.255 122.203 148.753 121.801 L 156.417 115.658 L 164.092 121.801 C 164.591 122.203 165.296 122.203 165.801 121.801 L 173.385 115.731 L 174.121 115.141 L 174.182 115.093 C 175.927 118.772 178.39 121.88 181.322 124.331 C 178.439 121.521 176.177 118.079 174.76 114.229 C 173.683 111.297 173.093 108.135 173.093 104.838 C 173.093 90.132 184.795 78.115 199.373 77.604 C 199.689 77.592 200.018 77.585 200.34 77.585 C 207.991 77.585 214.912 80.754 219.863 85.845 C 217.156 82.591 213.726 80.012 209.864 78.327 Z M 208.733 21.34 C 213.27 21.37 216.95 25.044 216.974 29.593 L 216.974 53.659 L 200.407 53.659 L 200.407 29.593 C 200.431 25.02 204.159 21.316 208.733 21.34 Z M 164.937 118.973 L 157.274 112.842 C 156.775 112.447 156.07 112.447 155.565 112.842 L 147.89 118.973 L 140.22 112.842 C 139.728 112.447 139.01 112.447 138.524 112.842 L 132.211 117.884 L 132.211 31.022 C 132.223 25.658 136.565 21.304 141.929 21.304 L 201.435 21.304 C 199.045 23.384 197.664 26.406 197.664 29.593 L 197.664 76.053 C 197.384 76.065 197.111 76.083 196.831 76.101 C 195.973 76.168 195.122 76.272 194.289 76.412 C 194.197 76.43 194.106 76.448 194.015 76.46 C 193.997 76.466 193.978 76.466 193.96 76.472 C 193.784 76.503 193.607 76.539 193.437 76.57 C 193.084 76.637 192.738 76.716 192.397 76.801 C 192.227 76.843 192.056 76.892 191.886 76.935 C 191.667 76.983 191.454 77.044 191.241 77.111 C 191.12 77.148 190.992 77.184 190.87 77.221 C 190.603 77.306 190.329 77.391 190.062 77.482 C 188.274 78.084 186.577 78.869 184.983 79.818 C 184.837 79.897 184.697 79.988 184.557 80.073 C 184.43 80.146 184.308 80.225 184.186 80.304 C 183.949 80.456 183.712 80.614 183.481 80.772 C 182.903 81.162 182.344 81.575 181.802 82.013 C 181.535 82.226 181.279 82.445 181.018 82.664 C 180.993 82.682 180.969 82.706 180.945 82.725 C 180.714 82.931 180.483 83.138 180.258 83.351 C 180.093 83.497 179.935 83.649 179.777 83.813 C 179.692 83.886 179.613 83.971 179.528 84.057 C 179.278 84.294 179.047 84.543 178.822 84.793 C 178.628 84.999 178.433 85.212 178.244 85.431 C 178.111 85.583 177.977 85.735 177.861 85.887 C 177.764 85.997 177.679 86.112 177.588 86.222 C 177.527 86.283 177.478 86.349 177.43 86.416 C 177.241 86.654 177.052 86.903 176.87 87.146 C 176.767 87.28 176.669 87.414 176.578 87.554 C 176.274 87.973 175.988 88.399 175.72 88.837 C 175.538 89.123 175.362 89.415 175.191 89.713 C 174.839 90.309 174.516 90.923 174.218 91.556 C 174.151 91.702 174.078 91.848 174.011 92 C 173.793 92.462 173.592 92.93 173.409 93.411 C 173.349 93.569 173.288 93.733 173.227 93.897 C 173.166 94.055 173.105 94.219 173.051 94.384 C 172.996 94.548 172.935 94.712 172.886 94.876 C 172.813 95.077 172.746 95.278 172.692 95.485 C 172.607 95.783 172.521 96.074 172.442 96.372 C 172.357 96.707 172.272 97.048 172.193 97.382 C 172.114 97.723 172.041 98.069 171.986 98.422 C 171.986 98.434 171.98 98.446 171.98 98.459 C 171.974 98.483 171.968 98.501 171.968 98.525 C 171.938 98.69 171.907 98.86 171.883 99.024 C 171.858 99.121 171.846 99.225 171.834 99.328 C 171.798 99.547 171.767 99.766 171.743 99.985 C 171.688 100.405 171.646 100.83 171.615 101.25 C 171.579 101.718 171.554 102.193 171.542 102.667 C 171.524 103.3 171.53 103.938 171.56 104.577 C 171.676 107.253 172.187 109.899 173.075 112.429 L 172.588 112.867 L 172.436 112.988 L 164.937 118.973 Z" fill="#003CB6"/>
  <path d="M 201.435 21.304 C 199.045 23.384 197.67 26.406 197.67 29.593 L 197.67 76.053 C 182.593 76.722 170.891 89.488 171.56 104.577 C 171.676 107.253 172.193 109.899 173.075 112.429 L 172.588 112.867 L 164.937 118.973 L 157.274 112.842 C 156.775 112.441 156.064 112.441 155.565 112.842 L 147.89 118.973 L 140.214 112.842 C 139.728 112.441 139.004 112.441 138.517 112.842 L 132.211 117.884 L 132.211 31.022 C 132.223 25.658 136.565 21.304 141.929 21.304 L 201.435 21.304 Z" fill="#003CB6"/>
  <path d="M 198.138 100.97 L 195.572 103.3 L 190.718 98.562 L 187.823 97.595 L 187.033 95.971 L 189.867 91.75 L 192.123 93.021 L 193.765 96.719 L 198.138 100.97 Z" fill="white"/>
  <path d="M 214.869 115.828 L 211.105 119.587 C 210.758 119.934 210.205 119.934 209.858 119.587 L 201.654 111.389 C 201.313 111.042 201.313 110.482 201.654 110.136 L 205.345 106.444 C 205.692 106.103 206.251 106.103 206.598 106.45 L 214.869 114.569 C 214.869 114.576 214.869 114.576 214.876 114.576 C 215.216 114.922 215.216 115.482 214.869 115.828 Z" fill="white"/>
  <path d="M 216.421 96.068 C 215.703 97.954 213.811 99.73 212.796 100.143 C 212.327 100.332 211.762 100.386 211.269 100.386 C 210.697 100.386 210.229 100.314 210.162 100.314 C 210.065 100.295 208.897 100.064 207.255 101.767 C 205.613 103.464 197.25 111.839 196.825 112.264 L 196.794 112.295 C 196.648 112.416 195.438 113.426 195.438 114.886 C 195.42 116.437 195.687 117.501 194.228 119.545 C 192.774 121.588 189.739 121.643 189.265 121.388 L 189.228 121.388 C 189.082 121.333 188.334 120.962 189.228 119.867 C 189.837 119.101 190.347 118.267 190.755 117.385 C 190.822 117.239 190.791 117.069 190.688 116.954 L 190.129 116.37 C 190.086 116.327 190.031 116.291 189.97 116.272 L 188.407 115.762 C 188.231 115.707 188.042 115.78 187.945 115.932 L 186.072 118.839 C 186.072 118.839 185.689 119.502 184.892 118.742 C 184.868 118.724 184.849 118.693 184.831 118.669 C 184.661 118.389 183.712 116.71 184.101 114.971 C 184.527 113.055 184.953 112.514 186.023 111.535 C 186.984 110.744 188.188 110.306 189.435 110.306 C 190.499 110.312 191.527 109.874 192.263 109.102 C 192.689 108.634 195.231 106.073 197.713 103.586 C 200.194 101.092 202.615 98.677 202.803 98.489 C 203.667 97.631 204.141 96.458 204.111 95.241 C 204.141 93.046 204.616 90.972 206.404 89.482 C 207.565 88.551 209.025 88.095 210.509 88.198 L 210.527 88.198 C 210.643 88.204 211.598 88.265 211.233 89.336 C 210.929 90.266 209.645 92.06 209.22 92.675 C 209.134 92.808 209.134 92.973 209.22 93.106 C 209.712 93.848 210.485 94.378 211.36 94.56 L 211.403 94.56 L 212.017 94.584 C 212.169 94.59 212.309 94.511 212.394 94.384 L 214.128 91.416 C 214.146 91.391 214.164 91.367 214.182 91.343 C 214.359 91.142 215.186 90.339 215.642 91.203 C 216.159 92.17 217.144 94.177 216.421 96.068 Z" fill="white"/>
  <path d="M 229.418 104.838 C 229.418 120.871 216.372 133.916 200.34 133.916 C 188.207 133.916 177.789 126.442 173.44 115.859 L 174.127 115.147 L 174.182 115.093 L 174.76 114.229 C 176.177 118.079 178.439 121.521 181.322 124.331 C 181.334 124.349 181.347 124.362 181.365 124.368 C 186.273 129.154 192.969 132.092 200.34 132.092 C 215.369 132.092 227.593 119.867 227.593 104.838 C 227.593 97.461 224.644 90.753 219.863 85.845 C 214.913 80.754 207.991 77.585 200.34 77.585 C 200.018 77.585 199.69 77.592 199.373 77.604 L 199.994 76.679 L 200.407 76.065 L 200.596 75.767 C 216.512 75.901 229.418 88.892 229.418 104.838 Z" fill="white"/>
  <path d="M 214.87 115.828 L 211.105 119.587 C 210.759 119.934 210.205 119.934 209.858 119.587 L 201.654 111.389 C 201.313 111.042 201.313 110.482 201.654 110.136 L 205.346 106.444 C 205.692 106.104 206.252 106.103 206.599 106.45 L 214.87 114.57 C 214.87 114.576 214.87 114.576 214.876 114.576 C 215.217 114.922 215.217 115.482 214.87 115.828 Z" fill="white"/>
  <path d="M 216.421 96.068 C 215.703 97.954 213.811 99.73 212.796 100.143 C 212.327 100.332 211.762 100.387 211.269 100.387 C 210.697 100.387 210.229 100.314 210.162 100.314 C 210.065 100.295 208.897 100.064 207.255 101.767 C 205.613 103.464 197.25 111.839 196.825 112.264 L 196.794 112.295 C 196.648 112.417 195.438 113.426 195.438 114.886 C 195.42 116.437 195.687 117.501 194.228 119.545 C 192.774 121.588 189.739 121.643 189.265 121.388 L 189.228 121.388 C 189.082 121.333 188.334 120.962 189.228 119.867 C 189.837 119.101 190.347 118.267 190.755 117.385 C 190.822 117.239 190.791 117.069 190.688 116.954 L 190.129 116.37 C 190.086 116.327 190.031 116.291 189.97 116.272 L 188.407 115.762 C 188.231 115.707 188.042 115.78 187.945 115.932 L 186.072 118.839 C 186.072 118.839 185.689 119.502 184.892 118.742 C 184.868 118.724 184.849 118.693 184.831 118.669 C 184.661 118.389 183.712 116.71 184.101 114.971 C 184.527 113.055 184.953 112.514 186.023 111.535 C 186.984 110.744 188.188 110.306 189.435 110.306 C 190.499 110.312 191.527 109.874 192.263 109.102 C 192.689 108.634 195.231 106.073 197.713 103.586 C 200.194 101.092 202.615 98.677 202.803 98.489 C 203.667 97.631 204.141 96.458 204.111 95.241 C 204.141 93.046 204.616 90.972 206.404 89.482 C 207.565 88.551 209.025 88.095 210.509 88.198 L 210.527 88.198 C 210.643 88.204 211.598 88.265 211.233 89.336 C 210.929 90.266 209.645 92.06 209.22 92.675 C 209.134 92.808 209.134 92.973 209.22 93.106 C 209.712 93.848 210.485 94.378 211.36 94.56 L 211.403 94.56 L 212.017 94.584 C 212.169 94.59 212.309 94.511 212.394 94.384 L 214.128 91.416 C 214.146 91.391 214.164 91.367 214.182 91.343 C 214.359 91.142 215.186 90.339 215.642 91.203 C 216.159 92.17 217.144 94.177 216.421 96.068 Z" fill="white"/>
  <path d="M 209.865 78.327 C 209.859 78.321 209.853 78.315 209.846 78.315 C 206.872 77.251 203.673 76.673 200.34 76.673 C 200.225 76.673 200.109 76.673 199.994 76.679 C 184.601 76.862 172.181 89.403 172.181 104.838 C 172.181 108.475 172.869 111.954 174.121 115.141 C 174.127 115.147 174.127 115.147 174.127 115.147 C 178.239 125.602 188.426 133.004 200.34 133.004 C 215.898 133.004 228.506 120.396 228.506 104.838 C 228.506 92.626 220.733 82.226 209.865 78.327 Z M 200.34 132.092 C 192.969 132.092 186.273 129.154 181.365 124.368 C 181.347 124.362 181.335 124.349 181.322 124.331 C 178.44 121.521 176.177 118.079 174.76 114.229 C 173.683 111.297 173.094 108.135 173.094 104.838 C 173.094 90.132 184.795 78.115 199.373 77.604 C 199.69 77.592 200.018 77.585 200.34 77.585 C 207.991 77.585 214.913 80.754 219.863 85.845 C 224.644 90.753 227.593 97.461 227.593 104.838 C 227.593 119.867 215.369 132.092 200.34 132.092 Z M 192.124 93.021 L 189.867 91.75 L 186.504 89.859 L 184.862 91.501 L 187.033 95.971 L 187.824 97.595 L 190.719 98.562 L 195.572 103.3 L 198.139 100.97 L 193.766 96.719 L 192.124 93.021 Z" fill="white"/>
  <path d="M 200.596 75.767 C 200.535 75.761 200.468 75.761 200.407 75.761 L 200.34 75.761 C 199.44 75.761 198.546 75.803 197.664 75.889 C 196.429 75.998 195.219 76.187 194.039 76.454 C 194.033 76.454 194.021 76.46 194.015 76.46 C 193.997 76.466 193.978 76.466 193.96 76.472 C 183.055 78.917 174.45 87.517 171.986 98.422 C 171.986 98.434 171.98 98.446 171.98 98.459 C 171.974 98.483 171.968 98.501 171.968 98.525 C 171.512 100.557 171.269 102.667 171.269 104.838 C 171.269 107.667 171.676 110.403 172.436 112.988 C 172.704 113.925 173.026 114.837 173.385 115.731 C 173.403 115.774 173.422 115.816 173.44 115.859 C 177.788 126.442 188.207 133.916 200.34 133.916 C 216.372 133.916 229.418 120.871 229.418 104.838 C 229.418 88.892 216.512 75.901 200.596 75.767 Z M 200.34 132.092 C 192.969 132.092 186.273 129.154 181.365 124.368 C 181.346 124.362 181.334 124.349 181.322 124.331 C 178.439 121.521 176.177 118.079 174.76 114.229 C 173.683 111.297 173.093 108.135 173.093 104.838 C 173.093 90.132 184.795 78.115 199.373 77.604 C 199.689 77.592 200.018 77.585 200.34 77.585 C 207.991 77.585 214.912 80.754 219.863 85.845 C 224.643 90.753 227.593 97.461 227.593 104.838 C 227.593 119.867 215.368 132.092 200.34 132.092 Z" fill="#003CB6"/>
  <path d="M 216.421 96.068 C 215.703 97.954 213.811 99.73 212.796 100.143 C 212.327 100.332 211.762 100.386 211.269 100.386 C 210.697 100.386 210.229 100.314 210.162 100.314 C 210.065 100.295 208.897 100.064 207.255 101.767 C 205.613 103.464 197.25 111.839 196.825 112.264 L 196.794 112.295 C 196.648 112.416 195.438 113.426 195.438 114.886 C 195.42 116.437 195.687 117.501 194.228 119.545 C 192.774 121.588 189.739 121.643 189.265 121.388 L 189.228 121.388 C 189.082 121.333 188.334 120.962 189.228 119.867 C 189.837 119.101 190.347 118.267 190.755 117.385 C 190.822 117.239 190.791 117.069 190.688 116.954 L 190.129 116.37 C 190.086 116.327 190.031 116.291 189.97 116.272 L 188.407 115.762 C 188.231 115.707 188.042 115.78 187.945 115.932 L 186.072 118.839 C 186.072 118.839 185.689 119.502 184.892 118.742 C 184.868 118.724 184.849 118.693 184.831 118.669 C 184.661 118.389 183.712 116.71 184.101 114.971 C 184.527 113.055 184.953 112.514 186.023 111.535 C 186.984 110.744 188.188 110.306 189.435 110.306 C 190.499 110.312 191.527 109.874 192.263 109.102 C 192.689 108.634 195.231 106.073 197.713 103.586 C 200.194 101.092 202.615 98.677 202.803 98.489 C 203.667 97.631 204.141 96.458 204.111 95.241 C 204.141 93.046 204.616 90.972 206.404 89.482 C 207.565 88.551 209.025 88.095 210.509 88.198 L 210.527 88.198 C 210.643 88.204 211.598 88.265 211.233 89.336 C 210.929 90.266 209.645 92.06 209.22 92.675 C 209.134 92.808 209.134 92.973 209.22 93.106 C 209.712 93.848 210.485 94.378 211.36 94.56 L 211.403 94.56 L 212.017 94.584 C 212.169 94.59 212.309 94.511 212.394 94.384 L 214.128 91.416 C 214.146 91.391 214.164 91.367 214.182 91.343 C 214.359 91.142 215.186 90.339 215.642 91.203 C 216.159 92.17 217.144 94.177 216.421 96.068 Z" fill="#FF4415"/>
  <path d="M 198.138 100.97 L 195.572 103.3 L 190.718 98.562 L 187.823 97.595 L 187.033 95.971 L 184.861 91.501 L 186.504 89.859 L 189.867 91.75 L 192.123 93.021 L 193.765 96.719 L 198.138 100.97 Z" fill="#FF4415"/>
  <path d="M 214.869 115.828 L 211.105 119.587 C 210.758 119.934 210.205 119.934 209.858 119.587 L 201.654 111.389 C 201.313 111.042 201.313 110.482 201.654 110.136 L 205.345 106.444 C 205.692 106.103 206.251 106.103 206.598 106.45 L 214.869 114.569 C 214.869 114.576 214.869 114.576 214.876 114.576 C 215.216 114.922 215.216 115.482 214.869 115.828 Z" fill="#FF4415"/>
  <path d="M 188.814 40.267 L 153.065 40.267 C 152.56 40.267 152.152 39.859 152.152 39.355 C 152.152 38.85 152.56 38.442 153.065 38.442 L 188.814 38.442 C 189.319 38.442 189.726 38.85 189.726 39.355 C 189.726 39.859 189.319 40.267 188.814 40.267 Z" fill="#FF4415"/>
  <path d="M 144.472 40.267 C 144.241 40.267 144.016 40.182 143.839 40.012 L 140.956 37.214 C 140.598 36.861 140.585 36.283 140.938 35.924 C 141.291 35.566 141.869 35.553 142.227 35.906 L 144.46 38.071 L 147.969 34.495 C 148.322 34.136 148.899 34.13 149.258 34.483 C 149.617 34.836 149.623 35.414 149.27 35.772 L 145.122 39.993 C 144.946 40.176 144.709 40.267 144.472 40.267 Z" fill="#FF4415"/>
  <path d="M 188.815 59.729 L 153.065 59.729 C 152.56 59.729 152.153 59.322 152.153 58.817 C 152.153 58.312 152.56 57.904 153.065 57.904 L 188.815 57.904 C 189.319 57.904 189.727 58.312 189.727 58.817 C 189.727 59.322 189.319 59.729 188.815 59.729 Z" fill="#FF4415"/>
  <path d="M 144.472 59.729 C 144.241 59.729 144.016 59.644 143.839 59.474 L 140.956 56.676 C 140.598 56.323 140.585 55.745 140.938 55.387 C 141.291 55.028 141.869 55.016 142.227 55.368 L 144.46 57.533 L 147.969 53.957 C 148.322 53.598 148.899 53.592 149.258 53.945 C 149.617 54.298 149.623 54.876 149.27 55.235 L 145.122 59.455 C 144.946 59.638 144.709 59.729 144.472 59.729 Z" fill="#FF4415"/>
  <path d="M 180.647 79.191 L 153.065 79.191 C 152.56 79.191 152.153 78.784 152.153 78.279 C 152.153 77.774 152.56 77.367 153.065 77.367 L 180.653 77.367 C 181.158 77.367 181.565 77.774 181.565 78.279 C 181.565 78.784 181.151 79.191 180.647 79.191 Z" fill="#FF4415"/>
  <path d="M 144.472 79.191 C 144.241 79.191 144.016 79.106 143.839 78.936 L 140.956 76.138 C 140.598 75.785 140.585 75.207 140.938 74.849 C 141.291 74.49 141.869 74.478 142.227 74.83 L 144.46 76.996 L 147.969 73.419 C 148.322 73.061 148.899 73.054 149.258 73.407 C 149.617 73.76 149.623 74.338 149.27 74.697 L 145.122 78.917 C 144.946 79.1 144.709 79.191 144.472 79.191 Z" fill="#FF4415"/>
  <path d="M 168.246 98.653 L 153.065 98.653 C 152.56 98.653 152.153 98.246 152.153 97.741 C 152.153 97.236 152.56 96.829 153.065 96.829 L 168.246 96.829 C 168.75 96.829 169.158 97.236 169.158 97.741 C 169.158 98.246 168.75 98.653 168.246 98.653 Z" fill="#FF4415"/>
  <path d="M 144.472 98.653 C 144.241 98.653 144.016 98.568 143.839 98.398 L 140.956 95.6 C 140.598 95.247 140.585 94.67 140.938 94.311 C 141.291 93.952 141.869 93.94 142.227 94.292 L 144.46 96.458 L 147.969 92.881 C 148.322 92.523 148.899 92.517 149.258 92.869 C 149.617 93.222 149.623 93.8 149.27 94.159 L 145.122 98.379 C 144.946 98.562 144.709 98.653 144.472 98.653 Z" fill="#FF4415"/>
</svg>