<?xml version="1.0" encoding="utf-8"?>
<svg width="250" height="203" viewBox="0 0 250 203" fill="none" xmlns="http://www.w3.org/2000/svg">
  <rect width="250" height="203" rx="8" fill="#EEEEEE"/>
  <path fill-rule="evenodd" clip-rule="evenodd" d="M 153.923 24.176 C 154.41 24.669 154.683 25.325 154.677 26.019 C 154.677 26.718 154.403 27.369 153.911 27.862 C 153.436 28.348 152.761 28.622 152.08 28.622 C 151.387 28.616 150.718 28.342 150.243 27.856 L 150.201 27.813 C 149.739 27.326 149.483 26.688 149.483 26.013 C 149.489 25.313 149.757 24.663 150.25 24.176 C 150.748 23.683 151.399 23.41 152.08 23.41 C 152.086 23.41 152.086 23.41 152.086 23.41 C 152.78 23.416 153.443 23.683 153.923 24.176 Z" fill="#003CB6"/>
  <path fill-rule="evenodd" clip-rule="evenodd" d="M 158.235 25.873 L 158.235 25.496 L 158.217 25.484 L 158.217 25.289 L 158.193 25.271 L 158.193 25.137 L 158.174 25.119 L 158.174 25.064 L 158.15 24.967 L 158.15 24.954 C 157.931 23.689 157.335 22.558 156.453 21.664 C 155.723 20.934 154.805 20.387 153.771 20.095 L 153.753 20.083 L 153.71 20.083 L 153.71 20.071 L 153.686 20.071 L 153.686 20.059 C 153.297 19.961 152.889 19.894 152.506 19.864 L 151.685 19.864 C 150.158 19.98 148.76 20.63 147.726 21.634 C 147.19 22.205 146.734 22.856 146.436 23.592 L 146.412 23.598 L 146.412 23.635 L 146.388 23.641 C 146.199 24.115 146.065 24.62 145.998 25.125 L 145.998 25.137 L 145.98 25.198 L 145.98 25.295 L 145.956 25.319 L 145.956 25.526 L 145.938 25.532 L 145.938 25.806 L 145.931 25.824 L 145.931 26.469 L 145.956 26.493 L 145.956 26.633 L 145.974 26.706 L 145.974 26.858 L 145.998 26.913 L 145.998 26.98 L 146.017 26.998 L 146.017 27.12 L 146.041 27.15 L 146.041 27.18 L 146.059 27.223 L 146.059 27.308 L 146.083 27.375 L 146.083 27.387 L 146.102 27.442 L 146.102 27.527 L 146.126 27.582 L 146.126 27.6 L 146.144 27.643 L 146.144 27.667 L 146.169 27.71 L 146.169 27.74 L 146.187 27.776 L 146.187 27.819 L 146.211 27.837 L 146.211 27.892 L 146.229 27.904 L 146.254 27.959 L 146.254 28.032 L 146.272 28.087 L 146.296 28.099 L 146.315 28.16 L 146.339 28.227 L 146.339 28.239 L 146.357 28.281 L 146.357 28.3 L 146.381 28.342 L 146.406 28.379 L 146.406 28.397 L 146.424 28.439 L 146.442 28.464 L 146.467 28.518 L 146.467 28.531 L 146.491 28.573 L 146.491 28.591 L 146.509 28.646 L 146.509 28.658 L 146.552 28.713 L 146.576 28.774 L 146.619 28.829 L 146.619 28.853 L 146.637 28.883 L 146.661 28.908 L 146.661 28.95 L 146.68 28.969 L 146.704 28.999 L 146.722 29.048 L 146.722 29.066 L 146.746 29.096 L 146.771 29.121 L 146.789 29.163 L 146.807 29.175 L 146.832 29.23 L 146.832 29.236 L 146.874 29.291 L 146.892 29.346 L 146.892 29.358 L 146.941 29.4 L 146.941 29.413 L 146.984 29.455 L 146.984 29.473 L 147.026 29.51 L 147.026 29.528 L 147.044 29.565 L 147.069 29.595 L 147.087 29.613 L 147.111 29.65 L 147.13 29.668 L 147.154 29.711 L 147.172 29.723 L 147.196 29.765 L 147.221 29.777 L 147.239 29.82 L 147.263 29.832 L 147.282 29.887 L 147.324 29.929 L 147.349 29.942 L 147.367 29.984 L 147.391 30.002 L 147.391 30.015 L 147.409 30.039 L 147.434 30.039 L 147.434 30.057 L 147.452 30.069 L 147.476 30.088 L 147.476 30.1 L 147.494 30.112 L 147.494 30.124 L 147.519 30.136 L 147.519 30.148 L 147.537 30.148 L 147.561 30.179 L 147.561 30.191 L 147.586 30.209 L 147.604 30.234 L 147.628 30.246 L 147.628 30.264 L 147.671 30.288 L 147.671 30.307 L 147.689 30.307 L 147.713 30.355 C 148.309 30.945 149.021 31.42 149.812 31.736 L 149.86 31.754 L 149.879 31.766 L 150.091 31.839 L 150.116 31.839 L 150.183 31.864 L 150.183 31.876 L 150.244 31.882 L 150.371 31.93 L 150.396 31.93 L 150.438 31.949 L 150.462 31.949 L 150.523 31.973 L 150.548 31.973 L 150.59 31.979 L 150.608 31.979 L 150.651 32.003 L 150.675 32.003 L 150.718 32.016 L 150.76 32.034 L 150.785 32.034 L 150.913 32.052 L 150.931 32.064 L 150.998 32.076 L 151.058 32.089 L 151.058 32.095 L 151.15 32.095 L 151.211 32.107 L 151.277 32.119 L 151.296 32.119 L 151.363 32.131 L 151.429 32.131 L 151.448 32.143 L 151.49 32.143 L 151.515 32.149 L 151.6 32.149 L 151.642 32.155 L 151.685 32.162 L 151.794 32.162 L 151.837 32.174 L 152.348 32.174 L 152.372 32.168 L 152.457 32.168 L 152.482 32.155 L 152.652 32.155 L 152.676 32.143 L 152.695 32.143 L 152.737 32.131 L 152.822 32.131 L 152.847 32.125 L 152.889 32.125 L 152.913 32.113 L 152.974 32.113 L 152.999 32.101 L 153.084 32.089 L 153.388 32.04 L 153.449 32.016 L 153.473 32.016 L 153.534 31.997 L 153.619 31.985 L 153.668 31.973 L 153.686 31.961 L 153.704 31.961 L 153.728 31.955 L 153.753 31.943 L 153.899 31.9 L 153.923 31.9 L 153.984 31.876 L 154.051 31.857 L 154.075 31.845 L 154.118 31.833 L 154.118 31.821 L 154.136 31.821 L 154.178 31.803 L 154.245 31.791 L 154.27 31.778 L 154.331 31.748 L 154.397 31.73 L 154.483 31.693 L 154.525 31.675 L 154.549 31.663 L 154.677 31.608 L 154.677 31.596 L 154.695 31.59 L 154.738 31.578 L 154.762 31.566 L 154.933 31.468 L 154.957 31.468 L 154.975 31.45 L 155.024 31.438 L 155.085 31.395 L 155.152 31.365 C 155.255 31.298 155.34 31.237 155.45 31.17 L 155.474 31.158 L 155.517 31.128 L 155.644 31.042 L 155.687 31.018 L 155.711 31 L 155.729 30.976 L 155.772 30.957 L 155.796 30.933 L 155.815 30.915 L 155.839 30.89 L 155.881 30.866 L 155.906 30.848 L 155.924 30.824 L 155.948 30.817 L 155.967 30.805 L 155.991 30.775 L 156.009 30.763 L 156.033 30.738 L 156.052 30.726 L 156.076 30.72 L 156.094 30.684 L 156.119 30.678 L 156.119 30.665 L 156.143 30.641 L 156.161 30.635 L 156.186 30.623 L 156.204 30.598 L 156.228 30.58 L 156.228 30.568 L 156.246 30.544 L 156.271 30.526 L 156.313 30.501 L 156.338 30.483 L 156.338 30.471 L 156.356 30.446 L 156.398 30.404 L 156.423 30.373 C 157 29.826 157.432 29.163 157.755 28.421 L 157.755 28.409 L 157.779 28.354 L 157.822 28.281 L 157.864 28.154 L 157.888 28.087 L 157.888 28.075 L 157.907 28.002 L 157.931 27.959 L 157.949 27.935 L 157.949 27.886 L 157.974 27.862 L 157.974 27.819 L 157.998 27.789 L 157.998 27.746 L 158.016 27.71 L 158.016 27.679 L 158.04 27.649 L 158.04 27.6 L 158.059 27.558 L 158.059 27.46 L 158.083 27.418 L 158.083 27.393 L 158.101 27.339 L 158.101 27.326 L 158.126 27.266 L 158.126 27.187 L 158.15 27.114 L 158.168 27.041 L 158.168 26.955 L 158.193 26.901 L 158.193 26.809 L 158.211 26.761 L 158.211 26.572 L 158.235 26.536 L 158.235 26.171 L 158.259 26.11 L 158.259 25.891 L 158.235 25.873 Z M 154.343 28.287 C 153.753 28.883 152.932 29.224 152.08 29.224 C 152.08 29.224 152.08 29.224 152.074 29.224 C 151.223 29.218 150.402 28.877 149.812 28.275 L 149.769 28.233 C 149.191 27.624 148.875 26.834 148.875 26.001 C 148.881 25.137 149.216 24.334 149.824 23.738 C 150.432 23.13 151.247 22.808 152.092 22.795 C 152.944 22.802 153.765 23.142 154.355 23.744 C 154.957 24.346 155.291 25.155 155.285 26.019 C 155.285 26.876 154.951 27.679 154.343 28.287 Z" fill="#003CB6"/>
  <path fill-rule="evenodd" clip-rule="evenodd" d="M 152.064 34.973 L 144.784 61.861 C 145.563 62.36 146.353 62.792 147.211 63.139 C 147.941 63.418 148.695 63.643 149.467 63.795 L 149.467 63.005 C 149.467 62.53 149.857 62.153 150.331 62.153 L 154.132 62.165 C 154.607 62.165 154.996 62.542 154.99 63.011 L 154.99 63.747 C 155.677 63.595 156.346 63.382 156.991 63.126 C 157.787 62.816 158.542 62.433 159.229 61.983 L 152.064 34.973 Z M 145.028 29.451 L 145.009 29.427 C 144.924 29.238 144.833 29.043 144.748 28.849 L 144.73 28.776 L 144.73 28.758 L 144.705 28.703 L 144.687 28.66 L 144.663 28.575 L 144.644 28.551 L 144.62 28.49 L 144.62 28.466 L 144.602 28.393 L 144.535 28.21 L 144.535 28.162 L 144.517 28.119 L 144.517 28.089 L 144.492 28.028 L 144.492 28.016 L 144.474 27.936 L 144.474 27.93 L 144.45 27.839 L 144.432 27.778 L 144.432 27.748 L 144.407 27.651 L 144.407 27.626 L 144.389 27.553 L 144.389 27.541 L 144.365 27.468 L 144.365 27.456 L 144.346 27.377 L 144.346 27.304 L 144.322 27.274 L 144.322 27.176 L 144.304 27.146 L 144.304 27.067 L 144.279 26.982 L 144.279 26.884 L 144.261 26.824 L 144.261 26.659 L 144.237 26.598 L 144.237 26.252 L 144.219 26.185 L 144.219 25.802 L 144.237 25.79 L 144.237 25.723 L 144.243 25.704 L 144.243 25.4 L 144.261 25.394 L 144.261 25.187 L 144.286 25.157 L 144.286 24.993 L 144.304 24.962 L 144.304 24.847 L 144.328 24.835 L 144.328 24.737 L 144.352 24.707 L 144.352 24.585 L 144.371 24.567 L 144.371 24.488 L 144.395 24.47 L 144.395 24.445 L 144.456 24.135 L 119.015 24.081 L 118.918 67.262 C 119.027 68.047 120.402 77.023 134.816 81.932 L 136.16 76.908 C 135.576 76.58 135.108 76.111 134.786 75.558 C 134.336 74.761 134.19 73.806 134.451 72.863 L 138.654 57.33 C 138.179 56.375 137.814 55.366 137.559 54.314 L 137.559 54.277 C 137.285 53.152 137.133 51.978 137.139 50.786 C 137.139 50.324 137.529 49.935 137.997 49.941 C 138.471 49.941 138.86 50.33 138.854 50.786 C 138.854 51.863 138.982 52.897 139.195 53.876 L 139.213 53.906 C 139.262 54.131 139.323 54.356 139.39 54.575 L 145.824 30.752 C 145.52 30.351 145.24 29.907 145.028 29.451 Z M 226.769 24.482 L 226.75 24.02 L 226.708 23.57 L 226.708 23.43 C 226.416 20.882 224.974 19.227 223.192 18.461 C 222.402 18.126 221.538 17.95 220.699 17.95 C 219.841 17.944 218.959 18.114 218.187 18.449 C 216.399 19.209 214.957 20.857 214.653 23.381 L 214.653 23.436 L 214.586 24.458 L 214.568 32.711 L 214.568 32.753 L 214.44 91.389 C 214.677 91.091 214.915 90.799 215.17 90.544 C 216.575 89.126 218.466 88.263 220.553 88.269 C 222.615 88.269 224.506 89.145 225.899 90.568 C 226.221 90.878 226.495 91.237 226.756 91.602 C 227.425 69.707 226.726 46.377 226.769 24.482 Z M 223.484 26.015 L 223.484 56.229 C 223.484 56.564 223.211 56.838 222.876 56.838 C 222.536 56.838 222.268 56.564 222.268 56.229 L 222.268 26.015 C 222.268 25.68 222.536 25.406 222.876 25.406 C 223.211 25.406 223.484 25.68 223.484 26.015 Z M 222.268 60.608 C 222.268 60.268 222.536 60 222.876 60 C 223.211 60 223.484 60.268 223.484 60.608 L 223.484 63.51 C 223.484 63.844 223.211 64.118 222.876 64.118 C 222.536 64.118 222.268 63.844 222.268 63.51 L 222.268 60.608 Z M 224.689 91.766 C 223.594 90.665 222.134 89.984 220.547 89.984 C 218.935 89.978 217.469 90.653 216.368 91.748 C 215.249 92.861 214.538 94.43 214.428 96.157 C 214.404 96.589 214.063 96.942 213.607 96.954 C 213.157 96.972 212.749 96.607 212.731 96.145 L 212.731 95.683 L 212.865 33.587 L 170.012 33.489 C 169.544 33.489 169.154 33.106 169.154 32.644 C 169.154 32.17 169.544 31.792 170.018 31.792 L 212.871 31.884 L 212.889 24.464 L 212.889 24.287 L 159.721 24.172 L 159.782 24.488 L 159.807 24.506 L 159.807 24.573 L 159.825 24.604 L 159.825 24.689 L 159.843 24.725 L 159.843 24.823 L 159.867 24.877 L 159.867 24.981 L 159.886 25.005 L 159.886 25.133 L 159.91 25.157 L 159.91 25.443 L 159.934 25.479 L 159.934 25.577 L 159.928 25.595 L 159.928 25.869 L 159.953 25.887 L 159.953 26.136 L 159.928 26.209 L 159.928 26.629 L 159.904 26.641 L 159.904 26.866 L 159.886 26.933 L 159.886 27.03 L 159.861 27.109 L 159.861 27.225 L 159.837 27.267 L 159.837 27.353 L 159.819 27.42 L 159.819 27.432 L 159.794 27.517 L 159.776 27.59 L 159.776 27.669 L 159.752 27.711 L 159.752 27.754 L 159.734 27.809 L 159.734 27.827 L 159.709 27.906 L 159.685 27.979 L 159.685 27.997 L 159.667 28.064 L 159.667 28.089 L 159.648 28.137 L 159.642 28.18 L 159.624 28.216 L 159.624 28.277 L 159.6 28.289 L 159.582 28.374 L 159.557 28.453 L 159.557 28.46 L 159.539 28.526 L 159.496 28.666 L 159.472 28.733 L 159.448 28.739 L 159.405 28.891 L 159.387 28.916 L 159.363 28.964 L 159.363 29.001 L 159.344 29.043 L 159.32 29.098 L 159.296 29.116 L 159.277 29.183 L 159.277 29.195 L 159.253 29.256 L 159.235 29.268 L 159.211 29.335 L 159.211 29.354 L 159.168 29.408 L 159.168 29.439 L 159.15 29.475 L 159.101 29.536 L 159.083 29.615 L 159.083 29.621 L 159.04 29.688 L 159.04 29.7 L 158.998 29.749 L 158.973 29.773 L 158.949 29.828 L 158.931 29.858 L 158.913 29.889 L 158.888 29.944 L 158.888 29.956 L 158.718 30.223 L 158.694 30.266 L 158.669 30.302 L 158.584 30.43 L 158.542 30.491 L 158.542 30.503 L 158.499 30.558 L 158.481 30.576 L 158.456 30.613 L 158.432 30.655 L 158.414 30.673 L 158.371 30.728 L 158.371 30.752 L 158.304 30.807 L 164.702 54.879 C 164.788 54.606 164.873 54.338 164.94 54.058 C 165.201 53.043 165.329 51.966 165.335 50.847 C 165.335 50.385 165.724 50.002 166.193 50.002 C 166.667 50.002 167.056 50.391 167.05 50.853 C 167.05 52.1 166.874 53.31 166.594 54.472 C 166.308 55.56 165.925 56.6 165.426 57.574 L 169.519 72.943 C 169.757 73.885 169.604 74.84 169.148 75.637 C 168.826 76.184 168.352 76.652 167.768 76.975 L 169.282 82.728 C 169.392 83.178 169.13 83.641 168.68 83.756 C 168.23 83.878 167.756 83.604 167.646 83.154 L 166.138 77.401 C 165.469 77.425 164.824 77.249 164.289 76.926 C 163.492 76.464 162.872 75.71 162.616 74.761 L 159.673 63.698 C 159.028 64.087 158.341 64.428 157.629 64.714 C 156.772 65.048 155.89 65.316 154.984 65.492 L 154.984 66.836 C 154.984 67.299 154.594 67.688 154.12 67.682 L 150.319 67.676 C 149.844 67.676 149.461 67.286 149.461 66.824 L 149.461 65.535 C 148.476 65.364 147.509 65.079 146.584 64.726 C 145.812 64.41 145.04 64.02 144.328 63.589 L 141.318 74.718 C 141.062 75.661 140.436 76.415 139.657 76.871 C 139.098 77.194 138.453 77.364 137.79 77.34 L 136.422 82.442 C 146.542 85.465 162.464 86.529 187.552 82.144 C 188.027 82.059 188.452 82.369 188.537 82.832 C 188.623 83.294 188.3 83.738 187.85 83.823 C 137.693 92.587 123.127 79.578 118.912 72.073 L 118.833 107.238 L 194.802 107.403 L 194.875 75.199 L 194.875 75.175 L 194.881 70.558 L 194.881 70.492 L 194.905 70.473 L 194.905 70.364 L 194.929 70.352 L 194.929 70.297 L 194.948 70.291 L 194.948 70.224 L 194.972 70.212 L 194.972 70.181 L 194.99 70.169 L 194.99 70.139 L 199.029 61.721 L 199.029 61.679 L 199.053 61.679 L 199.053 61.661 L 199.071 61.655 L 199.071 61.63 L 199.096 61.606 L 199.096 61.588 L 199.114 61.588 L 199.114 61.557 L 199.138 61.545 L 199.138 61.521 L 199.156 61.515 L 199.181 61.502 L 199.181 61.49 L 199.199 61.478 L 199.199 61.46 L 199.223 61.448 L 199.242 61.436 L 199.242 61.417 L 199.266 61.417 L 199.266 61.411 L 199.284 61.399 L 199.284 61.387 L 199.308 61.387 L 199.308 61.369 L 199.333 61.369 L 199.333 61.357 L 199.351 61.357 L 199.351 61.344 L 199.375 61.332 L 199.394 61.332 L 199.418 61.32 L 199.418 61.314 L 199.436 61.314 L 199.436 61.302 L 199.461 61.302 L 199.461 61.29 L 199.479 61.29 L 199.479 61.277 L 199.503 61.277 L 199.503 61.271 L 199.546 61.271 L 199.546 61.259 L 199.564 61.259 L 199.588 61.247 L 199.631 61.247 L 199.631 61.235 L 199.74 61.235 L 199.74 61.229 L 199.825 61.229 L 199.825 61.235 L 199.953 61.235 L 199.953 61.247 L 199.996 61.247 L 200.02 61.259 L 200.038 61.259 L 200.038 61.271 L 200.081 61.284 L 200.105 61.29 L 200.123 61.29 L 200.123 61.302 L 200.148 61.314 L 200.166 61.314 L 200.19 61.326 L 200.19 61.338 L 200.209 61.338 L 200.209 61.344 L 200.251 61.369 L 200.275 61.369 L 200.275 61.387 L 200.294 61.387 L 200.294 61.399 L 200.318 61.411 L 200.318 61.423 L 200.342 61.436 L 200.361 61.442 L 200.361 61.466 L 200.385 61.466 L 200.385 61.484 L 200.403 61.484 L 200.403 61.509 L 200.428 61.509 L 200.428 61.533 L 200.446 61.533 L 200.446 61.539 L 200.47 61.563 L 200.47 61.582 L 200.488 61.582 L 200.488 61.606 L 200.513 61.63 L 200.513 61.636 L 200.531 61.648 L 200.531 61.679 L 200.555 61.703 L 200.555 61.721 L 204.557 70.175 L 204.557 70.206 L 204.575 70.23 L 204.575 70.26 L 204.6 70.26 L 204.6 70.315 L 204.618 70.327 L 204.618 70.382 L 204.642 70.388 L 204.642 70.498 L 204.636 70.51 L 204.661 70.522 L 204.661 70.583 L 204.648 75.205 L 204.648 75.223 L 204.581 107.421 L 214.939 107.439 C 218.144 107.445 221.07 106.144 223.18 104.039 C 225.206 102.014 226.501 99.247 226.61 96.194 L 226.61 96.175 C 226.507 94.436 225.783 92.879 224.689 91.766 Z" fill="#003CB6"/>
  <path d="M 224.899 91.539 C 223.701 90.335 222.156 89.672 220.545 89.672 C 218.903 89.666 217.357 90.323 216.153 91.521 C 214.961 92.713 214.237 94.349 214.122 96.137 C 214.11 96.417 213.885 96.636 213.593 96.642 C 213.459 96.648 213.319 96.593 213.21 96.496 C 213.1 96.392 213.039 96.265 213.033 96.137 L 213.167 33.275 L 170.01 33.177 C 169.864 33.177 169.724 33.122 169.621 33.013 C 169.517 32.91 169.456 32.776 169.456 32.636 C 169.456 32.332 169.7 32.119 170.016 32.089 L 213.173 32.186 L 213.191 23.975 L 159.342 23.86 L 159.537 24.809 L 159.537 24.815 L 159.579 24.973 L 159.561 24.973 L 159.604 25.271 L 159.604 25.289 L 159.683 25.35 L 159.604 25.374 L 159.908 25.374 L 160.06 25.332 L 159.999 25.374 L 159.908 25.374 L 159.604 25.435 L 159.622 25.563 L 159.622 25.709 L 159.926 25.727 L 159.622 25.782 L 159.926 25.818 L 159.622 25.855 L 159.646 26.001 L 159.665 26.025 L 159.622 26.286 L 159.926 26.286 L 159.622 26.365 L 159.598 26.785 L 159.61 26.785 L 159.555 27.126 L 159.567 27.132 L 158.691 29.656 L 158.947 29.826 L 158.655 29.723 L 158.327 30.258 L 157.962 30.69 L 164.67 55.954 L 164.986 54.969 C 165.077 54.689 165.163 54.415 165.23 54.135 C 165.497 53.095 165.631 51.989 165.637 50.845 C 165.637 50.553 165.892 50.304 166.19 50.304 C 166.324 50.298 166.476 50.365 166.586 50.468 C 166.689 50.571 166.75 50.705 166.744 50.851 C 166.744 51.982 166.592 53.174 166.294 54.397 C 166.014 55.473 165.631 56.495 165.15 57.438 L 165.102 57.541 L 169.225 73.014 C 169.432 73.853 169.31 74.735 168.885 75.477 C 168.581 75.994 168.143 76.42 167.62 76.705 L 167.413 76.821 L 168.988 82.793 C 169.055 83.097 168.885 83.389 168.599 83.462 C 168.459 83.499 168.301 83.475 168.179 83.402 C 168.058 83.329 167.972 83.213 167.942 83.073 L 166.367 77.089 L 166.124 77.095 C 165.528 77.113 164.944 76.967 164.439 76.663 C 163.679 76.213 163.131 75.513 162.906 74.68 L 159.859 63.228 L 159.519 63.435 C 158.88 63.812 158.211 64.152 157.518 64.432 C 156.642 64.767 155.766 65.022 154.927 65.192 L 154.677 65.241 L 154.677 66.834 C 154.677 66.974 154.617 67.114 154.513 67.218 C 154.41 67.321 154.27 67.364 154.118 67.376 L 150.317 67.37 C 150.013 67.37 149.763 67.12 149.763 66.822 L 149.763 65.277 L 149.514 65.235 C 148.583 65.071 147.635 64.803 146.698 64.438 C 145.944 64.134 145.178 63.751 144.484 63.331 L 144.144 63.118 L 141.024 74.631 C 140.799 75.459 140.257 76.158 139.503 76.608 C 138.98 76.906 138.39 77.058 137.8 77.034 L 137.557 77.028 L 136.049 82.647 L 136.334 82.733 C 148.486 86.363 165.734 86.26 187.605 82.441 C 187.903 82.386 188.183 82.587 188.237 82.885 C 188.292 83.176 188.085 83.462 187.793 83.517 C 138.591 92.123 123.678 79.941 119.171 71.919 L 118.606 70.909 L 118.527 107.541 L 195.104 107.705 L 195.177 75.179 L 195.292 70.204 L 199.246 61.969 L 199.349 61.957 L 199.349 61.859 L 199.416 61.853 L 199.416 61.72 L 199.568 61.713 L 199.568 61.671 L 199.61 61.671 L 199.653 61.61 L 199.848 61.561 L 199.848 61.549 L 199.896 61.549 L 199.902 61.634 L 199.981 61.634 L 199.988 61.689 L 200.067 61.689 L 200.073 61.768 L 200.176 61.835 L 200.182 61.884 L 200.292 61.884 L 204.257 70.252 L 204.294 70.557 L 204.33 70.557 L 204.354 70.696 L 204.275 107.717 L 214.937 107.735 L 214.967 107.735 C 218.142 107.735 221.135 106.501 223.391 104.25 C 225.55 102.091 226.803 99.233 226.912 96.149 C 226.809 94.398 226.097 92.762 224.899 91.539 Z M 159.774 24.76 L 159.841 24.772 L 159.738 24.784 L 159.774 24.76 Z M 159.823 24.65 L 159.89 24.638 L 159.871 24.65 L 159.823 24.65 Z M 159.64 24.967 L 159.738 24.924 L 159.865 24.93 L 159.92 24.918 L 159.908 24.93 L 159.865 24.93 L 159.64 24.967 Z M 160.078 25.715 L 160.042 25.745 L 159.926 25.739 L 160.078 25.715 Z M 159.847 25.982 L 159.871 25.958 L 159.95 25.958 L 159.847 25.982 Z M 159.902 26.785 L 159.762 26.816 L 159.634 26.785 L 159.902 26.785 Z M 159.859 27.18 L 159.774 27.193 L 159.598 27.132 L 159.859 27.18 Z M 159.634 29.133 L 159.859 28.5 L 159.926 28.47 L 159.926 28.312 L 160.036 27.862 L 160.23 26.365 L 159.926 26.365 L 160.23 26.293 L 160.255 26.031 L 159.95 26.031 L 160.255 25.958 L 160.255 25.879 L 160.23 25.733 L 160.194 25.696 L 160.23 25.684 L 160.23 25.611 L 159.926 25.587 L 160.236 25.538 L 160.236 25.471 L 160.212 25.344 L 160.182 25.295 L 160.212 25.289 L 160.175 25.289 L 160.157 25.265 L 160.121 25.289 L 159.908 25.289 L 159.701 25.344 L 159.762 25.289 L 159.908 25.289 L 160.212 25.222 L 160.212 25.149 L 160.194 25.003 L 160.188 24.997 L 160.194 24.997 L 160.169 24.851 L 160.145 24.754 L 160.145 24.717 L 160.109 24.474 L 212.583 24.583 L 212.565 31.572 L 170.016 31.48 C 169.383 31.474 168.848 31.997 168.848 32.63 C 168.848 32.94 168.97 33.226 169.189 33.445 C 169.414 33.664 169.7 33.785 170.01 33.785 L 212.559 33.877 L 212.425 95.675 L 212.425 96.149 C 212.437 96.453 212.571 96.733 212.802 96.946 C 213.027 97.153 213.325 97.262 213.617 97.25 C 214.219 97.232 214.7 96.77 214.73 96.167 C 214.833 94.537 215.49 93.041 216.585 91.953 C 217.674 90.87 219.067 90.274 220.539 90.28 C 221.992 90.28 223.385 90.882 224.468 91.965 C 225.556 93.084 226.213 94.58 226.304 96.174 C 226.201 99.056 225.009 101.769 222.959 103.818 C 220.818 105.953 217.978 107.127 214.961 107.127 L 214.937 107.127 L 204.883 107.109 L 204.963 70.575 L 204.658 70.563 L 204.963 70.514 L 204.877 69.948 L 204.786 69.948 L 200.845 61.634 L 200.772 61.276 L 200.73 61.276 L 200.73 61.227 L 200.584 61.16 L 200.578 61.081 L 200.498 61.063 L 200.492 61.032 L 200.407 61.032 L 200.407 60.99 L 200.322 60.99 L 200.322 60.953 L 199.738 60.923 L 199.197 60.971 L 199.112 61.057 L 199.027 61.057 L 198.978 61.124 L 198.941 61.124 L 198.941 61.251 L 198.789 61.294 L 198.789 61.403 L 198.723 61.415 L 198.723 61.659 L 194.727 69.985 L 194.642 70.034 L 194.599 70.392 L 194.575 70.429 L 194.496 107.103 L 119.135 106.932 L 119.208 73.16 C 123.118 79.26 132.971 87.069 157.797 87.069 C 166.063 87.069 175.988 86.199 187.903 84.119 C 188.529 83.998 188.949 83.395 188.839 82.775 C 188.718 82.136 188.128 81.729 187.495 81.845 C 165.899 85.615 148.839 85.749 136.791 82.234 L 138.019 77.642 C 138.646 77.624 139.26 77.453 139.813 77.131 C 140.701 76.602 141.34 75.775 141.607 74.796 L 144.515 64.055 C 145.141 64.414 145.81 64.736 146.473 65.004 C 147.367 65.35 148.267 65.612 149.155 65.788 L 149.155 66.822 C 149.149 67.461 149.672 67.978 150.317 67.978 L 154.118 67.984 C 154.422 68.002 154.72 67.868 154.939 67.649 C 155.164 67.43 155.286 67.145 155.286 66.834 L 155.286 65.74 C 156.088 65.563 156.916 65.314 157.743 64.998 C 158.339 64.754 158.923 64.475 159.482 64.158 L 162.322 74.838 C 162.59 75.823 163.229 76.663 164.129 77.186 C 164.658 77.508 165.266 77.685 165.899 77.703 L 167.352 83.225 C 167.419 83.517 167.601 83.766 167.863 83.918 C 168.131 84.083 168.453 84.131 168.751 84.052 C 169.359 83.894 169.724 83.28 169.578 82.647 L 168.118 77.119 C 168.648 76.784 169.092 76.328 169.408 75.787 C 169.919 74.899 170.059 73.859 169.809 72.862 L 165.746 57.608 C 166.221 56.653 166.604 55.626 166.884 54.543 C 167.194 53.272 167.352 52.031 167.352 50.851 C 167.358 50.547 167.237 50.255 167.012 50.036 C 166.793 49.817 166.501 49.696 166.19 49.696 C 165.546 49.683 165.029 50.213 165.029 50.845 C 165.023 51.836 164.919 52.804 164.706 53.722 L 158.643 30.897 L 159.19 30.033 L 159.19 29.984 L 159.202 29.99 L 159.598 29.212 L 159.579 29.2 L 159.579 29.181 L 159.342 29.042 L 159.634 29.133 Z M 204.64 70.435 L 204.671 70.429 L 204.671 70.441 L 204.64 70.435 Z M 159.062 29.942 L 158.99 29.942 L 158.91 29.887 L 159.062 29.942 Z M 194.915 70.246 L 194.909 70.24 L 194.946 70.24 L 194.915 70.246 Z M 227.21 47.962 C 227.131 40.202 227.058 32.174 227.071 24.474 L 227.01 23.556 L 227.01 23.398 C 226.73 20.977 225.38 19.073 223.312 18.185 C 222.485 17.833 221.585 17.65 220.703 17.65 C 219.784 17.638 218.872 17.827 218.063 18.173 C 215.995 19.055 214.639 20.94 214.347 23.349 L 214.28 24.462 L 214.134 92.275 L 214.675 91.582 C 214.894 91.308 215.131 91.016 215.387 90.761 C 216.786 89.35 218.629 88.571 220.551 88.577 C 222.461 88.577 224.285 89.362 225.684 90.791 C 225.952 91.046 226.213 91.363 226.505 91.782 L 227.028 92.524 L 227.058 91.612 C 227.49 77.399 227.35 62.431 227.21 47.962 Z M 214.742 90.548 L 214.882 24.474 L 214.949 23.416 C 215.217 21.232 216.439 19.517 218.306 18.727 C 219.036 18.41 219.876 18.246 220.697 18.252 C 221.5 18.252 222.321 18.423 223.075 18.739 C 224.96 19.548 226.146 21.226 226.402 23.428 L 226.462 24.48 C 226.45 32.174 226.523 40.196 226.602 47.956 C 226.736 62.139 226.876 76.797 226.475 90.742 C 226.353 90.596 226.231 90.469 226.116 90.353 C 224.601 88.814 222.631 87.963 220.551 87.963 L 220.533 87.963 C 218.446 87.963 216.463 88.802 214.955 90.329 C 214.882 90.408 214.815 90.475 214.742 90.548 Z M 146.059 30.562 C 145.749 30.148 145.494 29.729 145.299 29.315 L 145.038 28.756 L 145.019 28.677 L 145.013 28.683 L 144.819 28.044 L 144.819 28.038 L 144.734 27.728 L 144.734 27.71 L 144.709 27.624 L 144.709 27.582 L 144.648 27.339 L 144.648 27.302 L 144.581 26.943 L 144.581 26.834 L 144.563 26.736 L 144.259 26.736 L 144.563 26.657 L 144.563 26.609 L 144.539 26.542 L 144.539 26.201 L 144.521 26.134 L 144.539 25.776 L 144.235 25.745 L 144.545 25.69 L 144.563 25.338 L 144.259 25.307 L 144.442 25.277 L 144.539 25.319 L 144.588 25.234 L 144.63 24.802 L 144.831 23.829 L 118.709 23.775 L 118.618 67.297 C 118.709 67.96 119.165 70.362 121.257 73.22 C 124.098 77.113 128.629 80.136 134.717 82.209 L 135.021 82.319 L 136.511 76.748 L 136.304 76.632 C 135.787 76.34 135.349 75.915 135.045 75.404 C 134.619 74.644 134.51 73.768 134.741 72.935 L 138.974 57.292 L 138.919 57.189 C 138.463 56.264 138.104 55.267 137.861 54.269 L 137.861 54.233 L 137.855 54.196 C 137.575 53.071 137.435 51.922 137.441 50.778 C 137.441 50.48 137.697 50.237 137.995 50.237 C 138.299 50.237 138.554 50.486 138.548 50.778 C 138.548 51.812 138.664 52.87 138.895 53.929 L 138.925 54.014 C 138.968 54.227 139.035 54.446 139.096 54.652 L 139.4 55.674 L 146.151 30.678 L 146.059 30.562 Z M 144.703 28.701 L 144.612 28.756 L 144.502 28.762 L 144.703 28.701 Z M 144.32 27.217 L 144.241 27.229 L 144.271 27.211 L 144.32 27.217 Z M 144.241 25.836 L 144.247 25.842 L 144.217 25.842 L 144.241 25.836 Z M 144.265 25.459 L 144.241 25.459 L 144.265 25.459 Z M 144.235 25.344 L 144.229 25.332 L 144.259 25.338 L 144.235 25.344 Z M 144.113 25.07 L 144.01 25.021 L 143.937 25.496 L 144.241 25.532 L 144.095 25.557 L 144.077 25.526 L 143.937 25.581 L 143.912 25.915 L 144.217 25.915 L 143.912 25.994 L 143.912 26.183 L 143.931 26.323 L 143.931 26.645 L 143.955 26.73 L 143.955 26.864 L 143.973 26.931 L 143.973 27.016 L 143.998 27.101 L 143.998 27.138 L 144.016 27.272 L 144.125 27.776 L 144.125 27.825 L 144.186 28.05 L 144.186 28.068 L 144.314 28.506 L 144.314 28.531 L 144.411 28.792 L 144.423 28.786 L 144.727 29.546 L 144.77 29.619 C 144.959 30.015 145.202 30.416 145.488 30.805 L 139.4 53.351 C 139.236 52.481 139.156 51.624 139.156 50.784 C 139.163 50.146 138.639 49.629 138.001 49.629 C 137.326 49.629 136.833 50.14 136.833 50.778 C 136.827 51.97 136.973 53.168 137.253 54.3 L 137.253 54.336 L 137.265 54.373 C 137.514 55.413 137.873 56.416 138.323 57.353 L 134.151 72.77 C 133.883 73.762 134.011 74.802 134.522 75.708 C 134.838 76.249 135.276 76.705 135.805 77.04 L 134.601 81.528 C 120.899 76.742 119.354 68.185 119.22 67.26 L 119.317 24.383 L 144.065 24.438 L 143.979 25.015 L 144.01 25.021 L 144.283 25.046 L 144.113 25.07 Z M 144.411 24.638 L 144.429 24.65 L 144.35 24.65 L 144.411 24.638 Z M 144.369 24.535 L 144.417 24.529 L 144.436 24.541 L 144.369 24.535 Z M 144.326 24.802 L 144.423 24.778 L 144.466 24.802 L 144.326 24.802 Z M 152.068 33.798 L 144.436 61.999 L 144.618 62.121 C 145.469 62.662 146.284 63.088 147.099 63.416 C 147.884 63.721 148.656 63.946 149.404 64.091 L 149.769 64.164 L 149.769 63.003 C 149.769 62.857 149.83 62.717 149.934 62.614 C 150.037 62.51 150.195 62.455 150.329 62.455 L 154.13 62.468 C 154.282 62.468 154.422 62.522 154.525 62.626 C 154.629 62.729 154.69 62.863 154.684 63.009 L 154.684 64.122 L 155.055 64.037 C 155.724 63.897 156.393 63.69 157.098 63.41 C 157.913 63.088 158.685 62.693 159.391 62.237 L 159.579 62.115 L 152.068 33.798 Z M 155.292 63.362 L 155.292 63.015 C 155.298 62.705 155.176 62.413 154.951 62.194 C 154.732 61.975 154.44 61.859 154.136 61.859 L 150.329 61.847 C 150.013 61.859 149.727 61.969 149.508 62.182 C 149.289 62.401 149.161 62.687 149.161 62.997 L 149.161 63.422 C 148.559 63.283 147.945 63.094 147.324 62.851 C 146.607 62.565 145.889 62.194 145.135 61.726 L 152.062 36.145 L 158.874 61.841 C 158.254 62.23 157.585 62.565 156.879 62.839 C 156.332 63.058 155.809 63.228 155.292 63.362 Z" fill="#003CB6"/>
  <path fill-rule="evenodd" clip-rule="evenodd" d="M 152.816 13.904 C 152.646 13.733 152.391 13.612 152.111 13.612 C 151.831 13.612 151.594 13.727 151.399 13.898 C 151.229 14.08 151.095 14.335 151.095 14.609 L 151.089 18.222 C 151.302 18.191 151.521 18.167 151.758 18.167 L 151.776 18.167 L 151.795 18.167 L 151.819 18.167 L 151.837 18.167 L 151.855 18.155 L 151.88 18.155 L 151.898 18.155 L 151.916 18.155 L 151.935 18.155 L 151.959 18.155 L 151.977 18.155 L 151.995 18.155 L 152.02 18.155 L 152.038 18.155 L 152.056 18.155 L 152.08 18.155 L 152.099 18.155 L 152.117 18.155 L 152.135 18.155 L 152.16 18.155 L 152.178 18.155 L 152.196 18.155 L 152.22 18.155 L 152.239 18.155 L 152.257 18.155 L 152.281 18.155 L 152.299 18.155 L 152.318 18.155 L 152.318 18.167 L 152.336 18.167 L 152.36 18.167 L 152.379 18.167 L 152.397 18.167 L 152.421 18.167 C 152.634 18.179 152.853 18.191 153.066 18.222 L 153.072 14.609 C 153.072 14.354 152.962 14.117 152.816 13.94 L 152.816 13.904 Z" fill="#FF4415"/>
  <path fill-rule="evenodd" clip-rule="evenodd" d="M 202.828 125.154 L 202.84 120.015 L 196.496 120.003 L 196.484 125.142 C 196.484 125.495 196.612 125.811 196.825 126.048 L 196.867 126.078 C 197.105 126.328 197.427 126.468 197.792 126.468 L 201.508 126.474 C 201.854 126.474 202.195 126.334 202.432 126.091 C 202.694 125.847 202.828 125.519 202.828 125.154 Z" fill="#FF4415"/>
  <path fill-rule="evenodd" clip-rule="evenodd" d="M 196.594 74.333 L 202.937 74.346 L 202.944 70.757 L 199.775 64.055 L 196.6 70.745 L 196.594 74.333 Z" fill="#FF4415"/>
  <path d="M 196.493 116.05 L 196.487 118.914 L 202.83 118.928 L 202.836 116.063 L 196.493 116.05 Z" fill="#003CB6"/>
  <path fill-rule="evenodd" clip-rule="evenodd" d="M 202.931 76.055 L 202.864 108.258 L 202.864 108.301 L 202.846 114.973 L 196.509 114.961 L 196.521 108.264 L 196.521 108.246 L 196.588 76.036 L 199.16 76.042 L 199.16 111.062 C 199.16 111.396 199.434 111.67 199.768 111.67 C 200.103 111.67 200.377 111.396 200.377 111.062 L 200.377 76.049 L 202.931 76.055 Z" fill="#FF4415"/>
  <path fill-rule="evenodd" clip-rule="evenodd" d="M 153.905 63.222 L 150.53 63.216 L 150.524 64.736 L 150.524 64.767 L 150.518 66.597 L 153.899 66.603 L 153.905 63.222 Z" fill="#FF4415"/>
  <path fill-rule="evenodd" clip-rule="evenodd" d="M 153.784 24.31 C 153.352 23.878 152.756 23.611 152.087 23.611 C 151.418 23.611 150.816 23.878 150.39 24.304 C 149.94 24.742 149.679 25.344 149.679 26.013 C 149.679 26.658 149.934 27.248 150.341 27.692 L 150.384 27.722 C 150.816 28.166 151.412 28.434 152.081 28.434 C 152.75 28.434 153.346 28.166 153.778 27.728 C 154.228 27.29 154.489 26.688 154.489 26.019 C 154.489 25.35 154.234 24.748 153.784 24.31 Z" fill="#003CB6"/>
  <path d="M 153.838 24.255 C 153.376 23.793 152.755 23.531 152.086 23.531 C 152.086 23.531 152.086 23.531 152.08 23.531 C 151.423 23.531 150.797 23.787 150.335 24.249 C 149.86 24.711 149.599 25.338 149.599 26.013 C 149.599 26.645 149.842 27.26 150.292 27.746 L 150.329 27.77 C 150.785 28.245 151.411 28.506 152.08 28.506 C 152.08 28.506 152.08 28.506 152.086 28.506 C 152.749 28.506 153.37 28.251 153.832 27.783 C 154.3 27.32 154.562 26.694 154.568 26.019 C 154.568 25.344 154.306 24.711 153.838 24.255 Z M 152.086 28.348 C 152.08 28.348 152.08 28.348 152.086 28.348 C 151.448 28.348 150.87 28.105 150.426 27.655 L 150.396 27.631 C 149.976 27.18 149.751 26.603 149.751 26.007 C 149.751 25.368 150 24.784 150.444 24.352 C 150.876 23.914 151.46 23.677 152.08 23.677 C 152.086 23.677 152.086 23.677 152.086 23.677 C 152.713 23.677 153.297 23.921 153.729 24.358 C 154.173 24.79 154.416 25.38 154.416 26.013 C 154.41 26.651 154.166 27.235 153.722 27.667 C 153.291 28.111 152.707 28.348 152.086 28.348 Z" fill="white"/>
  <path fill-rule="evenodd" clip-rule="evenodd" d="M 154.677 26.013 C 154.677 26.712 154.403 27.363 153.911 27.856 C 153.436 28.342 152.761 28.616 152.08 28.616 C 151.387 28.61 150.718 28.336 150.243 27.849 L 150.201 27.807 C 149.739 27.32 149.483 26.682 149.483 26.007 C 149.489 25.307 149.757 24.656 150.25 24.17 C 150.748 23.677 151.399 23.404 152.08 23.404 C 152.086 23.404 152.086 23.404 152.086 23.404 C 152.78 23.41 153.443 23.683 153.923 24.17 C 154.41 24.663 154.683 25.319 154.677 26.013 Z" fill="#FF4415"/>
  <path fill-rule="evenodd" clip-rule="evenodd" d="M 150.627 33.737 L 150.584 33.725 L 150.566 33.725 L 150.523 33.712 L 150.481 33.7 L 150.462 33.7 L 150.389 33.682 L 150.323 33.67 L 150.304 33.658 L 150.262 33.658 L 150.219 33.633 L 150.201 33.633 L 150.152 33.627 L 150.11 33.627 L 150.091 33.615 L 150.049 33.603 L 150.006 33.591 L 149.988 33.579 L 149.921 33.554 L 149.854 33.542 L 149.83 33.53 L 149.812 33.53 L 149.745 33.506 L 149.745 33.493 L 149.678 33.481 L 149.635 33.469 L 149.568 33.445 L 149.55 33.433 L 149.526 33.42 L 149.459 33.396 L 149.392 33.372 L 149.349 33.36 L 149.349 33.347 L 149.283 33.335 L 149.264 33.323 L 149.222 33.299 L 149.179 33.275 L 149.118 33.25 L 149.094 33.238 L 149.076 33.226 L 149.009 33.202 L 148.942 33.177 L 148.924 33.165 L 148.905 33.153 L 148.863 33.122 L 148.845 33.122 L 148.802 33.098 L 148.735 33.074 L 148.693 33.043 L 148.668 33.031 L 148.65 33.074 L 148.583 33.049 L 148.583 33.037 L 148.516 33.013 L 148.498 32.989 L 148.431 32.964 L 148.431 32.952 L 148.413 32.94 L 148.37 32.916 L 148.328 32.91 L 148.285 32.879 L 148.243 32.867 L 148.224 32.855 L 148.182 32.824 L 148.163 32.812 L 148.121 32.8 L 148.078 32.77 L 148.078 32.758 L 148.011 32.733 L 147.993 32.709 L 147.969 32.697 L 147.926 32.666 L 147.884 32.636 L 147.841 32.612 L 147.817 32.599 L 147.774 32.569 L 147.75 32.557 L 147.707 32.533 L 147.689 32.502 L 147.671 32.502 L 147.628 32.472 L 147.598 32.466 L 147.58 32.441 L 147.513 32.399 L 147.494 32.368 L 147.452 32.344 L 147.434 32.332 L 147.391 32.301 L 147.373 32.289 L 147.355 32.265 L 147.312 32.235 L 147.294 32.222 L 147.276 32.192 L 147.233 32.168 L 147.215 32.155 L 140.366 57.426 L 140.366 57.45 L 136.079 73.299 C 135.951 73.792 136.036 74.297 136.267 74.71 C 136.504 75.118 136.888 75.452 137.38 75.58 C 137.873 75.708 138.39 75.623 138.797 75.392 C 139.205 75.154 139.527 74.759 139.679 74.267 L 150.627 33.737 Z" fill="#FF4415"/>
  <path fill-rule="evenodd" clip-rule="evenodd" d="M 153.546 33.731 L 153.479 33.755 L 164.269 74.321 C 164.396 74.814 164.719 75.215 165.126 75.452 C 165.534 75.69 166.051 75.775 166.543 75.647 C 167.036 75.519 167.425 75.185 167.662 74.777 C 167.899 74.37 167.985 73.865 167.857 73.372 L 156.928 32.204 L 156.885 32.235 L 156.843 32.253 L 156.691 32.368 L 156.624 32.423 L 156.605 32.447 L 156.411 32.575 L 156.393 32.587 L 156.368 32.612 L 156.301 32.642 L 156.259 32.672 L 156.216 32.697 L 156.198 32.709 L 156.155 32.739 L 156.113 32.764 L 156.07 32.794 L 156.07 32.806 L 156.003 32.831 L 155.985 32.843 L 155.967 32.867 L 155.9 32.891 L 155.9 32.904 L 155.857 32.928 L 155.815 32.952 L 155.79 32.952 L 155.748 32.983 L 155.748 32.995 L 155.705 33.019 L 155.663 33.043 L 155.644 33.043 L 155.602 33.074 L 155.559 33.086 L 155.559 33.098 L 155.492 33.129 L 155.425 33.159 L 155.407 33.171 L 155.389 33.171 L 155.346 33.202 L 155.328 33.214 L 155.286 33.226 L 155.219 33.25 L 155.219 33.262 L 155.176 33.275 L 155.152 33.299 L 155.109 33.299 L 155.067 33.329 L 155.048 33.329 L 155.006 33.354 L 154.963 33.366 L 154.939 33.378 L 154.872 33.408 L 154.829 33.42 L 154.787 33.439 L 154.72 33.463 L 154.677 33.487 L 154.611 33.5 L 154.592 33.512 L 154.55 33.524 L 154.507 33.548 L 154.44 33.573 L 154.422 33.573 L 154.379 33.597 L 154.313 33.609 L 154.27 33.633 L 154.227 33.633 L 154.209 33.646 L 154.142 33.658 L 154.142 33.67 L 154.1 33.682 L 154.057 33.706 L 154.039 33.706 L 153.972 33.719 L 153.954 33.719 L 153.911 33.731 L 153.802 33.761 L 153.759 33.761 L 153.741 33.773 L 153.698 33.785 L 153.68 33.785 L 153.637 33.798 L 153.546 33.731 Z" fill="#FF4415"/>
</svg>