<svg width="139" height="17" viewBox="0 0 139 17" fill="none" xmlns="http://www.w3.org/2000/svg">
<path d="M12.05 0.399999V13H9.152V2.776H3.464V13H0.566V0.399999H12.05ZM20.6634 3.172C21.5634 3.172 22.3794 3.382 23.1114 3.802C23.8554 4.21 24.4374 4.792 24.8574 5.548C25.2774 6.292 25.4874 7.162 25.4874 8.158C25.4874 9.154 25.2774 10.03 24.8574 10.786C24.4374 11.53 23.8554 12.112 23.1114 12.532C22.3794 12.94 21.5634 13.144 20.6634 13.144C19.4274 13.144 18.4554 12.754 17.7474 11.974V16.492H14.9394V3.316H17.6214V4.432C18.3174 3.592 19.3314 3.172 20.6634 3.172ZM20.1774 10.84C20.8974 10.84 21.4854 10.6 21.9414 10.12C22.4094 9.628 22.6434 8.974 22.6434 8.158C22.6434 7.342 22.4094 6.694 21.9414 6.214C21.4854 5.722 20.8974 5.476 20.1774 5.476C19.4574 5.476 18.8634 5.722 18.3954 6.214C17.9394 6.694 17.7114 7.342 17.7114 8.158C17.7114 8.974 17.9394 9.628 18.3954 10.12C18.8634 10.6 19.4574 10.84 20.1774 10.84ZM31.9915 13.144C30.9715 13.144 30.0535 12.934 29.2375 12.514C28.4335 12.082 27.8035 11.488 27.3475 10.732C26.8915 9.976 26.6635 9.118 26.6635 8.158C26.6635 7.198 26.8915 6.34 27.3475 5.584C27.8035 4.828 28.4335 4.24 29.2375 3.82C30.0535 3.388 30.9715 3.172 31.9915 3.172C33.0115 3.172 33.9235 3.388 34.7275 3.82C35.5315 4.24 36.1615 4.828 36.6175 5.584C37.0735 6.34 37.3015 7.198 37.3015 8.158C37.3015 9.118 37.0735 9.976 36.6175 10.732C36.1615 11.488 35.5315 12.082 34.7275 12.514C33.9235 12.934 33.0115 13.144 31.9915 13.144ZM31.9915 10.84C32.7115 10.84 33.2995 10.6 33.7555 10.12C34.2235 9.628 34.4575 8.974 34.4575 8.158C34.4575 7.342 34.2235 6.694 33.7555 6.214C33.2995 5.722 32.7115 5.476 31.9915 5.476C31.2715 5.476 30.6775 5.722 30.2095 6.214C29.7415 6.694 29.5075 7.342 29.5075 8.158C29.5075 8.974 29.7415 9.628 30.2095 10.12C30.6775 10.6 31.2715 10.84 31.9915 10.84ZM48.6468 8.194C48.6468 8.23 48.6288 8.482 48.5928 8.95H41.2668C41.3988 9.55 41.7108 10.024 42.2028 10.372C42.6948 10.72 43.3068 10.894 44.0388 10.894C44.5428 10.894 44.9868 10.822 45.3708 10.678C45.7668 10.522 46.1328 10.282 46.4688 9.958L47.9628 11.578C47.0508 12.622 45.7188 13.144 43.9668 13.144C42.8748 13.144 41.9088 12.934 41.0688 12.514C40.2288 12.082 39.5808 11.488 39.1248 10.732C38.6688 9.976 38.4408 9.118 38.4408 8.158C38.4408 7.21 38.6628 6.358 39.1068 5.602C39.5628 4.834 40.1808 4.24 40.9608 3.82C41.7528 3.388 42.6348 3.172 43.6068 3.172C44.5548 3.172 45.4128 3.376 46.1808 3.784C46.9488 4.192 47.5488 4.78 47.9808 5.548C48.4248 6.304 48.6468 7.186 48.6468 8.194ZM43.6248 5.296C42.9888 5.296 42.4548 5.476 42.0228 5.836C41.5908 6.196 41.3268 6.688 41.2308 7.312H46.0008C45.9048 6.7 45.6408 6.214 45.2088 5.854C44.7768 5.482 44.2488 5.296 43.6248 5.296ZM55.0652 9.328H53.6072V13H50.7992V3.316H53.6072V7.078H55.1192L57.7472 3.316H60.7352L57.3512 7.96L60.9692 13H57.6572L55.0652 9.328ZM70.3962 5.62H67.1202V13H64.3302V5.62H61.0542V3.316H70.3962V5.62ZM81.6829 3.316L77.3089 13.594C76.8649 14.71 76.3129 15.496 75.6529 15.952C75.0049 16.408 74.2189 16.636 73.2949 16.636C72.7909 16.636 72.2929 16.558 71.8009 16.402C71.3089 16.246 70.9069 16.03 70.5949 15.754L71.6209 13.756C71.8369 13.948 72.0829 14.098 72.3589 14.206C72.6469 14.314 72.9289 14.368 73.2049 14.368C73.5889 14.368 73.9009 14.272 74.1409 14.08C74.3809 13.9 74.5969 13.594 74.7889 13.162L74.8249 13.072L70.6309 3.316H73.5289L76.2469 9.886L78.9829 3.316H81.6829ZM90.4355 7.942C91.5755 8.326 92.1455 9.094 92.1455 10.246C92.1455 11.122 91.8155 11.8 91.1555 12.28C90.4955 12.76 89.5115 13 88.2035 13H83.0375V3.316H87.9875C89.1995 3.316 90.1475 3.538 90.8315 3.982C91.5155 4.414 91.8575 5.026 91.8575 5.818C91.8575 6.298 91.7315 6.724 91.4795 7.096C91.2395 7.456 90.8915 7.738 90.4355 7.942ZM85.6115 7.294H87.7355C88.7195 7.294 89.2115 6.946 89.2115 6.25C89.2115 5.566 88.7195 5.224 87.7355 5.224H85.6115V7.294ZM87.9695 11.092C89.0015 11.092 89.5175 10.738 89.5175 10.03C89.5175 9.658 89.3975 9.388 89.1575 9.22C88.9175 9.04 88.5395 8.95 88.0235 8.95H85.6115V11.092H87.9695ZM97.9968 3.172C99.4968 3.172 100.649 3.532 101.453 4.252C102.257 4.96 102.659 6.034 102.659 7.474V13H100.031V11.794C99.5028 12.694 98.5188 13.144 97.0788 13.144C96.3348 13.144 95.6868 13.018 95.1348 12.766C94.5948 12.514 94.1808 12.166 93.8928 11.722C93.6048 11.278 93.4608 10.774 93.4608 10.21C93.4608 9.31 93.7968 8.602 94.4688 8.086C95.1528 7.57 96.2028 7.312 97.6188 7.312H99.8508C99.8508 6.7 99.6648 6.232 99.2928 5.908C98.9208 5.572 98.3628 5.404 97.6188 5.404C97.1028 5.404 96.5928 5.488 96.0888 5.656C95.5968 5.812 95.1768 6.028 94.8288 6.304L93.8208 4.342C94.3488 3.97 94.9788 3.682 95.7108 3.478C96.4548 3.274 97.2168 3.172 97.9968 3.172ZM97.7808 11.254C98.2608 11.254 98.6868 11.146 99.0588 10.93C99.4308 10.702 99.6948 10.372 99.8508 9.94V8.95H97.9248C96.7728 8.95 96.1968 9.328 96.1968 10.084C96.1968 10.444 96.3348 10.732 96.6108 10.948C96.8988 11.152 97.2888 11.254 97.7808 11.254ZM105.098 3.316H107.888V7.096H112.1V3.316H114.908V13H112.1V9.382H107.888V13H105.098V3.316ZM117.596 3.316H120.386V7.096H124.598V3.316H127.406V13H124.598V9.382H120.386V13H117.596V3.316ZM138.698 3.316V13H136.196V10.228H134.126L132.29 13H129.302L131.516 9.832C130.844 9.568 130.328 9.19 129.968 8.698C129.62 8.194 129.446 7.588 129.446 6.88C129.446 5.74 129.854 4.864 130.67 4.252C131.498 3.628 132.632 3.316 134.072 3.316H138.698ZM134.126 5.602C133.526 5.602 133.07 5.71 132.758 5.926C132.458 6.142 132.308 6.49 132.308 6.97C132.308 7.45 132.452 7.804 132.74 8.032C133.04 8.248 133.49 8.356 134.09 8.356H136.196V5.602H134.126Z" fill="#1F56CE"/>
</svg>
