<?xml version="1.0" encoding="utf-8"?>
<svg width="59" height="59" viewBox="0 0 59 59" fill="none" xmlns="http://www.w3.org/2000/svg">
  <circle cx="29.5" cy="29.5" r="29.5" fill="white"/>
  <path d="M18.5244 11.8541C18.5244 13.0255 17.6144 13.955 16.4675 13.955H14.9218C13.7749 13.955 12.8649 13.0255 12.8649 11.8541V11.7268C10.9202 11.6122 8.75114 11.4339 6.75659 11.1411V16.9726C6.75659 18.0294 7.55441 18.8443 8.58908 18.8443H22.8127C23.8474 18.8443 24.6452 18.0294 24.6452 16.9726V11.1538C22.6506 11.5103 20.4691 11.6758 18.5867 11.7395V11.8541H18.5244Z" fill="#003CB6" transform="matrix(1, 0, 0, 1, 13.089869, 10.855725)"/>
  <path d="M22.8128 19.3409H8.58915C7.2927 19.3409 6.28296 18.3095 6.28296 16.9853V11.1538C6.28296 11.0137 6.34529 10.8737 6.44502 10.7845C6.54474 10.6954 6.69433 10.6445 6.83146 10.6699C8.51436 10.9119 10.5089 11.1029 12.9024 11.2556C13.1517 11.2684 13.3511 11.4848 13.3511 11.7522V11.8668C13.3511 12.7708 14.0492 13.4711 14.9218 13.4711H16.4676C17.3527 13.4711 18.0383 12.7581 18.0383 11.8668C18.0383 11.765 18.0632 11.6758 18.1256 11.5867C18.1879 11.3957 18.3624 11.2556 18.5619 11.2556C20.0578 11.2047 22.3141 11.0774 24.558 10.6827C24.6951 10.6572 24.8447 10.6954 24.9444 10.7973C25.0566 10.8864 25.119 11.0265 25.119 11.1793V17.0108C25.1314 18.3095 24.1092 19.3409 22.8128 19.3409ZM7.24283 11.714V16.9853C7.24283 17.7747 7.81627 18.3604 8.58915 18.3604H22.8128C23.5856 18.3604 24.1591 17.7747 24.1591 16.9853V11.7268C22.2393 12.0323 20.357 12.1597 18.9857 12.2106C18.8112 13.4711 17.7516 14.4388 16.4676 14.4388H14.9218C13.6378 14.4388 12.5782 13.4584 12.4037 12.1979C10.4216 12.0705 8.72628 11.905 7.24283 11.714Z" fill="#003CB6" transform="matrix(1, 0, 0, 1, 13.089869, 10.855725)"/>
  <path d="M24.134 4.08717H20.0701V2.68658C20.0701 1.22233 18.8734 0 17.4398 0H14.074C12.6405 0 11.4437 1.22233 11.4437 2.68658V4.08717H7.3923C6.35763 4.08717 5.55981 4.90206 5.55981 5.95886V8.87463C5.55981 9.16748 5.73434 9.39667 5.95872 9.39667C7.79121 9.75318 10.0725 10.0333 12.9895 10.1606C12.9895 8.98923 13.8995 8.05975 15.0464 8.05975H16.5298C17.6767 8.05975 18.5867 8.98923 18.5867 10.1606C21.4414 10.046 23.785 9.75318 25.5551 9.34574C25.7795 9.28208 25.954 9.05289 25.954 8.8237V5.8952C25.954 4.96572 25.1064 4.08717 24.134 4.08717ZM17.9634 4.08717H13.4507V2.68658C13.4507 2.39373 13.6751 2.10088 14.0242 2.10088H17.39C17.6767 2.10088 17.9634 2.33007 17.9634 2.68658V4.08717Z" fill="#FF4415" transform="matrix(1, 0, 0, 1, 13.089869, 10.855725)"/>
  <path d="M16.4676 12.427C16.8166 12.427 17.041 12.1342 17.041 11.8413V10.2752C17.041 9.9187 16.7543 9.68951 16.4676 9.68951H14.9218C14.5728 9.68951 14.3484 9.98236 14.3484 10.2752V11.8541C14.3484 12.2106 14.6351 12.4398 14.9218 12.4398H16.4676V12.427Z" fill="#FF4415" transform="matrix(1, 0, 0, 1, 13.089869, 10.855725)"/>
  <path d="M12.5906 34.5181C12.3288 34.5181 12.1169 34.3144 12.1044 34.047C12.1044 33.9579 12.092 33.2067 12.5906 32.6719C12.8025 32.4554 13.189 32.188 13.8123 32.188C14.0242 32.188 14.3358 32.2135 14.7347 32.239C16.4052 32.3536 19.8956 32.6082 21.0425 31.5005C21.2793 31.2713 21.3915 31.0166 21.3915 30.6856C21.3915 30.3163 21.2918 30.049 21.0924 29.8452C20.4441 29.2086 18.7862 29.2723 17.4398 29.3232C16.7792 29.3487 16.1434 29.3741 15.6323 29.3232C14.3982 29.1959 12.9023 28.572 11.6931 28.0754C10.9326 27.7571 10.2096 27.4642 9.82317 27.4006C8.97549 27.2733 5.93381 27.3624 4.83681 27.4006C4.57502 27.4133 4.35064 27.1969 4.33817 26.9295C4.3257 26.6621 4.53762 26.4329 4.79941 26.4202C4.96147 26.4074 8.8633 26.2546 9.97276 26.4202C10.4714 26.4966 11.2069 26.8021 12.0546 27.1459C13.2014 27.617 14.6475 28.2155 15.732 28.3301C16.1808 28.381 16.7792 28.3555 17.4024 28.3301C18.9981 28.2664 20.8056 28.2027 21.7531 29.1322C22.152 29.5269 22.3514 30.0362 22.3514 30.6729C22.3514 31.284 22.127 31.7933 21.7032 32.2135C20.2447 33.6014 16.6171 33.3467 14.6599 33.2067C14.286 33.1812 13.9868 33.1557 13.7998 33.1557C13.5629 33.1557 13.3884 33.2194 13.2762 33.334C13.0892 33.5377 13.0518 33.8815 13.0518 33.9961C13.0518 34.2635 12.8524 34.4926 12.5781 34.4926C12.5906 34.5181 12.5906 34.5181 12.5906 34.5181Z" fill="#003CB6" transform="matrix(1, 0, 0, 1, 13.089869, 10.855725)"/>
  <path d="M16.4799 39C16.106 39 15.7444 38.9618 15.358 38.8727C13.4881 38.478 11.5808 37.6249 10.0475 36.9373C8.75107 36.3644 7.52941 35.8169 6.90611 35.8169H4.82431C4.56252 35.8169 4.33813 35.6004 4.33813 35.3203C4.33813 35.0529 4.55006 34.8237 4.82431 34.8237H6.90611C7.72886 34.8237 8.92559 35.3585 10.434 36.0333C12.0047 36.7336 13.7873 37.5358 15.5575 37.905C16.6545 38.1469 17.6019 38.0578 19.6961 36.9501C20.8929 36.3262 24.3584 34.6073 27.1383 33.2321C28.7838 32.4173 30.2049 31.717 30.4418 31.5896C30.9279 31.335 31.1523 30.6856 30.9653 30.1127C30.7285 29.3996 29.9182 29.1068 28.8087 29.3105C25.7421 29.8707 21.9899 30.7748 21.9525 30.7748C21.6907 30.8384 21.4289 30.6729 21.379 30.4055C21.3167 30.1381 21.4788 29.8707 21.7406 29.8198C21.778 29.8071 25.5551 28.9031 28.6467 28.3428C30.554 27.999 31.5762 28.8649 31.8878 29.7943C32.2369 30.8257 31.813 31.9716 30.903 32.4555C30.6661 32.5828 29.2949 33.2576 27.5746 34.1107C24.9443 35.4094 21.3292 37.192 20.1449 37.8159C18.5991 38.6562 17.5395 39 16.4799 39Z" fill="#003CB6" transform="matrix(1, 0, 0, 1, 13.089869, 10.855725)"/>
  <path d="M4.00156 25.6053H0V36.95H4.00156C4.57499 36.95 5.0487 36.4789 5.0487 35.8805V26.6621C5.0487 26.0891 4.57499 25.6053 4.00156 25.6053Z" fill="#FF4415" transform="matrix(1, 0, 0, 1, 13.089869, 10.855725)"/>
</svg>