<?xml version="1.0" encoding="utf-8"?>
<svg width="59" height="59" viewBox="0 0 59 59" fill="none" xmlns="http://www.w3.org/2000/svg">
  <defs>
    <clipPath id="clip0_182_154">
      <rect width="26" height="28" fill="white"/>
    </clipPath>
  </defs>
  <circle cx="29.5" cy="29.5" r="29.5" fill="white"/>
  <g clip-path="url(#clip0_182_154)" transform="matrix(1, 0, 0, 1, 16.905342, 13.0229)">
    <path d="M7.87411 7.32152V8.55117H6.16919V7.32152C6.16919 7.19743 6.27014 7.10718 6.3823 7.10718H7.64978C7.77316 7.10718 7.87411 7.19743 7.87411 7.32152Z" fill="#FF4415"/>
    <path d="M1.31245 28C1.0769 28 0.875 27.8082 0.875 27.56V20.5769C0.875 20.34 1.06568 20.137 1.31245 20.137C1.55921 20.137 1.74989 20.3287 1.74989 20.5769V27.56C1.73868 27.8082 1.54799 28 1.31245 28Z" fill="#003CB6"/>
    <path d="M24.6877 28C24.4521 28 24.2502 27.8082 24.2502 27.56V20.5769C24.2502 20.34 24.4409 20.137 24.6877 20.137C24.9345 20.137 25.1251 20.3287 25.1251 20.5769V27.56C25.1251 27.8082 24.9345 28 24.6877 28Z" fill="#003CB6"/>
    <path d="M22.1526 8.25783H20.8066V5.25702H22.1526C22.8368 5.25702 23.3865 5.8098 23.3865 6.49795V7.02817C23.3865 7.70505 22.8368 8.25783 22.1526 8.25783ZM21.6703 7.38917H22.1526C22.3545 7.38917 22.5116 7.21995 22.5116 7.02817V6.48667C22.5116 6.28361 22.3433 6.12567 22.1526 6.12567H21.6703V7.38917Z" fill="#003CB6"/>
    <path d="M15.6023 8.25788H14.2563C13.5721 8.25788 13.0225 7.7051 13.0225 7.01694V6.48672C13.0225 5.80985 13.5721 5.24579 14.2563 5.24579H15.6023V8.25788ZM14.2563 6.12572C14.0544 6.12572 13.8974 6.29494 13.8974 6.48672V7.01694C13.8974 7.22 14.0656 7.37794 14.2563 7.37794H14.7386V6.12572H14.2563Z" fill="#003CB6"/>
    <path d="M13.9086 6.12571C13.6731 6.12571 13.4712 5.93392 13.4712 5.68574V2.73006C13.4824 1.22965 14.6938 0 16.1968 0H17.3409C18.8327 0 20.0553 1.22965 20.0553 2.73006C20.0553 2.96696 19.8646 3.17002 19.6179 3.17002C19.3823 3.17002 19.1804 2.97824 19.1804 2.73006C19.1804 1.70347 18.3504 0.868654 17.3297 0.868654H16.1856C15.1649 0.868654 14.3349 1.70347 14.3349 2.73006V5.69702C14.3461 5.93393 14.1554 6.12571 13.9086 6.12571Z" fill="#003CB6"/>
    <path d="M22.5341 6.12569C22.2986 6.12569 22.0967 5.93391 22.0967 5.68573V2.49314C22.0967 2.14342 21.8163 1.86139 21.4686 1.86139H20.661C20.3133 1.86139 20.0329 2.14342 20.0329 2.49314V2.73005C20.0329 2.96695 19.8422 3.17001 19.5954 3.17001C19.3599 3.17001 19.158 2.97823 19.158 2.73005V2.49314C19.158 1.66961 19.831 0.992737 20.6498 0.992737H21.4574C22.2762 0.992737 22.9492 1.66961 22.9492 2.49314V5.69701C22.9716 5.93391 22.7809 6.12569 22.5341 6.12569Z" fill="#003CB6"/>
    <path d="M16.0734 12.5673H15.1873V11.6986H16.0734C16.3201 11.6761 16.4772 11.5068 16.4772 11.2925V10.5818H17.3408V11.2925C17.3408 11.9468 16.8473 12.4996 16.208 12.5673C16.1631 12.5673 16.1182 12.5673 16.0734 12.5673Z" fill="#003CB6"/>
    <path d="M18.2044 11.315C16.2976 11.315 14.7385 9.75823 14.7385 7.82914V4.86218C14.7385 4.11762 15.333 3.51971 16.0733 3.51971H20.3244C21.0647 3.51971 21.6591 4.11762 21.6591 4.86218V7.82914C21.6704 9.75823 20.1225 11.315 18.2044 11.315ZM16.0845 4.39965C15.8265 4.39965 15.6134 4.61399 15.6134 4.87346V7.84042C15.6134 9.28442 16.7799 10.4464 18.2044 10.4464C19.6289 10.4464 20.7955 9.27314 20.7955 7.84042V4.86218C20.7955 4.60271 20.5824 4.38837 20.3244 4.38837H16.0845V4.39965Z" fill="#003CB6"/>
    <path d="M21.2329 12.5673H20.3356C20.2795 12.5673 20.2459 12.5673 20.1898 12.556C19.5616 12.4883 19.0681 11.9468 19.0681 11.2925V10.5931H19.9318V11.2925C19.9318 11.4956 20.0888 11.6761 20.2907 11.6986H21.2329V12.5673Z" fill="#003CB6"/>
    <path fill-rule="evenodd" clip-rule="evenodd" d="M21.233 12.1273C23.1622 12.2289 24.6989 13.8308 24.6989 15.7937V18.5915H11.7214C11.7214 18.5915 11.6989 18.3094 11.6989 16.9895C11.6989 16.7977 11.6428 16.6398 12.4056 16.6398C13.1683 16.6398 13.4824 17.5987 13.4824 15.5343C13.4824 13.4698 13.4824 12.6575 13.4824 12.6575C13.9759 12.3529 14.5591 12.1724 15.1761 12.1386C15.2321 12.1386 15.1985 12.1386 15.1985 12.1386C15.7705 13.2103 16.9034 13.9323 18.2045 13.9323C19.4944 13.9323 20.6273 13.2103 21.2106 12.1386" fill="#FF4415"/>
    <path d="M24.6988 19.0315H11.7213C11.4969 19.0315 11.3062 18.851 11.295 18.6253C11.295 18.614 11.2726 18.3095 11.2726 16.9895C11.2726 16.8542 11.2614 16.6398 11.4408 16.4481C11.6427 16.2337 11.9792 16.1999 12.4167 16.1999C12.6635 16.1999 12.8766 16.2676 13.0336 16.3352C13.0448 16.1886 13.0672 15.9404 13.0672 15.5343V12.6576C13.0672 12.4996 13.1458 12.3642 13.2804 12.2853C13.8524 11.9356 14.503 11.7438 15.176 11.6987C15.3779 11.6874 15.591 11.8227 15.6471 12.0145C16.1855 12.9283 17.1613 13.4924 18.2157 13.4924C19.3037 13.4924 20.3132 12.8945 20.8403 11.9243C20.9188 11.7776 21.0759 11.6987 21.2329 11.6987C21.2441 11.6987 21.2553 11.6987 21.2666 11.6987C23.4426 11.8115 25.1363 13.6165 25.1363 15.805V18.6028C25.1251 18.8284 24.9344 19.0315 24.6988 19.0315ZM12.1363 18.1515H24.2614V15.7937C24.2614 14.1467 23.0388 12.7817 21.446 12.5786C20.7394 13.6841 19.5168 14.3497 18.2044 14.3497C16.8809 14.3497 15.6695 13.6729 14.9628 12.5786C14.5927 12.6237 14.245 12.7365 13.9197 12.9057V15.523C13.9197 16.527 13.8636 16.9783 13.5383 17.1926C13.2579 17.3731 12.9775 17.249 12.7868 17.17C12.6635 17.1136 12.5401 17.0572 12.4055 17.0572C12.2821 17.0572 12.1924 17.0572 12.1251 17.0685C12.1363 17.5875 12.1363 17.9259 12.1363 18.1515Z" fill="#FF4415"/>
    <path d="M16.9033 7.19744C16.6677 7.19744 16.4658 7.00566 16.4658 6.75748V5.95651C16.4658 5.7196 16.6565 5.51654 16.9033 5.51654C17.15 5.51654 17.3407 5.70832 17.3407 5.95651V6.75748C17.3407 6.99438 17.15 7.19744 16.9033 7.19744Z" fill="#003CB6"/>
    <path d="M18.2158 9.25059C17.1727 9.25059 16.6455 8.68653 16.5782 8.61884C16.4212 8.43834 16.4324 8.16759 16.6118 7.99837C16.7913 7.84044 17.0605 7.85172 17.2287 8.03222C17.24 8.0435 17.5652 8.37065 18.2158 8.37065C18.8664 8.37065 19.1692 8.0435 19.1804 8.03222C19.3375 7.85172 19.6179 7.84044 19.7861 7.99837C19.9656 8.15631 19.988 8.42706 19.831 8.60756C19.7861 8.67525 19.2702 9.25059 18.2158 9.25059Z" fill="#003CB6"/>
    <path d="M19.5056 7.19744C19.27 7.19744 19.0681 7.00566 19.0681 6.75748V5.95651C19.0681 5.7196 19.2588 5.51654 19.5056 5.51654C19.7523 5.51654 19.943 5.70832 19.943 5.95651V6.75748C19.943 6.99438 19.7411 7.19744 19.5056 7.19744Z" fill="#003CB6"/>
    <path d="M12.6858 17.0685H1.35711C0.672903 17.0685 0.123291 16.5044 0.123291 15.8276V9.62289C0.123291 8.93474 0.684119 8.38196 1.35711 8.38196H12.6858C13.3701 8.38196 13.9197 8.94602 13.9197 9.62289V15.8163C13.9197 16.5157 13.3701 17.0685 12.6858 17.0685ZM1.35711 9.25061C1.15522 9.25061 0.986967 9.41983 0.986967 9.62289V15.8163C0.986967 16.0193 1.15522 16.1886 1.35711 16.1886H12.6858C12.8877 16.1886 13.056 16.0193 13.056 15.8163V9.62289C13.056 9.41983 12.8877 9.25061 12.6858 9.25061H1.35711Z" fill="#003CB6"/>
    <path fill-rule="evenodd" clip-rule="evenodd" d="M8.24412 18.5915H5.66431V13.1088C5.66431 12.3868 6.24757 11.8115 6.95421 11.8115C7.67207 11.8115 8.24412 12.3981 8.24412 13.1088V18.5915Z" fill="#FF4415"/>
    <path d="M25.5738 18.5914H0.4375V20.5769H25.5738V18.5914Z" fill="#003CB6"/>
    <path d="M25.5738 21.0056H0.437446C0.190682 21.0056 0 20.8139 0 20.577V18.5915C0 18.3546 0.190682 18.1515 0.437446 18.1515H25.5738C25.8093 18.1515 26.0112 18.3433 26.0112 18.5915V20.577C26 20.8139 25.8093 21.0056 25.5738 21.0056ZM0.863676 20.137H25.1363V19.0201H0.863676V20.137Z" fill="#003CB6"/>
  </g>
</svg>