<?xml version="1.0" encoding="utf-8"?>
<svg width="59" height="59" viewBox="0 0 59 59" fill="none" xmlns="http://www.w3.org/2000/svg">
  <defs>
    <clipPath id="clip0_182_88">
      <rect width="35" height="36" fill="white"/>
    </clipPath>
  </defs>
  <circle cx="29.5" cy="29.5" r="29.5" fill="white"/>
  <g clip-path="url(#clip0_182_88)" transform="matrix(1, 0, 0, 1, 11.679728, 8.842748)">
    <path d="M32.8586 25.4235H17.1771C16.9392 25.4235 16.7352 25.2344 16.7352 24.9898V15.5366C16.7352 15.303 16.9278 15.1028 17.1771 15.1028C17.4264 15.1028 17.619 15.2919 17.619 15.5366V24.556H32.428V4.27059H17.6077V12.2446C17.6077 12.4782 17.415 12.6784 17.1658 12.6784C16.9165 12.6784 16.7239 12.4893 16.7239 12.2446V3.84798C16.7239 3.61443 16.9165 3.41425 17.1658 3.41425H32.8586C33.0965 3.41425 33.3004 3.60331 33.3004 3.84798V24.9898C33.3004 25.2233 33.1078 25.4235 32.8586 25.4235Z" fill="#003CB6"/>
    <path d="M35.0001 2.21314V4.28172H14.9451V2.21314C14.9451 1.60146 15.4436 1.11212 16.0668 1.11212H33.8784C34.4902 1.11212 35.0001 1.60146 35.0001 2.21314Z" fill="#FF4415"/>
    <path d="M21.449 14.4578C21.3357 14.4578 21.2224 14.4133 21.1431 14.3355C20.9731 14.1687 20.9731 13.9018 21.1431 13.7238L24.6782 10.2206C24.8482 10.0537 25.1201 10.0537 25.3014 10.2206L27.2276 12.0778L30.2528 9.13067C30.4228 8.96385 30.7061 8.96385 30.876 9.13067C31.046 9.29749 31.046 9.57553 30.876 9.74235L27.5448 12.9898C27.3749 13.1566 27.103 13.1566 26.933 12.9898L25.0068 11.1325L21.7776 14.3355C21.6756 14.4133 21.5623 14.4578 21.449 14.4578Z" fill="#003CB6"/>
    <path d="M25.018 7.64042H19.1602C18.9222 7.64042 18.7183 7.45136 18.7183 7.20668C18.7183 6.96201 18.9109 6.77295 19.1602 6.77295H25.018C25.256 6.77295 25.4599 6.96201 25.4599 7.20668C25.4599 7.45136 25.256 7.64042 25.018 7.64042Z" fill="#003CB6"/>
    <path d="M22.9559 9.86472H19.1602C18.9222 9.86472 18.7183 9.67566 18.7183 9.43099C18.7183 9.19744 18.9109 8.99725 19.1602 8.99725H22.9559C23.1938 8.99725 23.3978 9.18632 23.3978 9.43099C23.3978 9.66454 23.1938 9.86472 22.9559 9.86472Z" fill="#003CB6"/>
    <path d="M30.5474 22.3096C30.3094 22.3096 30.1055 22.1205 30.1055 21.8758V12.456C30.1055 12.2225 30.2981 12.0223 30.5474 12.0223C30.7966 12.0223 30.9893 12.2113 30.9893 12.456V21.8758C30.9779 22.1094 30.7853 22.3096 30.5474 22.3096Z" fill="#003CB6"/>
    <path d="M28.3267 22.3095C28.0887 22.3095 27.8848 22.1205 27.8848 21.8758V14.7804C27.8848 14.5468 28.0774 14.3466 28.3267 14.3466C28.5759 14.3466 28.7685 14.5357 28.7685 14.7804V21.8758C28.7572 22.1094 28.5646 22.3095 28.3267 22.3095Z" fill="#003CB6"/>
    <path d="M26.0945 22.3096C25.8565 22.3096 25.6526 22.1205 25.6526 21.8758V17.0047C25.6526 16.7711 25.8452 16.5709 26.0945 16.5709C26.3438 16.5709 26.5364 16.76 26.5364 17.0047V21.8758C26.5364 22.1094 26.3324 22.3096 26.0945 22.3096Z" fill="#003CB6"/>
    <path d="M23.8735 22.3096C23.6356 22.3096 23.4316 22.1205 23.4316 21.8758V19.1066C23.4316 18.873 23.6243 18.6729 23.8735 18.6729C24.1228 18.6729 24.3154 18.8619 24.3154 19.1066V21.8758C24.3041 22.1094 24.1115 22.3096 23.8735 22.3096Z" fill="#003CB6"/>
    <path d="M12.6676 22.3095H4.86085C4.62291 22.3095 4.41896 22.1205 4.41896 21.8758V18.7173C4.37364 18.7173 4.32832 18.7062 4.283 18.6839L1.15577 17.4717C0.951821 17.3939 0.838516 17.1714 0.895169 16.9601C1.12178 16.1038 1.34839 15.2697 1.48436 14.7581C1.73363 13.8461 2.45878 12.5894 3.67115 12.0111C4.14703 11.7331 4.8042 11.5551 5.60867 11.5106C5.7673 11.4995 5.94858 11.5885 6.03923 11.7331C6.56043 12.6895 7.58018 13.2789 8.69057 13.2789C9.69899 13.2789 10.6394 12.7785 11.2059 11.9555C11.2626 11.8776 11.3079 11.8109 11.3419 11.7331C11.4212 11.5885 11.6025 11.4995 11.7725 11.5106C12.7242 11.5774 13.846 11.6219 14.8317 11.6663L15.0583 11.6775C15.1716 11.6775 15.2849 11.7331 15.3643 11.822C15.4436 11.911 15.4776 12.0222 15.4776 12.1334L15.2736 15.57C15.2623 15.7924 15.0697 15.9926 14.8317 15.9703C14.1519 15.9703 13.506 15.9592 13.0981 15.9592V21.8758C13.0981 22.1205 12.9055 22.3095 12.6676 22.3095ZM5.30274 21.4532H12.237V15.5366C12.237 15.4254 12.2823 15.3142 12.3617 15.2363C12.441 15.1585 12.5543 15.114 12.6676 15.114C12.6676 15.114 13.4721 15.1251 14.4238 15.1251L14.5711 12.5449C13.7213 12.5004 12.8036 12.456 11.9651 12.4115C11.9538 12.4226 11.9424 12.4448 11.9311 12.456C11.2173 13.5236 10.0049 14.1575 8.69057 14.1575C7.35357 14.1575 6.12987 13.4902 5.41605 12.4115C4.87218 12.4671 4.43029 12.5894 4.09038 12.7896C3.1726 13.2345 2.54943 14.2243 2.33415 15.0139C2.20951 15.4476 2.03955 16.1149 1.84693 16.8378L4.14703 17.7275C4.31699 17.1047 4.43029 16.6487 4.43029 16.6487C4.48695 16.4374 4.6909 16.304 4.90618 16.3262C5.12146 16.3485 5.29141 16.5375 5.29141 16.7488V21.4532H5.30274Z" fill="#003CB6"/>
    <path d="M5.66538 12.3892C5.43877 12.3892 5.24615 12.2224 5.23482 11.9889C5.21216 11.7553 5.39345 11.544 5.64272 11.5329C5.7107 11.5329 5.76736 11.5329 5.84667 11.5329H6.63981C6.87775 11.5329 7.0817 11.722 7.0817 11.9666C7.0817 12.2002 6.88908 12.4004 6.63981 12.4004H5.84667C5.80135 12.4004 5.75603 12.4004 5.7107 12.4004C5.68804 12.3892 5.67671 12.3892 5.66538 12.3892Z" fill="#003CB6"/>
    <path d="M2.1076 22.6988C1.93765 22.6988 1.75636 22.6765 1.5864 22.632C1.05387 22.5097 0.600645 22.1761 0.317382 21.6978C0.0227879 21.2085 -0.0678563 20.6302 0.0794406 20.1075C0.181415 19.7405 0.408026 18.873 0.668628 17.9054L0.9179 16.9712C0.974552 16.7377 1.21249 16.6042 1.45043 16.6598C1.68838 16.7154 1.82434 16.949 1.76769 17.1825L1.50709 18.1279C1.25782 19.0843 1.01987 19.9629 0.9179 20.3299C0.838586 20.6302 0.883908 20.9638 1.0652 21.2641C1.23515 21.5421 1.49576 21.7423 1.79035 21.8091C2.60615 21.9981 3.17267 21.442 3.28598 21.0083C3.37662 20.6858 3.6259 19.7627 3.86384 18.8396L4.03379 18.1946C4.09045 17.961 4.32839 17.8276 4.56633 17.8832C4.80427 17.9388 4.94024 18.1724 4.88358 18.4059L4.71363 19.0509C4.46435 19.974 4.22641 20.9082 4.13577 21.2307C3.90916 21.9981 3.11602 22.6988 2.1076 22.6988Z" fill="#003CB6"/>
    <path d="M12.6676 32.43H9.41571C9.3024 32.43 9.1891 32.3855 9.10978 32.3077C9.03047 32.2298 8.98515 32.1186 8.98515 32.0074C8.98515 30.0389 8.93983 27.114 8.9285 26.0241H8.56592V32.0074C8.56592 32.241 8.3733 32.4411 8.12403 32.4411H4.86084C4.62289 32.4411 4.41895 32.2521 4.41895 32.0074V21.8869C4.41895 21.6534 4.61156 21.4532 4.86084 21.4532H12.6676C12.9055 21.4532 13.1095 21.6422 13.1095 21.8869V32.0074C13.0981 32.241 12.9055 32.43 12.6676 32.43ZM9.84627 31.5737H12.2257V22.3095H5.30273V31.5737H7.69347V25.5903C7.69347 25.3568 7.88609 25.1566 8.13536 25.1566H9.35906C9.597 25.1566 9.78962 25.3457 9.80095 25.5792C9.77828 25.6237 9.84627 29.1158 9.84627 31.5737Z" fill="#003CB6"/>
    <path fill-rule="evenodd" clip-rule="evenodd" d="M12.6676 21.8758V31.9963H9.41571C9.41571 29.5162 9.42704 25.5903 9.42704 25.5903H8.12403C8.12403 25.5903 8.12403 29.5384 8.12403 31.9963H4.86084V21.8758H12.6676Z" fill="#003CB6"/>
    <path d="M11.0134 36C9.81239 36 8.98526 35.1214 8.98526 33.8536V33.4866C8.98526 33.1307 8.97393 32.608 8.98526 31.9963C8.98526 31.7627 9.18921 31.5626 9.42715 31.5737C9.66509 31.5737 9.86904 31.7627 9.85771 32.0074C9.85771 32.608 9.85771 33.1307 9.85771 33.4866V33.8647C9.85771 34.6543 10.2996 35.1437 11.0134 35.1437C11.7839 35.1437 12.2258 34.6766 12.2258 33.8758V32.0074C12.2258 31.7739 12.4184 31.5737 12.6677 31.5737C12.9056 31.5737 13.1096 31.7627 13.1096 32.0074V33.8758C13.0982 35.1437 12.2598 36 11.0134 36Z" fill="#003CB6"/>
    <path d="M6.5379 36C5.22356 36 4.43042 34.9101 4.43042 33.8536V31.9963C4.43042 31.7628 4.62304 31.5626 4.87231 31.5626C5.11025 31.5626 5.3142 31.7516 5.3142 31.9963V33.8536C5.3142 34.354 5.65412 35.1325 6.54923 35.1325C7.59164 35.1325 7.70494 34.2428 7.70494 33.8536V31.9852C7.70494 31.7516 7.89756 31.5515 8.14683 31.5515C8.38477 31.5515 8.58872 31.7405 8.58872 31.9852V33.8536C8.56606 35.1659 7.7616 36 6.5379 36Z" fill="#003CB6"/>
    <path d="M16.9052 15.9815H16.1574C15.8741 15.9815 15.5568 15.9815 15.2509 15.9815H14.843C14.6051 15.9815 14.4011 15.7924 14.4011 15.5477C14.4011 15.3031 14.5937 15.114 14.843 15.114H15.2622C15.5795 15.114 15.8854 15.114 16.1687 15.114H16.9165C18.1175 15.114 18.7294 14.7025 18.7294 13.8795C18.7294 13.3568 18.5821 12.7896 16.8825 12.6451C16.7239 12.6339 16.3953 12.6117 15.9647 12.5894L15.5795 12.5672C15.4095 12.5561 15.2169 12.5561 15.0243 12.545C14.7864 12.5338 14.5937 12.3225 14.6164 12.089C14.6277 11.8554 14.8317 11.6664 15.081 11.6886C15.2736 11.6997 15.4549 11.7109 15.6248 11.7109L16.0214 11.7331C16.4633 11.7553 16.8032 11.7776 16.9732 11.7887C18.752 11.9333 19.6245 12.6228 19.6245 13.8795C19.5905 14.38 19.3979 15.9815 16.9052 15.9815Z" fill="#003CB6"/>
    <path d="M11.7384 12.3893C11.7271 12.3893 11.7158 12.3893 11.7044 12.3893C11.6591 12.3893 11.6138 12.3893 11.5685 12.3893H10.7527C10.5147 12.3893 10.3108 12.2002 10.3108 11.9555C10.3108 11.722 10.5034 11.5218 10.7527 11.5218H11.5571C11.6251 11.5218 11.6931 11.5218 11.7611 11.5218C11.999 11.544 12.1803 11.7442 12.169 11.9778C12.1577 12.2113 11.965 12.3893 11.7384 12.3893Z" fill="#003CB6"/>
    <path d="M15.6815 15.5255H14.8091V15.57H15.6815V15.5255Z" fill="#003CB6"/>
    <path d="M12.679 8.14085H11.3193V5.18256H12.679C13.3702 5.18256 13.9254 5.72751 13.9254 6.40591V6.92862C13.9254 7.5959 13.3702 8.14085 12.679 8.14085ZM12.1918 7.2845H12.679C12.8829 7.2845 13.0416 7.11768 13.0416 6.92862V6.39479C13.0416 6.1946 12.8716 6.0389 12.679 6.0389H12.1918V7.2845Z" fill="#003CB6"/>
    <path d="M6.06208 8.14086H4.70241C4.01125 8.14086 3.45605 7.59591 3.45605 6.91751V6.3948C3.45605 5.72752 4.01125 5.17145 4.70241 5.17145H6.06208V8.14086ZM4.70241 6.03892C4.49846 6.03892 4.33984 6.20574 4.33984 6.3948V6.91751C4.33984 7.11769 4.50979 7.27339 4.70241 7.27339H5.18963V6.03892H4.70241Z" fill="#003CB6"/>
    <path d="M4.3623 6.03892C4.12436 6.03892 3.92041 5.84986 3.92041 5.60519V2.69138C3.92041 1.21223 5.15544 0 6.6624 0H7.81811C9.32507 0 10.5601 1.21223 10.5601 2.69138C10.5601 2.92493 10.3675 3.12512 10.1182 3.12512C9.86894 3.12512 9.67632 2.92493 9.67632 2.69138C9.67632 1.67933 8.83786 0.856348 7.80678 0.856348H6.6624C5.63132 0.856348 4.79286 1.67933 4.79286 2.69138V5.61631C4.79286 5.84986 4.60024 6.03892 4.3623 6.03892Z" fill="#003CB6"/>
    <path d="M13.0757 6.03894C12.8377 6.03894 12.6338 5.84988 12.6338 5.60521V2.45785C12.6338 2.11308 12.3505 1.83505 11.9993 1.83505H11.1835C10.8322 1.83505 10.549 2.11308 10.549 2.45785V2.6914C10.549 2.92495 10.3563 3.12513 10.1071 3.12513C9.8578 3.12513 9.67651 2.92495 9.67651 2.6914V2.45785C9.67651 1.64598 10.3563 0.978699 11.1835 0.978699H11.9993C12.8264 0.978699 13.5062 1.64598 13.5062 2.45785V5.61633C13.5062 5.84988 13.3136 6.03894 13.0757 6.03894Z" fill="#003CB6"/>
    <path d="M6.53773 12.3893H5.66528V11.5329H6.54906C6.79834 11.5107 6.95696 11.3438 6.95696 11.1325V10.4319H7.81808V11.1325C7.81808 11.7776 7.31954 12.3225 6.6737 12.3893C6.63971 12.3893 6.59439 12.3893 6.53773 12.3893Z" fill="#003CB6"/>
    <path d="M8.70206 11.1547C6.77587 11.1547 5.20093 9.61999 5.20093 7.71823V4.7933C5.20093 4.05928 5.80145 3.46985 6.54926 3.46985H10.8435C11.5913 3.46985 12.1919 4.05928 12.1919 4.7933V7.71823C12.1919 9.61999 10.6283 11.1547 8.70206 11.1547ZM6.54926 4.33732C6.28866 4.33732 6.07338 4.54863 6.07338 4.80442V7.72935C6.07338 9.15289 7.25175 10.2984 8.69073 10.2984C10.1297 10.2984 11.3081 9.14177 11.3081 7.72935V4.7933C11.3081 4.5375 11.0928 4.3262 10.8322 4.3262H6.54926V4.33732Z" fill="#003CB6"/>
    <path d="M11.7385 12.3892H10.8433C10.7867 12.3892 10.7527 12.3892 10.696 12.3781C10.0615 12.3114 9.56299 11.7776 9.56299 11.1325V10.443H10.4354V11.1325C10.4354 11.3327 10.5941 11.5106 10.798 11.5329H11.7271V12.3892H11.7385Z" fill="#003CB6"/>
    <path d="M7.53491 6.76183C7.29697 6.76183 7.09302 6.57277 7.09302 6.3281V5.79427C7.09302 5.56072 7.28564 5.36053 7.53491 5.36053C7.77285 5.36053 7.9768 5.5496 7.9768 5.79427V6.33922C7.9768 6.57277 7.78418 6.76183 7.53491 6.76183Z" fill="#003CB6"/>
    <path d="M8.7134 9.19738C7.71632 9.19738 7.21777 8.5301 7.19511 8.49673C7.04781 8.30767 7.09314 8.04075 7.28575 7.89618C7.47837 7.76272 7.75031 7.79608 7.8976 7.99627C7.90893 8.00739 8.16954 8.34103 8.7134 8.34103C9.24594 8.34103 9.49521 8.00739 9.50654 7.99627C9.6425 7.8072 9.91444 7.76272 10.1071 7.89618C10.2997 8.02963 10.345 8.29655 10.2204 8.48561C10.0277 8.75252 9.50654 9.19738 8.7134 9.19738Z" fill="#003CB6"/>
    <path d="M9.85766 6.76183C9.61972 6.76183 9.41577 6.57277 9.41577 6.3281V5.79427C9.41577 5.56072 9.60839 5.36053 9.85766 5.36053C10.1069 5.36053 10.2996 5.5496 10.2996 5.79427V6.33922C10.2996 6.57277 10.0956 6.76183 9.85766 6.76183Z" fill="#003CB6"/>
    <path fill-rule="evenodd" clip-rule="evenodd" d="M15.0356 12.1334L14.8317 15.5477C13.71 15.5477 12.6675 15.5255 12.6675 15.5255C12.6675 15.5255 12.6675 18.3948 12.6675 21.8758H4.86081C4.86081 18.9954 4.86081 16.7377 4.86081 16.7377C4.86081 16.7377 4.67952 17.4384 4.45291 18.2947L1.32568 17.0825C1.55229 16.2261 1.7789 15.4031 1.91487 14.8916C2.17547 13.9462 2.8893 12.8786 3.87505 12.4115C4.3736 12.1112 5.01944 11.9889 5.64261 11.9555H5.66528C6.24313 13.012 7.38752 13.7238 8.70186 13.7238C9.90289 13.7238 10.968 13.1233 11.5798 12.2002C11.6365 12.1223 11.6931 12.0334 11.7384 11.9555H11.7611C12.7808 12.0222 14.0159 12.0778 15.0356 12.1334Z" fill="#FF4415"/>
    <path d="M12.6676 22.3095H4.86085C4.62291 22.3095 4.41896 22.1205 4.41896 21.8758V18.7173C4.37364 18.7173 4.32832 18.7062 4.283 18.6839L1.15577 17.4717C0.951821 17.3939 0.838516 17.1714 0.895169 16.9601C1.12178 16.1038 1.34839 15.2697 1.48436 14.7581C1.73363 13.8461 2.45878 12.5894 3.67115 12.0111C4.14703 11.7331 4.8042 11.5551 5.60867 11.5106C5.7673 11.4995 5.94858 11.5885 6.03923 11.7331C6.56043 12.6895 7.58018 13.2789 8.69057 13.2789C9.69899 13.2789 10.6394 12.7785 11.2059 11.9555C11.2626 11.8776 11.3079 11.8109 11.3419 11.7331C11.4212 11.5885 11.6025 11.4995 11.7725 11.5106C12.7242 11.5774 13.846 11.6219 14.8317 11.6663L15.0583 11.6775C15.1716 11.6775 15.2849 11.7331 15.3643 11.822C15.4436 11.911 15.4776 12.0222 15.4776 12.1334L15.2736 15.57C15.2623 15.7924 15.0697 15.9926 14.8317 15.9703C14.1519 15.9703 13.506 15.9592 13.0981 15.9592V21.8758C13.0981 22.1205 12.9055 22.3095 12.6676 22.3095ZM5.30274 21.4532H12.237V15.5366C12.237 15.4254 12.2823 15.3142 12.3617 15.2363C12.441 15.1585 12.5543 15.114 12.6676 15.114C12.6676 15.114 13.4721 15.1251 14.4238 15.1251L14.5711 12.5449C13.7213 12.5004 12.8036 12.456 11.9651 12.4115C11.9538 12.4226 11.9424 12.4448 11.9311 12.456C11.2173 13.5236 10.0049 14.1575 8.69057 14.1575C7.35357 14.1575 6.12987 13.4902 5.41605 12.4115C4.87218 12.4671 4.43029 12.5894 4.09038 12.7896C3.1726 13.2345 2.54943 14.2243 2.33415 15.0139C2.20951 15.4476 2.03955 16.1149 1.84693 16.8378L4.14703 17.7275C4.31699 17.1047 4.43029 16.6487 4.43029 16.6487C4.48695 16.4374 4.6909 16.304 4.90618 16.3262C5.12146 16.3485 5.29141 16.5375 5.29141 16.7488V21.4532H5.30274Z" fill="#FF4415"/>
  </g>
</svg>