<?xml version="1.0" encoding="utf-8"?>
<svg width="59" height="59" viewBox="0 0 59 59" fill="none" xmlns="http://www.w3.org/2000/svg">
  <defs>
    <clipPath id="clip0_182_207">
      <rect width="27" height="39" fill="white"/>
    </clipPath>
  </defs>
  <circle cx="29.5" cy="29.5" r="29.5" fill="white"/>
  <g clip-path="url(#clip0_182_207)" transform="matrix(1, 0, 0, 1, 16.76819, 8.248447)">
    <path d="M16.437 33.498H14.8912L14.4146 32.001C14.2858 31.5939 13.9122 31.3182 13.4871 31.3182C13.062 31.3182 12.7013 31.5939 12.5596 32.001L12.1088 33.498H10.563C10.1379 33.498 9.77718 33.7737 9.63549 34.1808C9.50667 34.5879 9.64837 35.0212 9.98329 35.2838L11.2328 36.203L10.7562 37.7C10.6274 38.1071 10.7691 38.5535 11.1169 38.803C11.2843 38.9343 11.4776 38.9869 11.6837 38.9869C11.8898 38.9869 12.083 38.9343 12.2505 38.803L13.5 37.8707L14.7495 38.803C15.0973 39.0525 15.5482 39.0525 15.8831 38.803C16.2309 38.5535 16.3597 38.1071 16.2438 37.7L15.7672 36.203L17.0167 35.2838C17.3516 35.0212 17.4933 34.5879 17.3645 34.1808C17.2357 33.7737 16.8621 33.498 16.437 33.498Z" fill="#FF4415"/>
    <path d="M6.85291 33.498H5.30711L4.83049 32.001C4.70167 31.5939 4.3281 31.3182 3.90301 31.3182C3.47791 31.3182 3.11723 31.5939 2.97553 32.001L2.4989 33.498H0.953103C0.528008 33.498 0.154439 33.7737 0.025622 34.1808C-0.103195 34.5879 0.0385037 35.0212 0.373427 35.2838L1.62295 36.203L1.14633 37.7C1.01751 38.1071 1.15921 38.5535 1.50702 38.803C1.84194 39.0525 2.30568 39.0525 2.6406 38.803L3.89013 37.8707L5.13965 38.803C5.30711 38.9343 5.51322 38.9869 5.70644 38.9869C5.91255 38.9869 6.10578 38.9343 6.27324 38.803C6.60816 38.5535 6.74986 38.1071 6.62104 37.7L6.14442 36.203L7.39394 35.2838C7.74175 35.0212 7.87057 34.5879 7.75463 34.1808C7.6387 33.7737 7.27801 33.498 6.85291 33.498Z" fill="#FF4415"/>
    <path d="M26.9482 34.1808C26.8194 33.7737 26.4458 33.498 26.0207 33.498H24.4749L23.9983 32.001C23.8694 31.5939 23.4959 31.3182 23.0708 31.3182C22.6586 31.3182 22.285 31.5939 22.1433 32.001L21.6667 33.498H20.1209C19.7087 33.498 19.3351 33.7737 19.1934 34.1808C19.0646 34.5879 19.2063 35.0212 19.5541 35.2838L20.8036 36.203L20.327 37.7C20.1982 38.1071 20.3399 38.5535 20.6748 38.803C21.0226 39.0525 21.4735 39.0525 21.8084 38.803L23.0579 37.8707L24.3074 38.803C24.4749 38.9343 24.6681 38.9869 24.8742 38.9869C25.0803 38.9869 25.2735 38.9343 25.441 38.803C25.7888 38.5535 25.9305 38.1071 25.8017 37.7L25.3251 36.203L26.5746 35.2838C26.9353 35.0343 27.077 34.5879 26.9482 34.1808Z" fill="#FF4415"/>
    <path d="M17.7249 26.4464C16.9005 26.4464 16.1533 26.4071 15.535 26.3808C15.0197 26.3545 14.5689 26.3283 14.2726 26.3414C13.7831 26.3545 13.2034 26.1313 12.4047 25.8161C11.3356 25.3959 9.99587 24.8576 8.32125 24.7394C7.75446 24.7 7.3036 24.4242 6.99444 23.9515C5.70627 21.9161 7.65141 16.2828 7.88328 15.6525C7.94768 15.4555 8.12803 15.3242 8.33414 15.3111C9.19721 15.2717 11.3742 14.3788 12.2373 11.9626C12.3275 11.7 12.4305 11.4111 12.5336 11.1091C13.2034 9.11311 14.0407 6.63129 15.4835 6.10604C15.8313 5.97473 16.3852 5.90907 17.0422 6.31614C18.5107 7.23533 18.2659 8.7717 18.0212 10.4C17.8923 11.2404 17.7506 12.1858 17.8151 13.1576C17.931 13.1444 18.0598 13.1444 18.1757 13.1313C19.67 13.0131 23.1481 12.7374 24.024 16.099C24.7969 19.0535 23.8952 22.5333 22.5942 24.4505C21.8213 25.5929 20.9195 26.2363 19.9792 26.3414C19.1805 26.4202 18.4205 26.4464 17.7249 26.4464ZM14.4658 25.304C14.775 25.304 15.1357 25.3303 15.5865 25.3434C16.6943 25.3959 18.2144 25.4879 19.8761 25.304C20.5073 25.2384 21.1772 24.7262 21.7697 23.8464C22.9291 22.1262 23.7535 18.9879 23.0579 16.3353C22.4396 13.998 20.2626 13.9717 18.253 14.1293C17.5317 14.1818 16.9262 14.2343 16.8489 13.6303C16.6943 12.3828 16.8747 11.2404 17.0293 10.2161C17.274 8.57473 17.3771 7.69493 16.514 7.16968C16.1791 6.95958 15.9601 6.99897 15.8184 7.0515C14.8394 7.40604 14.0278 9.8222 13.4868 11.4242C13.3838 11.7394 13.2807 12.0283 13.1905 12.2909C12.2373 14.9434 9.97011 16.0596 8.73347 16.2828C7.96057 18.5414 7.11038 22.2182 7.85751 23.3737C7.98633 23.5838 8.15379 23.6757 8.41143 23.702C10.2277 23.8464 11.7091 24.4242 12.7912 24.8444C13.4224 25.0939 13.9505 25.3172 14.2468 25.2909C14.3112 25.3172 14.3885 25.304 14.4658 25.304Z" fill="#003CB6"/>
    <path d="M7.60006 13.5909H3.18164V26.906H7.60006C8.25702 26.906 8.79805 26.3676 8.79805 25.6848V14.799C8.78517 14.1293 8.25702 13.5909 7.60006 13.5909Z" fill="#FF4415"/>
    <path d="M16.2695 3.72929C15.9861 3.72929 15.7671 3.49293 15.7671 3.21717V0.512121C15.7671 0.223232 15.999 0 16.2695 0C16.54 0 16.7719 0.236364 16.7719 0.512121V3.20404C16.7719 3.49293 16.54 3.72929 16.2695 3.72929Z" fill="#FF4415"/>
    <path d="M19.2064 4.88485C19.1033 4.88485 19.0003 4.84545 18.9101 4.7798C18.6782 4.62222 18.6396 4.29394 18.807 4.0707L20.3915 1.91717C20.5589 1.69394 20.8681 1.64141 21.1 1.81212C21.319 1.98283 21.3705 2.31111 21.203 2.53434L19.6186 4.68788C19.5155 4.81919 19.3609 4.88485 19.2064 4.88485Z" fill="#FF4415"/>
    <path d="M13.2163 4.88485C13.0617 4.88485 12.9071 4.81919 12.817 4.67475L11.2196 2.53434C11.0522 2.29798 11.0908 1.98283 11.3227 1.81212C11.5417 1.64141 11.8637 1.69394 12.0312 1.91717L13.6156 4.0707C13.7831 4.29394 13.7316 4.62222 13.5126 4.79293C13.4224 4.85858 13.3193 4.88485 13.2163 4.88485Z" fill="#FF4415"/>
  </g>
</svg>