<?xml version="1.0" encoding="utf-8"?>
<svg width="59" height="59" viewBox="0 0 59 59" fill="none" xmlns="http://www.w3.org/2000/svg">
  <defs>
    <clipPath id="clip0_182_219">
      <rect width="34" height="31" fill="white"/>
    </clipPath>
  </defs>
  <circle cx="29.5" cy="29.5" r="29.5" fill="white"/>
  <g clip-path="url(#clip0_182_219)" transform="matrix(1, 0, 0, 1, 12.274809, 13.684732)">
    <path d="M33.4122 4.86274H22.8047C22.5108 4.86274 22.2837 4.61961 22.2837 4.33595V0.526797C22.2837 0.22963 22.5242 0 22.8047 0H31.2079C31.3949 0 31.5686 0.0945534 31.6621 0.256645L33.8664 4.06579C33.9599 4.22789 33.9599 4.4305 33.8664 4.59259C33.7729 4.76819 33.5992 4.86274 33.4122 4.86274ZM23.3391 3.80915H32.5037L30.9139 1.05359H23.3391V3.80915Z" fill="#003CB6"/>
    <path d="M22.8046 9.94161H21.0411C20.7472 9.94161 20.5201 9.69847 20.5201 9.41481V8.25315H19.812V9.41481C19.812 9.71198 19.5716 9.94161 19.291 9.94161H17.5276C17.2337 9.94161 17.0065 9.69847 17.0065 9.41481V8.25315H16.2985V9.41481C16.2985 9.71198 16.058 9.94161 15.7775 9.94161H14.0274C13.7335 9.94161 13.5063 9.69847 13.5063 9.41481V4.33594C13.5063 4.03877 13.7468 3.80914 14.0274 3.80914H22.8179C23.1118 3.80914 23.339 4.05228 23.339 4.33594V9.41481C23.339 9.69847 23.0985 9.94161 22.8046 9.94161ZM21.5755 8.88801H22.2836V4.86274H14.5484V8.88801H15.2564V7.72635C15.2564 7.42919 15.4969 7.19956 15.7775 7.19956H17.5409C17.8348 7.19956 18.0619 7.44269 18.0619 7.72635V8.88801H18.77V7.72635C18.77 7.42919 19.0105 7.19956 19.291 7.19956H21.0545C21.3484 7.19956 21.5755 7.44269 21.5755 7.72635V8.88801Z" fill="#003CB6"/>
    <path d="M22.8046 4.86274H14.0274C13.7335 4.86274 13.5063 4.61961 13.5063 4.33595V0.526797C13.5063 0.243137 13.7335 0 14.0274 0H22.8179C23.1118 0 23.339 0.243137 23.339 0.526797V4.33595C23.339 4.63312 23.0985 4.86274 22.8046 4.86274ZM14.5484 3.80915H22.2836V1.05359H14.5484V3.80915Z" fill="#003CB6"/>
    <path d="M19.291 7.72635V9.4148H17.5409V7.72635H15.7774V9.4148H14.0273V4.33594H22.8046V9.4148H21.0545V7.72635H19.291Z" fill="#003CB6"/>
    <path d="M22.8046 9.94161H21.0411C20.7472 9.94161 20.5201 9.69847 20.5201 9.41481V8.25315H19.812V9.41481C19.812 9.71198 19.5716 9.94161 19.291 9.94161H17.5276C17.2337 9.94161 17.0065 9.69847 17.0065 9.41481V8.25315H16.2985V9.41481C16.2985 9.71198 16.058 9.94161 15.7775 9.94161H14.0274C13.7335 9.94161 13.5063 9.69847 13.5063 9.41481V4.33594C13.5063 4.03877 13.7468 3.80914 14.0274 3.80914H22.8179C23.1118 3.80914 23.339 4.05228 23.339 4.33594V9.41481C23.339 9.69847 23.0985 9.94161 22.8046 9.94161ZM21.5755 8.88801H22.2836V4.86274H14.5484V8.88801H15.2564V7.72635C15.2564 7.42919 15.4969 7.19956 15.7775 7.19956H17.5409C17.8348 7.19956 18.0619 7.44269 18.0619 7.72635V8.88801H18.77V7.72635C18.77 7.42919 19.0105 7.19956 19.291 7.19956H21.0545C21.3484 7.19956 21.5755 7.44269 21.5755 7.72635V8.88801Z" fill="#003CB6"/>
    <path d="M22.8179 0.526794H14.0273V4.33594H22.8179V0.526794Z" fill="#003CB6"/>
    <path d="M22.8046 4.86274H14.0274C13.7335 4.86274 13.5063 4.61961 13.5063 4.33595V0.526797C13.5063 0.243137 13.7335 0 14.0274 0H22.8179C23.1118 0 23.339 0.243137 23.339 0.526797V4.33595C23.339 4.63312 23.0985 4.86274 22.8046 4.86274ZM14.5484 3.80915H22.2836V1.05359H14.5484V3.80915Z" fill="#003CB6"/>
    <path d="M14.0273 4.86274H3.41987C3.23284 4.86274 3.05916 4.75468 2.96565 4.59259C2.87213 4.4305 2.87213 4.22789 2.96565 4.06579L5.16997 0.256645C5.27684 0.0945534 5.43716 0 5.62419 0H14.0273C14.3212 0 14.5484 0.243137 14.5484 0.526797V4.33595C14.5484 4.63312 14.3079 4.86274 14.0273 4.86274ZM4.32832 3.80915H13.493V1.05359H5.93146L4.32832 3.80915Z" fill="#003CB6"/>
    <path d="M33.4791 23.895H11.8099C11.6362 23.895 11.4759 23.8139 11.3824 23.6653C9.83269 21.4231 7.29438 20.0858 4.60912 20.0858C4.42208 20.0858 4.23505 20.0993 4.04802 20.1128L4.00794 20.1264C3.83426 20.1399 3.67395 20.0588 3.56707 19.9237C3.4602 19.7887 3.42012 19.5996 3.47356 19.4375L5.98515 11.3059L2.95254 4.55206C2.87238 4.38997 2.88574 4.20086 2.97925 4.05228C3.07277 3.9037 3.24644 3.80914 3.42012 3.80914H33.4123C33.5859 3.80914 33.7596 3.9037 33.8531 4.05228C33.9466 4.20086 33.96 4.38997 33.8932 4.55206L30.8606 11.3059L33.9867 22.6793C34.0001 22.7198 34.0001 22.7738 34.0001 22.8144V23.3682C34.0001 23.6653 33.773 23.895 33.4791 23.895ZM12.0771 22.8414H32.9447L29.8052 11.4004C29.7785 11.2789 29.7785 11.1573 29.8319 11.0357L32.6107 4.84923H4.23505L7.01383 11.0357C7.06727 11.1708 7.08063 11.3059 7.04055 11.4274L4.68927 19.0322C7.60165 19.0593 10.3404 20.4776 12.0771 22.8414Z" fill="#003CB6"/>
    <path d="M23.4326 18.8702H29.0703V20.9368H23.4326V18.8702Z" fill="#FF4415"/>
    <path d="M29.0704 21.4636H23.4326C23.1387 21.4636 22.9116 21.2205 22.9116 20.9368V18.8702C22.9116 18.573 23.1521 18.3434 23.4326 18.3434H29.0704C29.3643 18.3434 29.5914 18.5865 29.5914 18.8702V20.9368C29.5914 21.2205 29.3643 21.4636 29.0704 21.4636ZM23.9537 20.4101H28.536V19.397H23.9537V20.4101Z" fill="#FF4415"/>
    <path d="M6.27898 31.0135C9.74676 31.0135 12.558 28.1712 12.558 24.6649C12.558 21.1587 9.74676 18.3163 6.27898 18.3163C2.81119 18.3163 0 21.1587 0 24.6649C0 28.1712 2.81119 31.0135 6.27898 31.0135Z" fill="#FF4415"/>
    <path d="M8.73679 26.4479L8.0421 27.1503L6.27864 25.3673L4.50182 27.1503L3.80713 26.4479L5.57059 24.6649L3.80713 22.8819L4.50182 22.1795L6.26528 23.9625L8.02874 22.1795L8.72343 22.8819L6.95998 24.6649L8.73679 26.4479Z" fill="#003CB6"/>
    <path d="M8.04236 27.6771C7.90876 27.6771 7.77517 27.6231 7.66829 27.5285L6.2789 26.1102L4.88951 27.515C4.79599 27.6096 4.6624 27.6636 4.51544 27.6636C4.38185 27.6636 4.24825 27.6096 4.14138 27.515L3.44668 26.8126C3.24629 26.61 3.24629 26.2723 3.44668 26.0697L4.83607 24.6649L3.44668 23.2601C3.24629 23.0575 3.24629 22.7198 3.44668 22.5172L4.14138 21.8148C4.34177 21.6122 4.68912 21.6122 4.87615 21.8148L6.26554 23.2196L7.65493 21.8148C7.74845 21.7202 7.88205 21.6662 8.029 21.6662C8.1626 21.6662 8.29619 21.7202 8.40307 21.8148L9.09776 22.5172C9.29816 22.7198 9.29816 23.0575 9.09776 23.2601L7.70837 24.6649L9.09776 26.0697C9.29816 26.2723 9.29816 26.61 9.09776 26.8126L8.40307 27.515C8.30955 27.6231 8.17595 27.6771 8.04236 27.6771ZM6.2789 24.8405C6.35906 24.8405 6.43922 24.854 6.50601 24.8945C6.46593 24.827 6.45258 24.746 6.45258 24.6649C6.45258 24.5839 6.46593 24.5028 6.50601 24.4353C6.35906 24.5028 6.18538 24.5028 6.03843 24.4353C6.07851 24.5028 6.09187 24.5839 6.09187 24.6649C6.09187 24.746 6.07851 24.827 6.03843 24.8945C6.11859 24.854 6.19874 24.8405 6.2789 24.8405Z" fill="#003CB6"/>
  </g>
</svg>