<?xml version="1.0" encoding="utf-8"?>
<svg width="59" height="59" viewBox="0 0 59 59" fill="none" xmlns="http://www.w3.org/2000/svg">
  <circle cx="29.5" cy="29.5" r="29.5" fill="white"/>
  <path d="M30.8695 15.47C29.5695 15.47 27.0995 13.98 23.5395 11.55C23.0895 11.24 22.7295 10.99 22.4895 10.85C22.0995 10.6 21.6595 10.24 21.1895 9.85C20.3395 9.15 19.1695 8.18 18.5695 8.29C18.4795 8.31 18.3595 8.35 18.2295 8.56C17.2395 10.27 13.4595 12.16 12.1995 11.58C12.0495 11.51 11.7995 11.33 11.7795 10.91C11.7095 9.48 14.6595 5.89 16.5095 4.81C18.6695 3.55 21.6095 4.04 24.7195 4.56L24.9995 4.6C27.7895 5.07 28.4595 4.32 28.4695 4.31C28.5495 4.22 28.6695 4.16 28.7795 4.17C28.8995 4.18 29.0095 4.23 29.0795 4.33L34.1695 12.05C34.2695 12.2 34.2495 12.4 34.1195 12.52C34.1095 12.53 33.1395 13.51 31.6195 15.18C31.4395 15.38 31.1895 15.47 30.8695 15.47ZM18.6595 7.53C19.5595 7.53 20.6295 8.41 21.6695 9.27C22.1195 9.64 22.5395 9.99 22.8895 10.21C23.1295 10.36 23.4995 10.62 23.9595 10.93C29.3195 14.59 30.7795 14.99 31.0595 14.68C32.1695 13.45 32.9995 12.6 33.3695 12.22L28.6695 5.09C28.1595 5.38 27.0595 5.71 24.8695 5.35L24.5895 5.3C21.6195 4.8 18.8095 4.33 16.8895 5.46C14.9195 6.61 12.2695 10.31 12.5295 10.92C13.2895 11.26 16.6795 9.73 17.5695 8.19C17.7795 7.83 18.0595 7.62 18.4195 7.55C18.4995 7.53 18.5795 7.53 18.6595 7.53Z" fill="#003CB6" transform="matrix(1, 0, 0, 1, 9.894659, 16.604503)"/>
  <path d="M27.7803 2.07L31.3603 0L38.7603 12.82L35.1703 14.89C34.5703 15.24 33.8003 15.03 33.4503 14.43L27.3203 3.79C26.9703 3.19 27.1703 2.42 27.7803 2.07Z" fill="#FF4415" transform="matrix(1, 0, 0, 1, 9.894659, 16.604503)"/>
  <path d="M10.5599 21.52C10.1299 21.52 9.71988 21.37 9.37988 21.1C8.98988 20.78 8.74988 20.33 8.69988 19.83C8.64988 19.33 8.79988 18.84 9.10988 18.45L12.0799 14.8C12.3999 14.41 12.8499 14.17 13.3499 14.12C13.8499 14.07 14.3399 14.22 14.7299 14.53C15.1199 14.85 15.3599 15.3 15.4099 15.8C15.4599 16.3 15.3099 16.79 14.9999 17.18L12.0299 20.83C11.7099 21.22 11.2599 21.46 10.7599 21.51C10.6899 21.52 10.6199 21.52 10.5599 21.52ZM13.5399 14.87C13.4999 14.87 13.4599 14.87 13.4199 14.88C13.1199 14.91 12.8499 15.06 12.6599 15.29L9.68988 18.94C9.49988 19.17 9.40988 19.47 9.43988 19.77C9.46988 20.07 9.61988 20.34 9.84988 20.53C10.0799 20.72 10.3799 20.81 10.6799 20.78C10.9799 20.75 11.2499 20.6 11.4399 20.37L14.4099 16.72C14.5999 16.49 14.6899 16.19 14.6599 15.89C14.6299 15.59 14.4799 15.32 14.2499 15.13C14.0399 14.96 13.7899 14.87 13.5399 14.87Z" fill="#003CB6" transform="matrix(1, 0, 0, 1, 9.894659, 16.604503)"/>
  <path d="M13.0902 23.21C12.6702 23.21 12.2502 23.07 11.9102 22.79C11.1102 22.14 10.9902 20.95 11.6402 20.15L14.2202 16.98C14.8702 16.18 16.0602 16.06 16.8602 16.71C17.6602 17.36 17.7802 18.55 17.1302 19.35L14.5502 22.52C14.1802 22.98 13.6402 23.21 13.0902 23.21ZM12.3802 22.21C12.8602 22.6 13.5702 22.53 13.9702 22.05L16.5502 18.88C16.9402 18.4 16.8702 17.69 16.3902 17.29C15.9102 16.9 15.2002 16.97 14.8002 17.45L12.2202 20.62C11.8302 21.1 11.9002 21.82 12.3802 22.21Z" fill="#003CB6" transform="matrix(1, 0, 0, 1, 9.894659, 16.604503)"/>
  <path d="M16.0497 24.62C15.5897 24.62 15.1597 24.46 14.7997 24.17C14.3897 23.83 14.1297 23.36 14.0797 22.83C14.0297 22.3 14.1797 21.78 14.5197 21.37L15.8197 19.77C16.1597 19.36 16.6297 19.1 17.1597 19.05C17.6897 18.99 18.2097 19.15 18.6197 19.49C19.4697 20.18 19.5997 21.44 18.9097 22.29L17.6097 23.89C17.2697 24.3 16.7997 24.56 16.2697 24.61C16.1897 24.62 16.1197 24.62 16.0497 24.62ZM17.3597 19.8C17.3197 19.8 17.2697 19.8 17.2297 19.81C16.8997 19.84 16.5997 20 16.3997 20.26L15.0997 21.86C14.8897 22.12 14.7897 22.44 14.8297 22.77C14.8597 23.1 15.0197 23.4 15.2797 23.6C15.5397 23.81 15.8597 23.91 16.1897 23.87C16.5197 23.84 16.8197 23.68 17.0197 23.42L18.3197 21.82C18.5297 21.56 18.6297 21.24 18.5897 20.91C18.5597 20.58 18.3997 20.28 18.1397 20.08C17.9197 19.89 17.6397 19.8 17.3597 19.8Z" fill="#003CB6" transform="matrix(1, 0, 0, 1, 9.894659, 16.604503)"/>
  <path d="M8.69963 18.96C8.27963 18.96 7.85964 18.82 7.49964 18.53C6.68964 17.87 6.56964 16.67 7.22964 15.86L8.12964 14.75C8.44964 14.36 8.89963 14.11 9.40963 14.06C9.91963 14.01 10.4096 14.16 10.7996 14.48C11.6096 15.14 11.7296 16.34 11.0696 17.15L10.1696 18.26C9.79963 18.72 9.24963 18.96 8.69963 18.96ZM7.97964 17.95C8.46964 18.35 9.18964 18.27 9.58964 17.79L10.4896 16.68C10.8896 16.19 10.8096 15.47 10.3196 15.07C10.0796 14.88 9.78963 14.79 9.47963 14.82C9.17963 14.85 8.89964 15 8.70964 15.24L7.80964 16.35C7.40964 16.83 7.48964 17.55 7.97964 17.95Z" fill="#003CB6" transform="matrix(1, 0, 0, 1, 9.894659, 16.604503)"/>
  <path d="M14.4996 6.48003C13.9896 6.48003 13.3396 6.42002 12.5596 6.24002C10.7196 5.79002 10.1096 5.00002 10.0496 4.91002C9.92964 4.74002 9.96964 4.51002 10.1396 4.39002C10.3096 4.27002 10.5396 4.31002 10.6596 4.47002C10.6796 4.49002 11.1896 5.13003 12.7396 5.51003C14.3696 5.91003 15.4296 5.65003 15.4396 5.65003C15.6396 5.60003 15.8496 5.72002 15.8996 5.92002C15.9496 6.12003 15.8296 6.32003 15.6296 6.38003C15.6096 6.38003 15.1996 6.48003 14.4996 6.48003Z" fill="#003CB6" transform="matrix(1, 0, 0, 1, 9.894659, 16.604503)"/>
  <path d="M7.86004 16.05C7.74004 16.05 7.63004 16 7.56004 15.9L5.39004 12.95C5.27004 12.78 5.30004 12.55 5.47004 12.42C5.64004 12.3 5.87004 12.33 6.00004 12.5L8.17004 15.45C8.29004 15.62 8.26004 15.85 8.09004 15.98C8.02004 16.03 7.94004 16.05 7.86004 16.05Z" fill="#003CB6" transform="matrix(1, 0, 0, 1, 9.894659, 16.604503)"/>
  <path d="M10.99 2.26L7.4 0.190002L0 13.02L3.59 15.09C4.19 15.44 4.96 15.23 5.31 14.63L11.46 3.99C11.8 3.38 11.59 2.61 10.99 2.26Z" fill="#FF4415" transform="matrix(1, 0, 0, 1, 9.894659, 16.604503)"/>
  <path d="M29.8702 18.47C27.7402 18.47 23.5602 15.56 22.1302 14.51C21.9602 14.39 21.9302 14.15 22.0502 13.98C22.1702 13.81 22.4102 13.78 22.5802 13.9C25.8502 16.29 29.7302 18.35 30.2902 17.59C30.5802 17.2 30.6902 16.85 30.6102 16.51C30.4802 15.93 29.7902 15.32 28.5802 14.69C28.4002 14.59 28.3202 14.37 28.4202 14.18C28.5202 14 28.7402 13.92 28.9302 14.02C30.3702 14.76 31.1602 15.52 31.3502 16.34C31.4802 16.9 31.3202 17.47 30.9002 18.04C30.6602 18.34 30.3102 18.47 29.8702 18.47Z" fill="#003CB6" transform="matrix(1, 0, 0, 1, 9.894659, 16.604503)"/>
  <path d="M27.0998 20.55C26.7798 20.55 26.3898 20.47 25.9398 20.28C22.9898 18.98 18.6598 16.51 18.6198 16.49C18.4398 16.39 18.3798 16.16 18.4798 15.98C18.5798 15.8 18.8098 15.74 18.9898 15.84C19.0298 15.86 23.3298 18.31 26.2398 19.6C26.9698 19.92 27.4998 19.88 27.8298 19.47C28.2098 19 28.1898 18.24 28.0898 18.06C27.9398 17.97 27.8598 17.78 27.9198 17.61C27.9898 17.41 28.2098 17.31 28.3998 17.38C28.5698 17.44 28.7898 17.62 28.8698 18.11C28.9798 18.79 28.7498 19.74 28.1198 20.22C27.9098 20.39 27.5698 20.55 27.0998 20.55Z" fill="#003CB6" transform="matrix(1, 0, 0, 1, 9.894659, 16.604503)"/>
  <path d="M24.4604 22.69C24.1704 22.69 23.8604 22.63 23.5304 22.51C21.3204 21.68 19.9604 20.84 19.9104 20.8C19.7304 20.69 19.6804 20.46 19.7904 20.28C19.9004 20.1 20.1304 20.05 20.3104 20.16C20.3204 20.17 21.6704 21 23.8004 21.8C24.7904 22.17 25.4404 21.68 25.7204 21.1C25.9104 20.7 25.9004 20.28 25.7004 20.16C25.5204 20.06 25.4604 19.83 25.5604 19.65C25.6604 19.47 25.8904 19.41 26.0704 19.51C26.6304 19.83 26.7604 20.64 26.3904 21.42C26.0704 22.12 25.3804 22.69 24.4604 22.69Z" fill="#003CB6" transform="matrix(1, 0, 0, 1, 9.894659, 16.604503)"/>
  <path d="M20.8203 24.26C18.5303 24.26 17.4603 23.63 17.4103 23.61C17.2303 23.5 17.1803 23.27 17.2803 23.09C17.3903 22.91 17.6203 22.85 17.8003 22.96C17.8103 22.97 18.8903 23.58 21.2603 23.5C23.3803 23.42 23.5003 22.25 23.5003 22.2C23.5203 22 23.6803 21.83 23.9003 21.85C24.1103 21.86 24.2603 22.03 24.2503 22.24C24.2503 22.26 24.1303 24.15 21.2803 24.25C21.1203 24.26 20.9703 24.26 20.8203 24.26Z" fill="#003CB6" transform="matrix(1, 0, 0, 1, 9.894659, 16.604503)"/>
</svg>