<?xml version="1.0" encoding="utf-8"?>
<svg width="59" height="59" viewBox="0 0 59 59" fill="none" xmlns="http://www.w3.org/2000/svg">
  <circle cx="29.5" cy="29.5" r="29.5" fill="white"/>
  <path d="M6.21973 23.21L13.9397 26.77V37.29L6.21973 33.83V23.21Z" fill="#003CB6" transform="matrix(1, 0, 0, 1, 15.565443, 9.909198)"/>
  <path d="M22.4493 23.21L14.7393 26.77V37.29L22.4493 33.83V23.21Z" fill="#003CB6" transform="matrix(1, 0, 0, 1, 15.565443, 9.909198)"/>
  <path d="M14.3002 25.98L21.8002 22.67L14.3002 19.18L6.66016 22.58L14.3002 25.98Z" fill="#003CB6" transform="matrix(1, 0, 0, 1, 15.565443, 9.909198)"/>
  <path d="M5.11 0H0.98C0.44 0 0 0.44 0 0.98V5.11C0 5.65 0.44 6.09 0.98 6.09H5.11C5.65 6.09 6.09 5.65 6.09 5.11V0.98C6.09 0.44 5.65 0 5.11 0Z" fill="#FF4415" transform="matrix(1, 0, 0, 1, 15.565443, 9.909198)"/>
  <path d="M16.4 0H12.27C11.73 0 11.29 0.44 11.29 0.98V5.11C11.29 5.65 11.73 6.09 12.27 6.09H16.4C16.94 6.09 17.38 5.65 17.38 5.11V0.98C17.38 0.44 16.94 0 16.4 0Z" fill="#FF4415" transform="matrix(1, 0, 0, 1, 15.565443, 9.909198)"/>
  <path d="M27.6998 0H23.5698C23.0298 0 22.5898 0.44 22.5898 0.98V5.11C22.5898 5.65 23.0298 6.09 23.5698 6.09H27.6998C28.2398 6.09 28.6798 5.65 28.6798 5.11V0.98C28.6698 0.44 28.2398 0 27.6998 0Z" fill="#FF4415" transform="matrix(1, 0, 0, 1, 15.565443, 9.909198)"/>
  <path d="M23.5202 11.26H5.15016C3.78016 11.26 2.66016 10.14 2.66016 8.77002V6.09002C2.66016 5.88002 2.83016 5.71002 3.04016 5.71002C3.25016 5.71002 3.42016 5.88002 3.42016 6.09002V8.77002C3.42016 9.73002 4.20016 10.51 5.16016 10.51H23.5302C24.4902 10.51 25.2702 9.73002 25.2702 8.77002V6.09002C25.2702 5.88002 25.4402 5.71002 25.6502 5.71002C25.8602 5.71002 26.0302 5.88002 26.0302 6.09002V8.77002C26.0102 10.14 24.8902 11.26 23.5202 11.26Z" fill="#FF4415" transform="matrix(1, 0, 0, 1, 15.565443, 9.909198)"/>
  <path d="M14.34 16.15C14.13 16.15 13.96 15.98 13.96 15.77V4.82C13.96 4.61 14.13 4.44 14.34 4.44C14.55 4.44 14.72 4.61 14.72 4.82V15.78C14.71 15.99 14.55 16.15 14.34 16.15Z" fill="#FF4415" transform="matrix(1, 0, 0, 1, 15.565443, 9.909198)"/>
</svg>