<svg width="175" height="42" viewBox="0 0 175 42" fill="none" xmlns="http://www.w3.org/2000/svg">
<path fill-rule="evenodd" clip-rule="evenodd" d="M5.94498 21.15C14.9712 21.15 23.7152 28.5856 23.7152 37.6214C22.5855 37.852 21.1604 38.023 19.9531 38.023C10.4543 38.0104 2.52334 30.3809 2.16434 21.15H5.94498ZM19.9531 2.38399C21.2279 2.38399 22.5855 2.55392 23.7168 2.77905C23.7168 11.8236 14.9696 19.2665 5.94198 19.2665L2.1668 19.2611C2.78562 9.98952 10.4575 2.38399 19.9531 2.38399ZM25.5861 3.28858C32.6422 5.60045 37.7408 12.2902 37.7602 20.193C37.7796 27.9671 32.7832 34.6407 25.5861 37.1058V3.28858ZM0 40.1614H39.9193V0.23877H0V40.1614Z" fill="#041E4F"/>
<path fill-rule="evenodd" clip-rule="evenodd" d="M53.2822 23.7083V21.1921H61.5887V17.9836H53.2808V13.3131H62.1179V10.1133H49.8807V23.563C49.8807 26.9625 51.329 29.2886 54.728 29.7661C54.7963 29.7834 54.8632 29.7957 54.925 29.7967H54.9875C55.3353 29.8353 55.6913 29.8618 56.0634 29.8618H62.3545V26.6652H56.0916C55.0107 26.6652 53.2822 26.1322 53.2822 23.7083Z" fill="#041E4F"/>
<path fill-rule="evenodd" clip-rule="evenodd" d="M64.7705 19.445V29.8667H68.1719V10.1084H64.7705V19.445Z" fill="#041E4F"/>
<path fill-rule="evenodd" clip-rule="evenodd" d="M73.8822 21.1639C74.0246 19.4269 75.7901 18.0319 77.9252 18.0319C79.9185 18.0319 81.5416 19.4556 81.5416 21.1639H73.8822ZM77.9252 15.1274C73.6257 15.1274 70.4081 18.0887 70.4081 22.7013V22.8155C70.4081 27.3144 73.512 30.2188 78.0109 30.2188C80.1747 30.2188 82.1965 29.6211 84.0472 27.6562L81.9973 25.6628C80.9151 26.7447 79.8619 27.3144 78.1246 27.3144C75.5906 27.3144 73.9104 25.8336 73.7967 23.5556H84.9586C85.0154 22.9862 85.0154 22.36 85.0154 22.36C85.0154 18.345 82.1965 15.1274 77.9252 15.1274Z" fill="#041E4F"/>
<path fill-rule="evenodd" clip-rule="evenodd" d="M94.5736 18.1742C96.1112 18.1742 97.2502 18.7436 98.2181 19.7402L100.325 17.5478C98.6739 15.782 96.7092 15.0703 94.5736 15.0703C90.2454 15.0703 86.7719 18.2879 86.7719 22.6731C86.7719 27.0584 90.2454 30.2759 94.5736 30.2759C96.7092 30.2759 98.6739 29.5639 100.325 27.7985L98.2181 25.6057C97.2502 26.6024 96.1112 27.172 94.5736 27.172C92.0677 27.172 90.1599 25.2639 90.1599 22.6731C90.1599 20.082 92.0677 18.1742 94.5736 18.1742Z" fill="#041E4F"/>
<path fill-rule="evenodd" clip-rule="evenodd" d="M105.844 23.7133H105.84V18.6688H108.934V15.5785H105.845V10.1084H102.443V23.9141L102.452 23.9135C102.55 27.1229 104.009 29.3099 107.29 29.7711C107.358 29.7883 107.425 29.8006 107.487 29.8017H107.55C107.897 29.8402 108.253 29.8667 108.625 29.8667H108.986L108.998 26.6702H108.654C107.573 26.6702 105.844 26.1372 105.844 23.7133Z" fill="#041E4F"/>
<path fill-rule="evenodd" clip-rule="evenodd" d="M115.17 17.7042V15.5794H111.796V29.8665H115.17V22.3541C115.17 20.0013 116.672 18.5271 119.025 18.5271C119.563 18.5271 120.046 18.5833 120.442 18.6691V15.3805C120.3 15.3527 119.791 15.2964 119.423 15.2964C117.381 15.2964 115.85 16.2318 115.17 17.7042Z" fill="#041E4F"/>
<path fill-rule="evenodd" clip-rule="evenodd" d="M128.76 27.2024C126.237 27.2024 124.338 25.2457 124.338 22.7232C124.338 20.1993 126.237 18.244 128.76 18.244C131.255 18.244 133.181 20.1993 133.181 22.7232C133.181 25.2457 131.255 27.2024 128.76 27.2024ZM128.76 15.1543C124.422 15.1543 120.963 18.4418 120.963 22.7232C120.963 27.0022 124.422 30.2919 128.76 30.2919C133.067 30.2919 136.555 27.0022 136.555 22.7232C136.555 18.4418 133.067 15.1543 128.76 15.1543Z" fill="#041E4F"/>
<path fill-rule="evenodd" clip-rule="evenodd" d="M138.647 19.1043V29.8667H142.05V10.1084H138.647V19.1043Z" fill="#041E4F"/>
<path fill-rule="evenodd" clip-rule="evenodd" d="M154.318 23.8846C154.318 26.1519 152.986 27.1169 151.199 27.1169C149.413 27.1169 148.082 26.1519 148.082 23.9141V15.5793H144.651V24.1974C144.651 28.2796 147.628 30.2355 151.172 30.2355C154.744 30.2355 157.747 28.2518 157.747 24.1119V15.5793H154.318V23.8846Z" fill="#041E4F"/>
<path fill-rule="evenodd" clip-rule="evenodd" d="M170.618 25.2976L168.473 22.298L173.405 15.5796H169.692L166.6 19.8599L163.483 15.5796H159.798L164.73 22.3259L159.316 29.8667H162.973L166.6 24.8203L170.229 29.8667H173.886L170.618 25.2976Z" fill="#041E4F"/>
</svg>
