<svg width="96" height="27" viewBox="0 0 96 27" fill="none" xmlns="http://www.w3.org/2000/svg">
<g clip-path="url(#clip0_810_84)">
<path d="M12.1147 5.08617C15.7384 5.08617 17.415 8.92785 20.8223 8.92785C21.7951 8.97211 22.7632 8.76725 23.6347 8.33266C22.8351 5.91128 21.294 3.80308 19.2298 2.30684C17.1657 0.810593 14.6832 0.0021964 12.1342 -0.00378979C9.58522 -0.00977598 7.09899 0.786952 5.02785 2.27348C2.95672 3.76002 1.40575 5.86095 0.594727 8.27856C1.464 8.71969 2.43375 8.92492 3.40712 8.87375C6.81444 8.92785 8.49107 5.08617 12.1147 5.08617Z" fill="url(#paint0_linear_810_84)"/>
<path d="M12.115 16.6653C8.76174 16.6653 7.1392 20.3447 3.2992 20.3447H3.24512C4.37375 21.5726 5.74482 22.5527 7.27158 23.2232C8.79835 23.8937 10.4476 24.2399 12.115 24.2399C13.7824 24.2399 15.4316 23.8937 16.9584 23.2232C18.4851 22.5527 19.8562 21.5726 20.9848 20.3447H20.8767C17.1448 20.3447 15.5223 16.6653 12.115 16.6653Z" fill="url(#paint1_linear_810_84)"/>
<path d="M12.115 11.7956C8.76178 11.7956 7.13924 15.4749 3.29924 15.4749C2.26073 15.4739 1.23224 15.2718 0.270508 14.8798C0.572234 16.1634 1.08392 17.3883 1.78487 18.505C2.29942 18.6211 2.82593 18.6756 3.35332 18.6673C6.76065 18.6673 8.43727 14.8256 12.0609 14.8256C15.6846 14.8256 17.3612 18.6673 20.7685 18.6673C21.2959 18.6756 21.8224 18.6211 22.337 18.505C23.0379 17.3883 23.5496 16.1634 23.8514 14.8798C22.9088 15.2728 21.8978 15.4751 20.8767 15.4749C17.1449 15.4749 15.5223 11.7956 12.115 11.7956Z" fill="url(#paint2_linear_810_84)"/>
<path d="M24.0676 9.95591C23.078 10.3867 22.01 10.6078 20.9307 10.6052C17.1448 10.6052 15.5223 6.92585 12.115 6.92585C8.70764 6.92585 7.13919 10.6052 3.29919 10.6052C2.21996 10.6078 1.1519 10.3867 0.162293 9.95591C0.0525786 10.6721 -0.00166725 11.3957 3.90265e-05 12.1202V12.7695C0.432715 13.2024 1.40624 13.7976 3.40736 13.7976C6.81469 13.7976 8.49131 9.95591 12.115 9.95591C15.7386 9.95591 17.4152 13.7976 20.8226 13.7976C22.8237 13.7976 23.7972 13.2024 24.2299 12.7695V12.1202C24.2316 11.3957 24.1774 10.6721 24.0676 9.95591Z" fill="url(#paint3_linear_810_84)"/>
<path d="M30.5577 9.68537C30.3811 9.73011 30.1988 9.74835 30.0169 9.73948C29.7287 9.77478 29.438 9.69723 29.2056 9.52305C29.1231 9.42702 29.0613 9.31497 29.0241 9.19393C28.9868 9.07289 28.975 8.94547 28.9893 8.81964V0.216435C29.0974 0.216435 29.2056 0.162326 29.3679 0.162326C29.5445 0.117587 29.7267 0.0993514 29.9087 0.108218C30.1969 0.0729157 30.4876 0.150467 30.72 0.324651C30.8205 0.42145 30.8972 0.540218 30.9441 0.671645C30.991 0.803071 31.0069 0.943584 30.9904 1.08217V4.16633H34.8845V0.216435C34.9926 0.216435 35.1008 0.162326 35.2631 0.162326C35.4397 0.117587 35.622 0.0993514 35.8039 0.108218C36.0921 0.0729157 36.3828 0.150467 36.6152 0.324651C36.7157 0.42145 36.7924 0.540218 36.8393 0.671645C36.8862 0.803071 36.9021 0.943584 36.8856 1.08217V9.63126C36.7774 9.63126 36.6693 9.68537 36.507 9.68537C36.3304 9.73011 36.1481 9.74835 35.9662 9.73948C35.678 9.77478 35.3873 9.69723 35.1549 9.52305C35.0724 9.42702 35.0106 9.31497 34.9734 9.19393C34.9361 9.07289 34.9243 8.94547 34.9386 8.81964V5.73547H31.0445V9.63126C30.8822 9.63126 30.7741 9.68537 30.5577 9.68537Z" fill="#FF4415"/>
<path d="M40.9963 6.87174C41.1069 7.34245 41.3984 7.75064 41.8076 8.00802C42.211 8.22589 42.6571 8.35327 43.1148 8.3813C43.5724 8.40933 44.0307 8.33734 44.4577 8.17034C44.7709 8.08194 45.0645 7.93507 45.3231 7.73748C45.4604 7.83197 45.5873 7.9408 45.7016 8.06213C45.8034 8.20446 45.8599 8.37416 45.8639 8.5491C45.8693 8.6496 45.8527 8.75007 45.8154 8.84351C45.778 8.93696 45.7208 9.02113 45.6476 9.09018C45.469 9.25981 45.269 9.40533 45.0526 9.52305C44.7783 9.65329 44.487 9.74436 44.1873 9.79359C43.8303 9.8591 43.4685 9.89529 43.1056 9.9018C42.536 9.89989 41.9703 9.8086 41.429 9.63126C40.9514 9.46522 40.5105 9.20795 40.1309 8.87375C39.7525 8.54038 39.472 8.11013 39.3197 7.62926C39.1189 7.07338 39.0093 6.48868 38.9952 5.8978C38.9926 5.32761 39.0839 4.7609 39.2656 4.22044C39.4588 3.77614 39.734 3.37229 40.0769 3.03006C40.4111 2.70322 40.8193 2.46192 41.2667 2.32665C41.7358 2.15854 42.2289 2.06719 42.727 2.05611C43.2048 2.04436 43.681 2.11764 44.1332 2.27255C44.5352 2.41078 44.9038 2.63199 45.2149 2.92185C45.526 3.20515 45.7667 3.55717 45.918 3.9499C46.0965 4.35953 46.1886 4.80163 46.1884 5.2485C46.1987 5.36578 46.1848 5.48391 46.1476 5.5956C46.1103 5.70728 46.0506 5.81014 45.9721 5.8978C45.7879 6.05132 45.5617 6.14562 45.3231 6.16834L40.9963 6.87174ZM42.727 3.51704C42.2491 3.51352 41.7867 3.68698 41.429 4.00401C41.0627 4.40429 40.8516 4.92251 40.834 5.46493L44.3495 4.97796C44.2858 4.60667 44.1378 4.25495 43.9169 3.9499C43.7577 3.80165 43.5703 3.68693 43.3659 3.61257C43.1615 3.53821 42.9442 3.50572 42.727 3.51704Z" fill="#FF4415"/>
<path d="M50.9479 2.05611C51.8075 2.00906 52.6597 2.23643 53.3817 2.70541C53.6899 2.9358 53.9354 3.2397 54.096 3.5894C54.2566 3.93909 54.3272 4.32345 54.3012 4.70742V8.27856C54.313 8.4893 54.256 8.69818 54.1389 8.87375C54.0131 9.04097 53.8451 9.17169 53.6522 9.25251C53.3141 9.44771 52.9498 9.59348 52.5705 9.68537C52.0738 9.79875 51.5655 9.85324 51.0561 9.8477C50.2048 9.88411 49.3608 9.67769 48.6223 9.25251C48.331 9.06018 48.0968 8.79284 47.9445 8.47861C47.7922 8.16438 47.7274 7.8149 47.757 7.46693C47.7325 7.17259 47.7787 6.87666 47.8915 6.60375C48.0044 6.33083 48.1808 6.08881 48.406 5.8978C48.962 5.50495 49.6189 5.27964 50.2989 5.2485L52.4082 5.03206V4.70742C52.4167 4.53805 52.3813 4.36937 52.3055 4.2177C52.2297 4.06603 52.1161 3.93651 51.9755 3.84168C51.6086 3.6512 51.1989 3.55806 50.7857 3.57114C50.3836 3.57189 49.9834 3.62648 49.5958 3.73347C49.2421 3.82681 48.898 3.95364 48.5682 4.11223C48.4625 4.01796 48.3714 3.90856 48.2978 3.78758C48.2361 3.72366 48.1896 3.64675 48.1615 3.56249C48.1334 3.47822 48.1246 3.38874 48.1355 3.3006C48.1287 3.2127 48.1396 3.12433 48.1674 3.04069C48.1953 2.95705 48.2396 2.87985 48.2978 2.81363C48.4272 2.66274 48.5956 2.55041 48.7846 2.48898C49.0841 2.31677 49.4151 2.20638 49.7581 2.16433C50.1515 2.09905 50.5492 2.06288 50.9479 2.05611ZM51.002 8.38677C51.2759 8.38481 51.5485 8.34846 51.8133 8.27856C52.0108 8.26073 52.1988 8.18549 52.3541 8.06212V6.33066L50.8398 6.49299C50.4993 6.51035 50.1669 6.60273 49.8662 6.76353C49.7547 6.82819 49.6644 6.92415 49.6068 7.03954C49.5491 7.15494 49.5265 7.28471 49.5417 7.41283C49.5379 7.54717 49.5652 7.68058 49.6215 7.8026C49.6778 7.92463 49.7616 8.03197 49.8662 8.11623C50.2135 8.3073 50.606 8.40078 51.002 8.38677Z" fill="#FF4415"/>
<path d="M58.8441 8.06212C59.1005 8.22856 59.405 8.30472 59.7095 8.27856C59.8915 8.28742 60.0737 8.26919 60.2503 8.22445L60.7371 8.06212C60.839 8.14715 60.9142 8.25992 60.9534 8.38677C61.0211 8.52128 61.058 8.66912 61.0616 8.81964C61.0568 8.97166 61.0149 9.1202 60.9395 9.25226C60.8641 9.38432 60.7574 9.49587 60.6289 9.57715C60.2262 9.83128 59.7509 9.94539 59.2768 9.9018C58.5855 9.94541 57.8996 9.75481 57.3298 9.36072C57.0755 9.13157 56.8792 8.84534 56.7569 8.52553C56.6347 8.20572 56.5901 7.86147 56.6267 7.52104V0.378757C56.7348 0.378757 56.843 0.324649 57.0053 0.324649C57.1814 0.277111 57.3641 0.258832 57.5461 0.270541C57.8343 0.235239 58.125 0.31279 58.3574 0.486974C58.4532 0.575755 58.5274 0.685321 58.5742 0.807257C58.6211 0.929194 58.6394 1.06026 58.6278 1.19038V2.48898H60.8993L61.0616 2.81363C61.1088 2.95275 61.1272 3.10003 61.1157 3.24649C61.136 3.45805 61.0783 3.66973 60.9534 3.84168C60.8872 3.89989 60.8101 3.94424 60.7265 3.97212C60.6429 4 60.5545 4.01084 60.4667 4.00401H58.6819V7.41283C58.6456 7.46483 58.6209 7.52402 58.6094 7.5864C58.5979 7.64877 58.5999 7.71289 58.6153 7.77443C58.6306 7.83596 58.659 7.89348 58.6985 7.94311C58.738 7.99274 58.7876 8.03332 58.8441 8.06212Z" fill="#FF4415"/>
<path d="M65.1717 9.63126C65.0635 9.63126 64.9553 9.68537 64.7931 9.68537C64.6165 9.73011 64.4342 9.74835 64.2522 9.73948C63.964 9.77478 63.6733 9.69723 63.441 9.52305C63.3584 9.42701 63.2966 9.31497 63.2594 9.19393C63.2222 9.07289 63.2103 8.94547 63.2246 8.81964V1.02806C63.218 0.948395 63.2292 0.868261 63.2572 0.793415C63.2853 0.71857 63.3295 0.650873 63.3869 0.595191C63.5232 0.492953 63.6679 0.40245 63.8195 0.32465C64.2011 0.185834 64.6034 0.112655 65.0094 0.108217C65.4766 0.062123 65.9462 0.0440547 66.4156 0.0541091C67.7677 0.0541091 68.7953 0.32465 69.4984 0.91984C69.842 1.19823 70.1144 1.55444 70.2931 1.95902C70.4718 2.3636 70.5516 2.80492 70.526 3.24649C70.5469 3.84326 70.3763 4.43103 70.0393 4.92385C69.6861 5.42679 69.1989 5.82047 68.6331 6.06012C69.0658 6.65531 69.4984 7.19639 69.9311 7.73747C70.2609 8.13451 70.5679 8.55002 70.8505 8.98197C70.7718 9.23554 70.6215 9.46099 70.4179 9.63126C70.216 9.78337 69.9672 9.85994 69.7148 9.8477C69.4447 9.86724 69.1765 9.79057 68.9576 9.63126C68.7544 9.47022 68.5884 9.2672 68.4708 9.03607L66.7401 6.43888H65.2798V9.63126H65.1717ZM66.4156 4.76152C66.914 4.80164 67.4109 4.6678 67.8218 4.38277C68.0067 4.24768 68.1537 4.06713 68.2484 3.8586C68.3432 3.65006 68.3825 3.42059 68.3626 3.19239C68.3626 2.16433 67.6595 1.62325 66.2534 1.62325C66.0535 1.61181 65.853 1.63004 65.6584 1.67736C65.4421 1.67736 65.2798 1.73146 65.1176 1.73146V4.76152H66.4156Z" fill="#003CB6"/>
<path d="M73.9875 6.87174C74.0982 7.34245 74.3896 7.75064 74.7988 8.00802C75.2023 8.22589 75.6483 8.35327 76.106 8.3813C76.5636 8.40933 77.0219 8.33734 77.4489 8.17034C77.7621 8.08194 78.0557 7.93507 78.3143 7.73748C78.4516 7.83197 78.5785 7.9408 78.6929 8.06213C78.7946 8.20446 78.8511 8.37416 78.8551 8.5491C78.8605 8.6496 78.844 8.75007 78.8066 8.84351C78.7692 8.93696 78.712 9.02113 78.6388 9.09018C78.4602 9.25981 78.2602 9.40533 78.0438 9.52305C77.7695 9.65329 77.4782 9.74436 77.1785 9.79359C76.8215 9.8591 76.4597 9.89529 76.0968 9.9018C75.5272 9.89989 74.9615 9.8086 74.4202 9.63126C73.9426 9.46522 73.5017 9.20795 73.1222 8.87375C72.7437 8.54038 72.4632 8.11013 72.3109 7.62926C72.1101 7.07338 72.0005 6.48868 71.9864 5.8978C71.9838 5.32761 72.0752 4.7609 72.2568 4.22044C72.45 3.77614 72.7252 3.37229 73.0681 3.03006C73.4023 2.70322 73.8105 2.46192 74.2579 2.32665C75.1732 2.03808 76.155 2.03808 77.0703 2.32665C77.4724 2.46488 77.8409 2.6861 78.152 2.97595C78.4631 3.25926 78.7039 3.61128 78.8551 4.00401C79.0336 4.41364 79.1257 4.85573 79.1255 5.30261C79.1358 5.41988 79.1219 5.53802 79.0847 5.6497C79.0475 5.76139 78.9877 5.86424 78.9092 5.95191C78.725 6.10543 78.4988 6.19973 78.2602 6.22245L73.9875 6.87174ZM75.7182 3.51704C75.2403 3.51352 74.778 3.68698 74.4202 4.00401C74.0539 4.40429 73.8428 4.92251 73.8253 5.46493L77.2867 4.97796C77.223 4.60667 77.0749 4.25495 76.854 3.9499C76.71 3.79608 76.5329 3.67713 76.3361 3.60212C76.1393 3.52711 75.928 3.49801 75.7182 3.51704Z" fill="#003CB6"/>
<path d="M84.913 3.62525C84.6167 3.62168 84.3226 3.67685 84.0476 3.78758C83.7948 3.8995 83.5583 4.04511 83.3445 4.22044C83.1508 4.42053 83.0031 4.66062 82.9119 4.92385C82.7968 5.25409 82.7419 5.60227 82.7496 5.95191C82.7302 6.26546 82.7728 6.57976 82.8749 6.87685C82.977 7.17394 83.1366 7.448 83.3445 7.68337C83.5532 7.88205 83.7994 8.03704 84.0688 8.13924C84.3381 8.24145 84.6251 8.28881 84.913 8.27856C85.2273 8.28703 85.54 8.23182 85.8324 8.11623C86.1029 8.00802 86.3192 7.8998 86.5355 7.79158C86.6851 7.87546 86.8001 8.00966 86.86 8.17034C86.9682 8.27856 86.9682 8.44088 86.9682 8.65732C86.9608 8.84309 86.9011 9.02298 86.7958 9.17618C86.6905 9.32939 86.544 9.44964 86.3733 9.52305C85.8474 9.7606 85.2732 9.87178 84.6967 9.8477C84.1477 9.86295 83.5999 9.78987 83.0741 9.63126C82.6106 9.49638 82.1848 9.25558 81.8302 8.92786C81.4517 8.59448 81.1713 8.16424 81.0189 7.68337C80.8113 7.14965 80.7192 6.57797 80.7485 6.00601C80.7359 5.41263 80.8464 4.82308 81.073 4.27455C81.2651 3.80035 81.5607 3.37514 81.9383 3.03006C82.2869 2.69411 82.7148 2.45209 83.1823 2.32665C83.6717 2.17168 84.1834 2.09855 84.6967 2.11022C85.2801 2.0749 85.8616 2.20626 86.3733 2.48898C86.5468 2.5584 86.6959 2.67766 86.8018 2.83173C86.9076 2.98579 86.9655 3.16777 86.9682 3.35471C86.9646 3.50523 86.9277 3.65307 86.86 3.78758C86.7659 3.90896 86.6569 4.01803 86.5355 4.11223C86.3192 4.00401 86.1029 3.89579 85.8324 3.78758C85.5387 3.67678 85.2269 3.62173 84.913 3.62525Z" fill="#003CB6"/>
<path d="M95.9996 5.95191C95.9978 6.50406 95.9065 7.05227 95.7291 7.57515C95.5624 8.03645 95.305 8.45963 94.972 8.81964C94.6411 9.1631 94.2332 9.42277 93.7821 9.57716C92.7676 9.93788 91.6598 9.93788 90.6452 9.57716C90.1941 9.42277 89.7862 9.1631 89.4553 8.81964C89.1111 8.46826 88.852 8.0425 88.6982 7.57515C88.3376 6.52305 88.3376 5.38076 88.6982 4.32866C88.8648 3.86736 89.1223 3.44418 89.4553 3.08417C89.7954 2.75216 90.2005 2.49423 90.6452 2.32666C91.6598 1.96593 92.7676 1.96593 93.7821 2.32666C94.2332 2.48104 94.6411 2.74071 94.972 3.08417C95.3162 3.43555 95.5753 3.86131 95.7291 4.32866C95.9065 4.85154 95.9978 5.39975 95.9996 5.95191ZM92.1596 3.62525C91.9122 3.61885 91.6666 3.66916 91.4416 3.77232C91.2166 3.87548 91.0182 4.02877 90.8615 4.22044C90.5094 4.72647 90.3379 5.33643 90.3748 5.95191C90.33 6.56822 90.5022 7.18079 90.8615 7.68337C91.0333 7.87101 91.2422 8.02085 91.475 8.12335C91.7078 8.22586 91.9593 8.2788 92.2136 8.2788C92.468 8.2788 92.7195 8.22586 92.9523 8.12335C93.1851 8.02085 93.394 7.87101 93.5658 7.68337C93.9179 7.17734 94.0894 6.56739 94.0525 5.95191C94.0894 5.33643 93.9179 4.72647 93.5658 4.22044C93.3862 4.02819 93.1682 3.87585 92.9259 3.77331C92.6837 3.67078 92.4226 3.62033 92.1596 3.62525Z" fill="#003CB6"/>
<path d="M34.6144 23.9158C34.4743 24.03 34.3063 24.1047 34.1277 24.1323C33.8805 24.1986 33.6263 24.2349 33.3705 24.2405C33.0911 24.2499 32.8134 24.1943 32.5592 24.0782C32.3662 23.9973 32.1982 23.8666 32.0724 23.6994C31.9643 23.4289 31.802 23.1042 31.6398 22.7254C31.4775 22.3467 31.2612 21.8597 31.0989 21.3727C30.9367 20.8858 30.7203 20.3447 30.504 19.8036C30.2877 19.2625 30.1254 18.7214 29.9091 18.1263C29.6927 17.5311 29.5305 17.0441 29.3682 16.503C29.206 15.9619 29.0437 15.4749 28.9355 15.0421C29.0697 14.9211 29.2145 14.8124 29.3682 14.7174C29.5688 14.6131 29.7912 14.5574 30.0172 14.5551C30.1347 14.5402 30.254 14.5519 30.3664 14.5894C30.4787 14.6268 30.5812 14.6891 30.6663 14.7715C30.8583 14.9421 30.991 15.1696 31.0448 15.4208C31.4234 16.5571 31.7479 17.6934 32.1265 18.8297C32.5051 19.9659 32.8837 21.0481 33.2623 22.1844H33.3164C33.4786 21.6433 33.695 21.1022 33.8572 20.507C34.0195 19.9118 34.2358 19.2625 34.3981 18.6673C34.5603 18.0721 34.7767 17.3687 34.9389 16.7194C35.1012 16.0701 35.2634 15.4208 35.4257 14.8256C35.7071 14.672 36.0248 14.5972 36.3451 14.6092C36.5985 14.5889 36.8501 14.6663 37.0482 14.8256C37.2646 14.9339 37.3186 15.1503 37.3186 15.4749C37.2956 15.7862 37.2413 16.0944 37.1564 16.3948C37.0482 16.8277 36.886 17.3146 36.7237 17.8557C36.5615 18.3968 36.3451 18.992 36.1288 19.6413L35.4798 21.4269C35.2634 21.9679 35.0471 22.509 34.8848 22.9419C34.9006 23.2871 34.8059 23.6282 34.6144 23.9158Z" fill="#003CB6"/>
<path d="M40.1311 21.3186C40.2417 21.7893 40.5332 22.1975 40.9423 22.4549C41.3458 22.6728 41.7919 22.8002 42.2495 22.8282C42.7072 22.8562 43.1654 22.7842 43.5925 22.6172C43.9056 22.5288 44.1992 22.382 44.4578 22.1844C44.5952 22.2789 44.7221 22.3877 44.8364 22.509C44.9382 22.6514 44.9947 22.821 44.9987 22.996C45.0041 23.0965 44.9875 23.197 44.9502 23.2904C44.9128 23.3839 44.8555 23.468 44.7823 23.5371C44.6037 23.7067 44.4037 23.8522 44.1874 23.9699C43.913 24.1002 43.6217 24.1913 43.3221 24.2405C42.965 24.306 42.6033 24.3422 42.2404 24.3487C41.6708 24.3468 41.105 24.2555 40.5637 24.0782C40.0861 23.9121 39.6453 23.6548 39.2657 23.3206C38.8873 22.9873 38.6068 22.557 38.4544 22.0762C38.2537 21.5203 38.1441 20.9356 38.1299 20.3447C38.1273 19.7745 38.2187 19.2078 38.4004 18.6673C38.5936 18.223 38.8688 17.8192 39.2116 17.477C39.5459 17.1501 39.9541 16.9088 40.4015 16.7735C41.3168 16.485 42.2986 16.485 43.2139 16.7735C43.6159 16.9118 43.9845 17.133 44.2956 17.4228C44.6067 17.7062 44.8474 18.0582 44.9987 18.4509C45.1772 18.8605 45.2692 19.3026 45.2691 19.7495C45.2794 19.8668 45.2655 19.9849 45.2282 20.0966C45.191 20.2083 45.1313 20.3111 45.0528 20.3988C44.8686 20.5523 44.6424 20.6466 44.4037 20.6693L40.1311 21.3186ZM41.8618 18.018C41.3838 18.0145 40.9215 18.188 40.5637 18.505C40.1974 18.9053 39.9864 19.4235 39.9688 19.9659L43.4302 19.479C43.3665 19.1077 43.2185 18.756 42.9975 18.4509C42.8473 18.3058 42.6691 18.1926 42.4739 18.1182C42.2787 18.0438 42.0705 18.0097 41.8618 18.018Z" fill="#003CB6"/>
<path d="M48.7848 24.0782C48.6766 24.0782 48.5685 24.1323 48.4062 24.1323C48.2301 24.1798 48.0474 24.1981 47.8654 24.1864C47.5772 24.2217 47.2865 24.1441 47.0541 23.9699C46.9583 23.8812 46.8841 23.7716 46.8372 23.6497C46.7904 23.5277 46.772 23.3967 46.7837 23.2665V18.3968C46.7797 18.1526 46.8354 17.9111 46.9459 17.6934C47.086 17.4913 47.2712 17.3246 47.4868 17.2064C47.8492 16.9705 48.2529 16.8053 48.6766 16.7194C49.1738 16.6091 49.6817 16.5547 50.191 16.5571C51.1645 16.5571 51.6513 16.8818 51.6513 17.477C51.6601 17.6233 51.6417 17.7701 51.5972 17.9098C51.5542 18.0232 51.4998 18.132 51.4349 18.2345C51.1492 18.1859 50.8591 18.1678 50.5696 18.1804C50.2246 18.1868 49.8808 18.223 49.542 18.2886C49.2563 18.3539 48.9826 18.4635 48.7307 18.6132L48.7848 24.0782Z" fill="#003CB6"/>
<path d="M54.518 22.3467C54.1858 21.662 53.8968 20.9572 53.6526 20.2365C53.2547 19.191 52.9117 18.1254 52.625 17.0441C52.7592 16.9231 52.904 16.8144 53.0577 16.7194C53.2417 16.6275 53.448 16.59 53.6526 16.6112C53.8802 16.5999 54.1061 16.6564 54.3016 16.7735C54.5123 16.9374 54.6641 17.1653 54.7343 17.4228C55.2211 18.992 55.7619 20.5611 56.4109 22.1844H56.465C56.5732 21.8597 56.7354 21.481 56.8977 20.994C57.0599 20.507 57.1681 20.1283 57.3304 19.6413C57.4818 19.1612 57.6082 18.6736 57.7089 18.1804C57.8171 17.6934 57.9253 17.2064 58.0335 16.7735C58.1416 16.7194 58.3039 16.6653 58.412 16.6112C58.5517 16.5667 58.6984 16.5483 58.8447 16.5571C59.0888 16.5531 59.3302 16.6088 59.5478 16.7194C59.7642 16.8277 59.8182 17.0441 59.8182 17.3146C59.809 17.7557 59.7362 18.193 59.6019 18.6132C59.457 19.2363 59.2764 19.8506 59.0611 20.4529C58.8447 21.1022 58.5743 21.7515 58.3039 22.4008C58.0649 22.9922 57.7941 23.5702 57.4926 24.1323C57.0999 24.8964 56.609 25.6058 56.0323 26.2425C55.8799 26.4469 55.6848 26.6157 55.4607 26.7371C55.2366 26.8586 54.9887 26.9298 54.7343 26.9459C54.4415 26.9475 54.1563 26.8524 53.923 26.6754C53.7258 26.4867 53.5933 26.2405 53.5444 25.9719C53.7123 25.7963 53.8931 25.6336 54.0853 25.485C54.2475 25.2685 54.4639 25.1062 54.6261 24.8898C54.7884 24.6733 55.0047 24.4569 55.167 24.2405C55.3297 24.037 55.4744 23.8197 55.5996 23.5912C55.4915 23.5371 55.4374 23.5371 55.3292 23.483C55.2266 23.428 55.135 23.3546 55.0588 23.2665C54.956 23.1498 54.8654 23.0229 54.7884 22.8878L54.518 22.3467Z" fill="#003CB6"/>
<path d="M59.9799 23.1583C59.9713 22.8385 60.0877 22.5279 60.3045 22.2926C60.544 22.0829 60.8515 21.9673 61.1698 21.9673C61.4881 21.9673 61.7956 22.0829 62.0352 22.2926C62.2519 22.5279 62.3683 22.8385 62.3597 23.1583C62.3589 23.4765 62.2437 23.7838 62.0352 24.024C61.7956 24.2337 61.4881 24.3493 61.1698 24.3493C60.8515 24.3493 60.544 24.2337 60.3045 24.024C60.0959 23.7838 59.9808 23.4765 59.9799 23.1583Z" fill="#FF4415"/>
<path d="M69.5527 22.022C69.5673 22.347 69.5008 22.6706 69.3592 22.9634C69.2176 23.2563 69.0052 23.5092 68.7414 23.6994C68.2006 24.1323 67.4434 24.2946 66.3617 24.2946C65.9807 24.2906 65.6008 24.2544 65.2259 24.1864C64.9108 24.1287 64.6026 24.038 64.3065 23.9158C64.0789 23.8169 63.8758 23.6691 63.7116 23.483C63.5717 23.3377 63.4941 23.1436 63.4952 22.9419C63.4929 22.7733 63.5299 22.6066 63.6034 22.4549C63.6978 22.3175 63.8066 22.1905 63.9279 22.0761C64.2486 22.281 64.5939 22.4446 64.9555 22.5631C65.3691 22.7225 65.8107 22.7961 66.2535 22.7796C66.5927 22.8114 66.9333 22.7357 67.2271 22.5631C67.3287 22.5013 67.4123 22.4137 67.4692 22.3091C67.5262 22.2046 67.5546 22.0869 67.5516 21.9679C67.5516 21.5351 67.2271 21.2645 66.6321 21.1563L65.7668 20.9399C65.137 20.8508 64.5508 20.5671 64.0902 20.1283C63.9014 19.9485 63.755 19.7291 63.6614 19.4858C63.5679 19.2424 63.5296 18.9814 63.5493 18.7214C63.5408 18.405 63.6104 18.0914 63.7519 17.8082C63.8934 17.5251 64.1024 17.2812 64.3606 17.0982C65.0326 16.6523 65.8261 16.4255 66.6321 16.4489C66.9771 16.4553 67.3209 16.4915 67.6597 16.5571C67.9422 16.606 68.2157 16.6972 68.471 16.8277C68.6793 16.9082 68.8649 17.0382 69.0118 17.2064C69.1381 17.3601 69.2136 17.5491 69.2282 17.7475C69.2181 17.9145 69.1816 18.0789 69.12 18.2345C69.0118 18.3968 68.9578 18.505 68.8496 18.5591C68.7278 18.4952 68.6012 18.4409 68.471 18.3968L67.9842 18.2345C67.7928 18.1675 67.5921 18.131 67.3893 18.1262C67.1943 18.0814 66.9942 18.0632 66.7944 18.0721C66.4562 18.0538 66.1194 18.1286 65.8209 18.2886C65.717 18.3335 65.6298 18.4098 65.5716 18.5069C65.5134 18.604 65.4871 18.7168 65.4964 18.8297C65.4921 18.9143 65.5098 18.9987 65.5477 19.0745C65.5856 19.1504 65.6424 19.2151 65.7127 19.2625C65.9038 19.4042 66.1266 19.4971 66.3617 19.5331L67.1189 19.6954C67.7978 19.8155 68.4325 20.1143 68.9578 20.5611C69.1509 20.7514 69.3033 20.9791 69.4056 21.2303C69.5078 21.4815 69.5579 21.7509 69.5527 22.022Z" fill="#FF4415"/>
<path d="M72.7441 24.1864C72.568 24.2339 72.3853 24.2522 72.2033 24.2405C71.915 24.2758 71.6244 24.1982 71.392 24.024C71.2962 23.9353 71.222 23.8257 71.1751 23.7038C71.1282 23.5818 71.1099 23.4508 71.1216 23.3206V14.014C71.2456 13.9708 71.372 13.9346 71.5002 13.9058C71.6624 13.9058 71.8247 13.8517 72.041 13.8517C72.3292 13.8164 72.6199 13.894 72.8523 14.0681C72.9481 14.1569 73.0223 14.2665 73.0691 14.3884C73.116 14.5104 73.1343 14.6414 73.1227 14.7715V16.9359C73.3624 16.8135 73.6169 16.7225 73.8799 16.6653C74.1956 16.573 74.5251 16.5364 74.8534 16.5571C75.6664 16.5414 76.4629 16.7881 77.125 17.2605C77.4102 17.5512 77.6301 17.8995 77.77 18.2821C77.9099 18.6647 77.9666 19.0727 77.9362 19.479V24.0782C77.8281 24.0782 77.7199 24.1323 77.5576 24.1323C77.3815 24.1798 77.1988 24.1981 77.0168 24.1864C76.7286 24.2217 76.4379 24.1441 76.2055 23.9699C76.1097 23.8812 76.0355 23.7716 75.9886 23.6497C75.9418 23.5277 75.9234 23.3967 75.9351 23.2665V19.5331C75.9569 19.3276 75.9344 19.1198 75.869 18.9238C75.8037 18.7278 75.6972 18.5481 75.5565 18.3968C75.4095 18.2691 75.237 18.1741 75.0505 18.1181C74.8641 18.0622 74.6678 18.0465 74.4748 18.0721C74.219 18.0777 73.9648 18.114 73.7176 18.1804L73.0686 18.505V24.0782C73.0145 24.1323 72.9064 24.1323 72.7441 24.1864Z" fill="#FF4415"/>
<path d="M87.1841 20.4529C87.1824 21.0051 87.0911 21.5533 86.9137 22.0762C86.747 22.5375 86.4896 22.9606 86.1565 23.3206C85.8404 23.6817 85.4275 23.9446 84.9667 24.0782C83.9521 24.4389 82.8443 24.4389 81.8298 24.0782C81.3786 23.9238 80.9708 23.6641 80.6399 23.3206C80.2956 22.9693 80.0366 22.5435 79.8827 22.0762C79.5222 21.024 79.5222 19.8818 79.8827 18.8297C80.0494 18.3684 80.3069 17.9452 80.6399 17.5852C80.98 17.2532 81.3851 16.9952 81.8298 16.8277C82.8443 16.4669 83.9521 16.4669 84.9667 16.8277C85.4178 16.982 85.8257 17.2417 86.1565 17.5852C86.5008 17.9365 86.7599 18.3623 86.9137 18.8297C87.1169 19.3457 87.2091 19.8988 87.1841 20.4529ZM83.3982 18.0721C83.1508 18.0657 82.9052 18.1161 82.6802 18.2192C82.4553 18.3224 82.2569 18.4757 82.1002 18.6673C81.7481 19.1734 81.5766 19.7833 81.6134 20.3988C81.5686 21.0151 81.7408 21.6277 82.1002 22.1303C82.272 22.3179 82.4809 22.4677 82.7137 22.5702C82.9464 22.6728 83.198 22.7257 83.4523 22.7257C83.7066 22.7257 83.9582 22.6728 84.191 22.5702C84.4237 22.4677 84.6327 22.3179 84.8044 22.1303C85.1566 21.6242 85.328 21.0143 85.2912 20.3988C85.328 19.7833 85.1566 19.1734 84.8044 18.6673C84.4292 18.2961 83.9258 18.0831 83.3982 18.0721Z" fill="#FF4415"/>
<path d="M92.2689 24.3487C91.995 24.3467 91.7225 24.3104 91.4576 24.2405C91.2145 24.2007 90.9779 24.1279 90.7545 24.024V26.8918C90.6464 26.8918 90.5382 26.9459 90.3759 26.9459C90.1998 26.9934 90.0171 27.0117 89.8351 27C89.5469 27.0353 89.2562 26.9577 89.0238 26.7836C88.928 26.6948 88.8538 26.5852 88.807 26.4633C88.7601 26.3413 88.7418 26.2103 88.7534 26.0802V18.2345C88.7416 18.0237 88.7985 17.8148 88.9157 17.6393C89.0378 17.4553 89.2055 17.3062 89.4024 17.2064C89.7599 17.0118 90.1419 16.8662 90.5382 16.7735C91.0333 16.6448 91.5412 16.5722 92.0526 16.5571C92.5838 16.5417 93.1138 16.6148 93.621 16.7735C94.0845 16.9084 94.5104 17.1492 94.865 17.477C95.2417 17.7897 95.5229 18.2022 95.6762 18.6673C95.8834 19.22 95.9754 19.8092 95.9466 20.3988C95.949 20.9867 95.8577 21.5711 95.6762 22.1303C95.5224 22.5976 95.2633 23.0234 94.919 23.3747C94.5882 23.7182 94.1803 23.9779 93.7292 24.1323C93.2584 24.2876 92.7645 24.3608 92.2689 24.3487ZM91.9985 22.7796C92.2695 22.7848 92.5388 22.7347 92.7899 22.6324C93.0409 22.53 93.2685 22.3776 93.4588 22.1844C93.845 21.6722 94.0367 21.0393 93.9996 20.3988C94.0312 20.0802 93.9997 19.7585 93.9069 19.4521C93.8141 19.1457 93.6618 18.8607 93.4588 18.6132C93.276 18.4285 93.0562 18.2848 92.8138 18.1915C92.5714 18.0982 92.3119 18.0575 92.0526 18.0721C91.7967 18.0777 91.5425 18.114 91.2954 18.1804C91.1115 18.2431 90.9309 18.3153 90.7545 18.3968V22.4008C90.9292 22.5018 91.1098 22.5921 91.2954 22.6713C91.524 22.7378 91.7604 22.7742 91.9985 22.7796Z" fill="#FF4415"/>
</g>
<defs>
<linearGradient id="paint0_linear_810_84" x1="12.1147" y1="2.26172" x2="12.1147" y2="21.5242" gradientUnits="userSpaceOnUse">
<stop stop-color="#FF4415"/>
<stop offset="1" stop-color="#003CB6"/>
</linearGradient>
<linearGradient id="paint1_linear_810_84" x1="12.115" y1="2.29419" x2="12.115" y2="21.784" gradientUnits="userSpaceOnUse">
<stop stop-color="#FF4415"/>
<stop offset="1" stop-color="#003CB6"/>
</linearGradient>
<linearGradient id="paint2_linear_810_84" x1="12.0609" y1="2.43487" x2="12.0609" y2="21.6325" gradientUnits="userSpaceOnUse">
<stop stop-color="#FF4415"/>
<stop offset="1" stop-color="#003CB6"/>
</linearGradient>
<linearGradient id="paint3_linear_810_84" x1="12.115" y1="2.35912" x2="12.115" y2="21.5567" gradientUnits="userSpaceOnUse">
<stop stop-color="#FF4415"/>
<stop offset="1" stop-color="#003CB6"/>
</linearGradient>
<clipPath id="clip0_810_84">
<rect width="96" height="27" fill="white"/>
</clipPath>
</defs>
</svg>
