<svg width="185" height="26" viewBox="0 0 185 26" fill="none" xmlns="http://www.w3.org/2000/svg">
<path fill-rule="evenodd" clip-rule="evenodd" d="M49.1714 22.961H56.4866L64.3927 3.14795H57.0758L49.1714 22.961Z" fill="#BBBDBF"/>
<path fill-rule="evenodd" clip-rule="evenodd" d="M115.602 22.961H125.921L131.737 8.39811H157.437L159.516 3.14795H133.837H133.513H126.498L121.606 15.4045L116.997 5.75141L112.599 16.1684L115.602 22.961ZM135.468 22.961H142.804L147.782 10.4714H140.467L135.468 22.961Z" fill="#BBBDBF"/>
<path fill-rule="evenodd" clip-rule="evenodd" d="M99.7792 22.9619H104.65H107.096L115.009 3.14893H107.673L101.733 18.0737H83.5841L84.5896 15.4687H95.1007L97.1166 10.4516H79.0143L74.0152 22.9627H99.7792V22.9619ZM103.19 8.39668L105.291 3.14893H81.9285L79.8274 8.39668H103.19Z" fill="#BBBDBF"/>
<path fill-rule="evenodd" clip-rule="evenodd" d="M72.074 3.14575L63.3418 11.7601L58.7947 23.0429H61.0037L80.7396 3.16417L72.074 3.14575Z" fill="#BBBDBF"/>
<path fill-rule="evenodd" clip-rule="evenodd" d="M153.047 22.8047H171.731C176.345 22.8047 177.523 21.0886 178.94 17.5121L179.69 15.5229C180.849 12.7497 179.478 11.3491 176.281 11.309H165.833L166.325 9.95483H159.097L157.914 12.7705C157.249 14.5707 158.108 15.5229 160.318 15.5229H172.31L171.539 17.5538H155.086L153.047 22.8047Z" fill="#BBBDBF"/>
<path fill-rule="evenodd" clip-rule="evenodd" d="M184.788 2.9541H169.172C162.006 2.97733 161.556 3.56833 159.881 7.88713H182.815L184.788 2.9541Z" fill="#BBBDBF"/>
<path fill-rule="evenodd" clip-rule="evenodd" d="M8.9148 7.5188L0 13.3784L3.81588 13.2919C4.56087 21.0662 13.7402 26.2932 26.0733 25.9872C33.8998 25.7814 39.665 22.768 43.6042 17.8678L40.0699 19.9194L36.4951 16.721C34.3891 21.1127 30.0101 23.7762 25.6147 23.8763C19.4162 24.0421 12.6641 19.7977 12.6195 13.4248L15.5346 13.3568L8.9148 7.5188Z" fill="#73A9DA"/>
<path fill-rule="evenodd" clip-rule="evenodd" d="M40.2403 18.4812L49.1551 12.6192L45.3368 12.7081C44.5935 4.93137 35.4117 -0.293157 23.0811 0.0127547C15.2546 0.217764 8.81982 3.0991 5.4649 8.13464L9.08195 5.99406L12.6592 9.2766C14.7652 4.88733 19.1418 2.22381 23.5396 2.12131C29.7357 1.95554 36.4902 6.20227 36.5373 12.5752L33.6181 12.6432L40.2403 18.4812Z" fill="#D23A33"/>
<path fill-rule="evenodd" clip-rule="evenodd" d="M24.61 13.6596C24.5743 13.6548 24.537 13.6476 24.4989 13.6388C21.3858 18.3916 18.2484 21.0063 16.1992 17.7357C13.6372 10.9937 21.7567 14.3603 23.7466 12.9196C23.7393 12.9012 23.7344 12.882 23.7303 12.8636C17.9221 12.7378 13.9456 11.4678 15.7172 8.00983C20.0678 2.51622 21.4499 10.3955 23.6021 11.7384C21.2673 6.95755 20.7658 3.26178 24.5102 3.17529C31.3312 4.34529 25.338 9.08853 24.9192 11.6407C24.9241 11.6407 24.929 11.6431 24.9314 11.6431C28.2669 6.93433 31.5487 4.36851 33.4843 7.74716C35.7696 14.5829 27.797 10.9056 25.7503 12.2622C31.6242 12.5497 35.63 13.9335 33.7399 17.361C29.0224 22.9571 27.9909 14.0856 25.6894 13.252C28.1971 18.2547 28.8382 22.1795 24.9793 22.2564C18.0422 21.0439 24.3779 16.1742 24.61 13.6596Z" fill="#BBBDBF"/>
<path d="M49.1543 12.6192L45.336 12.7081C44.5935 4.93137 35.4117 -0.293157 23.0811 0.0127547C15.2546 0.217764 8.81982 3.0991 5.4649 8.13464L9.08195 5.99406C9.08195 5.99406 13.9772 0.434785 24.1369 0.793551C39.2925 1.3277 41.8642 12.5231 40.1843 18.4331L40.2395 18.482L49.1543 12.6192Z" fill="#C8252F"/>
<path d="M40.3475 19.7585L40.2517 20.0059C40.2517 20.0059 35.3565 25.5652 25.1968 25.2064C10.1483 24.6763 7.5084 13.6386 9.11606 7.69658L8.91399 7.5188L0 13.3784L3.81588 13.2919C4.56087 21.0662 13.7402 26.2932 26.0733 25.9872C33.8998 25.7814 39.665 22.768 43.6042 17.8678L40.3475 19.7585Z" fill="#6E9CD2"/>
</svg>
