<svg width="171" height="33" viewBox="0 0 171 33" fill="none" xmlns="http://www.w3.org/2000/svg">
<path d="M80.1982 11.0737C80.4416 12.1689 82.1453 17.6449 82.1453 17.6449H78.1293C78.1293 17.6449 79.8331 12.1689 80.1982 11.0737ZM100.4 9.37003H97.7225V13.9942H100.156C100.765 14.1159 102.834 13.9942 102.834 11.6821C102.834 9.61341 101.008 9.37003 100.4 9.37003ZM170.619 0V32.1258V32.2475H34.5619V28.3535L39.5515 23.851L34.5619 20.9305V0H170.619ZM68.2719 25.9197L66.4464 5.84106H59.388L57.0758 12.4123C56.7107 13.1424 55.8588 15.9412 55.6154 16.5497C55.4937 15.9412 54.6419 13.0207 54.3985 12.2906L52.4513 5.71937H45.2712L42.5939 25.5546H48.3136C48.3136 25.5546 49.0438 14.9677 49.2872 13.3858C49.5306 14.481 53.0598 25.6763 53.0598 25.6763H57.6843C57.6843 25.6763 61.5786 14.7243 61.9437 13.6291C62.0654 15.0894 62.5522 25.9197 62.5522 25.9197H68.2719ZM90.6641 25.798L83.2406 5.71937H77.1558L69.6106 25.798H75.5737L76.669 21.4172H83.484L84.701 25.798H90.6641ZM110.501 25.6763L103.686 17.6449C104.172 17.5232 104.903 17.2798 105.024 17.1581C106.12 16.6714 106.728 16.0629 106.85 15.9412C108.31 14.3593 108.31 12.6556 108.31 11.8038C108.31 9.37003 106.728 8.03146 105.998 7.30132C105.511 6.81457 105.024 6.57119 104.781 6.4495C103.686 5.96275 102.834 5.71937 100.522 5.71937H92.4896V25.6763H97.8442V17.4015L103.564 25.6763H110.501ZM126.443 21.6606L117.802 21.7823V5.71937H112.083V25.6763H125.104L126.443 21.6606ZM142.75 21.7823H133.38V17.7666H140.316V13.6291H133.38V9.7351H141.168L142.507 5.71937H128.025V25.798H141.412L142.75 21.7823ZM164.169 5.71937H157.354L153.581 13.5074L149.687 5.71937H142.872L150.661 18.1316V25.798H156.38V18.1316L164.169 5.71937ZM0.121697 0H32.3713V20.8088L25.7997 25.4329L32.3713 29.5704H32.2496V32.2475H0V22.6341C0.730181 23.3642 2.06885 24.0944 3.40751 24.7028C4.62448 25.1896 6.20654 25.6763 6.57163 25.6763C6.57163 25.6763 8.51878 26.0414 9.73574 26.0414C10.9527 26.0414 11.6829 25.9197 12.6565 25.6763C12.7782 25.6763 15.3338 24.8245 15.4555 22.269C15.4555 21.7823 15.4555 20.6871 15.2121 19.5919C14.847 17.4015 13.3866 15.2111 13.3866 14.2376C13.3866 14.2376 13.5083 13.6291 13.9951 13.6291C14.4819 13.6291 15.9423 14.6026 16.1857 14.7243C17.646 15.5762 17.646 16.0629 17.646 16.0629C17.8894 17.0364 18.9847 19.5919 18.9847 19.5919C19.8366 21.2955 20.08 21.5389 21.0535 22.5124C22.3922 23.7293 25.1912 24.8245 25.1912 24.8245L27.8686 22.9992C26.895 22.3907 26.6516 22.269 25.7997 21.6606C25.4346 21.4172 24.2177 20.322 23.4875 19.1051C22.7573 17.7666 22.6356 16.9147 22.3922 15.4545C22.2705 14.7243 22.1488 13.7508 22.1488 13.3858V12.5339C22.2705 12.4122 22.5139 9.12665 22.5139 9.12665C21.7837 9.12665 20.9318 8.76159 20.5668 8.76159C18.863 8.39652 14.9687 7.05795 13.9951 6.69288C12.4131 6.20612 10.1008 5.47599 9.49235 5.47599C9.49235 5.47599 7.6669 5.11093 6.57163 5.47599C5.59805 5.84106 4.98957 6.20612 4.38108 7.05795C3.8943 7.78808 3.8943 8.39652 3.7726 9.24834C3.6509 11.3171 5.35466 13.8725 5.59805 14.2376L7.18011 16.5497C7.18011 16.5497 9.00556 19.2268 9.00556 19.957C8.88387 20.5654 8.64047 20.6871 8.15368 20.6871C7.5452 20.6871 5.47636 19.8353 3.8943 18.9834C2.67733 18.2533 0.973574 17.0364 0.121697 16.428V0ZM23.6092 9.61341C24.4611 11.9255 26.5299 13.1424 28.112 12.5339C29.694 11.9255 30.1808 9.61341 29.3289 7.30132C28.477 4.98924 26.4082 3.77235 24.8261 4.38079C23.2441 5.11093 22.7573 7.42301 23.6092 9.61341Z" fill="#0065A8"/>
</svg>
