<svg width="388" height="387" viewBox="0 0 388 387" fill="none" xmlns="http://www.w3.org/2000/svg">
<path d="M371.029 261.16C333.879 348.64 234.899 397.65 149.069 384.43C135.099 382.28 96.8185 375.87 62.9185 345.64C-2.34148 287.44 -16.2915 172.21 36.3485 90.9996C74.6585 31.8896 143.349 -1.6104 208.609 0.0596018C222.669 0.419602 276.539 2.6496 323.889 41.6896C330.839 47.4196 346.179 61.0496 360.009 82.6696C392.449 133.42 395.238 204.14 371.029 261.16Z" fill="url(#paint0_linear_319_6242)"/>
<path d="M18.098 11.2196C17.738 9.6996 19.888 8.6796 21.198 9.7496C34.538 20.5696 66.588 52.9596 58.598 109.56C48.578 180.58 65.708 206.49 87.038 222.3C87.038 222.3 57.748 214.87 39.328 188.57C-5.922 124.01 24.468 38.3396 18.098 11.2196Z" fill="#BDD0FB"/>
<path d="M28.2484 33.3996C29.9184 41.3096 31.4084 49.2396 32.5584 57.1996C33.7584 65.1596 34.6784 73.1496 35.2984 81.1496C35.8884 89.1496 36.3084 97.1596 36.3284 105.18C36.3984 113.19 36.0584 121.2 35.6984 129.24C35.3884 137.27 35.0184 145.37 35.5984 153.52C36.1784 161.65 37.8884 169.86 41.2884 177.55C42.1384 179.47 43.0284 181.38 44.0484 183.22C45.0284 185.08 46.0984 186.91 47.2084 188.72C49.4484 192.33 51.9684 195.82 54.7784 199.13C60.4184 205.74 67.2084 211.6 74.6984 216.57C75.4884 217.09 76.6184 216.96 77.2184 216.28C77.8084 215.61 77.6784 214.66 76.9284 214.13H76.9184C75.1384 212.88 73.3784 211.61 71.6784 210.28C70.8184 209.63 69.9984 208.94 69.1584 208.27C68.3484 207.57 67.5084 206.9 66.7284 206.18C63.5484 203.35 60.5984 200.33 57.9284 197.14C52.5484 190.78 48.2484 183.7 44.9884 176.36C43.4084 172.67 42.1384 168.89 41.2184 165.04C40.2984 161.19 39.7184 157.26 39.3984 153.31C38.7584 145.4 39.0484 137.39 39.2984 129.35C39.5384 121.31 39.7084 113.23 39.4984 105.16C39.4084 101.12 39.2284 97.0896 38.9684 93.0596C38.8484 91.0396 38.6884 89.0296 38.5284 87.0196C38.3484 85.0096 38.1584 82.9996 37.9384 80.9896C37.0684 72.9596 35.9184 64.9496 34.4784 56.9896C32.9984 49.0296 31.2684 41.1096 29.1884 33.2596C29.1284 33.0396 28.8684 32.8996 28.6084 32.9496C28.3584 32.9696 28.1984 33.1896 28.2484 33.3996Z" fill="white"/>
<path d="M52.6481 181.21C51.0081 182.95 48.1381 182.45 47.1481 180.27C41.7181 168.29 29.4381 133.01 49.7281 92.3696C66.8581 58.0496 72.8881 37.8196 74.9881 28.4396C75.4281 26.4596 78.1481 26.1896 78.9681 28.0496C88.0181 48.5696 111.908 118.33 52.6481 181.21Z" fill="#91B3FA"/>
<path d="M49.6781 179.95C49.6181 179.96 49.5581 179.97 49.4981 179.96C48.9881 179.95 48.5781 179.53 48.5781 179.01C48.5881 178.43 49.7181 120.17 71.3881 71.3796C71.5981 70.9096 72.1481 70.6996 72.6181 70.9096C73.0881 71.1196 73.2981 71.6696 73.0881 72.1396C51.5781 120.58 50.4481 178.46 50.4381 179.04C50.4381 179.5 50.1081 179.87 49.6781 179.95Z" fill="white"/>
<path d="M284.518 91.2296C279.328 82.1196 275.338 69.8696 283.488 60.6996C298.208 44.1396 327.658 40.4596 335.018 66.2196C338.058 76.8796 335.908 85.1596 332.348 91.2096C329.038 96.8096 333.118 103.88 339.628 103.88H386.558V166.5C386.558 172.15 380.208 175.39 375.558 172.17C344.078 150.32 327.658 176.09 327.628 187.69C327.588 200.57 333.188 230.94 353.428 230.02C362.678 229.6 370.398 226.49 376.048 223.23C380.728 220.53 386.558 223.82 386.558 229.22V287.58H337.988C332.218 287.58 328.778 293.95 331.918 298.79C335.518 304.35 338.538 312.41 338.708 323.88C339.128 353.08 294.538 347.81 283.498 338.6C275.608 332.03 275.288 310.95 281.428 297.92C283.698 293.1 279.968 287.58 274.638 287.58H227.368V223.71C227.368 219.05 222.308 216.19 218.308 218.57C210.168 223.4 197.608 229.47 185.038 230.01C163.878 230.93 161.108 207.01 160.188 188.6C159.378 172.35 190.368 146.03 214.828 162.07C218.838 164.7 227.058 168.54 227.058 163.75V103.87H277.228C283.718 103.87 287.728 96.8696 284.518 91.2296Z" fill="url(#paint1_linear_319_6242)"/>
<path d="M310.529 346.8C308.059 346.8 305.499 346.64 302.879 346.31C294.459 345.25 286.799 342.57 282.899 339.32C274.389 332.23 274.509 310.41 280.579 297.53C281.489 295.59 281.339 293.42 280.169 291.58C278.949 289.66 276.879 288.52 274.629 288.52H227.359C226.849 288.52 226.429 288.1 226.429 287.59V223.72C226.429 221.88 225.479 220.23 223.879 219.33C222.279 218.42 220.369 218.44 218.779 219.38C210.409 224.35 197.759 230.4 185.079 230.95C175.319 231.38 168.279 226.66 164.169 216.92C160.679 208.66 159.729 198 159.269 188.65C158.829 179.77 167.069 168.41 178.879 161.65C191.429 154.46 204.729 154.33 215.349 161.3C219.039 163.72 224.019 165.79 225.639 164.92C225.779 164.85 226.139 164.65 226.139 163.76V103.88C226.139 103.37 226.559 102.95 227.069 102.95H277.239C279.939 102.95 282.349 101.56 283.699 99.2396C285.069 96.8896 285.069 94.0696 283.719 91.6896C276.309 78.6696 275.989 67.7396 282.809 60.0796C291.809 49.9596 306.109 44.7096 317.579 47.3296C326.569 49.3796 333.079 55.9996 335.929 65.9696C338.619 75.3696 337.679 84.0296 333.159 91.6896C331.789 94.0196 331.769 96.8096 333.109 99.1696C334.459 101.54 336.899 102.96 339.629 102.96H386.559C387.069 102.96 387.489 103.38 387.489 103.89V166.51C387.489 169.49 385.919 172.09 383.279 173.47C380.649 174.85 377.479 174.64 375.029 172.94C359.409 162.1 348.499 163.8 342.089 167.14C332.889 171.94 328.569 182.25 328.559 187.7C328.529 197.67 331.729 215.62 340.679 224.2C344.299 227.67 348.559 229.31 353.389 229.1C361.049 228.75 368.509 226.51 375.579 222.44C378.089 220.99 381.079 220.99 383.569 222.43C386.019 223.85 387.489 226.39 387.489 229.24V287.6C387.489 288.11 387.069 288.53 386.559 288.53H337.989C335.639 288.53 333.559 289.76 332.439 291.82C331.319 293.89 331.409 296.31 332.699 298.3C337.159 305.18 339.489 313.78 339.639 323.88C339.769 332.89 335.659 339.65 327.749 343.42C323.059 345.64 317.109 346.8 310.529 346.8ZM228.289 286.64H274.629C277.519 286.64 280.179 288.11 281.739 290.56C283.239 292.92 283.429 295.81 282.259 298.3C275.999 311.58 276.939 331.92 284.079 337.87C291.399 343.97 313.509 348.12 326.939 341.71C334.239 338.23 337.889 332.22 337.769 323.87C337.629 314.13 335.399 305.85 331.129 299.27C329.459 296.7 329.339 293.57 330.789 290.89C332.239 288.22 334.929 286.63 337.969 286.63H385.609V229.2C385.609 227.03 384.489 225.09 382.619 224.01C380.709 222.91 378.419 222.91 376.489 224.02C369.159 228.24 361.409 230.57 353.449 230.93C348.119 231.18 343.369 229.35 339.369 225.51C329.999 216.53 326.639 197.96 326.669 187.66C326.689 181.58 331.209 170.66 341.199 165.45C348.059 161.87 359.669 160 376.059 171.37C377.969 172.7 380.339 172.85 382.389 171.78C384.399 170.73 385.599 168.74 385.599 166.47V104.79H339.599C336.189 104.79 333.149 103.02 331.459 100.07C329.779 97.1296 329.799 93.6396 331.519 90.7196C335.769 83.5096 336.639 75.3496 334.099 66.4596C330.699 54.5596 322.989 50.4596 317.119 49.1296C306.279 46.6596 292.719 51.6596 284.159 61.2996C279.809 66.1896 276.479 75.2696 285.299 90.7496C286.979 93.7096 286.969 97.2296 285.269 100.15C283.579 103.05 280.569 104.78 277.199 104.78H227.959V163.73C227.959 165.38 227.159 166.16 226.479 166.52C222.919 168.44 214.629 163.05 214.279 162.82C204.259 156.25 191.679 156.4 179.759 163.23C168.709 169.56 160.679 180.43 161.089 188.52C161.549 197.7 162.469 208.17 165.849 216.16C169.679 225.23 175.929 229.44 184.969 229.05C197.269 228.52 209.619 222.6 217.799 217.74C219.979 216.45 222.579 216.42 224.779 217.67C226.969 218.91 228.269 221.16 228.269 223.68V286.64H228.289Z" fill="#FCFCFC"/>
<path d="M48.3688 220.6C42.8488 224.31 35.5588 227.91 27.3488 228.73C9.15877 230.55 1.88877 210.54 0.978769 193.27C0.0687694 175.99 15.5288 159.63 29.1688 161.44C35.5888 162.3 42.6188 166.38 48.2588 170.46C52.8088 173.76 59.1688 170.51 59.1688 164.89V102.84H121.949C127.179 102.84 130.649 97.4396 128.459 92.6796C123.529 81.9696 117.999 65.7096 125.719 58.6896C137.709 47.7796 170.109 47.7796 175.559 64.1496C178.609 73.3096 174.459 84.3396 170.219 92.2696C167.659 97.0496 171.109 102.82 176.539 102.82H230.119V160.29C230.119 166.42 223.189 170.23 218.189 166.68C195.009 150.23 169.699 167.58 167.379 186.9C164.649 209.63 179.199 228.73 194.659 226.91C202.509 225.99 211.529 221.55 218.509 217.4C223.639 214.35 230.119 218.01 230.119 223.98V287.46H168.409C161.349 287.46 156.629 280.09 159.689 273.73C163.339 266.15 178.289 256.84 177.389 249.65C175.569 235.1 143.179 231.5 125.729 234.21C112.409 236.28 119.029 257.11 126.599 273.8C129.499 280.2 124.879 287.45 117.859 287.45H59.1688V226.25C59.1688 220.69 52.9788 217.5 48.3688 220.6Z" fill="url(#paint2_linear_319_6242)"/>
<path d="M230.118 288.38H168.408C164.738 288.38 161.388 286.52 159.428 283.41C157.498 280.34 157.278 276.56 158.848 273.31C160.418 270.05 163.948 266.52 167.368 263.1C172.068 258.4 176.938 253.53 176.458 249.75C176.108 246.95 174.468 244.43 171.588 242.26C165.018 237.31 145.478 232.07 125.868 235.12C123.218 235.53 121.388 236.73 120.278 238.78C117.238 244.4 119.718 256.37 127.438 273.41C128.938 276.72 128.668 280.51 126.698 283.56C124.748 286.58 121.438 288.38 117.838 288.38H59.1685C58.6585 288.38 58.2385 287.96 58.2385 287.45V226.25C58.2385 224.02 57.0685 222.08 55.1185 221.03C53.1185 219.96 50.7885 220.09 48.8785 221.37C41.7485 226.16 34.5285 228.94 27.4285 229.65C21.5585 230.24 16.4285 228.68 12.1785 225.02C8.87847 222.19 1.09847 213.44 0.0384694 193.31C-0.451531 184.05 3.76847 174.13 11.0385 167.42C16.6585 162.23 23.3085 159.72 29.2785 160.51C34.8185 161.25 41.3885 164.34 48.7985 169.7C50.6485 171.04 52.9685 171.22 54.9985 170.18C57.0285 169.14 58.2385 167.16 58.2385 164.88V102.83C58.2385 102.32 58.6585 101.9 59.1685 101.9H121.948C124.088 101.9 126.058 100.83 127.208 99.0296C128.358 97.2296 128.508 94.9996 127.618 93.0596C122.088 81.0396 117.168 65.1996 125.098 57.9896C132.698 51.0696 148.458 48.2096 160.968 51.4796C168.988 53.5796 174.488 57.9596 176.448 63.8396C179.628 73.3996 175.268 84.8096 171.048 92.6896C169.998 94.6396 170.058 96.9396 171.188 98.8396C172.328 100.74 174.328 101.87 176.538 101.87H230.118C230.628 101.87 231.048 102.29 231.048 102.8V160.27C231.048 163.53 229.238 166.49 226.318 167.99C223.468 169.46 220.218 169.25 217.648 167.42C207.828 160.45 196.788 159.11 186.558 163.64C176.638 168.03 169.478 177.2 168.298 187C166.808 199.4 170.628 211.85 178.248 219.5C183.078 224.34 188.858 226.65 194.538 225.98C202.458 225.05 211.678 220.36 218.018 216.59C220.728 214.98 223.968 214.95 226.698 216.5C229.408 218.04 231.038 220.84 231.038 223.96V287.44C231.048 287.96 230.638 288.38 230.118 288.38ZM137.658 232.45C149.868 232.45 164.608 234.66 172.708 240.77C176.008 243.26 177.888 246.2 178.308 249.52C178.898 254.2 173.708 259.39 168.688 264.41C165.378 267.72 161.958 271.14 160.528 274.11C159.238 276.78 159.418 279.89 161.008 282.41C162.618 284.97 165.388 286.5 168.408 286.5H229.188V223.96C229.188 221.51 227.918 219.32 225.798 218.11C223.658 216.89 221.108 216.92 218.988 218.18C212.488 222.04 203.018 226.85 194.768 227.82C188.518 228.56 182.188 226.07 176.938 220.81C168.918 212.77 164.898 199.73 166.448 186.78C167.698 176.34 175.298 166.59 185.798 161.94C196.648 157.13 208.338 158.54 218.718 165.91C220.718 167.33 223.238 167.49 225.458 166.35C227.748 165.16 229.178 162.84 229.178 160.28V103.74H176.528C173.648 103.74 171.058 102.27 169.578 99.8096C168.098 97.3496 168.028 94.3596 169.388 91.8196C173.438 84.2496 177.638 73.3596 174.668 64.4296C172.918 59.1696 167.878 55.2196 160.488 53.2796C148.518 50.1596 133.528 52.8296 126.338 59.3596C123.128 62.2796 119.248 70.4396 129.298 92.2796C130.458 94.7996 130.258 97.6996 128.768 100.03C127.268 102.36 124.718 103.76 121.948 103.76H60.0985V164.88C60.0985 167.83 58.4685 170.5 55.8485 171.84C53.2185 173.18 50.1085 172.94 47.7085 171.21C40.6585 166.11 34.1985 163.05 29.0385 162.36C23.6185 161.64 17.5185 163.98 12.3085 168.79C5.42847 175.14 1.44847 184.5 1.90847 193.21C2.61847 206.68 6.90847 218.04 13.3985 223.61C17.2585 226.92 21.9185 228.33 27.2585 227.8C34.0485 227.12 40.9785 224.44 47.8485 219.82C50.2985 218.18 53.4185 218.01 55.9985 219.39C58.5685 220.76 60.0985 223.32 60.0985 226.25V286.52H117.848C120.808 286.52 123.538 285.04 125.138 282.55C126.758 280.04 126.978 276.91 125.738 274.18C117.648 256.34 115.258 244.14 118.628 237.9C120.018 235.34 122.348 233.78 125.568 233.28C128.948 232.76 133.128 232.45 137.658 232.45Z" fill="#FCFCFC"/>
<g opacity="0.3">
<path opacity="0.3" d="M293.748 63.5896C293.168 63.6996 292.588 63.3496 292.418 62.7796C292.048 61.5196 291.718 60.2296 291.448 58.9296C291.318 58.2996 291.718 57.6896 292.348 57.5596C292.358 57.5596 292.358 57.5596 292.368 57.5596C292.988 57.4396 293.588 57.8496 293.718 58.4696C293.968 59.6996 294.278 60.9296 294.638 62.1196C294.818 62.7396 294.468 63.3796 293.858 63.5696C293.828 63.5696 293.788 63.5796 293.748 63.5896ZM291.968 53.6096C291.928 53.6196 291.878 53.6196 291.828 53.6296C291.188 53.6696 290.628 53.1896 290.588 52.5496C290.498 51.2296 290.468 49.8996 290.488 48.5896C290.498 47.9496 291.028 47.4396 291.668 47.4496C292.308 47.4596 292.818 47.9896 292.808 48.6296C292.788 49.8796 292.818 51.1396 292.898 52.3996C292.948 52.9896 292.538 53.5096 291.968 53.6096ZM292.418 43.4896C292.288 43.5096 292.158 43.5196 292.018 43.4996C291.388 43.3996 290.948 42.7996 291.048 42.1696C291.258 40.8696 291.518 39.5596 291.838 38.2796C291.998 37.6596 292.628 37.2796 293.248 37.4296C293.868 37.5796 294.248 38.2196 294.098 38.8396C293.798 40.0496 293.548 41.2996 293.348 42.5296C293.268 43.0296 292.888 43.3996 292.418 43.4896ZM295.118 33.7196C294.908 33.7596 294.688 33.7396 294.468 33.6596C293.868 33.4196 293.588 32.7396 293.828 32.1496C294.318 30.9296 294.868 29.7096 295.468 28.5396C295.758 27.9696 296.458 27.7396 297.028 28.0296C297.598 28.3196 297.828 29.0196 297.538 29.5896C296.978 30.7096 296.448 31.8596 295.978 33.0196C295.828 33.3996 295.498 33.6496 295.118 33.7196ZM299.938 24.8096C299.638 24.8696 299.328 24.8096 299.058 24.6196C298.528 24.2496 298.398 23.5296 298.768 22.9996C299.518 21.9196 300.328 20.8596 301.168 19.8396C301.578 19.3396 302.308 19.2796 302.808 19.6796C303.298 20.0896 303.368 20.8196 302.958 21.3196C302.158 22.2896 301.388 23.2996 300.678 24.3196C300.498 24.5896 300.228 24.7496 299.938 24.8096ZM306.598 17.1696C306.218 17.2396 305.808 17.1196 305.528 16.8096C305.098 16.3396 305.128 15.5996 305.598 15.1696C306.568 14.2796 307.588 13.4196 308.638 12.6196C309.148 12.2296 309.878 12.3196 310.268 12.8296C310.658 13.3396 310.568 14.0696 310.058 14.4596C309.068 15.2196 308.098 16.0396 307.168 16.8796C307.008 17.0396 306.808 17.1396 306.598 17.1696ZM347.988 6.6196C347.828 6.6496 347.658 6.6496 347.498 6.6096C346.288 6.3096 345.038 6.0596 343.808 5.8696C343.178 5.7696 342.738 5.1796 342.838 4.5396C342.938 3.9096 343.528 3.4696 344.168 3.5696C345.468 3.7696 346.778 4.0396 348.058 4.3496C348.678 4.4996 349.058 5.1296 348.908 5.7596C348.798 6.2096 348.428 6.5396 347.988 6.6196ZM314.788 11.2096C314.318 11.2996 313.818 11.0796 313.558 10.6396C313.238 10.0796 313.438 9.3696 313.998 9.0496C315.138 8.3996 316.328 7.7896 317.528 7.2396C318.108 6.9696 318.798 7.2296 319.068 7.8096C319.338 8.3896 319.078 9.0796 318.498 9.3496C317.358 9.8696 316.238 10.4496 315.148 11.0696C315.038 11.1496 314.908 11.1896 314.788 11.2096ZM337.948 5.3196C337.868 5.3296 337.798 5.3396 337.718 5.3396C336.468 5.3196 335.198 5.3496 333.948 5.4396C333.308 5.4796 332.748 4.9996 332.708 4.3596C332.668 3.7196 333.148 3.1596 333.788 3.1196C335.108 3.0296 336.438 2.9896 337.758 3.0096C338.398 3.0196 338.918 3.5496 338.898 4.1896C338.878 4.7496 338.478 5.2196 337.948 5.3196ZM324.098 7.2296C323.518 7.3396 322.948 6.9996 322.768 6.4196C322.588 5.7996 322.928 5.1596 323.548 4.9696C324.808 4.5896 326.098 4.2596 327.388 3.9996C327.398 3.9996 327.408 3.9996 327.408 3.9896C328.028 3.8696 328.628 4.2796 328.758 4.8996C328.888 5.5296 328.488 6.1496 327.858 6.2796C326.628 6.5396 325.408 6.8496 324.208 7.2096C324.188 7.2096 324.148 7.2196 324.098 7.2296Z" fill="#91B3FA"/>
<path opacity="0.3" d="M355.718 9.2796C355.488 9.3196 355.248 9.2996 355.028 9.1996C354.478 8.9496 353.918 8.7196 353.358 8.4896C352.758 8.2496 352.468 7.5696 352.708 6.9796C352.948 6.3796 353.628 6.0896 354.218 6.3296C354.808 6.5696 355.398 6.8196 355.968 7.0796C356.558 7.3396 356.818 8.0296 356.548 8.6196C356.398 8.9796 356.078 9.2096 355.718 9.2796Z" fill="#91B3FA"/>
</g>
<g opacity="0.3">
<path opacity="0.3" d="M379.808 35.3096C379.258 35.4096 378.698 35.0996 378.498 34.5596C378.298 33.9996 378.078 33.4296 377.848 32.8696C377.608 32.2696 377.898 31.5996 378.488 31.3496C379.088 31.1096 379.758 31.3996 380.008 31.9896C380.248 32.5796 380.478 33.1796 380.688 33.7696C380.908 34.3696 380.588 35.0396 379.988 35.2596C379.928 35.2796 379.868 35.2996 379.808 35.3096Z" fill="#91B3FA"/>
<path opacity="0.3" d="M345.529 95.1296C344.999 95.2296 344.469 95.3196 343.939 95.3996C343.299 95.4996 342.709 95.0596 342.609 94.4296C342.509 93.7896 342.949 93.1996 343.579 93.0996C344.809 92.9096 346.029 92.6796 347.219 92.3896C347.849 92.2396 348.469 92.6296 348.619 93.2496C348.769 93.8796 348.379 94.4996 347.759 94.6496C347.039 94.8296 346.279 94.9896 345.529 95.1296ZM337.819 95.9096C337.759 95.9196 337.689 95.9296 337.619 95.9296C336.319 95.9496 335.009 95.9196 333.719 95.8296C333.079 95.7896 332.599 95.2296 332.639 94.5896C332.679 93.9496 333.239 93.4596 333.879 93.5096C335.109 93.5896 336.349 93.6296 337.589 93.6096C338.229 93.5996 338.759 94.1096 338.769 94.7496C338.779 95.3196 338.369 95.8096 337.819 95.9096ZM353.619 92.8296C353.079 92.9296 352.529 92.6396 352.319 92.1096C352.089 91.5096 352.379 90.8396 352.979 90.5996C354.129 90.1496 355.269 89.6496 356.369 89.1096C356.949 88.8296 357.639 89.0696 357.929 89.6396C358.209 90.2196 357.969 90.9096 357.399 91.1996C356.229 91.7696 355.029 92.2996 353.829 92.7696C353.759 92.7996 353.689 92.8196 353.619 92.8296ZM327.889 94.9696C327.739 94.9996 327.589 94.9996 327.439 94.9596C326.169 94.6896 324.899 94.3696 323.659 93.9996C323.039 93.8196 322.689 93.1696 322.879 92.5496C323.059 91.9296 323.709 91.5796 324.329 91.7696C325.509 92.1196 326.719 92.4296 327.919 92.6796C328.549 92.8096 328.949 93.4296 328.819 94.0596C328.719 94.5396 328.339 94.8796 327.889 94.9696ZM362.449 88.2096C362.009 88.2896 361.539 88.1096 361.269 87.7196C360.909 87.1896 361.049 86.4596 361.579 86.1096C362.599 85.4196 363.599 84.6796 364.559 83.9096C365.059 83.5096 365.789 83.5896 366.199 84.0896C366.599 84.5896 366.519 85.3196 366.019 85.7296C365.009 86.5396 363.949 87.3196 362.879 88.0396C362.749 88.1196 362.599 88.1796 362.449 88.2096ZM370.049 81.7696C369.699 81.8396 369.319 81.7396 369.039 81.4696C368.569 81.0296 368.549 80.2896 368.989 79.8296C369.839 78.9296 370.659 77.9896 371.419 77.0296C371.819 76.5296 372.549 76.4496 373.049 76.8496C373.549 77.2496 373.629 77.9796 373.229 78.4896C372.419 79.4996 371.559 80.4896 370.669 81.4296C370.509 81.6096 370.289 81.7196 370.049 81.7696ZM376.069 73.8196C375.799 73.8696 375.509 73.8296 375.259 73.6796C374.709 73.3496 374.529 72.6396 374.859 72.0896C375.489 71.0296 376.089 69.9296 376.629 68.8296C376.909 68.2496 377.609 68.0096 378.189 68.2996C378.769 68.5796 379.009 69.2796 378.719 69.8596C378.149 71.0196 377.529 72.1796 376.859 73.2896C376.679 73.5696 376.389 73.7596 376.069 73.8196ZM380.209 64.7396C380.019 64.7696 379.829 64.7596 379.629 64.6996C379.019 64.4996 378.689 63.8396 378.889 63.2296C379.279 62.0596 379.609 60.8596 379.899 59.6596C380.049 59.0296 380.679 58.6496 381.299 58.7996C381.929 58.9496 382.309 59.5796 382.159 60.1996C381.859 61.4596 381.499 62.7196 381.099 63.9596C380.969 64.3796 380.619 64.6696 380.209 64.7396ZM382.259 54.9796C382.159 54.9996 382.049 54.9996 381.929 54.9896C381.289 54.9296 380.819 54.3596 380.879 53.7196C380.999 52.4996 381.059 51.2496 381.079 50.0196C381.089 49.3796 381.619 48.8596 382.259 48.8696C382.899 48.8796 383.419 49.3996 383.409 50.0496C383.399 51.3496 383.329 52.6596 383.199 53.9496C383.149 54.4696 382.759 54.8896 382.259 54.9796ZM382.119 45.0096C382.099 45.0096 382.069 45.0196 382.049 45.0196C381.409 45.0996 380.829 44.6496 380.749 44.0096C380.639 43.1096 380.499 42.1996 380.329 41.3096C380.269 40.9896 380.209 40.6696 380.139 40.3496C380.009 39.7196 380.409 39.0996 381.039 38.9696C381.669 38.8196 382.289 39.2396 382.419 39.8696C382.489 40.2096 382.559 40.5396 382.619 40.8796C382.789 41.8196 382.939 42.7696 383.059 43.7196C383.129 44.3396 382.719 44.8996 382.119 45.0096Z" fill="#91B3FA"/>
<path opacity="0.3" d="M318.389 91.8496C318.159 91.8896 317.919 91.8696 317.689 91.7696C317.119 91.5096 316.539 91.2296 315.969 90.9396C315.399 90.6496 315.169 89.9496 315.459 89.3796C315.749 88.8096 316.449 88.5796 317.019 88.8696C317.559 89.1396 318.109 89.4096 318.649 89.6596C319.229 89.9296 319.489 90.6196 319.229 91.1996C319.069 91.5396 318.749 91.7796 318.389 91.8496Z" fill="#91B3FA"/>
</g>
<path d="M317.449 78.2996C317.629 78.4496 317.879 78.4696 318.079 78.3496L323.759 74.9596C326.509 76.3596 329.509 77.3396 332.659 77.7996L335.329 83.8496C335.419 84.0596 335.639 84.1896 335.869 84.1696L343.779 83.5096C344.009 83.4896 344.199 83.3296 344.259 83.0996L345.879 76.6896C348.899 75.7096 351.699 74.2496 354.179 72.3996L360.349 74.7896C360.569 74.8696 360.809 74.8096 360.959 74.6296L366.079 68.5696C366.229 68.3896 366.249 68.1396 366.129 67.9396L362.739 62.2596C364.139 59.5096 365.119 56.5096 365.579 53.3596L371.629 50.6896C371.839 50.5996 371.969 50.3796 371.949 50.1496L371.289 42.2396C371.269 42.0096 371.109 41.8196 370.879 41.7596L364.469 40.1396C363.489 37.1196 362.029 34.3196 360.179 31.8396L362.569 25.6696C362.649 25.4496 362.589 25.2096 362.409 25.0596L356.349 19.9396C356.169 19.7896 355.919 19.7696 355.719 19.8896L350.039 23.2796C347.289 21.8796 344.289 20.8996 341.139 20.4396L338.469 14.3896C338.379 14.1796 338.159 14.0496 337.929 14.0696L330.019 14.7396C329.789 14.7596 329.599 14.9196 329.539 15.1496L327.919 21.5596C324.899 22.5396 322.099 23.9996 319.619 25.8496L313.449 23.4596C313.229 23.3796 312.989 23.4396 312.839 23.6196L307.719 29.6796C307.569 29.8596 307.549 30.1096 307.669 30.3096L311.059 35.9896C309.659 38.7396 308.679 41.7396 308.219 44.8896L302.169 47.5596C301.959 47.6496 301.829 47.8696 301.849 48.0996L302.509 56.0096C302.529 56.2396 302.689 56.4296 302.919 56.4896L309.329 58.1096C310.309 61.1296 311.769 63.9296 313.619 66.4096L311.229 72.5796C311.149 72.7996 311.209 73.0396 311.389 73.1896L317.449 78.2996Z" fill="#91B3FA"/>
<path d="M338.379 56.9596C334.559 57.6696 330.679 55.4996 329.369 51.7096C327.939 47.5496 330.159 42.9996 334.319 41.5696C336.339 40.8796 338.499 41.0096 340.409 41.9496C342.319 42.8796 343.759 44.5096 344.449 46.5296C345.879 50.6896 343.659 55.2396 339.499 56.6696C339.129 56.7896 338.749 56.8896 338.379 56.9596ZM335.799 43.0996C335.499 43.1596 335.209 43.2296 334.919 43.3296C331.729 44.4296 330.029 47.9096 331.119 51.0996C332.219 54.2896 335.699 55.9896 338.889 54.8996C342.079 53.7996 343.779 50.3196 342.689 47.1296C342.159 45.5796 341.059 44.3396 339.589 43.6196C338.409 43.0296 337.079 42.8596 335.799 43.0996Z" fill="#BDD0FB"/>
<path d="M340.649 68.2496C339.989 68.3696 339.329 68.4596 338.649 68.5196C338.439 68.5396 338.219 68.5496 338.009 68.5596C336.959 68.6096 335.909 68.5896 334.869 68.4696C334.859 68.4696 334.839 68.4696 334.829 68.4696C334.789 68.4696 334.749 68.4596 334.709 68.4596C334.629 68.4496 334.549 68.4396 334.479 68.4296C334.269 68.3996 334.119 68.2496 334.079 68.0496C334.069 67.9996 334.069 67.9496 334.079 67.8996C334.109 67.6496 334.349 67.4696 334.599 67.4996C335.909 67.6696 337.249 67.6996 338.579 67.5896C345.179 67.0396 350.699 63.0996 353.569 57.6296C355.169 54.5896 355.949 51.0696 355.639 47.3996C355.589 46.7596 355.499 46.1196 355.379 45.4896C354.589 41.2796 352.399 37.4896 349.079 34.6896C345.269 31.4696 340.429 29.9196 335.449 30.3396C325.179 31.1996 317.529 40.2596 318.389 50.5296C318.439 51.1596 318.529 51.7896 318.639 52.4096C319.139 55.0996 320.229 57.6496 321.829 59.8696C321.869 59.9296 321.899 59.9896 321.909 60.0596C321.939 60.2296 321.879 60.4096 321.719 60.5196C321.509 60.6696 321.219 60.6196 321.069 60.4096C319.389 58.0796 318.249 55.3996 317.719 52.5796C317.599 51.9296 317.509 51.2696 317.449 50.6096C316.539 39.8296 324.579 30.3196 335.349 29.4196C340.569 28.9796 345.649 30.5996 349.649 33.9796C353.129 36.9196 355.439 40.8996 356.269 45.3196C356.389 45.9796 356.479 46.6496 356.539 47.3196C356.979 52.5396 355.359 57.6196 351.979 61.6196C349.049 65.1196 345.079 67.4296 340.649 68.2496Z" fill="#BDD0FB"/>
<g opacity="0.3">
<path opacity="0.3" d="M260.369 101.02C260.059 101.08 259.749 100.93 259.599 100.64C259.319 100.1 259.059 99.5396 258.819 98.9796C258.659 98.6196 258.829 98.1896 259.189 98.0296C259.549 97.8696 259.979 98.0396 260.139 98.3996C260.369 98.9296 260.619 99.4696 260.889 99.9896C261.069 100.34 260.929 100.78 260.579 100.96C260.499 100.98 260.429 101 260.369 101.02Z" fill="#91B3FA"/>
<path opacity="0.3" d="M258.329 95.8796C257.969 95.9496 257.609 95.7296 257.509 95.3796C257.209 94.3696 256.959 93.3396 256.769 92.3096C256.729 92.0896 256.689 91.8696 256.649 91.6496C256.589 91.2596 256.869 90.8996 257.239 90.8196C257.629 90.7596 257.999 91.0196 258.069 91.4096C258.099 91.6196 258.139 91.8296 258.179 92.0396C258.359 93.0196 258.599 94.0096 258.879 94.9696C258.989 95.3496 258.769 95.7496 258.389 95.8596C258.369 95.8696 258.349 95.8796 258.329 95.8796ZM257.109 88.5196C257.079 88.5296 257.039 88.5296 257.009 88.5296C256.609 88.5496 256.279 88.2396 256.259 87.8396C256.209 86.5696 256.229 85.2796 256.329 84.0196C256.359 83.6196 256.709 83.3296 257.099 83.3596C257.499 83.3896 257.789 83.7396 257.759 84.1296C257.659 85.3396 257.639 86.5596 257.689 87.7796C257.709 88.1396 257.459 88.4496 257.109 88.5196ZM257.719 81.0796C257.629 81.0996 257.539 81.0996 257.439 81.0796C257.049 80.9996 256.799 80.6196 256.879 80.2296C257.139 78.9896 257.479 77.7396 257.889 76.5396C258.019 76.1596 258.429 75.9596 258.799 76.0896C259.179 76.2196 259.379 76.6296 259.249 76.9996C258.859 78.1496 258.529 79.3296 258.279 80.5196C258.229 80.8196 257.989 81.0296 257.719 81.0796ZM260.129 74.0296C259.979 74.0596 259.829 74.0396 259.679 73.9696C259.319 73.7996 259.169 73.3696 259.349 73.0096C259.909 71.8696 260.539 70.7496 261.229 69.6796C261.449 69.3496 261.889 69.2496 262.219 69.4696C262.549 69.6896 262.649 70.1296 262.429 70.4596C261.769 71.4696 261.169 72.5396 260.629 73.6296C260.539 73.8496 260.349 73.9796 260.129 74.0296ZM264.199 67.7696C263.999 67.8096 263.779 67.7596 263.609 67.6096C263.309 67.3496 263.269 66.8996 263.519 66.5996C264.339 65.6296 265.229 64.6896 266.149 63.8296C266.439 63.5596 266.899 63.5796 267.169 63.8696C267.439 64.1596 267.419 64.6196 267.129 64.8896C266.239 65.7196 265.399 66.5996 264.619 67.5296C264.499 67.6596 264.349 67.7396 264.199 67.7696ZM269.659 62.6896C269.399 62.7396 269.109 62.6396 268.949 62.3996C268.719 62.0796 268.789 61.6296 269.109 61.3996C270.139 60.6496 271.229 59.9696 272.339 59.3596C272.689 59.1696 273.119 59.2996 273.319 59.6396C273.509 59.9896 273.379 60.4196 273.039 60.6196C271.979 61.1996 270.939 61.8596 269.959 62.5696C269.859 62.6296 269.759 62.6696 269.659 62.6896ZM276.189 59.0996C275.859 59.1596 275.519 58.9796 275.389 58.6596C275.239 58.2896 275.419 57.8696 275.789 57.7296C276.969 57.2596 278.189 56.8596 279.419 56.5396C279.809 56.4496 280.199 56.6696 280.299 57.0496C280.399 57.4296 280.169 57.8296 279.789 57.9296C278.609 58.2396 277.449 58.6196 276.319 59.0596C276.279 59.0796 276.239 59.0996 276.189 59.0996ZM287.139 56.9596C287.099 56.9696 287.059 56.9696 287.009 56.9696C285.959 56.9796 284.899 57.0496 283.839 57.1696C283.679 57.1896 283.519 57.2096 283.369 57.2296C282.979 57.2796 282.619 57.0096 282.559 56.6096C282.509 56.2196 282.779 55.8396 283.179 55.7996C283.349 55.7796 283.509 55.7596 283.679 55.7396C284.779 55.6096 285.899 55.5396 286.999 55.5296C287.399 55.5296 287.719 55.8396 287.719 56.2396C287.729 56.6096 287.479 56.8996 287.139 56.9596Z" fill="#91B3FA"/>
</g>
<g opacity="0.3">
<path opacity="0.3" d="M293.379 116.99C292.989 117.06 292.619 116.81 292.539 116.42C292.459 116.03 292.709 115.65 293.099 115.57C294.269 115.34 295.439 115.03 296.569 114.65C296.949 114.53 297.349 114.73 297.479 115.11C297.599 115.49 297.399 115.89 297.019 116.02C295.839 116.42 294.619 116.75 293.379 116.99C293.389 116.99 293.389 116.99 293.379 116.99ZM289.739 117.5C289.709 117.5 289.689 117.51 289.659 117.51C288.409 117.61 287.149 117.63 285.899 117.58C285.499 117.56 285.199 117.23 285.209 116.83C285.229 116.43 285.559 116.13 285.959 116.14C287.149 116.19 288.359 116.17 289.549 116.08C289.949 116.05 290.289 116.34 290.319 116.74C290.349 117.11 290.099 117.43 289.739 117.5ZM300.349 114.69C300.039 114.75 299.709 114.59 299.569 114.29C299.399 113.93 299.549 113.5 299.909 113.33C300.989 112.82 302.049 112.24 303.059 111.6C303.399 111.39 303.839 111.49 304.049 111.82C304.259 112.16 304.159 112.6 303.829 112.81C302.769 113.48 301.669 114.09 300.529 114.62C300.469 114.66 300.409 114.68 300.349 114.69ZM282.409 117.18C282.329 117.2 282.249 117.2 282.159 117.18C280.929 116.97 279.689 116.69 278.489 116.34C278.109 116.23 277.889 115.83 277.999 115.45C278.109 115.07 278.509 114.85 278.889 114.96C280.029 115.3 281.209 115.57 282.389 115.76C282.779 115.83 283.049 116.2 282.979 116.59C282.929 116.9 282.699 117.13 282.409 117.18ZM306.549 110.78C306.299 110.83 306.029 110.74 305.859 110.53C305.609 110.22 305.649 109.77 305.959 109.52C306.879 108.77 307.769 107.95 308.599 107.09C308.879 106.8 309.329 106.79 309.619 107.07C309.909 107.34 309.919 107.8 309.639 108.09C308.769 108.99 307.839 109.85 306.879 110.64C306.779 110.7 306.659 110.75 306.549 110.78ZM311.629 105.48C311.439 105.52 311.229 105.47 311.069 105.35C310.749 105.11 310.689 104.66 310.929 104.34C311.649 103.38 312.309 102.38 312.909 101.35C313.109 101.01 313.549 100.89 313.889 101.09C314.229 101.29 314.349 101.73 314.149 102.07C313.529 103.15 312.829 104.21 312.079 105.21C311.959 105.36 311.799 105.45 311.629 105.48ZM315.299 99.1296C315.169 99.1596 315.019 99.1396 314.889 99.0796C314.519 98.9196 314.349 98.4996 314.509 98.1396C314.979 97.0396 315.379 95.8996 315.709 94.7596C315.819 94.3796 316.219 94.1596 316.599 94.2696C316.979 94.3796 317.199 94.7796 317.089 95.1596C316.739 96.3596 316.319 97.5496 315.829 98.7096C315.729 98.9296 315.529 99.0896 315.299 99.1296Z" fill="#91B3FA"/>
<path opacity="0.3" d="M275.339 115.09C275.199 115.12 275.059 115.1 274.919 115.04C274.359 114.79 273.799 114.53 273.259 114.26C272.909 114.08 272.759 113.65 272.939 113.29C273.119 112.94 273.549 112.8 273.909 112.97C274.419 113.23 274.959 113.48 275.499 113.72C275.859 113.88 276.029 114.3 275.869 114.67C275.769 114.9 275.559 115.05 275.339 115.09Z" fill="#91B3FA"/>
</g>
<path d="M274.219 105.86C274.339 105.96 274.509 105.97 274.639 105.89L278.439 103.62C280.279 104.56 282.289 105.21 284.389 105.52L286.179 109.57C286.239 109.71 286.389 109.8 286.539 109.79L291.829 109.35C291.979 109.34 292.109 109.23 292.149 109.08L293.239 104.79C295.259 104.13 297.129 103.16 298.789 101.92L302.919 103.52C303.059 103.58 303.229 103.53 303.329 103.42L306.759 99.3596C306.859 99.2396 306.869 99.0696 306.789 98.9396L304.519 95.1396C305.459 93.2996 306.109 91.2896 306.419 89.1896L310.469 87.3996C310.609 87.3396 310.699 87.1896 310.689 87.0396L310.249 81.7496C310.239 81.5996 310.129 81.4696 309.979 81.4296L305.689 80.3396C305.029 78.3196 304.059 76.4496 302.819 74.7896L304.419 70.6596C304.479 70.5196 304.429 70.3496 304.319 70.2496L300.259 66.8196C300.139 66.7196 299.969 66.7096 299.839 66.7896L296.039 69.0596C294.199 68.1196 292.189 67.4696 290.089 67.1596L288.299 63.1096C288.239 62.9696 288.089 62.8796 287.939 62.8896L282.649 63.3296C282.499 63.3396 282.369 63.4496 282.329 63.5996L281.239 67.8896C279.219 68.5496 277.349 69.5196 275.689 70.7596L271.559 69.1596C271.419 69.0996 271.249 69.1496 271.149 69.2596L267.719 73.3196C267.619 73.4396 267.609 73.6096 267.689 73.7396L269.959 77.5396C269.019 79.3796 268.369 81.3896 268.059 83.4896L264.009 85.2796C263.869 85.3396 263.779 85.4896 263.789 85.6396L264.229 90.9296C264.239 91.0796 264.349 91.2096 264.499 91.2496L268.789 92.3396C269.449 94.3596 270.419 96.2296 271.659 97.8896L270.059 102.02C269.999 102.16 270.049 102.33 270.159 102.43L274.219 105.86Z" fill="#91B3FA"/>
<path d="M288.229 91.6796C287.089 91.8896 285.919 91.7396 284.859 91.2196C283.559 90.5796 282.579 89.4796 282.109 88.0996C281.139 85.2696 282.649 82.1696 285.479 81.1896C288.319 80.2196 291.409 81.7296 292.389 84.5596C292.859 85.9296 292.769 87.4096 292.129 88.7096C291.489 90.0096 290.389 90.9896 289.009 91.4596C288.749 91.5596 288.489 91.6296 288.229 91.6796ZM286.509 82.3996C286.319 82.4396 286.129 82.4896 285.939 82.5496C283.859 83.2696 282.739 85.5496 283.459 87.6296C283.809 88.6396 284.529 89.4496 285.489 89.9196C286.449 90.3896 287.529 90.4496 288.539 90.1096C289.549 89.7596 290.359 89.0396 290.829 88.0796C291.299 87.1196 291.369 86.0396 291.019 85.0296C290.369 83.1396 288.419 82.0396 286.509 82.3996Z" fill="#BDD0FB"/>
<path d="M289.799 99.5396C289.349 99.6196 288.899 99.6796 288.439 99.7196C287.519 99.7996 286.589 99.7796 285.679 99.6696C285.639 99.6596 285.599 99.6596 285.559 99.6496C285.239 99.6096 284.999 99.3696 284.949 99.0696C284.939 98.9996 284.929 98.9196 284.939 98.8396C284.989 98.4496 285.349 98.1696 285.739 98.2196C286.589 98.3296 287.459 98.3496 288.319 98.2796C288.369 98.2796 288.409 98.2696 288.459 98.2696C290.489 98.0796 292.389 97.3896 294.039 96.2796C294.929 95.6796 295.749 94.9496 296.469 94.1196C296.479 94.1096 296.479 94.1096 296.489 94.0996C296.509 94.0796 296.529 94.0596 296.539 94.0396C298.629 91.5696 299.619 88.4396 299.349 85.2196C299.319 84.7996 299.259 84.3896 299.179 83.9896C298.669 81.2596 297.249 78.8096 295.099 76.9996C292.629 74.9096 289.499 73.9196 286.279 74.1896C283.059 74.4596 280.139 75.9696 278.049 78.4396C275.959 80.9096 274.969 84.0396 275.239 87.2596C275.269 87.6696 275.329 88.0796 275.399 88.4796C275.729 90.2196 276.429 91.8696 277.459 93.3096C277.519 93.3996 277.559 93.4996 277.579 93.5996C277.629 93.8596 277.529 94.1496 277.289 94.3196C276.969 94.5496 276.519 94.4796 276.289 94.1596C275.129 92.5496 274.339 90.6996 273.979 88.7596C273.899 88.3096 273.829 87.8596 273.799 87.3996C273.499 83.7996 274.619 80.2896 276.949 77.5296C279.279 74.7696 282.549 73.0796 286.149 72.7796C289.749 72.4796 293.259 73.5896 296.019 75.9296C298.419 77.9596 300.009 80.6996 300.589 83.7496C300.669 84.1996 300.739 84.6596 300.779 85.1296C301.379 92.0796 296.539 98.2796 289.799 99.5396Z" fill="#BDD0FB"/>
<path d="M170.708 195.63C170.708 195.63 168.548 189.94 166.018 190.46C163.488 190.98 160.728 192.92 160.728 192.92L156.668 198.41C156.668 198.41 168.058 202.9 172.068 200.33C172.068 200.33 183.708 202.34 198.398 199.93C196.268 195.44 194.998 190.94 194.258 187.45C186.818 191.66 178.808 194.81 170.708 195.63Z" fill="url(#paint3_linear_319_6242)"/>
<path d="M232.348 154.33C232.348 154.33 215.688 175.31 194.258 187.44C194.998 190.93 196.268 195.43 198.398 199.92C209.508 198.1 222.378 193.74 233.278 184.07L232.348 154.33Z" fill="url(#paint4_linear_319_6242)"/>
<path d="M253.128 247.34C249.868 231.86 246.608 222.9 235.698 193.57C232.268 184.34 229.148 175 230.658 165.26L232.348 154.33C232.348 154.33 253.548 147.16 277.048 154.03C277.048 154.03 309.108 167.96 287.338 236.75C277.528 247.74 266.038 250.87 253.128 247.34Z" fill="url(#paint5_linear_319_6242)"/>
<path d="M235.958 140.38L241.458 153.59C241.808 154.42 242.558 155.02 243.448 155.17C246.618 155.71 254.288 156.56 259.318 153.25C259.918 152.86 260.068 152.04 259.658 151.45L249.498 136.87L235.958 140.38Z" fill="url(#paint6_linear_319_6242)"/>
<path d="M241.647 120.17C241.567 120.24 240.817 122.58 239.017 125.16C237.787 126.93 235.957 128.6 234.357 130.91C234.137 131.23 235.687 131.65 235.627 131.77C233.627 135.68 231.897 139.07 231.897 139.07L242.677 144.28L254.327 127.91C254.327 127.91 245.507 116.53 241.647 120.17Z" fill="url(#paint7_linear_319_6242)"/>
<path d="M249.428 129.87L244.048 138.83C243.968 138.97 243.868 139.09 243.758 139.2C243.118 139.8 240.928 141.53 239.238 139.17C237.798 137.16 236.438 135.33 234.988 134.58C234.138 134.14 233.098 134.49 232.668 135.34C231.778 137.1 230.068 140.68 228.988 144.07C228.718 144.92 229.158 145.83 229.988 146.17C232.168 147.05 236.488 148.65 240.318 149.18C240.948 149.27 241.568 149 241.948 148.49C243.598 146.23 248.238 139.93 249.828 138.35C251.298 136.88 254.018 137.44 255.238 137.79C255.698 137.92 256.198 137.86 256.608 137.61C257.848 136.86 260.018 135 258.038 131.84C257.548 131.06 257.798 130.01 258.568 129.5C259.958 128.59 261.458 126.87 260.028 124.1C258.578 121.29 255.988 121.04 254.218 121.26C253.438 121.36 252.648 120.95 252.348 120.22C252.218 119.9 251.948 119.62 251.458 119.52C250.528 119.33 249.928 118.49 250.108 117.56C250.418 115.97 250.188 113.91 247.648 112.51C242.998 109.95 238.918 114.12 237.888 117.64C236.848 121.16 242.058 123.65 245.328 124.06C247.728 124.36 249.048 126.99 249.578 128.36C249.758 128.86 249.708 129.42 249.428 129.87Z" fill="url(#paint8_linear_319_6242)"/>
<path d="M247.548 141.04C247.548 141.04 249.858 135.59 252.508 135.82C255.158 136.04 257.238 138.68 253.958 141.65C249.878 145.33 247.548 141.04 247.548 141.04Z" fill="url(#paint9_linear_319_6242)"/>
<path d="M251.038 383.74C256.158 384.18 265.048 384.9 272.048 385.21C276.258 385.4 278.688 384.98 280.078 384.42C280.078 384.58 280.068 384.73 280.068 384.86C280.038 385.6 279.438 386.19 278.688 386.23C265.448 386.97 254.918 386.49 251.168 386.26C250.388 386.21 249.928 385.37 250.328 384.71C250.538 384.39 250.778 384.06 251.038 383.74Z" fill="url(#paint10_linear_319_6242)"/>
<path d="M272.058 385.21C265.048 384.9 256.168 384.18 251.048 383.74C256.078 377.56 272.058 373.4 272.058 373.4H276.568C279.668 377.87 280.118 382.13 280.088 384.42C278.698 384.98 276.268 385.4 272.058 385.21Z" fill="url(#paint11_linear_319_6242)"/>
<path d="M277.328 366.03L276.908 374.39C276.858 375.29 276.188 376.06 275.278 376.19C274.378 376.32 273.168 376.34 271.888 375.91C271.098 375.65 270.518 374.98 270.368 374.17L268.908 366.03H277.328Z" fill="url(#paint12_linear_319_6242)"/>
<path d="M335.947 385.15C338.167 384.84 339.177 383.69 339.597 382.45C339.597 382.46 339.607 382.47 339.607 382.48C339.937 383.78 339.177 385.13 337.667 385.77C335.837 386.55 333.837 386.68 332.287 386.61C330.617 386.54 329.087 385.85 328.247 384.75L328.237 384.73C329.897 385.57 332.247 385.67 335.947 385.15Z" fill="url(#paint13_linear_319_6242)"/>
<path d="M325.477 365.98H329.197C334.867 365.86 338.427 377.82 339.587 382.45C339.167 383.68 338.157 384.84 335.937 385.15C332.237 385.67 329.887 385.57 328.217 384.74C325.157 380.71 323.637 374.81 322.907 371.36C322.087 367.44 325.477 365.98 325.477 365.98Z" fill="url(#paint14_linear_319_6242)"/>
<path d="M328.728 358.22L330.798 366.44C331.048 367.45 330.568 368.49 329.638 368.97C328.478 369.56 326.858 370.19 325.358 370.01C324.658 369.93 324.068 369.43 323.838 368.77L320.808 360.12L328.728 358.22Z" fill="url(#paint15_linear_319_6242)"/>
<path d="M331.188 360.6C328.618 362.88 320.248 363.18 320.248 363.18C290.118 290.87 277.558 270.97 277.558 270.97C281.908 298.26 278.498 368.32 278.498 368.32C273.528 370.51 267.118 368.32 267.118 368.32C266.718 323.64 260.428 275.63 252.308 244.91C272.668 244.45 283.738 240.01 287.268 237.22C304.258 264.57 331.188 360.6 331.188 360.6Z" fill="url(#paint16_linear_319_6242)"/>
<path d="M247.188 265.11L250.938 288.41C251.588 292.47 255.358 295.29 259.458 294.79L315.538 287.95C318.278 287.62 320.358 285.32 320.418 282.57C320.538 276.55 320.297 265.83 317.777 256.07L247.188 265.11Z" fill="url(#paint17_linear_319_6242)"/>
<path d="M261.028 293.24C260.948 293.24 260.878 293.18 260.868 293.1C260.858 293.01 260.918 292.93 261.008 292.92L262.278 292.77C262.368 292.76 262.448 292.82 262.458 292.91C262.468 293 262.408 293.08 262.318 293.09L261.048 293.25C261.038 293.24 261.028 293.24 261.028 293.24ZM258.058 293.17C258.048 293.17 258.038 293.17 258.018 293.17C257.598 293.07 257.178 292.94 256.778 292.77C256.698 292.74 256.658 292.64 256.688 292.56C256.728 292.48 256.818 292.44 256.898 292.47C257.278 292.63 257.678 292.76 258.088 292.85C258.178 292.87 258.228 292.96 258.208 293.04C258.198 293.12 258.128 293.17 258.058 293.17ZM265.258 292.73C265.178 292.73 265.108 292.67 265.098 292.59C265.088 292.5 265.148 292.42 265.238 292.41L266.508 292.26C266.588 292.25 266.678 292.31 266.688 292.4C266.698 292.49 266.638 292.57 266.548 292.58L265.278 292.73C265.268 292.73 265.258 292.73 265.258 292.73ZM269.488 292.21C269.408 292.21 269.338 292.15 269.328 292.07C269.318 291.98 269.378 291.9 269.468 291.89L270.738 291.73C270.828 291.72 270.908 291.78 270.918 291.87C270.928 291.96 270.868 292.04 270.778 292.05L269.508 292.2C269.498 292.21 269.498 292.21 269.488 292.21ZM273.718 291.69C273.638 291.69 273.568 291.63 273.558 291.55C273.548 291.46 273.608 291.38 273.698 291.37L274.968 291.22C275.058 291.21 275.138 291.27 275.148 291.36C275.158 291.45 275.098 291.53 275.008 291.54L273.738 291.69C273.728 291.69 273.728 291.69 273.718 291.69ZM277.948 291.18C277.868 291.18 277.798 291.12 277.788 291.04C277.778 290.95 277.838 290.87 277.928 290.86L279.198 290.71C279.288 290.7 279.368 290.76 279.378 290.85C279.388 290.94 279.328 291.02 279.238 291.03L277.968 291.19C277.968 291.18 277.958 291.18 277.948 291.18ZM254.398 291.1C254.358 291.1 254.318 291.08 254.278 291.05C253.978 290.74 253.698 290.39 253.458 290.03C253.408 289.96 253.428 289.86 253.498 289.81C253.568 289.76 253.668 289.78 253.718 289.85C253.948 290.2 254.208 290.52 254.498 290.82C254.558 290.88 254.558 290.99 254.498 291.05C254.478 291.09 254.438 291.1 254.398 291.1ZM282.188 290.66C282.108 290.66 282.038 290.6 282.028 290.52C282.018 290.43 282.078 290.35 282.168 290.34L283.438 290.18C283.528 290.17 283.608 290.23 283.618 290.32C283.628 290.41 283.568 290.49 283.478 290.5L282.208 290.65C282.198 290.66 282.188 290.66 282.188 290.66ZM286.418 290.15C286.338 290.15 286.268 290.09 286.258 290.01C286.248 289.92 286.308 289.84 286.398 289.83L287.668 289.68C287.748 289.67 287.838 289.73 287.848 289.82C287.858 289.91 287.798 289.99 287.708 290L286.438 290.15C286.428 290.15 286.428 290.15 286.418 290.15ZM290.648 289.63C290.568 289.63 290.498 289.57 290.488 289.49C290.478 289.4 290.538 289.32 290.628 289.31L291.898 289.16C291.988 289.15 292.068 289.21 292.078 289.3C292.088 289.39 292.028 289.47 291.938 289.48L290.668 289.64C290.658 289.63 290.658 289.63 290.648 289.63ZM294.878 289.11C294.798 289.11 294.728 289.05 294.718 288.97C294.708 288.88 294.768 288.8 294.858 288.79L296.128 288.64C296.218 288.63 296.298 288.69 296.308 288.78C296.318 288.87 296.258 288.95 296.168 288.96L294.898 289.11C294.898 289.11 294.888 289.11 294.878 289.11ZM299.118 288.6C299.038 288.6 298.968 288.54 298.958 288.46C298.948 288.37 299.008 288.29 299.098 288.28L300.368 288.12C300.458 288.11 300.538 288.17 300.548 288.26C300.558 288.35 300.498 288.43 300.408 288.44L299.138 288.59C299.128 288.6 299.118 288.6 299.118 288.6ZM303.348 288.08C303.268 288.08 303.198 288.02 303.188 287.94C303.178 287.85 303.238 287.77 303.328 287.76L304.598 287.61C304.688 287.6 304.768 287.66 304.778 287.75C304.788 287.84 304.728 287.92 304.638 287.93L303.368 288.09C303.358 288.08 303.348 288.08 303.348 288.08ZM307.578 287.56C307.498 287.56 307.428 287.5 307.418 287.42C307.408 287.33 307.468 287.25 307.558 287.24L308.828 287.09C308.918 287.08 308.998 287.14 309.008 287.23C309.018 287.32 308.958 287.4 308.868 287.41L307.598 287.56C307.588 287.56 307.588 287.56 307.578 287.56ZM252.488 287.36C252.408 287.36 252.348 287.31 252.328 287.23L252.118 285.97C252.108 285.88 252.158 285.8 252.248 285.79C252.338 285.78 252.418 285.84 252.428 285.92L252.628 287.18C252.648 287.27 252.588 287.35 252.498 287.37C252.508 287.36 252.498 287.36 252.488 287.36ZM311.808 287.05C311.728 287.05 311.658 286.99 311.648 286.91C311.638 286.82 311.698 286.74 311.788 286.73L313.058 286.57C313.148 286.56 313.228 286.62 313.238 286.71C313.248 286.8 313.188 286.88 313.098 286.89L311.828 287.04C311.828 287.05 311.818 287.05 311.808 287.05ZM315.938 286.13C315.878 286.13 315.828 286.1 315.798 286.05C315.758 285.97 315.778 285.88 315.858 285.83C316.218 285.62 316.548 285.38 316.848 285.09C316.908 285.03 317.018 285.03 317.078 285.1C317.138 285.16 317.138 285.27 317.068 285.33C316.748 285.63 316.398 285.9 316.018 286.11C315.988 286.12 315.968 286.13 315.938 286.13ZM251.818 283.15C251.738 283.15 251.668 283.09 251.658 283.02L251.458 281.76C251.448 281.67 251.498 281.59 251.588 281.58C251.678 281.56 251.758 281.63 251.768 281.71L251.968 282.97C251.978 283.06 251.918 283.14 251.838 283.15C251.828 283.15 251.818 283.15 251.818 283.15ZM318.438 282.82C318.428 282.82 318.408 282.82 318.398 282.81C318.308 282.79 318.258 282.7 318.278 282.62C318.368 282.26 318.418 281.88 318.428 281.5V281.39C318.428 281.3 318.498 281.23 318.588 281.23C318.678 281.23 318.748 281.3 318.748 281.39V281.51C318.738 281.91 318.688 282.31 318.588 282.7C318.578 282.77 318.518 282.82 318.438 282.82ZM251.138 278.94C251.058 278.94 250.988 278.88 250.978 278.81L250.778 277.55C250.768 277.46 250.818 277.38 250.908 277.37C250.998 277.36 251.078 277.41 251.088 277.5L251.288 278.76C251.298 278.85 251.248 278.93 251.158 278.94C251.158 278.94 251.148 278.94 251.138 278.94ZM318.618 278.57C318.528 278.57 318.458 278.5 318.458 278.41C318.458 278 318.448 277.57 318.438 277.13C318.438 277.04 318.508 276.97 318.598 276.97C318.678 276.96 318.758 277.04 318.758 277.13C318.768 277.57 318.768 278 318.768 278.41C318.778 278.5 318.698 278.57 318.618 278.57ZM250.458 274.73C250.378 274.73 250.308 274.67 250.298 274.6L250.098 273.34C250.088 273.25 250.148 273.17 250.228 273.16C250.318 273.14 250.398 273.21 250.408 273.29L250.608 274.55C250.618 274.64 250.558 274.72 250.478 274.73C250.478 274.73 250.468 274.73 250.458 274.73ZM318.508 274.31C318.418 274.31 318.348 274.24 318.348 274.16C318.328 273.74 318.308 273.31 318.288 272.88C318.278 272.79 318.348 272.72 318.438 272.71C318.538 272.7 318.598 272.77 318.608 272.86C318.628 273.29 318.648 273.72 318.668 274.14C318.678 274.23 318.608 274.3 318.508 274.31C318.518 274.31 318.518 274.31 318.508 274.31ZM249.788 270.52C249.708 270.52 249.638 270.46 249.628 270.39L249.428 269.13C249.418 269.04 249.468 268.96 249.558 268.95C249.648 268.94 249.728 269 249.738 269.08L249.938 270.34C249.948 270.43 249.888 270.51 249.808 270.52C249.798 270.52 249.788 270.52 249.788 270.52ZM318.248 270.05C318.168 270.05 318.098 269.99 318.088 269.9C318.058 269.48 318.018 269.05 317.978 268.63C317.968 268.54 318.038 268.46 318.118 268.46C318.208 268.45 318.288 268.52 318.288 268.6C318.328 269.03 318.368 269.45 318.398 269.88C318.408 269.97 318.338 270.05 318.248 270.05C318.258 270.05 318.258 270.05 318.248 270.05ZM249.108 266.31C249.028 266.31 248.958 266.25 248.948 266.18L248.718 264.75L249.378 264.67C249.478 264.66 249.548 264.72 249.558 264.81C249.568 264.9 249.508 264.98 249.418 264.99L249.088 265.03L249.268 266.13C249.278 266.22 249.228 266.3 249.138 266.31C249.128 266.31 249.118 266.31 249.108 266.31ZM317.818 265.81C317.738 265.81 317.668 265.75 317.658 265.67C317.608 265.25 317.548 264.83 317.488 264.4C317.478 264.31 317.538 264.23 317.628 264.22C317.708 264.2 317.798 264.27 317.808 264.36C317.868 264.79 317.928 265.21 317.978 265.63C317.988 265.72 317.928 265.8 317.838 265.81C317.828 265.81 317.828 265.81 317.818 265.81ZM252.358 264.6C252.278 264.6 252.208 264.54 252.198 264.46C252.188 264.37 252.248 264.29 252.338 264.28L253.608 264.12C253.708 264.11 253.778 264.17 253.788 264.26C253.798 264.35 253.738 264.43 253.648 264.44L252.378 264.6C252.368 264.6 252.368 264.6 252.358 264.6ZM256.588 264.06C256.508 264.06 256.438 264 256.428 263.92C256.418 263.83 256.478 263.75 256.568 263.74L257.838 263.58C257.938 263.57 258.008 263.63 258.018 263.72C258.028 263.81 257.968 263.89 257.878 263.9L256.608 264.06C256.598 264.06 256.598 264.06 256.588 264.06ZM260.818 263.52C260.738 263.52 260.668 263.46 260.658 263.38C260.648 263.29 260.708 263.21 260.798 263.2L262.068 263.04C262.168 263.03 262.238 263.09 262.248 263.18C262.258 263.27 262.198 263.35 262.108 263.36L260.838 263.52C260.828 263.52 260.828 263.52 260.818 263.52ZM265.048 262.98C264.968 262.98 264.898 262.92 264.888 262.84C264.878 262.75 264.938 262.67 265.028 262.66L266.298 262.5C266.398 262.49 266.468 262.55 266.478 262.64C266.488 262.73 266.428 262.81 266.338 262.82L265.068 262.98C265.058 262.98 265.058 262.98 265.048 262.98ZM269.278 262.44C269.198 262.44 269.128 262.38 269.118 262.3C269.108 262.21 269.168 262.13 269.258 262.12L270.528 261.96C270.628 261.95 270.698 262.01 270.708 262.1C270.718 262.19 270.658 262.27 270.568 262.28L269.298 262.44C269.288 262.44 269.278 262.44 269.278 262.44ZM273.508 261.9C273.428 261.9 273.358 261.84 273.348 261.76C273.338 261.67 273.398 261.59 273.488 261.58L274.758 261.42C274.858 261.41 274.928 261.47 274.938 261.56C274.948 261.65 274.888 261.73 274.798 261.74L273.528 261.9C273.518 261.9 273.508 261.9 273.508 261.9ZM317.188 261.59C317.108 261.59 317.048 261.54 317.028 261.46C316.958 261.04 316.878 260.62 316.798 260.21C316.778 260.12 316.838 260.04 316.928 260.02C317.018 260 317.098 260.06 317.118 260.15C317.198 260.57 317.278 260.99 317.348 261.41C317.368 261.5 317.308 261.58 317.218 261.59C317.208 261.59 317.198 261.59 317.188 261.59ZM277.738 261.36C277.658 261.36 277.588 261.3 277.578 261.22C277.568 261.13 277.628 261.05 277.718 261.04L278.988 260.88C279.088 260.87 279.158 260.93 279.168 261.02C279.178 261.11 279.118 261.19 279.028 261.2L277.758 261.36C277.748 261.36 277.738 261.36 277.738 261.36ZM281.968 260.82C281.888 260.82 281.818 260.76 281.808 260.68C281.798 260.59 281.858 260.51 281.948 260.5L283.218 260.34C283.318 260.33 283.388 260.39 283.398 260.48C283.408 260.57 283.348 260.65 283.258 260.66L281.988 260.82C281.978 260.82 281.968 260.82 281.968 260.82ZM286.188 260.27C286.108 260.27 286.038 260.21 286.028 260.13C286.018 260.04 286.078 259.96 286.168 259.95L287.438 259.79C287.538 259.78 287.608 259.84 287.618 259.93C287.628 260.02 287.568 260.1 287.478 260.11L286.208 260.27C286.208 260.27 286.198 260.27 286.188 260.27ZM290.418 259.73C290.338 259.73 290.268 259.67 290.258 259.59C290.248 259.5 290.308 259.42 290.398 259.41L291.668 259.25C291.768 259.24 291.838 259.3 291.848 259.39C291.858 259.48 291.798 259.56 291.708 259.57L290.438 259.73C290.438 259.73 290.428 259.73 290.418 259.73ZM294.648 259.19C294.568 259.19 294.498 259.13 294.488 259.05C294.478 258.96 294.538 258.88 294.628 258.87L295.898 258.71C295.998 258.7 296.068 258.76 296.078 258.85C296.088 258.94 296.028 259.02 295.938 259.03L294.668 259.19C294.668 259.19 294.658 259.19 294.648 259.19ZM298.878 258.65C298.798 258.65 298.728 258.59 298.718 258.51C298.708 258.42 298.768 258.34 298.858 258.33L300.128 258.17C300.228 258.16 300.298 258.22 300.308 258.31C300.318 258.4 300.258 258.48 300.168 258.49L298.898 258.65C298.888 258.65 298.888 258.65 298.878 258.65ZM303.108 258.11C303.028 258.11 302.958 258.05 302.948 257.97C302.938 257.88 302.998 257.8 303.088 257.79L304.358 257.63C304.458 257.62 304.528 257.68 304.538 257.77C304.548 257.86 304.488 257.94 304.398 257.95L303.128 258.11C303.118 258.11 303.118 258.11 303.108 258.11ZM307.338 257.57C307.258 257.57 307.188 257.51 307.178 257.43C307.168 257.34 307.228 257.26 307.318 257.25L308.588 257.09C308.688 257.08 308.758 257.14 308.768 257.23C308.778 257.32 308.718 257.4 308.628 257.41L307.358 257.57C307.348 257.57 307.348 257.57 307.338 257.57ZM316.318 257.42C316.248 257.42 316.178 257.37 316.158 257.3C316.088 257.02 316.018 256.75 315.948 256.47L315.808 256.49C315.718 256.5 315.638 256.44 315.628 256.35C315.618 256.26 315.678 256.18 315.768 256.17L316.188 256.12L316.228 256.26C316.308 256.58 316.388 256.91 316.468 257.23C316.488 257.32 316.438 257.4 316.348 257.42C316.348 257.42 316.328 257.42 316.318 257.42ZM311.568 257.03C311.488 257.03 311.418 256.97 311.408 256.89C311.398 256.8 311.458 256.72 311.548 256.71L312.818 256.55C312.918 256.54 312.988 256.6 312.998 256.69C313.008 256.78 312.948 256.86 312.858 256.87L311.588 257.03C311.578 257.03 311.578 257.03 311.568 257.03Z" fill="white"/>
<path d="M261.438 246.02L261.378 244.19C261.518 243.73 261.868 243.38 262.328 243.25C264.038 242.75 268.308 241.71 270.588 243L271.168 245.06L261.438 246.02Z" fill="url(#paint18_linear_319_6242)"/>
<path d="M266.668 243.58C266.278 243.73 265.878 243.78 265.458 243.73C264.958 243.67 264.558 243.28 264.488 242.78L263.768 237.13L266.648 236.76L267.368 242.41C267.428 242.92 267.138 243.4 266.668 243.58Z" fill="url(#paint19_linear_319_6242)"/>
<path d="M289.288 242.45L289.228 240.62C289.368 240.16 289.718 239.81 290.178 239.68C291.888 239.18 296.158 238.14 298.438 239.43L299.018 241.49L289.288 242.45Z" fill="url(#paint20_linear_319_6242)"/>
<path d="M294.518 240.02C294.128 240.17 293.728 240.22 293.308 240.17C292.808 240.11 292.408 239.72 292.338 239.22L291.538 232.97L294.418 232.6L295.218 238.84C295.288 239.35 294.998 239.84 294.518 240.02Z" fill="url(#paint21_linear_319_6242)"/>
<path d="M263.648 238.56L294.448 233.58C295.148 233.47 295.688 232.88 295.718 232.17C295.768 231.18 295.728 229.71 295.308 228.24C294.838 226.56 293.208 225.48 291.468 225.66C285.678 226.26 270.998 228.14 263.308 232.38C262.498 232.83 261.958 233.64 261.848 234.56C261.748 235.44 261.758 236.59 262.178 237.71C262.398 238.31 263.018 238.66 263.648 238.56Z" fill="url(#paint22_linear_319_6242)"/>
<path opacity="0.58" d="M262.887 237.31C262.697 237.31 262.517 237.18 262.467 236.98C262.457 236.93 262.187 235.73 262.347 234.52C262.477 233.54 263.127 232.68 264.047 232.29C265.717 231.56 268.927 230.27 271.637 229.84C271.867 229.81 272.087 229.96 272.127 230.2C272.167 230.43 272.007 230.65 271.767 230.69C269.047 231.12 265.697 232.5 264.387 233.08C263.747 233.36 263.287 233.96 263.187 234.65C263.037 235.71 263.287 236.79 263.287 236.8C263.337 237.03 263.197 237.26 262.967 237.31C262.957 237.3 262.927 237.31 262.887 237.31Z" fill="white"/>
<path d="M246.998 247.15C256.978 245.74 300.138 239.76 312.888 239.67C313.988 239.66 314.968 240.34 315.338 241.37C316.508 244.63 318.998 252.23 319.808 259.98C319.918 261.03 319.258 262.02 318.248 262.35L290.278 271.44L280.098 272.74L248.788 270.58C247.688 270.5 246.778 269.69 246.578 268.61C245.878 264.75 244.408 255.67 244.708 249.67C244.768 248.38 245.728 247.33 246.998 247.15Z" fill="url(#paint23_linear_319_6242)"/>
<path d="M280.028 270.39H280.018L278.738 270.3C278.648 270.29 278.588 270.22 278.588 270.13C278.598 270.04 278.668 269.99 278.758 269.98L280.038 270.07C280.128 270.08 280.188 270.15 280.188 270.24C280.178 270.33 280.108 270.39 280.028 270.39ZM281.198 270.24C281.118 270.24 281.048 270.18 281.038 270.1C281.028 270.01 281.088 269.93 281.178 269.92L282.448 269.76C282.548 269.75 282.618 269.81 282.628 269.9C282.638 269.99 282.578 270.07 282.488 270.08L281.218 270.24C281.208 270.24 281.198 270.24 281.198 270.24ZM275.778 270.1H275.768L274.488 270.01C274.398 270 274.338 269.93 274.338 269.84C274.348 269.75 274.418 269.7 274.508 269.69L275.788 269.78C275.878 269.79 275.938 269.86 275.938 269.95C275.928 270.03 275.858 270.1 275.778 270.1ZM271.518 269.8H271.508L270.228 269.71C270.138 269.7 270.078 269.63 270.078 269.54C270.088 269.45 270.168 269.4 270.248 269.39L271.528 269.48C271.618 269.49 271.678 269.56 271.678 269.65C271.678 269.74 271.608 269.8 271.518 269.8ZM285.428 269.7C285.348 269.7 285.278 269.64 285.268 269.56C285.258 269.47 285.318 269.39 285.408 269.38L286.678 269.22C286.778 269.21 286.848 269.27 286.858 269.36C286.868 269.45 286.808 269.53 286.718 269.54L285.448 269.7C285.438 269.7 285.428 269.7 285.428 269.7ZM267.268 269.51H267.258L265.978 269.42C265.888 269.41 265.828 269.34 265.828 269.25C265.838 269.16 265.918 269.11 265.998 269.1L267.278 269.19C267.368 269.2 267.428 269.27 267.428 269.36C267.418 269.45 267.348 269.51 267.268 269.51ZM263.018 269.22H263.008L261.728 269.13C261.638 269.12 261.578 269.05 261.578 268.96C261.588 268.87 261.668 268.82 261.748 268.81L263.028 268.9C263.118 268.91 263.178 268.98 263.178 269.07C263.168 269.15 263.098 269.22 263.018 269.22ZM289.648 269.16C289.568 269.16 289.498 269.1 289.488 269.02C289.478 268.93 289.538 268.85 289.628 268.84L289.708 268.83L290.818 268.47C290.898 268.44 290.988 268.49 291.018 268.57C291.048 268.65 290.998 268.74 290.918 268.77L289.668 269.16C289.668 269.16 289.658 269.16 289.648 269.16ZM258.758 268.92H258.748L257.468 268.83C257.378 268.82 257.318 268.75 257.318 268.66C257.328 268.57 257.408 268.51 257.488 268.51L258.768 268.6C258.858 268.61 258.918 268.68 258.918 268.77C258.918 268.86 258.848 268.92 258.758 268.92ZM254.508 268.63H254.498L253.218 268.54C253.128 268.53 253.068 268.46 253.068 268.37C253.078 268.28 253.158 268.22 253.238 268.22L254.518 268.31C254.608 268.32 254.668 268.39 254.668 268.48C254.658 268.56 254.588 268.63 254.508 268.63ZM250.258 268.34H250.248L248.888 268.25L248.868 268.13C248.848 268.04 248.908 267.94 248.988 267.93C249.038 267.92 249.078 267.93 249.118 267.95L250.268 268.03C250.358 268.04 250.418 268.11 250.418 268.2C250.408 268.27 250.338 268.34 250.258 268.34ZM293.708 267.86C293.638 267.86 293.578 267.82 293.558 267.75C293.528 267.67 293.578 267.58 293.658 267.55L294.878 267.15C294.958 267.12 295.048 267.17 295.078 267.25C295.108 267.33 295.058 267.42 294.978 267.45L293.758 267.85C293.748 267.85 293.728 267.86 293.708 267.86ZM297.768 266.54C297.698 266.54 297.638 266.5 297.618 266.43C297.588 266.35 297.638 266.26 297.718 266.23L298.938 265.83C299.018 265.81 299.108 265.85 299.138 265.93C299.168 266.01 299.118 266.1 299.038 266.13L297.818 266.53C297.798 266.54 297.778 266.54 297.768 266.54ZM248.508 265.27C248.428 265.27 248.358 265.21 248.348 265.13C248.288 264.73 248.218 264.3 248.148 263.86C248.138 263.77 248.198 263.69 248.278 263.68C248.368 263.67 248.448 263.73 248.458 263.81C248.528 264.25 248.588 264.67 248.658 265.07C248.668 265.16 248.608 265.24 248.528 265.25C248.528 265.27 248.518 265.27 248.508 265.27ZM301.818 265.22C301.748 265.22 301.688 265.18 301.668 265.11C301.638 265.03 301.688 264.94 301.768 264.91L302.988 264.51C303.068 264.48 303.158 264.53 303.188 264.61C303.218 264.69 303.168 264.78 303.088 264.81L301.868 265.21C301.858 265.22 301.838 265.22 301.818 265.22ZM305.878 263.9C305.808 263.9 305.748 263.86 305.728 263.79C305.698 263.71 305.748 263.62 305.828 263.59L307.048 263.19C307.128 263.16 307.218 263.21 307.248 263.29C307.278 263.37 307.228 263.46 307.148 263.49L305.928 263.89C305.908 263.9 305.888 263.9 305.878 263.9ZM309.928 262.59C309.858 262.59 309.798 262.55 309.778 262.48C309.748 262.4 309.798 262.31 309.878 262.28L311.098 261.88C311.178 261.85 311.268 261.9 311.298 261.98C311.328 262.06 311.278 262.15 311.198 262.18L309.978 262.58C309.958 262.58 309.948 262.59 309.928 262.59ZM313.988 261.27C313.918 261.27 313.858 261.23 313.838 261.16C313.808 261.08 313.858 260.99 313.938 260.96L315.158 260.56C315.238 260.53 315.328 260.58 315.358 260.66C315.388 260.74 315.338 260.83 315.258 260.86L314.038 261.26C314.018 261.27 313.998 261.27 313.988 261.27ZM247.898 261.05C247.818 261.05 247.748 260.99 247.738 260.91C247.688 260.49 247.628 260.07 247.578 259.64C247.568 259.55 247.628 259.47 247.718 259.46C247.808 259.45 247.888 259.51 247.898 259.6C247.948 260.03 247.998 260.45 248.058 260.87C248.068 260.96 248.008 261.04 247.918 261.05C247.908 261.04 247.898 261.05 247.898 261.05ZM317.218 259.43C317.138 259.43 317.068 259.37 317.058 259.29C317.008 258.87 316.948 258.45 316.888 258.03C316.878 257.94 316.938 257.86 317.028 257.85C317.118 257.83 317.198 257.9 317.208 257.98C317.268 258.4 317.328 258.83 317.378 259.25C317.388 259.34 317.328 259.42 317.238 259.43C317.238 259.43 317.228 259.43 317.218 259.43ZM247.428 256.8C247.348 256.8 247.278 256.74 247.268 256.65C247.228 256.22 247.198 255.8 247.158 255.37C247.148 255.28 247.218 255.21 247.308 255.2C247.408 255.21 247.468 255.26 247.478 255.35C247.508 255.77 247.548 256.2 247.578 256.62C247.588 256.71 247.518 256.79 247.428 256.79C247.438 256.8 247.428 256.8 247.428 256.8ZM316.548 255.22C316.468 255.22 316.408 255.17 316.388 255.09C316.308 254.67 316.218 254.25 316.138 253.84C316.118 253.75 316.178 253.67 316.258 253.65C316.348 253.63 316.428 253.69 316.448 253.77C316.538 254.18 316.618 254.6 316.698 255.03C316.718 255.12 316.658 255.2 316.568 255.22C316.568 255.21 316.558 255.22 316.548 255.22ZM247.168 252.55C247.078 252.55 247.008 252.48 247.008 252.39C246.998 252.04 246.998 251.7 246.998 251.37V251.11C246.998 251.02 247.068 250.95 247.158 250.95C247.248 250.95 247.318 251.02 247.318 251.11V251.37C247.318 251.7 247.318 252.04 247.328 252.38C247.328 252.47 247.258 252.54 247.168 252.55ZM315.628 251.05C315.558 251.05 315.488 251 315.478 250.93C315.368 250.51 315.268 250.1 315.158 249.69C315.138 249.6 315.188 249.52 315.268 249.49C315.358 249.47 315.438 249.52 315.468 249.6C315.578 250.01 315.678 250.42 315.788 250.84C315.808 250.93 315.758 251.01 315.668 251.03C315.648 251.05 315.638 251.05 315.628 251.05ZM248.748 249.58C248.668 249.58 248.598 249.52 248.588 249.44C248.578 249.35 248.638 249.27 248.728 249.26L249.998 249.08C250.078 249.06 250.168 249.13 250.178 249.22C250.188 249.31 250.128 249.39 250.038 249.4L248.768 249.58C248.758 249.58 248.748 249.58 248.748 249.58ZM252.968 248.99C252.888 248.99 252.818 248.93 252.808 248.85C252.798 248.76 252.858 248.68 252.948 248.67L254.218 248.5C254.298 248.48 254.388 248.55 254.398 248.64C254.408 248.73 254.348 248.81 254.258 248.82L252.988 248.99C252.988 248.99 252.978 248.99 252.968 248.99ZM257.198 248.41C257.118 248.41 257.048 248.35 257.038 248.27C257.028 248.18 257.088 248.1 257.178 248.09L258.448 247.92C258.538 247.91 258.618 247.97 258.628 248.06C258.638 248.15 258.578 248.23 258.488 248.24L257.218 248.41C257.208 248.41 257.208 248.41 257.198 248.41ZM261.418 247.84C261.338 247.84 261.268 247.78 261.258 247.7C261.248 247.61 261.308 247.53 261.398 247.52L262.668 247.35C262.758 247.34 262.838 247.4 262.848 247.49C262.858 247.58 262.798 247.66 262.708 247.67L261.438 247.84C261.438 247.84 261.428 247.84 261.418 247.84ZM265.648 247.28C265.568 247.28 265.498 247.22 265.488 247.14C265.478 247.05 265.538 246.97 265.628 246.96L266.898 246.79C266.988 246.78 267.068 246.84 267.078 246.93C267.088 247.02 267.028 247.1 266.938 247.11L265.668 247.28C265.668 247.28 265.658 247.28 265.648 247.28ZM314.498 246.94C314.428 246.94 314.368 246.89 314.348 246.83C314.218 246.4 314.098 246 313.968 245.61C313.938 245.53 313.988 245.44 314.068 245.41C314.158 245.38 314.238 245.43 314.268 245.51C314.388 245.9 314.518 246.31 314.648 246.74C314.678 246.82 314.628 246.91 314.538 246.94C314.528 246.94 314.508 246.94 314.498 246.94ZM269.878 246.73C269.798 246.73 269.728 246.67 269.718 246.59C269.708 246.5 269.768 246.42 269.858 246.41L271.128 246.25C271.218 246.24 271.298 246.3 271.308 246.39C271.318 246.48 271.258 246.56 271.168 246.57L269.898 246.73C269.898 246.73 269.888 246.73 269.878 246.73ZM274.108 246.19C274.028 246.19 273.958 246.13 273.948 246.05C273.938 245.96 273.998 245.88 274.088 245.87L275.358 245.71C275.448 245.7 275.528 245.76 275.538 245.85C275.548 245.94 275.488 246.02 275.398 246.03L274.128 246.19C274.118 246.18 274.118 246.19 274.108 246.19ZM278.338 245.65C278.258 245.65 278.188 245.59 278.178 245.51C278.168 245.42 278.228 245.34 278.318 245.33L279.588 245.17C279.678 245.16 279.758 245.22 279.768 245.31C279.778 245.4 279.718 245.48 279.628 245.49L278.358 245.65C278.358 245.65 278.348 245.65 278.338 245.65ZM282.568 245.14C282.488 245.14 282.418 245.08 282.408 245C282.398 244.91 282.458 244.83 282.548 244.82L283.818 244.67C283.908 244.66 283.988 244.72 283.998 244.81C284.008 244.9 283.948 244.98 283.858 244.99L282.588 245.14C282.588 245.13 282.578 245.14 282.568 245.14ZM286.808 244.63C286.728 244.63 286.658 244.57 286.648 244.49C286.638 244.4 286.698 244.32 286.788 244.31L288.058 244.16C288.148 244.15 288.228 244.21 288.238 244.3C288.248 244.39 288.188 244.47 288.098 244.48L286.828 244.63C286.818 244.63 286.808 244.63 286.808 244.63ZM291.038 244.15C290.958 244.15 290.888 244.09 290.878 244.01C290.868 243.92 290.928 243.84 291.018 243.83L292.288 243.69C292.388 243.69 292.458 243.75 292.468 243.83C292.478 243.92 292.418 244 292.328 244.01L291.058 244.15C291.058 244.15 291.048 244.15 291.038 244.15ZM295.278 243.68C295.198 243.68 295.128 243.62 295.118 243.54C295.108 243.45 295.168 243.37 295.258 243.36L296.528 243.23C296.628 243.23 296.698 243.28 296.708 243.37C296.718 243.46 296.658 243.54 296.568 243.55L295.298 243.68C295.288 243.68 295.288 243.68 295.278 243.68ZM299.518 243.25C299.438 243.25 299.368 243.19 299.358 243.11C299.348 243.02 299.418 242.94 299.498 242.94L300.768 242.82C300.858 242.81 300.938 242.88 300.938 242.96C300.948 243.05 300.878 243.13 300.798 243.13L299.528 243.25C299.538 243.25 299.528 243.25 299.518 243.25ZM313.178 242.88C313.108 242.88 313.048 242.84 313.028 242.77L312.868 242.31C312.678 242.31 312.488 242.31 312.288 242.32C312.198 242.32 312.128 242.25 312.128 242.16C312.128 242.07 312.198 242 312.288 242C312.508 242 312.718 241.99 312.918 241.99C313.028 241.99 313.128 242.05 313.158 242.15L313.338 242.66C313.368 242.74 313.328 242.83 313.238 242.86C313.208 242.88 313.198 242.88 313.178 242.88ZM303.768 242.86C303.688 242.86 303.618 242.8 303.608 242.71C303.598 242.62 303.668 242.54 303.758 242.54C304.198 242.5 304.618 242.47 305.038 242.43C305.128 242.42 305.208 242.49 305.208 242.58C305.218 242.67 305.148 242.75 305.058 242.75C304.648 242.78 304.218 242.82 303.788 242.86C303.778 242.86 303.778 242.86 303.768 242.86ZM308.018 242.53C307.938 242.53 307.868 242.46 307.858 242.38C307.848 242.29 307.918 242.22 308.008 242.21C308.448 242.18 308.878 242.15 309.288 242.13C309.388 242.12 309.448 242.19 309.458 242.28C309.468 242.37 309.398 242.44 309.308 242.45C308.898 242.47 308.478 242.5 308.028 242.53C308.028 242.53 308.028 242.53 308.018 242.53Z" fill="white"/>
<path d="M289.868 275.83L280.948 276.97C279.778 277.12 278.688 276.38 278.398 275.24L276.268 266.79C275.928 265.44 276.848 264.1 278.228 263.93L288.938 262.56C290.298 262.39 291.508 263.41 291.558 264.77L291.888 273.45C291.948 274.64 291.068 275.67 289.868 275.83Z" fill="url(#paint24_linear_319_6242)"/>
<path d="M288.568 274.39L281.778 275.26C280.888 275.37 280.058 274.81 279.838 273.94L278.218 267.51C277.958 266.49 278.658 265.47 279.708 265.33L287.868 264.29C288.898 264.16 289.818 264.93 289.858 265.97L290.108 272.58C290.148 273.48 289.478 274.27 288.568 274.39Z" fill="url(#paint25_linear_319_6242)"/>
<path d="M283.268 205.99C285.368 214.68 285.428 223.19 285.108 226.28C284.988 227.45 284.048 228.36 282.878 228.44C281.548 228.53 279.738 228.66 278.118 228.75C276.338 228.85 274.368 227.73 273.048 226.79C272.378 226.31 271.498 227.06 271.878 227.79C272.528 229.06 273.648 230.06 274.768 230.91C275.438 231.42 277.678 232.33 277.518 233.33C277.468 233.65 277.278 233.92 277.068 234.17C275.828 235.66 273.948 236.46 272.088 237.03C271.858 237.1 271.608 237.18 271.448 237.36C271.398 238.56 275.088 239.89 276.038 240.21C277.468 240.68 278.978 240.88 280.478 240.73C284.188 240.34 287.618 237.78 289.618 234.69C294.958 226.43 297.728 216.46 298.738 208.83C293.778 203.86 286.268 205.12 283.268 205.99Z" fill="url(#paint26_linear_319_6242)"/>
<path d="M298.747 209.62C302.707 179.67 279.627 156.64 279.627 156.64L265.897 172.65C276.327 185.65 281.277 197.55 283.547 206.91C286.547 206.03 293.777 204.65 298.747 209.62Z" fill="url(#paint27_linear_319_6242)"/>
<path d="M283.218 206.75C282.838 206.75 282.488 206.49 282.388 206.1C279.598 194.57 273.718 183.16 264.908 172.18C264.618 171.81 264.668 171.28 265.038 170.98C265.408 170.69 265.938 170.74 266.238 171.11C275.208 182.29 281.198 193.92 284.048 205.7C284.158 206.16 283.878 206.62 283.418 206.73C283.348 206.75 283.278 206.75 283.218 206.75Z" fill="url(#paint28_linear_319_6242)"/>
<path d="M97.2379 384.31C97.2379 384.16 97.2279 384.02 97.1979 383.87C94.9879 375.11 84.0279 369.66 84.0279 369.66L79.6879 370C77.1879 377.72 77.5079 382.45 77.9079 384.56C77.9179 384.62 77.9379 384.68 77.9479 384.73C81.5279 385.05 88.8979 385.25 97.2379 384.31Z" fill="url(#paint29_linear_319_6242)"/>
<path d="M77.9482 384.73C78.1382 385.43 78.6582 385.98 79.3282 386.12C84.4282 387.19 92.5282 386.33 95.9282 385.88C96.6782 385.78 97.2282 385.09 97.2382 384.3C88.8982 385.25 81.5282 385.05 77.9482 384.73Z" fill="url(#paint30_linear_319_6242)"/>
<path d="M77.9277 363.52L79.7677 372.38C79.8977 373.03 80.3977 373.51 81.0077 373.57C81.7477 373.64 82.7977 373.68 83.8577 373.52C84.8077 373.38 85.4677 372.42 85.2977 371.38L84.0177 363.52H77.9277Z" fill="url(#paint31_linear_319_6242)"/>
<path d="M116.048 384.61C111.248 384.48 108.768 383.91 107.488 383.39C107.488 383.87 107.488 384.35 107.508 384.86C107.528 385.4 107.918 385.83 108.408 385.82L134.748 385.65C135.588 385.64 136.078 384.67 135.718 383.9C132.258 384.18 123.458 384.82 116.048 384.61Z" fill="url(#paint32_linear_319_6242)"/>
<path d="M135.709 383.9C135.679 383.83 135.649 383.76 135.609 383.7C133.279 380.45 127.359 373.98 115.649 371.17L110.029 370.99C110.029 370.99 107.529 375.34 107.479 383.39C108.759 383.91 111.239 384.48 116.039 384.61C123.459 384.82 132.259 384.18 135.709 383.9Z" fill="url(#paint33_linear_319_6242)"/>
<path d="M108.738 362.74C108.828 363.15 109.998 369.46 110.448 371.9C110.558 372.48 111.008 372.91 111.548 372.94C112.508 372.99 114.058 373 115.398 372.64C116.118 372.44 116.598 371.71 116.548 370.9L115.918 360.93L108.738 362.74Z" fill="url(#paint34_linear_319_6242)"/>
<path d="M104.488 246.39C104.488 246.39 112.218 299.48 117.788 362.65C117.888 363.83 116.958 364.85 115.798 365.09C114.098 365.45 111.588 365.87 109.518 365.82C108.408 365.79 107.488 364.97 107.298 363.88C105.398 352.74 91.848 292.96 88.288 279.8C88.288 279.8 84.198 335.69 85.508 364.68C85.538 365.4 85.008 366.03 84.298 366.11C83.208 366.24 81.468 366.33 79.258 366.1C78.418 366.01 77.738 365.38 77.618 364.54C76.268 355.11 68.478 299 68.808 258.58C68.828 256.3 71.478 237.57 71.478 237.57L104.488 246.39Z" fill="url(#paint35_linear_319_6242)"/>
<path d="M70.3181 249.45C69.5281 249.17 68.9681 248.45 68.8881 247.61C67.8581 237.64 62.8881 175.84 94.2881 150.42C94.2881 150.42 96.0881 145.71 110.888 157.29C125.688 168.87 117.768 181.01 114.218 197.76C109.928 218.02 102.408 234.59 105.738 247.06C105.968 247.92 105.518 248.82 104.678 249.13C93.1881 253.36 81.7281 253.5 70.3181 249.45Z" fill="url(#paint36_linear_319_6242)"/>
<path d="M106.538 131.89C106.528 132.77 93.9883 150.58 93.9883 150.58C93.9883 150.58 96.2383 155.01 106.988 158.61L116.268 139.54L106.538 131.89Z" fill="url(#paint37_linear_319_6242)"/>
<path d="M116.418 121.69C116.418 121.69 120.878 131.94 121.178 137.32C121.478 142.7 122.638 146.19 116.418 147.27C110.198 148.35 104.958 145.25 102.118 139.9C102.118 139.9 97.6679 131.64 98.6679 128.26C99.6579 124.88 116.418 121.69 116.418 121.69Z" fill="url(#paint38_linear_319_6242)"/>
<path d="M104.238 136.04L104.588 135.88C105.038 135.68 105.228 135.14 105.008 134.71C104.128 133.02 102.418 129.13 104.628 128.23C107.478 127.06 118.748 124.76 121.188 120.76C123.528 116.91 121.458 111.95 118.338 110.54C118.128 110.45 117.888 110.52 117.778 110.72L117.518 111.21C117.338 111.55 116.848 111.5 116.738 111.13C116.638 110.78 116.168 110.71 115.978 111.02C115.228 112.22 113.208 114.16 107.808 115.15C100.138 116.57 95.0576 119.67 94.9376 124.98C94.9276 125.32 94.5676 125.5 94.2876 125.33C93.7176 124.98 92.8176 124.82 91.5976 125.84C89.4876 127.61 90.3476 132.21 94.9776 135.99C95.1976 136.17 95.1976 136.51 94.9576 136.67C94.1176 137.22 92.8676 138.51 96.1076 140.24C99.4576 142.03 101.958 141.88 102.918 141.72C103.158 141.68 103.308 141.45 103.258 141.21L102.228 136.55C102.168 136.29 102.368 136.04 102.638 136.04H104.238Z" fill="url(#paint39_linear_319_6242)"/>
<path d="M104.437 137.03C104.437 137.03 102.737 130.48 99.7972 132.32C96.8572 134.16 101.317 139.66 103.677 139.9L104.437 137.03Z" fill="url(#paint40_linear_319_6242)"/>
<path d="M115.658 162.66L116.518 185.88C118.978 186.73 121.308 187.38 123.538 187.87C124.928 183.39 127.998 177.88 130.508 173.79C121.288 170.53 115.658 162.66 115.658 162.66Z" fill="url(#paint41_linear_319_6242)"/>
<path d="M161.718 162.26C149.058 175.92 138.818 176.73 130.508 173.79C127.998 177.88 124.928 183.38 123.538 187.87C157.338 195.32 165.288 164.25 165.288 164.25L161.718 162.26Z" fill="url(#paint42_linear_319_6242)"/>
<path d="M164.288 160.81C164.288 160.81 165.748 159.24 168.448 159.74C171.148 160.23 173.548 161.17 175.228 159.74C176.908 158.31 177.498 160.23 177.498 160.23L172.468 164.06L164.288 160.81Z" fill="url(#paint43_linear_319_6242)"/>
<path d="M161.278 163.49C161.278 163.49 162.278 159.31 165.288 159.89C168.298 160.46 175.128 164.18 176.898 163.49C178.658 162.81 180.908 161.17 182.068 161.75L180.028 164.28C180.028 164.28 185.258 161.26 186.158 163.12L177.448 168.02C177.448 168.01 164.708 166.73 161.278 163.49Z" fill="url(#paint44_linear_319_6242)"/>
<path d="M101.608 193.05C101.608 193.05 125.398 212.98 151.088 204.28C152.678 203.74 154.428 203.86 155.908 204.64L163.298 208.54C166.398 210.18 170.238 209.1 172.038 206.09C173.068 204.37 173.938 202.41 174.118 200.53L159.668 194.68L160.738 192.91C160.738 192.91 153.678 192.31 151.838 197.37C151.838 197.37 138.398 202.96 115.728 178.03C115.718 178.04 105.438 186.78 101.608 193.05Z" fill="url(#paint45_linear_319_6242)"/>
<path d="M100.328 192.84C100.248 192.84 100.168 192.82 100.098 192.77C90.0783 186 85.3683 175.08 85.3183 174.97C85.2283 174.76 85.3283 174.52 85.5383 174.44C85.7483 174.35 85.9883 174.45 86.0683 174.66C86.1183 174.77 90.7383 185.48 100.548 192.11C100.738 192.24 100.788 192.49 100.658 192.68C100.588 192.78 100.458 192.84 100.328 192.84Z" fill="url(#paint46_linear_319_6242)"/>
<path d="M115.248 177.7C115.118 177.7 114.988 177.63 114.908 177.51C114.878 177.46 111.818 172.7 105.988 162.26C104.198 159.05 101.838 157.02 98.9882 156.22C94.2582 154.9 89.7082 157.43 89.6582 157.46C89.4582 157.57 89.2182 157.5 89.0982 157.31C88.9882 157.11 89.0582 156.87 89.2482 156.75C89.4482 156.64 94.1282 154.02 99.1882 155.43C102.258 156.29 104.788 158.45 106.688 161.86C112.498 172.27 115.548 177.02 115.578 177.07C115.698 177.26 115.648 177.51 115.458 177.63C115.398 177.68 115.328 177.7 115.248 177.7Z" fill="url(#paint47_linear_319_6242)"/>
<path d="M118.559 131.68C118.739 132.06 118.569 132.53 118.169 132.73C117.779 132.93 117.309 132.78 117.129 132.39C116.949 132.01 117.119 131.54 117.519 131.34C117.909 131.15 118.379 131.3 118.559 131.68Z" fill="#263238"/>
<path d="M118.959 130.64C118.909 130.77 118.179 130.6 117.389 130.95C116.599 131.28 116.189 131.94 116.069 131.88C116.009 131.86 116.029 131.64 116.199 131.35C116.369 131.06 116.719 130.7 117.209 130.49C117.699 130.28 118.199 130.28 118.509 130.37C118.829 130.44 118.979 130.57 118.959 130.64Z" fill="#263238"/>
<path d="M110.909 135.3C111.089 135.68 110.919 136.15 110.519 136.35C110.129 136.55 109.659 136.4 109.479 136.01C109.299 135.63 109.469 135.16 109.869 134.96C110.269 134.77 110.729 134.92 110.909 135.3Z" fill="#263238"/>
<path d="M111.259 134.13C111.209 134.27 110.479 134.09 109.689 134.44C108.899 134.77 108.489 135.43 108.369 135.37C108.309 135.35 108.329 135.13 108.499 134.84C108.669 134.55 109.019 134.19 109.509 133.98C109.999 133.77 110.499 133.77 110.809 133.86C111.119 133.93 111.279 134.07 111.259 134.13Z" fill="#263238"/>
<path d="M116.649 138.75C116.629 138.71 117.079 138.41 117.829 137.97C118.019 137.86 118.199 137.74 118.169 137.59C118.149 137.42 117.979 137.24 117.779 137.05C117.379 136.64 116.959 136.22 116.519 135.77C114.749 133.94 113.369 132.4 113.449 132.33C113.519 132.26 115.019 133.68 116.789 135.51C117.219 135.96 117.629 136.4 118.029 136.81C118.209 137.01 118.449 137.21 118.479 137.56C118.489 137.73 118.389 137.91 118.279 138C118.169 138.1 118.059 138.15 117.959 138.2C117.159 138.58 116.669 138.8 116.649 138.75Z" fill="#263238"/>
<path d="M114.559 140.3C114.689 140.24 115.059 141.09 116.049 141.39C117.049 141.68 117.919 141.19 117.979 141.31C118.019 141.36 117.849 141.56 117.469 141.74C117.099 141.92 116.489 142.03 115.879 141.85C115.269 141.67 114.859 141.25 114.679 140.92C114.489 140.57 114.499 140.32 114.559 140.3Z" fill="#263238"/>
<path d="M110.119 130.95C110.129 131.2 109.299 131.44 108.419 131.95C107.529 132.44 106.899 133.04 106.689 132.9C106.599 132.83 106.639 132.57 106.849 132.24C107.059 131.9 107.449 131.5 107.979 131.2C108.509 130.9 109.059 130.77 109.449 130.76C109.869 130.74 110.109 130.83 110.119 130.95Z" fill="#263238"/>
<path d="M117.679 128.47C117.619 128.71 116.989 128.76 116.339 129.03C115.669 129.28 115.179 129.67 114.979 129.54C114.879 129.47 114.889 129.26 115.059 128.98C115.229 128.71 115.559 128.4 116.019 128.22C116.479 128.04 116.939 128.04 117.239 128.12C117.549 128.21 117.699 128.36 117.679 128.47Z" fill="#263238"/>
<path d="M241.429 128.26C241.269 128.67 241.479 129.14 241.899 129.31C242.319 129.48 242.789 129.3 242.949 128.89C243.109 128.48 242.899 128.01 242.479 127.84C242.059 127.67 241.589 127.85 241.429 128.26Z" fill="#263238"/>
<path d="M241.398 126.9C241.458 127.04 242.198 126.81 243.038 127.11C243.878 127.4 244.338 128.05 244.468 127.98C244.528 127.95 244.498 127.73 244.298 127.44C244.108 127.15 243.718 126.81 243.198 126.62C242.678 126.44 242.168 126.47 241.848 126.58C241.518 126.69 241.368 126.84 241.398 126.9Z" fill="#263238"/>
<path d="M236.158 132.02C236.178 131.97 235.688 131.7 234.888 131.29C234.678 131.19 234.498 131.08 234.508 130.92C234.508 130.75 234.688 130.55 234.878 130.34C235.258 129.89 235.668 129.43 236.088 128.94C237.788 126.94 239.098 125.26 239.018 125.19C238.938 125.12 237.488 126.69 235.798 128.69C235.388 129.19 234.988 129.66 234.608 130.11C234.438 130.32 234.208 130.55 234.198 130.91C234.198 131.09 234.318 131.26 234.438 131.35C234.558 131.44 234.678 131.49 234.778 131.53C235.608 131.88 236.138 132.07 236.158 132.02Z" fill="#263238"/>
<path d="M241.538 125.3C241.538 125.56 242.408 125.75 243.348 126.21C244.298 126.66 244.988 127.23 245.188 127.07C245.278 126.99 245.218 126.73 244.978 126.4C244.738 126.07 244.308 125.68 243.738 125.4C243.168 125.13 242.598 125.03 242.188 125.05C241.788 125.07 241.548 125.18 241.538 125.3Z" fill="#263238"/>
<defs>
<linearGradient id="paint0_linear_319_6242" x1="419.886" y1="391.799" x2="132.399" y2="140.247" gradientUnits="userSpaceOnUse">
<stop stop-color="#DAE3FE"/>
<stop offset="1" stop-color="#E9EFFD"/>
</linearGradient>
<linearGradient id="paint1_linear_319_6242" x1="468.578" y1="812.164" x2="145.7" y2="-278.935" gradientUnits="userSpaceOnUse">
<stop stop-color="#4F52FF"/>
<stop offset="1" stop-color="#4042E2"/>
</linearGradient>
<linearGradient id="paint2_linear_319_6242" x1="245.381" y1="590.102" x2="-73.6728" y2="-488.076" gradientUnits="userSpaceOnUse">
<stop stop-color="#4F52FF"/>
<stop offset="1" stop-color="#4042E2"/>
</linearGradient>
<linearGradient id="paint3_linear_319_6242" x1="157.662" y1="203.663" x2="162.159" y2="202.104" gradientUnits="userSpaceOnUse">
<stop stop-color="#FEBBBA"/>
<stop offset="1" stop-color="#FF928E"/>
</linearGradient>
<linearGradient id="paint4_linear_319_6242" x1="189.668" y1="212.04" x2="255.148" y2="140.663" gradientUnits="userSpaceOnUse">
<stop stop-color="#09005D"/>
<stop offset="1" stop-color="#1A0F91"/>
</linearGradient>
<linearGradient id="paint5_linear_319_6242" x1="219.559" y1="239.461" x2="285.039" y2="168.085" gradientUnits="userSpaceOnUse">
<stop stop-color="#09005D"/>
<stop offset="1" stop-color="#1A0F91"/>
</linearGradient>
<linearGradient id="paint6_linear_319_6242" x1="253.274" y1="162.225" x2="246.582" y2="142.149" gradientUnits="userSpaceOnUse">
<stop stop-color="#FEBBBA"/>
<stop offset="1" stop-color="#FF928E"/>
</linearGradient>
<linearGradient id="paint7_linear_319_6242" x1="233.369" y1="127.452" x2="258.922" y2="138.562" gradientUnits="userSpaceOnUse">
<stop stop-color="#FEBBBA"/>
<stop offset="1" stop-color="#FF928E"/>
</linearGradient>
<linearGradient id="paint8_linear_319_6242" x1="251.806" y1="142.318" x2="232.113" y2="121.398" gradientUnits="userSpaceOnUse">
<stop stop-color="#09005D"/>
<stop offset="1" stop-color="#1A0F91"/>
</linearGradient>
<linearGradient id="paint9_linear_319_6242" x1="232.916" y1="131.353" x2="256.968" y2="141.811" gradientUnits="userSpaceOnUse">
<stop stop-color="#FEBBBA"/>
<stop offset="1" stop-color="#FF928E"/>
</linearGradient>
<linearGradient id="paint10_linear_319_6242" x1="280.09" y1="385.187" x2="250.198" y2="385.187" gradientUnits="userSpaceOnUse">
<stop stop-color="#4F52FF"/>
<stop offset="1" stop-color="#4042E2"/>
</linearGradient>
<linearGradient id="paint11_linear_319_6242" x1="352.238" y1="357.22" x2="244.004" y2="388.07" gradientUnits="userSpaceOnUse">
<stop stop-color="#09005D"/>
<stop offset="1" stop-color="#1A0F91"/>
</linearGradient>
<linearGradient id="paint12_linear_319_6242" x1="277.33" y1="371.149" x2="268.91" y2="371.149" gradientUnits="userSpaceOnUse">
<stop stop-color="#FEBBBA"/>
<stop offset="1" stop-color="#FF928E"/>
</linearGradient>
<linearGradient id="paint13_linear_319_6242" x1="339.68" y1="384.542" x2="328.225" y2="384.542" gradientUnits="userSpaceOnUse">
<stop stop-color="#4F52FF"/>
<stop offset="1" stop-color="#4042E2"/>
</linearGradient>
<linearGradient id="paint14_linear_319_6242" x1="291.899" y1="350.95" x2="359.349" y2="394.871" gradientUnits="userSpaceOnUse">
<stop stop-color="#09005D"/>
<stop offset="1" stop-color="#1A0F91"/>
</linearGradient>
<linearGradient id="paint15_linear_319_6242" x1="330.858" y1="364.13" x2="320.795" y2="364.13" gradientUnits="userSpaceOnUse">
<stop stop-color="#FEBBBA"/>
<stop offset="1" stop-color="#FF928E"/>
</linearGradient>
<linearGradient id="paint16_linear_319_6242" x1="332.277" y1="378.905" x2="178.732" y2="166.622" gradientUnits="userSpaceOnUse">
<stop stop-color="#09005D"/>
<stop offset="1" stop-color="#1A0F91"/>
</linearGradient>
<linearGradient id="paint17_linear_319_6242" x1="279.683" y1="238.589" x2="283.407" y2="265.587" gradientUnits="userSpaceOnUse">
<stop stop-color="#E1473D"/>
<stop offset="1" stop-color="#E9605A"/>
</linearGradient>
<linearGradient id="paint18_linear_319_6242" x1="267.067" y1="250.053" x2="265.377" y2="240.124" gradientUnits="userSpaceOnUse">
<stop stop-color="#E1473D"/>
<stop offset="1" stop-color="#E9605A"/>
</linearGradient>
<linearGradient id="paint19_linear_319_6242" x1="264.627" y1="235.133" x2="270.348" y2="263.476" gradientUnits="userSpaceOnUse">
<stop stop-color="#E1473D"/>
<stop offset="1" stop-color="#E9605A"/>
</linearGradient>
<linearGradient id="paint20_linear_319_6242" x1="294.727" y1="245.348" x2="293.037" y2="235.418" gradientUnits="userSpaceOnUse">
<stop stop-color="#E1473D"/>
<stop offset="1" stop-color="#E9605A"/>
</linearGradient>
<linearGradient id="paint21_linear_319_6242" x1="292.105" y1="229.59" x2="297.825" y2="257.932" gradientUnits="userSpaceOnUse">
<stop stop-color="#E1473D"/>
<stop offset="1" stop-color="#E9605A"/>
</linearGradient>
<linearGradient id="paint22_linear_319_6242" x1="278.899" y1="217.124" x2="278.729" y2="237.85" gradientUnits="userSpaceOnUse">
<stop stop-color="#FF928E"/>
<stop offset="1" stop-color="#FE7062"/>
</linearGradient>
<linearGradient id="paint23_linear_319_6242" x1="282.558" y1="292.086" x2="282.247" y2="256.398" gradientUnits="userSpaceOnUse">
<stop stop-color="#FF928E"/>
<stop offset="1" stop-color="#FE7062"/>
</linearGradient>
<linearGradient id="paint24_linear_319_6242" x1="281.943" y1="279.656" x2="285.357" y2="263.829" gradientUnits="userSpaceOnUse">
<stop stop-color="#E1473D"/>
<stop offset="1" stop-color="#E9605A"/>
</linearGradient>
<linearGradient id="paint25_linear_319_6242" x1="278.6" y1="270.568" x2="290.269" y2="269.074" gradientUnits="userSpaceOnUse">
<stop stop-color="#FF928E"/>
<stop offset="1" stop-color="#FE7062"/>
</linearGradient>
<linearGradient id="paint26_linear_319_6242" x1="291.293" y1="210.854" x2="268.507" y2="254.673" gradientUnits="userSpaceOnUse">
<stop stop-color="#FEBBBA"/>
<stop offset="1" stop-color="#FF928E"/>
</linearGradient>
<linearGradient id="paint27_linear_319_6242" x1="229.304" y1="248.401" x2="294.783" y2="177.025" gradientUnits="userSpaceOnUse">
<stop stop-color="#09005D"/>
<stop offset="1" stop-color="#1A0F91"/>
</linearGradient>
<linearGradient id="paint28_linear_319_6242" x1="276.89" y1="178.942" x2="292.096" y2="119.049" gradientUnits="userSpaceOnUse">
<stop stop-color="#09005D"/>
<stop offset="1" stop-color="#1A0F91"/>
</linearGradient>
<linearGradient id="paint29_linear_319_6242" x1="77.625" y1="377.324" x2="97.234" y2="377.324" gradientUnits="userSpaceOnUse">
<stop stop-color="#09005D"/>
<stop offset="1" stop-color="#1A0F91"/>
</linearGradient>
<linearGradient id="paint30_linear_319_6242" x1="126.716" y1="354.191" x2="55.3769" y2="410.206" gradientUnits="userSpaceOnUse">
<stop stop-color="#4F52FF"/>
<stop offset="1" stop-color="#4042E2"/>
</linearGradient>
<linearGradient id="paint31_linear_319_6242" x1="83.0778" y1="355" x2="79.3322" y2="387.69" gradientUnits="userSpaceOnUse">
<stop stop-color="#FEBBBA"/>
<stop offset="1" stop-color="#FF928E"/>
</linearGradient>
<linearGradient id="paint32_linear_319_6242" x1="139.389" y1="370.307" x2="68.05" y2="426.323" gradientUnits="userSpaceOnUse">
<stop stop-color="#4F52FF"/>
<stop offset="1" stop-color="#4042E2"/>
</linearGradient>
<linearGradient id="paint33_linear_319_6242" x1="107.485" y1="377.822" x2="135.712" y2="377.822" gradientUnits="userSpaceOnUse">
<stop stop-color="#09005D"/>
<stop offset="1" stop-color="#1A0F91"/>
</linearGradient>
<linearGradient id="paint34_linear_319_6242" x1="113.079" y1="358.453" x2="111.397" y2="391.313" gradientUnits="userSpaceOnUse">
<stop stop-color="#FEBBBA"/>
<stop offset="1" stop-color="#FF928E"/>
</linearGradient>
<linearGradient id="paint35_linear_319_6242" x1="115.11" y1="235.565" x2="52.5661" y2="433.512" gradientUnits="userSpaceOnUse">
<stop stop-color="#09005D"/>
<stop offset="1" stop-color="#1A0F91"/>
</linearGradient>
<linearGradient id="paint36_linear_319_6242" x1="57.2262" y1="250.975" x2="128.292" y2="163.772" gradientUnits="userSpaceOnUse">
<stop stop-color="#FF928E"/>
<stop offset="1" stop-color="#FE7062"/>
</linearGradient>
<linearGradient id="paint37_linear_319_6242" x1="90.2012" y1="155.114" x2="116.269" y2="139.598" gradientUnits="userSpaceOnUse">
<stop stop-color="#FEBBBA"/>
<stop offset="1" stop-color="#FF928E"/>
</linearGradient>
<linearGradient id="paint38_linear_319_6242" x1="118.637" y1="144.655" x2="103.423" y2="122.299" gradientUnits="userSpaceOnUse">
<stop stop-color="#FEBBBA"/>
<stop offset="1" stop-color="#FF928E"/>
</linearGradient>
<linearGradient id="paint39_linear_319_6242" x1="90.444" y1="105.707" x2="111.953" y2="130.899" gradientUnits="userSpaceOnUse">
<stop stop-color="#09005D"/>
<stop offset="1" stop-color="#1A0F91"/>
</linearGradient>
<linearGradient id="paint40_linear_319_6242" x1="111.255" y1="149.679" x2="96.0485" y2="127.335" gradientUnits="userSpaceOnUse">
<stop stop-color="#FEBBBA"/>
<stop offset="1" stop-color="#FF928E"/>
</linearGradient>
<linearGradient id="paint41_linear_319_6242" x1="92.023" y1="212.988" x2="124.918" y2="167.99" gradientUnits="userSpaceOnUse">
<stop stop-color="#FF928E"/>
<stop offset="1" stop-color="#FE7062"/>
</linearGradient>
<linearGradient id="paint42_linear_319_6242" x1="178.426" y1="160.31" x2="123.701" y2="187.533" gradientUnits="userSpaceOnUse">
<stop stop-color="#FEBBBA"/>
<stop offset="1" stop-color="#FF928E"/>
</linearGradient>
<linearGradient id="paint43_linear_319_6242" x1="177.624" y1="153.483" x2="158.906" y2="173.034" gradientUnits="userSpaceOnUse">
<stop stop-color="#FEBBBA"/>
<stop offset="1" stop-color="#FF928E"/>
</linearGradient>
<linearGradient id="paint44_linear_319_6242" x1="178.686" y1="159.988" x2="123.962" y2="187.21" gradientUnits="userSpaceOnUse">
<stop stop-color="#FEBBBA"/>
<stop offset="1" stop-color="#FF928E"/>
</linearGradient>
<linearGradient id="paint45_linear_319_6242" x1="201.555" y1="206.177" x2="42.7394" y2="177.459" gradientUnits="userSpaceOnUse">
<stop stop-color="#FEBBBA"/>
<stop offset="1" stop-color="#FF928E"/>
</linearGradient>
<linearGradient id="paint46_linear_319_6242" x1="123.741" y1="136.525" x2="54.2912" y2="242.975" gradientUnits="userSpaceOnUse">
<stop stop-color="#E1473D"/>
<stop offset="1" stop-color="#E9605A"/>
</linearGradient>
<linearGradient id="paint47_linear_319_6242" x1="122.778" y1="135.897" x2="53.3276" y2="242.347" gradientUnits="userSpaceOnUse">
<stop stop-color="#E1473D"/>
<stop offset="1" stop-color="#E9605A"/>
</linearGradient>
</defs>
</svg>
