<svg width="402" height="398" viewBox="0 0 402 398" fill="none" xmlns="http://www.w3.org/2000/svg">
<g clip-path="url(#clip0_314_3418)">
<path d="M353.186 341.801C280.582 418.364 169.059 395.714 152.575 392.075C131.807 387.489 82.3966 376.58 45.5245 333.505C-10.9252 267.557 -5.22478 164.49 38.3711 95.0048C51.0563 74.7859 93.747 14.7011 173.915 1.63759C178.601 0.874229 262.315 -11.3913 329.671 45.0841C338.753 52.699 353.411 66.4884 366.259 86.5676C406.115 148.856 424.976 266.096 353.186 341.801Z" fill="url(#paint0_linear_314_3418)"/>
<path d="M195.867 20.5703C196.688 16.5576 200.87 14.1984 204.731 15.5739C230.338 24.6981 318.652 54.8363 394.809 64.8709C398.283 65.3289 400.703 68.5408 400.164 72.0004L355.859 356.051C355.252 359.946 351.614 362.62 347.712 362.036C315.798 357.261 184.469 337.129 139.189 322.531C136.433 321.643 134.795 318.821 135.376 315.987L195.867 20.5703Z" fill="#91B3FA"/>
<path opacity="0.6" d="M197.487 28.2629C198.278 24.4015 202.302 22.1301 206.017 23.4552C230.659 32.2353 315.648 61.2385 388.937 70.8957C392.28 71.3364 394.609 74.4273 394.09 77.7558L351.454 351.11C350.869 354.857 347.368 357.431 343.615 356.869C312.903 352.275 186.518 332.9 142.944 318.851C140.292 317.996 138.715 315.281 139.273 312.553L197.487 28.2629Z" fill="white"/>
<path opacity="0.78" d="M221.492 50.8078C219.219 50.2461 216.951 51.7426 216.574 54.0514L207.046 112.573C206.729 114.519 207.964 116.38 209.882 116.841C220.56 119.406 253.857 127.27 272.963 130.266C275.124 130.605 277.181 129.233 277.703 127.11C280.355 116.318 287.816 84.8492 288.126 71.103C288.177 68.8821 286.669 66.9305 284.511 66.3961L221.492 50.8078Z" fill="white"/>
<path d="M248.736 95.1977C255.773 95.1977 261.477 89.4973 261.477 82.4655C261.477 75.4337 255.773 69.7333 248.736 69.7333C241.699 69.7333 235.995 75.4337 235.995 82.4655C235.995 89.4973 241.699 95.1977 248.736 95.1977Z" fill="url(#paint1_linear_314_3418)"/>
<path d="M222.085 115.055L261.805 123.42C264.24 123.933 266.266 121.554 265.386 119.226C263.125 113.24 257.701 104.004 245.402 101.779C233.549 99.634 225.088 105.163 220.519 109.445C218.579 111.263 219.483 114.506 222.085 115.055Z" fill="url(#paint2_linear_314_3418)"/>
<g opacity="0.6">
<path opacity="0.6" d="M374.345 92.5477C375.589 92.8098 376.765 92.1444 376.96 91.0685C377.154 89.9926 376.3 88.8792 375.06 88.5955L305.703 72.6932C304.464 72.4094 303.586 73.2074 303.752 74.4662L303.886 75.4816C304.051 76.7404 305.205 77.9863 306.45 78.2484L374.345 92.5477Z" fill="white"/>
</g>
<g opacity="0.6">
<path opacity="0.6" d="M303.426 83.4968C302.186 83.213 301.309 84.011 301.474 85.2698L301.608 86.2852C301.774 87.544 302.927 88.7899 304.173 89.052L372.068 103.351C373.312 103.613 374.488 102.948 374.682 101.872C374.877 100.796 374.022 99.6828 372.783 99.3991L303.426 83.4968Z" fill="white"/>
</g>
<g opacity="0.6">
<path opacity="0.6" d="M301.114 94.4589C299.875 94.1752 298.997 94.9731 299.163 96.2319L299.297 97.2473C299.462 98.5062 300.615 99.752 301.861 100.014L369.756 114.313C371 114.576 372.176 113.91 372.371 112.834C372.565 111.758 371.71 110.645 370.471 110.361L301.114 94.4589Z" fill="white"/>
</g>
<g opacity="0.6">
<path opacity="0.6" d="M365.369 168.598C366.612 168.86 367.757 168.188 367.913 167.103C368.068 166.019 367.177 164.909 365.936 164.637L203.109 129.003C201.867 128.731 201.318 129.438 201.887 130.574L202.867 132.527C203.437 133.662 204.921 134.806 206.165 135.068L365.369 168.598Z" fill="white"/>
</g>
<g opacity="0.6">
<path opacity="0.6" d="M200.831 139.808C199.588 139.536 199.039 140.243 199.608 141.379L200.589 143.332C201.158 144.467 202.642 145.611 203.886 145.873L363.09 179.403C364.334 179.665 365.478 178.993 365.634 177.908C365.788 176.824 364.899 175.715 363.658 175.442L200.831 139.808Z" fill="white"/>
</g>
<path opacity="0.6" d="M196.289 157.692C200.274 158.218 207.647 159.625 211.701 160.42C213.419 160.757 214.678 162.234 214.728 163.982C214.826 167.378 214.719 173.217 213.33 179.134C212.913 180.905 211.153 182.02 209.376 181.626L194.493 178.323C192.663 177.917 191.435 176.194 191.649 174.333L193.295 160.034C193.464 158.555 194.812 157.498 196.289 157.692Z" fill="white"/>
<g opacity="0.6">
<path opacity="0.6" d="M222.661 169.261C221.429 168.947 220.361 169.727 220.286 170.996L220.14 173.476C220.065 174.745 221.022 175.997 222.266 176.259L258.495 183.89C259.739 184.152 260.959 183.347 261.205 182.101L261.326 181.487C261.573 180.242 260.767 178.965 259.535 178.651L222.661 169.261Z" fill="white"/>
</g>
<path opacity="0.6" d="M277.558 174.807C281.544 175.333 288.916 176.74 292.971 177.535C294.689 177.872 295.947 179.349 295.997 181.097C296.095 184.493 295.989 190.332 294.599 196.249C294.183 198.021 292.424 199.135 290.646 198.741L275.763 195.438C273.932 195.032 272.706 193.309 272.919 191.449L274.565 177.149C274.733 175.672 276.081 174.613 277.558 174.807Z" fill="white"/>
<g opacity="0.6">
<path opacity="0.6" d="M303.931 186.376C302.698 186.062 301.63 186.842 301.555 188.111L301.41 190.591C301.335 191.86 302.292 193.112 303.536 193.374L339.765 201.005C341.009 201.267 342.228 200.462 342.475 199.216L342.596 198.602C342.842 197.356 342.036 196.08 340.804 195.766L303.931 186.376Z" fill="white"/>
</g>
<path d="M205.603 217.764C205.59 217.761 205.578 217.758 205.565 217.755L191.828 214.725C189.865 214.292 188.527 212.598 188.715 210.784L189.939 198.988C190.011 198.296 190.362 197.671 190.929 197.227C191.563 196.731 192.41 196.514 193.254 196.632C194.43 196.798 196.093 197.002 197.853 197.22C201.558 197.676 206.171 198.245 208.728 198.751C210.58 199.131 211.917 200.555 212.014 202.256C212.172 205.056 211.051 210.059 209.788 215.372C209.378 217.099 207.505 218.165 205.603 217.764ZM193.104 197.701C192.549 197.623 192 197.76 191.595 198.077C191.26 198.337 191.054 198.7 191.012 199.099L189.789 210.895C189.657 212.163 190.633 213.355 192.06 213.671L205.797 216.701C205.806 216.703 205.816 216.706 205.825 216.707C207.158 216.988 208.461 216.282 208.736 215.123C209.98 209.89 211.084 204.973 210.934 202.317C210.867 201.127 209.861 200.096 208.517 199.809C205.999 199.312 201.409 198.746 197.72 198.291C195.956 198.074 194.29 197.868 193.104 197.701Z" fill="white"/>
<path opacity="0.6" d="M194.333 199.205C197.266 199.616 203.686 200.302 206.675 200.893C207.942 201.143 208.889 202.138 208.954 203.295C209.081 205.542 208.111 209.763 207.187 213.652C206.91 214.817 205.636 215.524 204.324 215.236L193.346 212.814C191.995 212.516 191.067 211.358 191.194 210.131L192.173 200.704C192.275 199.73 193.246 199.052 194.333 199.205Z" fill="white"/>
<g opacity="0.6">
<path opacity="0.6" d="M219.309 212.647C219.389 214.241 220.541 215.578 222.106 215.893L349.697 241.631C351.14 241.922 352.544 240.977 352.816 239.531C353.081 238.126 352.176 236.765 350.777 236.464L223.533 209.059C221.288 208.575 219.193 210.354 219.309 212.647Z" fill="white"/>
</g>
<path d="M194.538 201.137C195.686 200.753 196.926 201.388 197.285 202.543L198.974 207.979C199.143 208.523 199.861 208.641 200.196 208.182L210.09 194.619C210.583 193.942 211.643 194.43 211.459 195.245C210.424 199.814 207.37 208.268 198.504 214.017C198.504 214.017 194.797 211.598 193.05 203.777C192.8 202.648 193.439 201.505 194.538 201.137Z" fill="url(#paint3_linear_314_3418)"/>
<path d="M199.385 247.245C199.372 247.243 199.36 247.24 199.348 247.237L185.61 244.206C183.647 243.773 182.31 242.079 182.497 240.266L183.721 228.47C183.793 227.777 184.144 227.152 184.711 226.708C185.345 226.213 186.193 225.995 187.036 226.114C188.212 226.279 189.875 226.484 191.635 226.701C195.341 227.158 199.953 227.727 202.51 228.232C202.529 228.237 202.547 228.239 202.566 228.244C204.376 228.625 205.701 230.054 205.797 231.738C205.956 234.538 204.835 239.54 203.572 244.853C203.16 246.579 201.288 247.646 199.385 247.245ZM186.886 227.182C186.331 227.104 185.782 227.241 185.377 227.558C185.042 227.819 184.836 228.182 184.794 228.581L183.571 240.377C183.44 241.644 184.415 242.837 185.842 243.152L199.58 246.183C199.588 246.184 199.598 246.187 199.607 246.188C200.94 246.469 202.243 245.763 202.518 244.604C203.762 239.37 204.866 234.454 204.716 231.798C204.649 230.609 203.631 229.549 202.299 229.291C199.781 228.794 195.191 228.228 191.502 227.773C189.738 227.554 188.072 227.349 186.886 227.182Z" fill="white"/>
<path opacity="0.6" d="M188.117 228.686C191.05 229.098 197.469 229.783 200.459 230.374C201.726 230.624 202.673 231.62 202.738 232.776C202.864 235.023 201.894 239.245 200.97 243.133C200.694 244.299 199.42 245.006 198.108 244.718L187.129 242.295C185.779 241.997 184.851 240.839 184.977 239.612L185.956 230.185C186.057 229.21 187.028 228.533 188.117 228.686Z" fill="white"/>
<g opacity="0.6">
<path opacity="0.6" d="M213.091 242.128C213.171 243.723 214.323 245.059 215.888 245.375L343.479 271.113C344.922 271.404 346.326 270.459 346.598 269.013C346.863 267.607 345.958 266.246 344.559 265.945L217.315 238.54C215.07 238.056 212.975 239.835 213.091 242.128Z" fill="white"/>
</g>
<path d="M188.32 230.619C189.469 230.234 190.708 230.869 191.067 232.025L192.756 237.46C192.925 238.005 193.643 238.123 193.979 237.663L203.872 224.1C204.365 223.423 205.426 223.911 205.241 224.727C204.206 229.295 201.152 237.75 192.286 243.498C192.286 243.498 188.579 241.08 186.832 233.259C186.582 232.128 187.222 230.986 188.32 230.619Z" fill="url(#paint4_linear_314_3418)"/>
<path d="M193.167 276.726C193.154 276.723 193.143 276.72 193.13 276.717L179.392 273.687C177.429 273.254 176.092 271.561 176.279 269.747L177.503 257.951C177.575 257.259 177.926 256.633 178.493 256.19C179.127 255.694 179.975 255.477 180.818 255.595C181.994 255.761 183.657 255.965 185.417 256.183C189.123 256.639 193.735 257.208 196.292 257.714C196.311 257.718 196.329 257.721 196.348 257.725C198.158 258.107 199.483 259.536 199.58 261.219C199.738 264.019 198.617 269.021 197.354 274.335C196.942 276.06 195.07 277.127 193.167 276.726ZM180.668 256.664C180.113 256.586 179.564 256.723 179.159 257.04C178.824 257.3 178.618 257.663 178.576 258.062L177.353 269.858C177.222 271.126 178.197 272.318 179.624 272.632L193.362 275.664C193.37 275.666 193.38 275.668 193.389 275.67C194.722 275.951 196.025 275.243 196.301 274.086C197.544 268.853 198.648 263.936 198.499 261.28C198.431 260.09 197.413 259.027 196.081 258.772C193.563 258.275 188.973 257.709 185.284 257.254C183.52 257.035 181.854 256.829 180.668 256.664Z" fill="white"/>
<path opacity="0.6" d="M181.899 258.167C184.832 258.579 191.252 259.265 194.241 259.855C195.508 260.106 196.455 261.101 196.52 262.258C196.646 264.505 195.676 268.726 194.753 272.615C194.476 273.78 193.202 274.487 191.89 274.199L180.911 271.777C179.561 271.479 178.633 270.321 178.76 269.093L179.738 259.667C179.839 258.692 180.811 258.015 181.899 258.167Z" fill="white"/>
<g opacity="0.6">
<path opacity="0.6" d="M206.873 271.61C206.953 273.204 208.105 274.541 209.67 274.856L337.261 300.594C338.704 300.885 340.108 299.94 340.38 298.494C340.645 297.088 339.74 295.727 338.341 295.426L211.097 268.022C208.852 267.538 206.759 269.317 206.873 271.61Z" fill="white"/>
</g>
<path d="M182.102 260.1C183.251 259.716 184.49 260.351 184.849 261.506L186.538 266.942C186.707 267.486 187.425 267.604 187.761 267.145L197.654 253.581C198.147 252.904 199.208 253.393 199.023 254.208C197.988 258.777 194.934 267.231 186.069 272.979C186.069 272.979 182.361 270.561 180.615 262.74C180.364 261.61 181.004 260.467 182.102 260.1Z" fill="url(#paint5_linear_314_3418)"/>
<path d="M186.949 306.207C186.936 306.204 186.925 306.201 186.912 306.2L173.174 303.169C171.211 302.737 169.874 301.044 170.061 299.23L171.285 287.434C171.357 286.741 171.709 286.116 172.275 285.673C172.909 285.177 173.757 284.96 174.6 285.078C175.776 285.244 177.439 285.448 179.199 285.666C182.905 286.122 187.517 286.691 190.074 287.197C190.093 287.201 190.111 287.204 190.13 287.208C191.941 287.59 193.265 289.019 193.362 290.702C193.52 293.502 192.399 298.504 191.136 303.817C190.725 305.542 188.852 306.609 186.949 306.207ZM174.45 286.145C173.895 286.067 173.346 286.204 172.941 286.521C172.607 286.782 172.4 287.145 172.359 287.544L171.135 299.34C171.004 300.607 171.98 301.8 173.406 302.114L187.144 305.145C187.152 305.147 187.163 305.15 187.171 305.151C188.504 305.432 189.807 304.726 190.084 303.567C191.328 298.334 192.432 293.417 192.282 290.761C192.214 289.572 191.198 288.504 189.865 288.254C187.347 287.757 182.756 287.191 179.068 286.736C177.302 286.517 175.636 286.311 174.45 286.145Z" fill="white"/>
<path opacity="0.6" d="M175.681 287.649C178.614 288.061 185.034 288.746 188.023 289.337C189.29 289.587 190.237 290.583 190.302 291.739C190.429 293.986 189.459 298.208 188.535 302.096C188.258 303.262 186.984 303.969 185.672 303.681L174.694 301.258C173.343 300.96 172.415 299.802 172.542 298.575L173.52 289.148C173.621 288.173 174.593 287.496 175.681 287.649Z" fill="white"/>
<g opacity="0.6">
<path opacity="0.6" d="M200.655 301.091C200.735 302.685 201.887 304.022 203.452 304.337L331.043 330.076C332.486 330.366 333.89 329.422 334.162 327.976C334.426 326.57 333.522 325.209 332.123 324.908L204.879 297.503C202.634 297.019 200.541 298.797 200.655 301.091Z" fill="white"/>
</g>
<path d="M175.884 289.582C177.033 289.197 178.272 289.832 178.631 290.987L180.32 296.423C180.489 296.968 181.207 297.086 181.543 296.626L191.436 283.063C191.929 282.386 192.99 282.874 192.805 283.69C191.77 288.258 188.716 296.713 179.851 302.461C179.851 302.461 176.143 300.043 174.397 292.222C174.146 291.091 174.786 289.949 175.884 289.582Z" fill="url(#paint6_linear_314_3418)"/>
<path d="M3.91757 58.8851C3.07871 54.8753 5.97867 51.0527 10.0692 50.7834C37.1964 49.0032 130.229 41.6418 204.117 20.6495C207.487 19.6917 210.983 21.6808 211.863 25.0698L284.007 303.364C284.996 307.179 282.718 311.077 278.906 312.088C247.717 320.362 119.176 353.964 71.8186 358.523C68.936 358.801 66.3113 356.861 65.7189 354.028L3.91757 58.8851Z" fill="#91B3FA"/>
<path opacity="0.6" d="M8.46066 65.3045C7.65207 61.446 10.4454 57.766 14.3816 57.5082C40.487 55.7942 130.017 48.7109 201.122 28.5093C204.365 27.5875 207.73 29.5016 208.575 32.7625L278.002 300.577C278.954 304.25 276.763 307.999 273.093 308.972C243.079 316.934 119.378 349.273 73.8034 353.659C71.0302 353.926 68.5036 352.059 67.9328 349.334L8.46066 65.3045Z" fill="white"/>
<path opacity="0.78" d="M36.2221 81.4041L50.7176 138.899C51.2004 140.812 53.0727 142.029 55.0171 141.692C65.8357 139.812 99.5225 133.825 118.25 128.999C120.368 128.453 121.71 126.377 121.346 124.223C119.494 113.263 113.845 81.4214 108.671 68.6805C107.835 66.6223 105.676 65.4283 103.483 65.7942L39.4478 76.4768C37.1374 76.8628 35.6499 79.1356 36.2221 81.4041Z" fill="white"/>
<path d="M89.7401 95.5959C90.2186 88.5803 84.9152 82.5054 77.8945 82.0272C70.8738 81.5491 64.7945 86.8487 64.316 93.8644C63.8375 100.88 69.141 106.955 76.1617 107.433C83.1823 107.911 89.2616 102.612 89.7401 95.5959Z" fill="#91B3FA"/>
<path d="M65.5071 135.214L105.288 127.139C107.727 126.644 108.64 123.657 106.911 121.869C102.458 117.272 93.8105 110.945 81.6384 113.78C69.906 116.513 64.3381 124.944 61.8432 130.685C60.7824 133.122 62.9011 135.742 65.5071 135.214Z" fill="#91B3FA"/>
<g opacity="0.6">
<path opacity="0.6" d="M196.325 54.1696C197.57 53.9161 198.386 52.8388 198.138 51.7744C197.889 50.71 196.662 50.0273 195.413 50.2578L125.436 63.1672C124.186 63.3976 123.696 64.4778 124.349 65.5681L124.875 66.4467C125.528 67.537 127.081 68.2226 128.327 67.9691L196.325 54.1696Z" fill="white"/>
</g>
<g opacity="0.6">
<path opacity="0.6" d="M127.634 73.9895C126.385 74.2199 125.894 75.3002 126.547 76.3905L127.073 77.269C127.726 78.3593 129.279 79.0449 130.525 78.7914L198.524 64.9905C199.77 64.737 200.586 63.6597 200.338 62.5953C200.088 61.5309 198.862 60.8482 197.612 61.0787L127.634 73.9895Z" fill="white"/>
</g>
<g opacity="0.6">
<path opacity="0.6" d="M129.865 84.9674C128.616 85.1979 128.126 86.2781 128.779 87.3684L129.305 88.247C129.958 89.3373 131.51 90.0229 132.757 89.7694L200.756 75.9684C202.001 75.7149 202.817 74.6376 202.569 73.5732C202.32 72.5088 201.093 71.8261 199.843 72.0566L129.865 84.9674Z" fill="white"/>
</g>
<g opacity="0.6">
<path opacity="0.6" d="M218.288 127.535C219.533 127.282 220.317 126.212 220.029 125.155C219.741 124.097 218.484 123.432 217.236 123.675L53.629 155.542C52.3808 155.785 52.1574 156.652 53.1318 157.468L54.8066 158.872C55.7809 159.688 57.597 160.149 58.8423 159.896L218.288 127.535Z" fill="white"/>
</g>
<g opacity="0.6">
<path opacity="0.6" d="M55.8285 166.363C54.5803 166.606 54.3569 167.473 55.3313 168.289L57.0061 169.693C57.9804 170.509 59.7965 170.97 61.0418 170.717L220.488 138.355C221.733 138.101 222.517 137.031 222.229 135.974C221.94 134.917 220.684 134.252 219.435 134.495L55.8285 166.363Z" fill="white"/>
</g>
<path opacity="0.6" d="M58.7631 184.578C62.6287 183.481 69.9564 181.849 73.9922 180.97C75.703 180.599 77.4427 181.454 78.185 183.039C79.6249 186.117 81.8445 191.519 82.9198 197.502C83.2412 199.294 82.0694 201.013 80.2807 201.358L65.3081 204.23C63.4676 204.583 61.6558 203.489 61.1139 201.696L56.9456 187.918C56.5132 186.491 57.3304 184.986 58.7631 184.578Z" fill="white"/>
<g opacity="0.6">
<path opacity="0.6" d="M87.5637 184.738C86.3083 184.938 85.6381 186.079 86.0734 187.273L86.9238 189.606C87.3591 190.8 88.7341 191.57 89.9808 191.317L126.265 183.953C127.51 183.7 128.31 182.477 128.042 181.235L127.909 180.625C127.641 179.383 126.395 178.532 125.139 178.732L87.5637 184.738Z" fill="white"/>
</g>
<path opacity="0.6" d="M140.155 168.06C144.021 166.962 151.348 165.33 155.385 164.452C157.096 164.08 158.836 164.936 159.578 166.52C161.018 169.598 163.238 175 164.313 180.983C164.634 182.775 163.463 184.495 161.674 184.839L146.701 187.711C144.861 188.064 143.049 186.971 142.507 185.178L138.339 171.4C137.905 169.972 138.722 168.466 140.155 168.06Z" fill="white"/>
<g opacity="0.6">
<path opacity="0.6" d="M168.956 168.219C167.7 168.42 167.03 169.56 167.465 170.754L168.316 173.088C168.751 174.282 170.126 175.051 171.373 174.799L207.657 167.434C208.902 167.181 209.702 165.958 209.434 164.717L209.301 164.106C209.033 162.864 207.787 162.012 206.531 162.213L168.956 168.219Z" fill="white"/>
</g>
<path d="M91.1685 236.024C91.1555 236.027 91.144 236.03 91.131 236.031L77.3188 238.697C75.3456 239.078 73.4445 238.054 72.8968 236.315L69.3353 225.003C69.1263 224.339 69.2012 223.626 69.5443 222.994C69.9291 222.287 70.6209 221.752 71.4425 221.525C72.5883 221.209 74.1954 220.738 75.8962 220.24C79.4793 219.19 83.9388 217.882 86.4856 217.332C88.3363 216.947 90.1308 217.724 90.8947 219.246C92.1515 221.754 93.11 226.789 94.0613 232.167C94.3711 233.916 93.0754 235.637 91.1685 236.024ZM71.7293 222.566C71.1888 222.714 70.7391 223.059 70.4926 223.509C70.2894 223.881 70.2447 224.297 70.3644 224.679L73.9259 235.991C74.3078 237.207 75.6786 237.914 77.1127 237.637L90.9249 234.971C90.9336 234.97 90.9437 234.967 90.9523 234.966C92.2884 234.695 93.2037 233.53 92.9961 232.356C92.0593 227.058 91.1195 222.108 89.9275 219.73C89.3928 218.664 88.0596 218.118 86.7134 218.388C84.204 218.929 79.7662 220.231 76.2003 221.276C74.4952 221.775 72.8838 222.248 71.7293 222.566Z" fill="white"/>
<path opacity="0.6" d="M73.4546 223.458C76.3099 222.673 82.4759 220.756 85.4537 220.113C86.7148 219.841 87.9803 220.38 88.4992 221.415C89.5081 223.428 90.2937 227.687 90.9898 231.623C91.1988 232.802 90.311 233.958 88.9921 234.211L77.9544 236.341C76.5967 236.603 75.2851 235.908 74.9147 234.732L72.068 225.692C71.774 224.757 72.3966 223.749 73.4546 223.458Z" fill="white"/>
<g opacity="0.6">
<path opacity="0.6" d="M101.718 225.89C102.424 227.322 104.012 228.091 105.575 227.761L232.909 200.786C234.349 200.481 235.263 199.058 234.937 197.622C234.621 196.226 233.251 195.336 231.847 195.614L104.169 220.923C101.916 221.369 100.701 223.832 101.718 225.89Z" fill="white"/>
</g>
<path d="M97.1702 265.55C97.1572 265.553 97.1457 265.556 97.1327 265.558L83.319 268.224C81.3459 268.604 79.4448 267.58 78.897 265.841L75.3355 254.528C75.1265 253.864 75.2015 253.151 75.546 252.519C75.9308 251.811 76.6226 251.277 77.4442 251.049C78.59 250.734 80.1971 250.263 81.8979 249.765C85.481 248.715 89.9405 247.407 92.4873 246.857C92.5061 246.852 92.5248 246.848 92.5421 246.845C94.3553 246.478 96.1397 247.264 96.8949 248.772C98.1518 251.28 99.1102 256.315 100.062 261.693C100.371 263.442 99.0771 265.163 97.1702 265.55ZM77.731 252.092C77.1905 252.241 76.7408 252.585 76.4943 253.036C76.2911 253.407 76.2464 253.823 76.3661 254.205L79.9276 265.517C80.3095 266.733 81.6803 267.44 83.1144 267.163L96.9266 264.498C96.9353 264.496 96.9454 264.493 96.954 264.492C98.2901 264.221 99.2054 263.056 98.9978 261.882C98.061 256.585 97.1212 251.634 95.9292 249.256C95.3945 248.192 94.0397 247.623 92.7151 247.914C90.2072 248.456 85.7679 249.758 82.202 250.802C80.4969 251.302 78.8841 251.774 77.731 252.092Z" fill="white"/>
<path opacity="0.6" d="M79.4563 252.984C82.3115 252.199 88.4776 250.282 91.4553 249.639C92.7165 249.367 93.982 249.906 94.5009 250.941C95.5098 252.954 96.2953 257.213 96.9915 261.149C97.2005 262.328 96.3126 263.484 94.9938 263.737L83.9561 265.867C82.5984 266.129 81.2868 265.435 80.9163 264.258L78.0697 255.218C77.7742 254.283 78.3983 253.275 79.4563 252.984Z" fill="white"/>
<g opacity="0.6">
<path opacity="0.6" d="M107.719 255.416C108.426 256.848 110.014 257.617 111.576 257.287L238.911 230.312C240.35 230.007 241.264 228.584 240.939 227.148C240.623 225.752 239.252 224.862 237.848 225.14L110.171 250.449C107.918 250.895 106.703 253.358 107.719 255.416Z" fill="white"/>
</g>
<path d="M103.172 295.075C103.159 295.078 103.147 295.081 103.134 295.082L89.3221 297.748C87.349 298.13 85.4479 297.106 84.9002 295.366L81.3386 284.054C81.1296 283.39 81.2046 282.675 81.5491 282.043C81.9339 281.336 82.6257 280.802 83.4473 280.575C84.5932 280.26 86.2002 279.789 87.901 279.291C91.4841 278.241 95.9436 276.933 98.4904 276.383C98.5092 276.378 98.5279 276.374 98.5452 276.371C100.358 276.004 102.143 276.79 102.898 278.298C104.155 280.806 105.113 285.841 106.065 291.219C106.373 292.968 105.077 294.689 103.172 295.075ZM83.7327 281.617C83.1922 281.765 82.7425 282.109 82.496 282.56C82.2928 282.932 82.2481 283.348 82.3677 283.73L85.9293 295.042C86.3112 296.257 87.6819 296.965 89.116 296.688L102.93 294.022C102.938 294.021 102.948 294.018 102.957 294.016C104.293 293.746 105.208 292.58 105.001 291.406C104.064 286.109 103.124 281.159 101.932 278.781C101.398 277.716 100.041 277.143 98.7182 277.439C96.2103 277.98 91.771 279.282 88.2051 280.326C86.4971 280.828 84.8857 281.3 83.7327 281.617Z" fill="white"/>
<path opacity="0.6" d="M85.458 282.51C88.3132 281.725 94.4792 279.808 97.457 279.166C98.7182 278.893 99.9837 279.432 100.503 280.468C101.511 282.48 102.297 286.739 102.993 290.675C103.202 291.855 102.314 293.01 100.995 293.263L89.9578 295.393C88.6001 295.656 87.2885 294.96 86.918 293.785L84.0714 284.744C83.7759 283.808 84.3986 282.801 85.458 282.51Z" fill="white"/>
<g opacity="0.6">
<path opacity="0.6" d="M113.721 284.942C114.427 286.374 116.016 287.145 117.578 286.813L244.912 259.838C246.352 259.533 247.266 258.11 246.94 256.674C246.625 255.278 245.254 254.388 243.85 254.666L116.173 279.975C113.92 280.421 112.703 282.884 113.721 284.942Z" fill="white"/>
</g>
<path d="M109.174 324.601C109.161 324.604 109.149 324.607 109.136 324.608L95.3238 327.274C93.3507 327.656 91.4495 326.632 90.9018 324.892L87.3403 313.578C87.1313 312.914 87.2063 312.2 87.5507 311.568C87.9356 310.861 88.6274 310.326 89.449 310.1C90.5948 309.785 92.2019 309.314 93.9027 308.815C97.4858 307.765 101.945 306.458 104.492 305.907C104.511 305.903 104.53 305.899 104.547 305.896C106.36 305.529 108.144 306.315 108.9 307.823C110.157 310.331 111.115 315.366 112.066 320.744C112.375 322.494 111.079 324.215 109.174 324.601ZM89.7329 311.143C89.1924 311.291 88.7427 311.635 88.4963 312.086C88.293 312.458 88.2483 312.874 88.368 313.256L91.9295 324.568C92.3115 325.783 93.6822 326.491 95.1163 326.214L108.93 323.548C108.939 323.547 108.949 323.544 108.957 323.542C110.293 323.272 111.209 322.106 111.001 320.933C110.064 315.635 109.125 310.685 107.933 308.307C107.398 307.241 106.042 306.665 104.718 306.965C102.211 307.506 97.7712 308.808 94.2054 309.852C92.4988 310.354 90.8874 310.826 89.7329 311.143Z" fill="white"/>
<path opacity="0.6" d="M91.4597 312.036C94.315 311.251 100.481 309.334 103.459 308.692C104.72 308.419 105.985 308.958 106.504 309.994C107.513 312.006 108.299 316.265 108.995 320.201C109.204 321.381 108.316 322.536 106.997 322.789L95.9595 324.919C94.6018 325.181 93.2902 324.486 92.9198 323.311L90.0731 314.27C89.7777 313.334 90.4003 312.327 91.4597 312.036Z" fill="white"/>
<g opacity="0.6">
<path opacity="0.6" d="M119.721 314.469C120.427 315.9 122.016 316.669 123.578 316.34L250.913 289.364C252.352 289.059 253.266 287.636 252.941 286.2C252.625 284.804 251.254 283.914 249.85 284.192L122.173 309.501C119.922 309.948 118.705 312.411 119.721 314.469Z" fill="white"/>
</g>
<path d="M92.4138 313.73C93.3147 312.922 94.7056 313.012 95.494 313.931L99.204 318.251C99.5758 318.683 100.281 318.507 100.406 317.953L104.1 301.579C104.285 300.763 105.451 300.789 105.606 301.613C106.47 306.216 107.025 315.187 101.171 323.979C101.171 323.979 96.8085 323.228 92.0982 316.743C91.4179 315.805 91.5519 314.502 92.4138 313.73Z" fill="url(#paint7_linear_314_3418)"/>
<path d="M86.5029 299.659C87.767 312.917 90.7361 330.447 94.3034 345.552H96.5432C91.9295 327.323 87.6848 302.36 88.9344 273.584C90.1956 244.565 97.3071 209.331 84.0454 192.501C73.0077 178.493 26.1703 176.399 10.7697 176.091C8.84548 176.052 7.74286 178.267 8.94061 179.773C14.8457 187.198 27.2095 204.391 28.2861 219.406C29.7059 239.196 45.0978 254.728 60.3903 261.193C75.6857 267.659 83.9215 272.59 86.5029 299.659Z" fill="#91B3FA"/>
<path opacity="0.5" d="M30.0273 188.323C39.5012 190.725 48.4619 195.045 56.3013 200.96C60.2289 203.906 63.7876 207.368 66.8576 211.232C69.8945 215.118 72.4442 219.423 74.2141 224.047L74.8699 225.782C75.0847 226.363 75.2447 226.96 75.4335 227.55C75.6079 228.14 75.8054 228.736 75.961 229.323L76.4295 231.081C77.0593 233.425 77.6762 235.772 78.27 238.124C79.4649 242.828 80.5848 247.552 81.6298 252.291C83.7269 261.77 85.53 271.312 86.7465 280.96C86.7753 281.192 86.611 281.402 86.3804 281.433C86.157 281.461 85.9523 281.309 85.912 281.09L85.9091 281.077C85.0443 276.328 84.0873 271.578 83.0409 266.857C82.0161 262.13 80.9336 257.414 79.8007 252.712L78.0784 245.664L76.2767 238.636C75.6771 236.292 75.0544 233.956 74.4203 231.621L73.9489 229.87C73.7918 229.285 73.6045 228.732 73.4344 228.162C73.2557 227.597 73.1058 227.021 72.9025 226.465L72.2828 224.797C70.6195 220.35 68.1678 216.23 65.3096 212.435C63.838 210.568 62.3001 208.744 60.5921 207.077L59.9637 206.441L59.3108 205.828C58.8741 205.422 58.4474 205.005 58.0006 204.607C57.0984 203.825 56.2047 203.03 55.2592 202.295C51.5334 199.288 47.4414 196.737 43.1881 194.499C38.9347 192.267 34.4594 190.38 29.8673 188.984L29.8457 188.977C29.667 188.922 29.5646 188.734 29.6194 188.553C29.6713 188.379 29.8529 188.278 30.0273 188.323Z" fill="white"/>
<path d="M86.9439 317.617C94.9548 329.368 93.9257 335.945 94.1722 341.514C94.2154 342.504 94.2702 343.901 94.3855 345.553H96.5735C96.1266 343.286 95.8096 341 95.6971 338.758C94.9188 323.375 91.4452 297.122 78.1706 281.418C64.8959 265.713 50.3601 264.28 32.0437 278.558C16.78 290.454 7.25856 296.459 1.67485 297.575C0.292614 297.852 -0.413637 299.412 0.259464 300.65C3.84117 307.241 13.9665 322.38 30.967 321.314C52.6518 319.953 78.9345 305.866 86.9439 317.617Z" fill="#91B3FA"/>
<path opacity="0.5" d="M38.2472 297.472C39.4464 296.331 40.7176 295.303 42.0292 294.31C43.3408 293.321 44.6914 292.379 46.0981 291.519C48.9015 289.789 51.8937 288.313 55.079 287.296C56.6717 286.793 58.3134 286.406 59.9925 286.193C61.6702 285.99 63.3869 285.962 65.0876 286.173C65.5114 286.242 65.9395 286.282 66.3589 286.376C66.7754 286.474 67.2064 286.554 67.61 286.67L69.9997 287.41L72.339 288.319L74.6062 289.408C77.5782 290.973 80.2663 293.088 82.5032 295.578C84.7575 298.062 86.5217 300.924 87.9731 303.89L88.5179 305.003C88.7053 305.372 88.8408 305.762 89.0036 306.141C89.3121 306.906 89.6436 307.66 89.9319 308.431L90.7361 310.763C91.0215 311.535 91.2031 312.337 91.4337 313.123C92.3432 316.276 92.9688 319.49 93.5092 322.707C93.5395 322.887 93.4184 323.057 93.2383 323.087C93.0668 323.116 92.9039 323.007 92.8635 322.841L92.8606 322.831C92.0967 319.678 91.3617 316.521 90.3124 313.466C89.8353 311.924 89.2314 310.43 88.6707 308.924C88.368 308.179 88.0221 307.454 87.7021 306.72C87.532 306.357 87.3894 305.981 87.1977 305.63L86.6384 304.568C85.1596 301.735 83.3637 299.079 81.219 296.757C79.0729 294.436 76.526 292.519 73.7371 291.052L71.5981 290.04L69.3828 289.193L67.1069 288.5C66.7293 288.394 66.3589 288.322 65.9841 288.231C65.6108 288.143 65.226 288.107 64.8469 288.041C63.3191 287.841 61.7567 287.852 60.2044 288.029C58.6507 288.195 57.1041 288.522 55.5849 288.965C52.5423 289.851 49.6077 291.172 46.7885 292.71C45.3847 293.491 43.9938 294.306 42.6432 295.189C41.297 296.073 39.9667 297.007 38.6998 297.987L38.6911 297.993C38.5412 298.108 38.3265 298.082 38.2097 297.933C38.1045 297.79 38.1218 297.591 38.2472 297.472Z" fill="white"/>
<path d="M87.3965 87.4072C87.3965 75.3649 97.1659 65.604 109.215 65.604H294.766C305.003 65.604 313.445 73.6207 313.965 83.8367L327.662 352.658C328.07 360.653 321.771 367.397 313.762 367.542L101.096 371.405C93.5712 371.542 87.3965 365.482 87.3965 357.961V87.4072Z" fill="url(#paint8_linear_314_3418)"/>
<path d="M102.598 69.7406C102.575 65.8878 105.967 62.9063 109.786 63.4234C135.125 66.8571 222.257 77.4764 294.298 71.9514C297.583 71.6994 300.435 74.1867 300.61 77.4749L314.971 347.495C315.168 351.198 312.339 354.363 308.635 354.582C278.335 356.374 153.555 363.3 109.048 358.642C106.34 358.359 104.283 356.08 104.267 353.358L102.598 69.7406Z" fill="#91B3FA"/>
<path opacity="0.6" d="M105.582 76.5071C105.56 72.7997 108.823 69.9292 112.5 70.4276C136.885 73.7316 220.737 83.952 290.065 78.6344C293.227 78.3924 295.97 80.7862 296.139 83.9505L309.96 343.803C310.148 347.366 307.426 350.412 303.861 350.624C274.703 352.348 154.622 359.014 111.79 354.532C109.182 354.26 107.205 352.066 107.189 349.446L105.582 76.5071Z" fill="white"/>
<path opacity="0.78" d="M128.156 96.5415L130.746 152.251C130.832 154.103 132.33 155.576 134.185 155.63C144.509 155.921 176.683 156.704 194.849 155.758C196.904 155.651 198.53 153.989 198.598 151.934C198.944 141.486 199.702 111.077 197.32 98.3664C196.935 96.3125 195.169 94.8089 193.079 94.7354L132.052 92.6023C129.851 92.5274 128.054 94.3437 128.156 96.5415Z" fill="white"/>
<path d="M163.272 128.435C169.891 128.435 175.257 123.074 175.257 116.459C175.257 109.845 169.891 104.483 163.272 104.483C156.654 104.483 151.288 109.845 151.288 116.459C151.288 123.074 156.654 128.435 163.272 128.435Z" fill="url(#paint9_linear_314_3418)"/>
<path d="M145.068 151.62H183.249C185.59 151.62 186.992 149.037 185.733 147.066C182.49 141.994 175.704 134.545 163.953 134.881C152.627 135.205 145.914 141.934 142.539 146.76C141.106 148.81 142.568 151.62 145.068 151.62Z" fill="url(#paint10_linear_314_3418)"/>
<g opacity="0.6">
<path opacity="0.6" d="M280.837 101.391C282.034 101.391 282.986 100.55 282.958 99.5215C282.927 98.4932 281.924 97.6348 280.729 97.6146L213.808 96.4235C212.614 96.4019 211.959 97.3064 212.357 98.4341L212.677 99.3429C213.075 100.471 214.378 101.392 215.573 101.392H280.837V101.391Z" fill="white"/>
</g>
<g opacity="0.6">
<path opacity="0.6" d="M213.807 106.808C212.612 106.787 211.958 107.691 212.356 108.819L212.676 109.728C213.073 110.855 214.376 111.777 215.571 111.777H280.836C282.032 111.777 282.985 110.936 282.956 109.908C282.926 108.879 281.923 108.021 280.728 108.001L213.807 106.808Z" fill="white"/>
</g>
<g opacity="0.6">
<path opacity="0.6" d="M213.807 117.345C212.612 117.324 211.958 118.228 212.356 119.356L212.676 120.265C213.073 121.392 214.376 122.314 215.571 122.314H280.836C282.032 122.314 282.985 121.473 282.956 120.445C282.926 119.416 281.923 118.558 280.728 118.538L213.807 117.345Z" fill="white"/>
</g>
<g opacity="0.6">
<path opacity="0.6" d="M287.336 173.126C288.533 173.126 289.455 172.285 289.387 171.257C289.32 170.229 288.286 169.38 287.09 169.372L130.312 168.137C129.116 168.127 128.747 168.885 129.492 169.82L130.773 171.427C131.519 172.362 133.105 173.126 134.302 173.126H287.336Z" fill="white"/>
</g>
<g opacity="0.6">
<path opacity="0.6" d="M130.312 178.522C129.116 178.512 128.747 179.269 129.492 180.204L130.773 181.811C131.519 182.746 133.105 183.511 134.302 183.511H287.338C288.534 183.511 289.457 182.67 289.389 181.642C289.321 180.613 288.288 179.765 287.091 179.756L130.312 178.522Z" fill="white"/>
</g>
<path d="M129.604 195.862C133.374 195.574 140.433 195.44 144.319 195.385C145.965 195.362 147.409 196.477 147.795 198.075C148.545 201.182 149.58 206.577 149.45 212.293C149.411 214.004 148.007 215.37 146.295 215.352L131.955 215.198C130.192 215.179 128.728 213.832 128.564 212.077L127.303 198.597C127.171 197.204 128.206 195.97 129.604 195.862Z" fill="url(#paint11_linear_314_3418)"/>
<g opacity="0.6">
<path opacity="0.6" d="M156.122 201.398C154.927 201.348 154.096 202.274 154.273 203.456L154.62 205.767C154.797 206.948 155.922 207.915 157.117 207.915H191.942C193.138 207.915 194.104 206.938 194.09 205.743L194.082 205.156C194.068 203.96 193.078 202.942 191.883 202.893L156.122 201.398Z" fill="white"/>
</g>
<path d="M207.723 195.862C211.492 195.574 218.552 195.44 222.438 195.385C224.084 195.362 225.528 196.477 225.914 198.075C226.664 201.182 227.699 206.577 227.569 212.293C227.53 214.004 226.126 215.37 224.414 215.352L210.074 215.198C208.311 215.179 206.847 213.832 206.683 212.077L205.421 198.597C205.292 197.204 206.326 195.97 207.723 195.862Z" fill="url(#paint12_linear_314_3418)"/>
<g opacity="0.6">
<path opacity="0.6" d="M234.241 201.398C233.046 201.348 232.214 202.274 232.391 203.456L232.739 205.767C232.916 206.948 234.04 207.915 235.235 207.915H270.061C271.257 207.915 272.223 206.938 272.208 205.743L272.201 205.156C272.187 203.96 271.196 202.942 270.002 202.893L234.241 201.398Z" fill="white"/>
</g>
<path d="M149.836 249.346C149.825 249.346 149.812 249.346 149.8 249.346L136.569 249.219C134.678 249.2 133.118 247.901 132.938 246.196L131.775 235.101C131.707 234.45 131.909 233.806 132.344 233.288C132.832 232.709 133.57 232.344 134.369 232.29C135.484 232.213 137.055 232.079 138.717 231.938C142.216 231.64 146.572 231.27 149.022 231.24C150.801 231.231 152.308 232.282 152.728 233.829C153.417 236.376 153.356 241.196 153.225 246.332C153.182 248 151.665 249.346 149.836 249.346ZM134.439 233.304C133.913 233.34 133.434 233.573 133.123 233.942C132.866 234.247 132.747 234.621 132.785 234.994L133.949 246.089C134.074 247.28 135.204 248.189 136.578 248.203L149.809 248.33C149.818 248.33 149.826 248.33 149.835 248.33C151.118 248.33 152.179 247.427 152.207 246.307C152.337 241.248 152.398 236.51 151.745 234.094C151.452 233.013 150.325 232.259 149.034 232.255C146.619 232.285 142.284 232.654 138.802 232.951C137.135 233.092 135.561 233.226 134.439 233.304Z" fill="white"/>
<path opacity="0.6" d="M135.863 234.448C138.643 234.258 144.684 233.646 147.549 233.61C148.763 233.594 149.828 234.328 150.113 235.38C150.667 237.424 150.593 241.496 150.497 245.255C150.468 246.381 149.433 247.28 148.17 247.267L137.597 247.166C136.297 247.153 135.217 246.267 135.096 245.114L134.166 236.249C134.068 235.33 134.832 234.519 135.863 234.448Z" fill="white"/>
<g opacity="0.6">
<path opacity="0.6" d="M161.458 241.978C161.841 243.43 163.16 244.437 164.663 244.424L287.09 243.381C288.475 243.37 289.583 242.227 289.553 240.845C289.524 239.5 288.428 238.422 287.081 238.416L164.65 237.859C162.488 237.849 160.907 239.89 161.458 241.978Z" fill="white"/>
</g>
<path d="M136.426 236.188C137.409 235.612 138.673 235.956 139.228 236.95L141.838 241.625C142.099 242.094 142.783 242.063 143.003 241.575L149.476 227.173C149.799 226.455 150.87 226.698 150.858 227.486C150.792 231.89 149.623 240.264 142.579 247.273C142.579 247.273 138.698 245.765 135.572 238.906C135.119 237.914 135.487 236.739 136.426 236.188Z" fill="url(#paint13_linear_314_3418)"/>
<path d="M149.836 277.685C149.825 277.685 149.812 277.685 149.8 277.685L136.569 277.558C134.678 277.539 133.118 276.24 132.938 274.535L131.775 263.44C131.707 262.789 131.909 262.145 132.344 261.627C132.832 261.048 133.57 260.683 134.369 260.629C135.484 260.552 137.055 260.418 138.717 260.277C142.216 259.979 146.572 259.609 149.022 259.579C149.039 259.579 149.058 259.579 149.075 259.579C150.815 259.579 152.313 260.637 152.728 262.168C153.417 264.715 153.356 269.536 153.225 274.672C153.182 276.34 151.665 277.685 149.836 277.685ZM134.439 261.643C133.913 261.679 133.434 261.912 133.123 262.281C132.866 262.586 132.747 262.961 132.785 263.334L133.949 274.428C134.074 275.619 135.204 276.528 136.578 276.543L149.809 276.669C149.818 276.669 149.826 276.669 149.835 276.669C151.118 276.669 152.179 275.766 152.207 274.646C152.337 269.587 152.398 264.849 151.745 262.433C151.452 261.352 150.309 260.574 149.034 260.594C146.619 260.624 142.285 260.993 138.802 261.29C137.135 261.431 135.561 261.565 134.439 261.643Z" fill="white"/>
<path opacity="0.6" d="M135.863 262.788C138.643 262.598 144.684 261.985 147.549 261.949C148.763 261.935 149.828 262.667 150.113 263.72C150.667 265.763 150.593 269.835 150.497 273.594C150.468 274.721 149.433 275.619 148.17 275.606L137.597 275.506C136.297 275.493 135.217 274.607 135.096 273.453L134.166 264.588C134.068 263.669 134.832 262.857 135.863 262.788Z" fill="white"/>
<g opacity="0.6">
<path opacity="0.6" d="M161.458 270.318C161.841 271.769 163.16 272.776 164.663 272.763L287.09 271.721C288.475 271.709 289.583 270.567 289.553 269.184C289.524 267.839 288.428 266.761 287.081 266.756L164.65 266.198C162.488 266.187 160.907 268.229 161.458 270.318Z" fill="white"/>
</g>
<path d="M136.426 264.526C137.409 263.95 138.673 264.294 139.228 265.288L141.838 269.963C142.099 270.431 142.783 270.401 143.003 269.913L149.476 255.511C149.799 254.793 150.87 255.036 150.858 255.824C150.792 260.228 149.623 268.602 142.579 275.611C142.579 275.611 138.698 274.103 135.572 267.244C135.119 266.253 135.487 265.078 136.426 264.526Z" fill="url(#paint14_linear_314_3418)"/>
<path d="M149.836 306.023C149.825 306.023 149.812 306.023 149.8 306.023L136.569 305.896C134.678 305.879 133.118 304.578 132.938 302.873L131.775 291.778C131.707 291.127 131.909 290.483 132.344 289.965C132.832 289.386 133.57 289.021 134.369 288.966C135.484 288.89 137.055 288.756 138.717 288.615C142.216 288.317 146.572 287.947 149.022 287.917C149.039 287.917 149.058 287.917 149.075 287.917C150.815 287.917 152.313 288.975 152.728 290.506C153.417 293.053 153.356 297.873 153.225 303.009C153.182 304.679 151.665 306.023 149.836 306.023ZM134.439 289.98C133.913 290.016 133.434 290.25 133.123 290.619C132.866 290.924 132.747 291.298 132.785 291.673L133.949 302.767C134.074 303.959 135.204 304.867 136.578 304.88L149.809 305.007C149.818 305.007 149.826 305.007 149.835 305.007C151.118 305.007 152.179 304.104 152.207 302.984C152.337 297.925 152.398 293.187 151.745 290.771C151.452 289.69 150.309 288.907 149.034 288.932C146.619 288.962 142.285 289.331 138.802 289.628C137.135 289.77 135.561 289.904 134.439 289.98Z" fill="white"/>
<path opacity="0.6" d="M135.863 291.125C138.643 290.935 144.684 290.323 147.549 290.287C148.763 290.273 149.828 291.004 150.113 292.057C150.667 294.101 150.593 298.173 150.497 301.932C150.468 303.058 149.433 303.957 148.17 303.944L137.597 303.843C136.297 303.83 135.217 302.945 135.096 301.791L134.166 292.926C134.068 292.008 134.832 291.196 135.863 291.125Z" fill="white"/>
<g opacity="0.6">
<path opacity="0.6" d="M161.458 298.657C161.841 300.109 163.16 301.115 164.663 301.103L287.09 300.06C288.475 300.048 289.583 298.906 289.553 297.523C289.524 296.178 288.428 295.101 287.081 295.095L164.65 294.538C162.488 294.526 160.907 296.568 161.458 298.657Z" fill="white"/>
</g>
<path d="M136.426 292.865C137.409 292.289 138.673 292.633 139.228 293.627L141.838 298.302C142.099 298.771 142.783 298.74 143.003 298.252L149.476 283.851C149.799 283.132 150.87 283.375 150.858 284.163C150.792 288.568 149.623 296.941 142.579 303.95C142.579 303.95 138.698 302.442 135.572 295.583C135.119 294.592 135.487 293.417 136.426 292.865Z" fill="url(#paint15_linear_314_3418)"/>
<path d="M149.836 334.362C149.825 334.362 149.812 334.362 149.8 334.362L136.569 334.235C134.678 334.218 133.118 332.917 132.938 331.212L131.775 320.117C131.707 319.466 131.909 318.823 132.344 318.304C132.832 317.725 133.57 317.361 134.369 317.306C135.484 317.23 137.055 317.096 138.717 316.955C142.216 316.656 146.572 316.286 149.022 316.256C149.039 316.256 149.058 316.256 149.075 316.256C150.815 316.256 152.313 317.315 152.728 318.846C153.417 321.392 153.356 326.213 153.225 331.349C153.182 333.018 151.665 334.362 149.836 334.362ZM134.439 318.32C133.913 318.356 133.434 318.589 133.123 318.958C132.866 319.263 132.747 319.638 132.785 320.012L133.949 331.107C134.074 332.298 135.204 333.207 136.578 333.22L149.809 333.347C149.818 333.347 149.826 333.347 149.835 333.347C151.118 333.347 152.179 332.443 152.207 331.323C152.337 326.265 152.398 321.526 151.745 319.111C151.452 318.029 150.309 317.244 149.034 317.271C146.619 317.302 142.285 317.67 138.802 317.967C137.135 318.11 135.561 318.244 134.439 318.32Z" fill="white"/>
<path opacity="0.6" d="M135.863 319.465C138.643 319.275 144.684 318.663 147.549 318.627C148.763 318.612 149.828 319.344 150.113 320.397C150.667 322.441 150.593 326.512 150.497 330.271C150.468 331.398 149.433 332.297 148.17 332.284L137.597 332.183C136.297 332.17 135.217 331.284 135.096 330.13L134.166 321.265C134.068 320.348 134.832 319.536 135.863 319.465Z" fill="white"/>
<g opacity="0.6">
<path opacity="0.6" d="M161.458 326.996C161.841 328.448 163.16 329.455 164.663 329.442L287.09 328.399C288.475 328.388 289.583 327.245 289.553 325.863C289.524 324.517 288.428 323.44 287.081 323.434L164.65 322.877C162.488 322.865 160.907 324.908 161.458 326.996Z" fill="white"/>
</g>
<path d="M136.426 321.205C137.409 320.628 138.673 320.973 139.228 321.967L141.838 326.642C142.099 327.11 142.783 327.08 143.003 326.591L149.476 312.19C149.799 311.471 150.87 311.715 150.858 312.502C150.792 316.907 149.623 325.281 142.579 332.289C142.579 332.289 138.698 330.781 135.572 323.922C135.119 322.932 135.487 321.756 136.426 321.205Z" fill="url(#paint16_linear_314_3418)"/>
<path d="M213.499 28.9514C206.796 24.292 200.969 24.3842 196.866 25.594C193.124 26.6973 190.698 30.3081 191.054 34.1912L192.823 53.4882L213.876 55.3549C213.876 55.3549 226.643 38.0886 213.499 28.9514ZM204.241 44.5195C201.342 44.5195 198.992 42.1704 198.992 39.274C198.992 36.3761 201.342 34.0284 204.241 34.0284C207.141 34.0284 209.49 36.3775 209.49 39.274C209.49 42.1704 207.141 44.5195 204.241 44.5195Z" fill="url(#paint17_linear_314_3418)"/>
<path d="M194.927 45.3693C194.668 45.3693 194.446 45.172 194.421 44.9084L194.139 41.8349C194.113 41.5554 194.319 41.3091 194.598 41.2832C194.884 41.2559 195.126 41.4633 195.15 41.7427L195.431 44.8163C195.457 45.0957 195.251 45.342 194.972 45.3679C194.957 45.3693 194.943 45.3693 194.927 45.3693ZM194.375 39.3475C194.116 39.3475 193.894 39.1501 193.869 38.8866L193.654 36.5533C193.316 32.8546 195.645 29.4109 199.192 28.3638C201.704 27.622 204.294 27.5169 206.886 28.0483C207.161 28.1045 207.338 28.3724 207.281 28.6475C207.224 28.9212 206.958 29.0969 206.681 29.0421C204.252 28.5452 201.829 28.6446 199.479 29.3374C196.394 30.2477 194.371 33.2435 194.665 36.4611L194.878 38.7944C194.904 39.0738 194.698 39.3201 194.418 39.346C194.405 39.3475 194.389 39.3475 194.375 39.3475Z" fill="white"/>
<path d="M164.09 65.9583V56.2565C164.09 52.9078 166.867 50.2245 170.217 50.3398L237.157 52.6313C240.127 52.7335 242.533 55.0755 242.711 58.041L243.271 67.3626L164.09 65.9583Z" fill="url(#paint18_linear_314_3418)"/>
<path d="M189.051 53.9953H186.172C185.891 53.9953 185.665 53.7677 185.665 53.4883C185.665 53.2074 185.893 52.9813 186.172 52.9813H189.051C189.332 52.9813 189.558 53.2089 189.558 53.4883C189.558 53.7677 189.33 53.9953 189.051 53.9953Z" fill="white"/>
<path d="M167.713 62.9122C167.432 62.9122 167.206 62.6846 167.206 62.4052V58.4804C167.206 55.4471 169.675 52.9813 172.709 52.9813H183.293C183.574 52.9813 183.8 53.2089 183.8 53.4883C183.8 53.7692 183.572 53.9953 183.293 53.9953H172.709C170.234 53.9953 168.221 56.0074 168.221 58.4789V62.4037C168.222 62.6846 167.994 62.9122 167.713 62.9122Z" fill="white"/>
<path d="M260.992 129.331L245.234 116.491L229.476 129.331C230.733 117.255 231.318 103.779 230.653 89.1572C230.441 84.5007 230.114 79.9897 229.695 75.6343C229.641 75.074 229.826 74.518 230.205 74.1018C230.584 73.6855 231.12 73.4493 231.682 73.4493C240.822 73.4493 249.963 73.4493 259.102 73.4493C260.163 73.4493 261.038 74.279 261.094 75.3361C261.444 82.0263 261.672 88.9484 261.747 96.0908C261.873 107.743 261.581 118.842 260.992 129.331Z" fill="url(#paint19_linear_314_3418)"/>
<path d="M136.815 68.4083C136.977 65.0481 139.75 62.408 143.115 62.408L260.172 62.4052C264.38 62.4052 267.979 65.4312 268.697 69.5764L268.797 70.1482C269.584 74.688 266.085 78.8389 261.475 78.8389H141.382C138.623 78.8389 136.423 76.533 136.556 73.7792L136.815 68.4083Z" fill="url(#paint20_linear_314_3418)"/>
<path d="M341.169 392.22C335.037 392.502 329.1 392.325 325.138 392.121C328.746 389.554 337.059 383.97 344.015 381.748L348.79 381.462C348.79 381.462 350.409 383.921 350.986 389.548C350.194 390.535 347.882 391.912 341.169 392.22Z" fill="url(#paint21_linear_314_3418)"/>
<path d="M325.089 392.157C325.105 392.145 325.122 392.134 325.138 392.122C329.1 392.325 335.037 392.502 341.169 392.221C347.881 391.913 350.194 390.536 350.986 389.55C351.013 389.809 351.039 390.067 351.062 390.339C351.161 391.573 350.243 392.658 349.008 392.751C343.986 393.13 331.535 393.99 325.53 393.675C324.738 393.633 324.444 392.616 325.089 392.157Z" fill="url(#paint22_linear_314_3418)"/>
<path d="M385.027 390.58C385.477 387.703 386.196 383.544 386.752 382.481C387.626 380.813 390.614 382.481 390.614 382.481C390.614 382.481 392.711 383.459 393.676 385.088C394.292 386.126 395.994 389.082 397.147 391.087C397.28 391.317 397.334 391.563 397.329 391.801L385.364 392.22C385.072 391.75 384.933 391.179 385.027 390.58Z" fill="url(#paint23_linear_314_3418)"/>
<path d="M397.329 391.801C397.308 392.484 396.767 393.103 396.003 393.125L387.479 393.359C386.578 393.384 385.798 392.917 385.364 392.22L397.329 391.801Z" fill="url(#paint24_linear_314_3418)"/>
<path d="M384.113 372.92C384.217 373.266 385.762 380.754 386.439 384.042C386.627 384.951 387.445 385.589 388.372 385.541C388.878 385.516 389.468 385.471 390.084 385.39C391.18 385.249 392.014 384.334 392.058 383.231C392.167 380.352 392.222 374.824 391.164 372.682C389.704 369.727 384.113 372.92 384.113 372.92Z" fill="url(#paint25_linear_314_3418)"/>
<path d="M349.73 375.065C349.067 375.043 349.995 378.485 348.992 381.869C348.766 382.632 348.195 383.231 347.398 383.241C346.882 383.248 346.271 383.238 345.65 383.188C344.716 383.113 343.965 382.389 343.878 381.457L343.063 372.681L349.73 375.065Z" fill="url(#paint26_linear_314_3418)"/>
<path d="M331.183 281.782C331.479 283.223 341.925 344.108 342.56 375.615C342.57 376.143 342.959 376.586 343.483 376.659C344.809 376.843 347.392 377.081 349.896 376.617C350.239 376.554 350.497 376.272 350.519 375.923C350.883 370.052 353.819 320.411 350.225 297.042C350.225 297.042 379.926 359.509 384.429 376.734C384.538 377.153 384.923 377.435 385.356 377.412C386.628 377.345 389.273 377.117 391.373 376.344C392.125 376.067 392.555 375.276 392.365 374.497C389.85 364.189 372.221 293.168 360.252 277.521L331.183 281.782Z" fill="url(#paint27_linear_314_3418)"/>
<path d="M350.223 297.433C350.321 297.433 350.419 297.395 350.496 297.322C350.65 297.172 350.653 296.924 350.501 296.772L346.525 292.707C346.375 292.553 346.127 292.55 345.973 292.701C345.818 292.851 345.816 293.099 345.967 293.253L349.943 297.317C350.021 297.394 350.122 297.433 350.223 297.433Z" fill="url(#paint28_linear_314_3418)"/>
<path d="M321.137 203.21C330.023 201.875 347.463 199.962 358.839 203.298L357.606 238.432L316.391 233.992L312.894 229.026C312.894 229.027 314.514 204.205 321.137 203.21Z" fill="url(#paint29_linear_314_3418)"/>
<path d="M341.664 184.4C341.664 184.4 342.487 198.375 342.332 202.722C342.332 202.722 330.883 204.594 328.158 202.637L330.311 186.07L341.664 184.4Z" fill="url(#paint30_linear_314_3418)"/>
<path d="M330.535 170.404C330.535 170.404 325.925 178.49 325.197 182.916C324.469 187.342 323.198 190.128 328.253 191.58C333.309 193.03 337.926 190.933 340.755 186.75C340.755 186.75 345.176 180.312 344.651 177.424C344.126 174.535 330.535 170.404 330.535 170.404Z" fill="url(#paint31_linear_314_3418)"/>
<path d="M339.338 183.371L338.687 183.301C338.687 183.301 341.963 178.088 339.709 176.868C337.454 175.648 328.319 172.74 326.66 169.21C325.062 165.808 327.238 161.871 329.955 160.995C330.127 160.94 330.313 161.038 330.379 161.205L330.55 161.634C330.667 161.928 331.084 161.931 331.203 161.637C331.317 161.359 331.711 161.339 331.84 161.608C332.351 162.666 333.848 164.456 338.238 165.764C344.469 167.62 348.396 170.643 348.025 175.045C348.002 175.324 348.283 175.509 348.535 175.391C349.035 175.156 349.801 175.103 350.713 176.053C352.3 177.708 351.176 181.436 347.013 184.153C346.816 184.283 346.787 184.567 346.97 184.715C347.616 185.241 348.534 186.426 345.7 187.57C342.802 188.739 341.196 188.405 340.601 188.182C340.441 188.121 340.346 187.96 340.375 187.792L341.035 183.927C341.069 183.727 340.927 183.54 340.725 183.518L339.338 183.371Z" fill="url(#paint32_linear_314_3418)"/>
<path d="M339.09 184.168C339.09 184.168 341.084 178.901 343.352 180.681C345.619 182.462 341.437 186.618 339.459 186.609L339.09 184.168Z" fill="url(#paint33_linear_314_3418)"/>
<path d="M289.723 230.695L290.816 226.402C291.356 224.279 293.471 222.954 295.62 223.391L398.551 244.376C400.895 244.855 402.401 247.148 401.908 249.487L395.632 279.211L289.723 230.695Z" fill="url(#paint34_linear_314_3418)"/>
<path d="M279.964 282.837L287.705 227.236C287.865 226.085 288.974 225.317 290.108 225.568L395.827 249.027C398.083 249.528 399.498 251.77 398.979 254.021L390.106 292.454L279.964 282.837Z" fill="white"/>
<path d="M282.756 280.318L285.721 230.689C285.797 229.413 286.991 228.504 288.242 228.769L395.072 251.359C396.578 251.677 397.571 253.119 397.329 254.639L391.638 290.488L282.756 280.318Z" fill="white"/>
<path d="M275.017 292.049L281.743 238.294C282.078 235.615 284.605 233.775 287.26 234.274L396.806 254.935C399.027 255.355 400.488 257.493 400.069 259.713L390.817 308.697C390.38 311.009 388.211 312.575 385.877 312.264L279.68 298.091C276.73 297.699 274.648 295.002 275.017 292.049Z" fill="url(#paint35_linear_314_3418)"/>
<path d="M325.807 241.545C325.376 243.825 323.177 245.326 320.895 244.895L296.47 240.289C294.189 239.858 292.687 237.66 293.118 235.38C293.549 233.1 295.748 231.599 298.03 232.03L322.454 236.636C324.737 237.067 326.238 239.265 325.807 241.545Z" fill="url(#paint36_linear_314_3418)"/>
<path d="M347.343 218.618L358.839 203.298C358.839 203.298 377.313 222.907 380.856 247.797L369.332 253.413C365.756 245.032 359.174 233.678 347.343 218.618Z" fill="url(#paint37_linear_314_3418)"/>
<path d="M363.815 287.632C365.177 285.354 367.836 281.021 369.129 279.668C369.129 279.668 367.947 278.922 365.679 279.2C363.411 279.478 361.634 278.373 361.702 277.139L372.523 273.822C373.009 272.807 375.151 267.047 369.332 253.413L380.856 247.797C382.183 257.116 381.422 267.172 376.809 277.22C376.809 277.22 373.23 288.326 369.119 290.79C358.39 297.221 363.292 288.506 363.815 287.632Z" fill="url(#paint38_linear_314_3418)"/>
<path d="M88.6404 143.525L86.3703 146.399L86.3616 146.409C86.1959 146.618 85.8918 146.654 85.6828 146.488C85.4738 146.322 85.4378 146.019 85.6035 145.81C85.6049 145.807 85.6093 145.803 85.6107 145.801L87.9658 142.962C88.1201 142.775 88.3968 142.749 88.5842 142.905C88.7672 143.057 88.7961 143.328 88.649 143.514L88.6404 143.525Z" fill="white"/>
<path d="M80.9653 153.986L77.1169 160.122L77.0982 160.151C76.9036 160.462 76.4929 160.556 76.1815 160.361C75.8702 160.167 75.7765 159.756 75.9711 159.445C75.9725 159.442 75.9769 159.436 75.9783 159.434L79.9809 153.318C80.161 153.043 80.5286 152.967 80.8039 153.147C81.0748 153.324 81.1541 153.685 80.9826 153.959L80.9653 153.986Z" fill="white"/>
<path d="M72.6459 168.284L69.5586 174.826L69.5399 174.865C69.3482 175.271 68.8639 175.444 68.4574 175.254C68.051 175.062 67.878 174.578 68.0683 174.172C68.0697 174.169 68.0726 174.162 68.074 174.159L71.3127 167.597C71.4958 167.227 71.944 167.074 72.3144 167.257C72.6805 167.437 72.8333 167.878 72.6603 168.245L72.6459 168.284Z" fill="white"/>
<path d="M66.1211 183.459L63.8798 190.326L63.8625 190.378C63.6982 190.882 63.1562 191.157 62.6518 190.993C62.1473 190.829 61.872 190.288 62.0363 189.783C62.0378 189.779 62.0406 189.77 62.0421 189.768L64.439 182.843C64.6005 182.376 65.1107 182.128 65.5777 182.29C66.0404 182.45 66.2868 182.949 66.1369 183.412L66.1211 183.459Z" fill="white"/>
<path d="M61.5722 199.311L60.2361 206.399L60.2246 206.461C60.115 207.041 59.5558 207.421 58.9764 207.313C58.3955 207.204 58.015 206.645 58.1245 206.066L58.126 206.054L59.5645 198.86C59.6754 198.303 60.2188 197.941 60.7752 198.054C61.3287 198.164 61.689 198.699 61.5852 199.252L61.5722 199.311Z" fill="white"/>
<path d="M59.1436 215.602L58.7904 222.798L58.7861 222.868C58.7544 223.508 58.211 224.001 57.5711 223.969C56.9311 223.937 56.4382 223.394 56.4699 222.755L56.4713 222.742L56.9109 215.412C56.9484 214.796 57.4788 214.326 58.0957 214.362C58.7083 214.398 59.1767 214.921 59.1479 215.533L59.1436 215.602Z" fill="white"/>
<path d="M58.9749 232.058L59.6134 239.23L59.6206 239.305C59.6812 239.992 59.1738 240.599 58.4863 240.66C57.7988 240.721 57.192 240.214 57.13 239.527L57.1286 239.514L56.5564 232.187C56.5045 231.522 57.0018 230.94 57.6677 230.888C58.3292 230.836 58.9086 231.327 58.9663 231.986L58.9749 232.058Z" fill="white"/>
<path d="M61.0677 248.37L62.6806 255.385L62.6979 255.463C62.8636 256.183 62.414 256.901 61.6918 257.067C60.9697 257.233 60.2519 256.783 60.0848 256.062L60.0819 256.047L58.5108 248.863C58.358 248.162 58.802 247.47 59.5039 247.316C60.2001 247.163 60.889 247.601 61.0476 248.294L61.0677 248.37Z" fill="white"/>
<path d="M65.3571 264.238L67.8737 270.979L67.9025 271.055C68.1749 271.784 67.8045 272.595 67.0752 272.866C66.3473 273.138 65.5358 272.768 65.2634 272.039L65.2606 272.032L62.7224 265.127C62.4572 264.407 62.8276 263.609 63.5483 263.344C64.2689 263.079 65.0674 263.449 65.3326 264.169L65.3571 264.238Z" fill="white"/>
<path d="M71.6629 279.417L75.027 285.779L75.0645 285.85C75.4349 286.551 75.1668 287.421 74.4634 287.793C73.7615 288.164 72.8909 287.895 72.5205 287.194L72.5176 287.189L69.1031 280.673C68.7385 279.976 69.0066 279.116 69.7042 278.751C70.4018 278.386 71.2637 278.654 71.6283 279.351L71.6629 279.417Z" fill="white"/>
<path d="M79.8598 293.668L83.9978 299.557L84.044 299.623C84.5095 300.286 84.3495 301.202 83.6865 301.667C83.0221 302.132 82.1068 301.972 81.6398 301.31L81.637 301.306L77.4297 295.271C76.9699 294.611 77.1328 293.705 77.7915 293.246C78.4502 292.786 79.3582 292.949 79.818 293.607L79.8598 293.668Z" fill="white"/>
<path d="M89.7776 306.779L94.6176 312.102L94.6738 312.164C95.2302 312.776 95.1855 313.722 94.5729 314.278C93.9604 314.834 93.0134 314.79 92.457 314.177L92.4527 314.173L87.5205 308.71C86.9713 308.102 87.0189 307.163 87.6286 306.614C88.2383 306.066 89.1766 306.113 89.7257 306.723L89.7776 306.779Z" fill="white"/>
<path d="M101.264 318.529L106.752 323.171L106.823 323.23C107.467 323.774 107.546 324.738 107.001 325.382C106.457 326.025 105.492 326.106 104.848 325.56L104.844 325.557L99.2342 320.778C98.5985 320.235 98.5207 319.28 99.0641 318.644C99.6075 318.007 100.563 317.931 101.2 318.474L101.264 318.529Z" fill="white"/>
<path d="M114.201 328.618L117.244 330.513L118.764 331.461C119.274 331.772 119.77 332.106 120.293 332.394C121.047 332.811 121.321 333.757 120.905 334.51C120.488 335.263 119.541 335.537 118.787 335.121L118.782 335.118L118.74 335.095C118.201 334.795 117.69 334.45 117.166 334.127L115.602 333.145L112.476 331.179C111.754 330.725 111.536 329.772 111.99 329.05C112.444 328.328 113.397 328.111 114.12 328.565L114.201 328.618Z" fill="white"/>
<path d="M128.493 336.586C130.665 337.578 132.873 338.498 135.11 339.339C135.92 339.645 136.33 340.548 136.026 341.357C135.72 342.167 134.819 342.577 134.009 342.272C131.704 341.409 129.426 340.472 127.184 339.449C126.393 339.087 126.044 338.154 126.406 337.363C126.766 336.573 127.702 336.225 128.493 336.586Z" fill="white"/>
<path d="M143.874 342.216L150.842 343.943L150.936 343.966C151.765 344.172 152.271 345.008 152.065 345.837C151.86 346.665 151.024 347.17 150.197 346.966L143.032 345.21C142.197 345.006 141.687 344.164 141.892 343.331C142.096 342.497 142.938 341.987 143.773 342.191L143.777 342.193L143.874 342.216Z" fill="white"/>
<path d="M159.943 345.528L167.095 346.289L167.181 346.298C168.017 346.387 168.623 347.136 168.535 347.971C168.445 348.806 167.702 349.413 166.864 349.324L159.536 348.569C158.693 348.482 158.081 347.729 158.167 346.887C158.254 346.044 159.008 345.432 159.851 345.518H159.856L159.943 345.528Z" fill="white"/>
<path d="M176.34 346.699L183.542 346.583L183.617 346.581C184.423 346.568 185.087 347.211 185.1 348.016C185.113 348.818 184.476 349.478 183.676 349.498L176.322 349.672C175.501 349.692 174.82 349.043 174.8 348.222C174.78 347.401 175.43 346.719 176.252 346.701H176.263L176.34 346.699Z" fill="white"/>
<path d="M192.784 345.9L199.938 344.974L200.003 344.965C200.767 344.866 201.468 345.405 201.567 346.169C201.665 346.93 201.132 347.626 200.374 347.731L193.096 348.732C192.317 348.838 191.599 348.294 191.491 347.516C191.384 346.737 191.929 346.02 192.707 345.912L192.719 345.91L192.784 345.9Z" fill="white"/>
<path d="M209.071 343.331L216.104 341.693L216.158 341.68C216.842 341.52 217.527 341.946 217.687 342.631C217.846 343.309 217.428 343.986 216.754 344.154L209.636 345.923C208.924 346.1 208.204 345.667 208.027 344.957C207.85 344.247 208.284 343.526 208.994 343.349C208.999 343.348 209.003 343.348 209.006 343.346L209.071 343.331Z" fill="white"/>
<path d="M225.041 339.148L231.894 336.84L231.939 336.826C232.541 336.623 233.194 336.947 233.398 337.549C233.598 338.145 233.282 338.792 232.69 339.001L225.782 341.441C225.155 341.663 224.466 341.334 224.244 340.706C224.022 340.08 224.35 339.391 224.979 339.169C224.982 339.168 224.986 339.167 224.989 339.165L225.041 339.148Z" fill="white"/>
<path d="M240.565 333.475L247.191 330.558L247.227 330.542C247.746 330.313 248.354 330.549 248.583 331.068C248.81 331.582 248.581 332.183 248.07 332.416L241.416 335.464C240.872 335.713 240.229 335.474 239.98 334.931C239.731 334.388 239.97 333.745 240.513 333.496C240.516 333.495 240.519 333.493 240.522 333.492L240.565 333.475Z" fill="white"/>
<path d="M255.558 326.469L261.934 323.025L261.962 323.011C262.371 322.79 262.881 322.942 263.102 323.351C263.32 323.753 263.174 324.255 262.779 324.48L256.431 328.108C255.986 328.363 255.418 328.209 255.163 327.762C254.908 327.317 255.062 326.75 255.509 326.495C255.513 326.492 255.519 326.489 255.525 326.486L255.558 326.469Z" fill="white"/>
<path d="M269.948 318.261L276.031 314.306L276.049 314.294C276.346 314.101 276.744 314.185 276.937 314.481C277.128 314.774 277.048 315.164 276.763 315.36L270.738 319.488C270.407 319.716 269.953 319.631 269.723 319.299C269.496 318.968 269.581 318.514 269.912 318.287C269.916 318.284 269.919 318.281 269.924 318.28L269.948 318.261Z" fill="white"/>
<path d="M283.688 308.919L286.627 306.72L286.633 306.715C286.828 306.57 287.103 306.609 287.247 306.803C287.39 306.993 287.354 307.261 287.171 307.41L284.291 309.713C284.076 309.884 283.762 309.849 283.589 309.635C283.417 309.42 283.452 309.106 283.667 308.933C283.67 308.931 283.674 308.928 283.678 308.925L283.688 308.919Z" fill="white"/>
<path d="M326.464 178.009C326.314 178.326 326.46 178.715 326.788 178.878C327.117 179.04 327.505 178.915 327.655 178.597C327.804 178.28 327.659 177.89 327.33 177.728C327.003 177.566 326.614 177.691 326.464 178.009Z" fill="#263238"/>
<path d="M326.134 177.144C326.176 177.256 326.786 177.112 327.443 177.396C328.103 177.669 328.44 178.214 328.545 178.165C328.596 178.145 328.58 177.967 328.436 177.724C328.295 177.483 328.005 177.184 327.596 177.01C327.185 176.837 326.776 176.84 326.512 176.909C326.242 176.976 326.113 177.092 326.134 177.144Z" fill="#263238"/>
<path d="M332.829 181.009C332.679 181.326 332.825 181.715 333.153 181.878C333.482 182.041 333.87 181.915 334.02 181.597C334.17 181.28 334.024 180.89 333.695 180.728C333.367 180.566 332.979 180.692 332.829 181.009Z" fill="#263238"/>
<path d="M332.544 180.037C332.586 180.149 333.195 180.005 333.852 180.289C334.513 180.563 334.85 181.109 334.955 181.058C335.005 181.038 334.991 180.861 334.845 180.618C334.704 180.377 334.415 180.077 334.005 179.903C333.594 179.73 333.185 179.733 332.921 179.802C332.653 179.871 332.522 179.985 332.544 180.037Z" fill="#263238"/>
<path d="M328.066 183.886C328.084 183.85 327.707 183.603 327.08 183.235C326.92 183.145 326.774 183.045 326.796 182.918C326.809 182.779 326.956 182.628 327.121 182.468C327.453 182.13 327.802 181.776 328.166 181.404C329.637 179.882 330.778 178.6 330.716 178.541C330.654 178.482 329.412 179.668 327.942 181.192C327.583 181.57 327.241 181.93 326.914 182.274C326.768 182.437 326.567 182.607 326.543 182.895C326.535 183.04 326.618 183.183 326.714 183.258C326.807 183.337 326.901 183.379 326.982 183.419C327.635 183.742 328.047 183.922 328.066 183.886Z" fill="#263238"/>
<path d="M329.805 185.17C329.701 185.118 329.393 185.831 328.566 186.075C327.738 186.321 327.012 185.915 326.963 186.011C326.934 186.052 327.072 186.223 327.39 186.369C327.699 186.514 328.202 186.611 328.71 186.461C329.216 186.31 329.554 185.965 329.704 185.683C329.86 185.398 329.856 185.186 329.805 185.17Z" fill="#263238"/>
<path d="M333.479 177.39C333.468 177.596 334.159 177.793 334.892 178.216C335.631 178.626 336.157 179.118 336.327 179.001C336.405 178.944 336.369 178.729 336.192 178.448C336.017 178.169 335.689 177.835 335.249 177.584C334.808 177.335 334.353 177.227 334.023 177.22C333.691 177.214 333.488 177.293 333.479 177.39Z" fill="#263238"/>
<path d="M327.192 175.346C327.244 175.545 327.763 175.584 328.31 175.811C328.867 176.019 329.273 176.343 329.446 176.232C329.525 176.176 329.517 175.996 329.376 175.768C329.237 175.542 328.955 175.284 328.576 175.136C328.197 174.987 327.815 174.983 327.56 175.055C327.302 175.124 327.173 175.251 327.192 175.346Z" fill="#263238"/>
</g>
<defs>
<linearGradient id="paint0_linear_314_3418" x1="402.643" y1="432.489" x2="42.4399" y2="21.836" gradientUnits="userSpaceOnUse">
<stop stop-color="#DAE3FE"/>
<stop offset="1" stop-color="#E9EFFD"/>
</linearGradient>
<linearGradient id="paint1_linear_314_3418" x1="268.356" y1="63.392" x2="144.856" y2="183.622" gradientUnits="userSpaceOnUse">
<stop stop-color="#FDF53F"/>
<stop offset="1" stop-color="#D93C65"/>
</linearGradient>
<linearGradient id="paint2_linear_314_3418" x1="282.145" y1="77.559" x2="158.648" y2="197.787" gradientUnits="userSpaceOnUse">
<stop stop-color="#FDF53F"/>
<stop offset="1" stop-color="#D93C65"/>
</linearGradient>
<linearGradient id="paint3_linear_314_3418" x1="246.985" y1="152.612" x2="151.488" y2="257.762" gradientUnits="userSpaceOnUse">
<stop stop-color="#A737D5"/>
<stop offset="1" stop-color="#EF497A"/>
</linearGradient>
<linearGradient id="paint4_linear_314_3418" x1="258.264" y1="162.855" x2="162.766" y2="268.005" gradientUnits="userSpaceOnUse">
<stop stop-color="#A737D5"/>
<stop offset="1" stop-color="#EF497A"/>
</linearGradient>
<linearGradient id="paint5_linear_314_3418" x1="262.85" y1="194.686" x2="143.266" y2="304.156" gradientUnits="userSpaceOnUse">
<stop stop-color="#A737D5"/>
<stop offset="1" stop-color="#EF497A"/>
</linearGradient>
<linearGradient id="paint6_linear_314_3418" x1="280.821" y1="183.343" x2="185.325" y2="288.493" gradientUnits="userSpaceOnUse">
<stop stop-color="#A737D5"/>
<stop offset="1" stop-color="#EF497A"/>
</linearGradient>
<linearGradient id="paint7_linear_314_3418" x1="146.55" y1="174.604" x2="100.611" y2="308.974" gradientUnits="userSpaceOnUse">
<stop stop-color="#A737D5"/>
<stop offset="1" stop-color="#EF497A"/>
</linearGradient>
<linearGradient id="paint8_linear_314_3418" x1="207.46" y1="353.346" x2="190.419" y2="-151.44" gradientUnits="userSpaceOnUse">
<stop stop-color="#09005D"/>
<stop offset="1" stop-color="#1A0F91"/>
</linearGradient>
<linearGradient id="paint9_linear_314_3418" x1="146.58" y1="87.4367" x2="203.405" y2="186.383" gradientUnits="userSpaceOnUse">
<stop stop-color="#FF928E"/>
<stop offset="1" stop-color="#FE7062"/>
</linearGradient>
<linearGradient id="paint10_linear_314_3418" x1="133.293" y1="95.0675" x2="190.118" y2="194.014" gradientUnits="userSpaceOnUse">
<stop stop-color="#FF928E"/>
<stop offset="1" stop-color="#FE7062"/>
</linearGradient>
<linearGradient id="paint11_linear_314_3418" x1="107.403" y1="180.695" x2="285.926" y2="323.502" gradientUnits="userSpaceOnUse">
<stop stop-color="#4F52FF"/>
<stop offset="1" stop-color="#4042E2"/>
</linearGradient>
<linearGradient id="paint12_linear_314_3418" x1="137.859" y1="142.622" x2="316.382" y2="285.428" gradientUnits="userSpaceOnUse">
<stop stop-color="#4F52FF"/>
<stop offset="1" stop-color="#4042E2"/>
</linearGradient>
<linearGradient id="paint13_linear_314_3418" x1="175.278" y1="181.36" x2="107.783" y2="296.64" gradientUnits="userSpaceOnUse">
<stop stop-color="#4F52FF"/>
<stop offset="1" stop-color="#4042E2"/>
</linearGradient>
<linearGradient id="paint14_linear_314_3418" x1="187.648" y1="188.603" x2="120.153" y2="303.883" gradientUnits="userSpaceOnUse">
<stop stop-color="#4F52FF"/>
<stop offset="1" stop-color="#4042E2"/>
</linearGradient>
<linearGradient id="paint15_linear_314_3418" x1="198.048" y1="217.01" x2="109.229" y2="340.938" gradientUnits="userSpaceOnUse">
<stop stop-color="#4F52FF"/>
<stop offset="1" stop-color="#4042E2"/>
</linearGradient>
<linearGradient id="paint16_linear_314_3418" x1="212.387" y1="203.087" x2="144.892" y2="318.367" gradientUnits="userSpaceOnUse">
<stop stop-color="#4F52FF"/>
<stop offset="1" stop-color="#4042E2"/>
</linearGradient>
<linearGradient id="paint17_linear_314_3418" x1="234.201" y1="1.27392" x2="148.932" y2="113.524" gradientUnits="userSpaceOnUse">
<stop stop-color="#2B3582"/>
<stop offset="1" stop-color="#150E42"/>
</linearGradient>
<linearGradient id="paint18_linear_314_3418" x1="243.563" y1="8.38533" x2="158.293" y2="120.636" gradientUnits="userSpaceOnUse">
<stop stop-color="#2B3582"/>
<stop offset="1" stop-color="#150E42"/>
</linearGradient>
<linearGradient id="paint19_linear_314_3418" x1="219.77" y1="138.551" x2="294.282" y2="32.0981" gradientUnits="userSpaceOnUse">
<stop stop-color="#FF928E"/>
<stop offset="1" stop-color="#FE7062"/>
</linearGradient>
<linearGradient id="paint20_linear_314_3418" x1="232.808" y1="15.2479" x2="173.942" y2="123.414" gradientUnits="userSpaceOnUse">
<stop stop-color="#4F52FF"/>
<stop offset="1" stop-color="#4042E2"/>
</linearGradient>
<linearGradient id="paint21_linear_314_3418" x1="351.069" y1="386.914" x2="324.736" y2="386.914" gradientUnits="userSpaceOnUse">
<stop stop-color="#090056"/>
<stop offset="1" stop-color="#020039"/>
</linearGradient>
<linearGradient id="paint22_linear_314_3418" x1="304.792" y1="353.434" x2="359.611" y2="416.381" gradientUnits="userSpaceOnUse">
<stop stop-color="#090056"/>
<stop offset="1" stop-color="#020039"/>
</linearGradient>
<linearGradient id="paint23_linear_314_3418" x1="397.329" y1="386.98" x2="384.998" y2="386.98" gradientUnits="userSpaceOnUse">
<stop stop-color="#090056"/>
<stop offset="1" stop-color="#020039"/>
</linearGradient>
<linearGradient id="paint24_linear_314_3418" x1="334.851" y1="327.254" x2="389.672" y2="390.202" gradientUnits="userSpaceOnUse">
<stop stop-color="#090056"/>
<stop offset="1" stop-color="#020039"/>
</linearGradient>
<linearGradient id="paint25_linear_314_3418" x1="392.114" y1="378.486" x2="384.113" y2="378.486" gradientUnits="userSpaceOnUse">
<stop stop-color="#FEBBBA"/>
<stop offset="1" stop-color="#FF928E"/>
</linearGradient>
<linearGradient id="paint26_linear_314_3418" x1="349.73" y1="377.962" x2="343.062" y2="377.962" gradientUnits="userSpaceOnUse">
<stop stop-color="#FEBBBA"/>
<stop offset="1" stop-color="#FF928E"/>
</linearGradient>
<linearGradient id="paint27_linear_314_3418" x1="520.236" y1="411.879" x2="368.962" y2="335.619" gradientUnits="userSpaceOnUse">
<stop stop-color="#090056"/>
<stop offset="1" stop-color="#020039"/>
</linearGradient>
<linearGradient id="paint28_linear_314_3418" x1="333.149" y1="275.52" x2="360.416" y2="310.798" gradientUnits="userSpaceOnUse">
<stop stop-color="#CB236D"/>
<stop offset="1" stop-color="#4C246D"/>
</linearGradient>
<linearGradient id="paint29_linear_314_3418" x1="307.169" y1="162.311" x2="403.796" y2="343.89" gradientUnits="userSpaceOnUse">
<stop stop-color="#4F52FF"/>
<stop offset="1" stop-color="#4042E2"/>
</linearGradient>
<linearGradient id="paint30_linear_314_3418" x1="335.809" y1="210.206" x2="334.768" y2="190.763" gradientUnits="userSpaceOnUse">
<stop stop-color="#FEBBBA"/>
<stop offset="1" stop-color="#FF928E"/>
</linearGradient>
<linearGradient id="paint31_linear_314_3418" x1="328.956" y1="177.789" x2="348.33" y2="196.228" gradientUnits="userSpaceOnUse">
<stop stop-color="#FEBBBA"/>
<stop offset="1" stop-color="#FF928E"/>
</linearGradient>
<linearGradient id="paint32_linear_314_3418" x1="323.631" y1="171.41" x2="376.72" y2="185.83" gradientUnits="userSpaceOnUse">
<stop stop-color="#090056"/>
<stop offset="1" stop-color="#020039"/>
</linearGradient>
<linearGradient id="paint33_linear_314_3418" x1="331.945" y1="174.648" x2="351.32" y2="193.088" gradientUnits="userSpaceOnUse">
<stop stop-color="#FEBBBA"/>
<stop offset="1" stop-color="#FF928E"/>
</linearGradient>
<linearGradient id="paint34_linear_314_3418" x1="293.064" y1="180.25" x2="444.488" y2="348.467" gradientUnits="userSpaceOnUse">
<stop stop-color="#FF928E"/>
<stop offset="1" stop-color="#FE7062"/>
</linearGradient>
<linearGradient id="paint35_linear_314_3418" x1="284.192" y1="204.662" x2="375.884" y2="327.511" gradientUnits="userSpaceOnUse">
<stop stop-color="#FF928E"/>
<stop offset="1" stop-color="#FE7062"/>
</linearGradient>
<linearGradient id="paint36_linear_314_3418" x1="284.196" y1="204.659" x2="375.889" y2="327.508" gradientUnits="userSpaceOnUse">
<stop stop-color="#FF928E"/>
<stop offset="1" stop-color="#FE7062"/>
</linearGradient>
<linearGradient id="paint37_linear_314_3418" x1="323.961" y1="153.375" x2="420.588" y2="334.955" gradientUnits="userSpaceOnUse">
<stop stop-color="#4F52FF"/>
<stop offset="1" stop-color="#4042E2"/>
</linearGradient>
<linearGradient id="paint38_linear_314_3418" x1="362.304" y1="282.583" x2="394.319" y2="236.517" gradientUnits="userSpaceOnUse">
<stop stop-color="#FEBBBA"/>
<stop offset="1" stop-color="#FF928E"/>
</linearGradient>
<clipPath id="clip0_314_3418">
<rect width="402" height="398" fill="white"/>
</clipPath>
</defs>
</svg>
