<svg width="35" height="42" viewBox="0 0 35 42" fill="none" xmlns="http://www.w3.org/2000/svg">
<path d="M34.2759 8.4828L26.0001 0.206944C25.9385 0.140686 25.8637 0.0880487 25.7806 0.0524163C25.6975 0.016784 25.6078 -0.00105448 25.5173 4.81711e-05H5.42079C4.71589 0.00367244 4.04088 0.285303 3.54243 0.783754C3.04398 1.2822 2.76235 1.95721 2.75873 2.66211V15.8621C2.75873 16.045 2.83139 16.2204 2.96072 16.3498C3.09006 16.4791 3.26547 16.5518 3.44838 16.5518C3.63129 16.5518 3.80671 16.4791 3.93604 16.3498C4.06538 16.2204 4.13804 16.045 4.13804 15.8621V2.66211C4.13804 2.32191 4.27318 1.99563 4.51375 1.75507C4.75431 1.5145 5.08059 1.37936 5.42079 1.37936H24.8277V8.96555C24.8277 9.14846 24.9003 9.32388 25.0297 9.45321C25.159 9.58255 25.3344 9.65521 25.5173 9.65521H33.1035V38.7345C33.1035 39.0747 32.9684 39.401 32.7278 39.6415C32.4872 39.8821 32.161 40.0172 31.8208 40.0172H5.42079C5.08059 40.0172 4.75431 39.8821 4.51375 39.6415C4.27318 39.401 4.13804 39.0747 4.13804 38.7345V35.1897C4.13804 35.0067 4.06538 34.8313 3.93604 34.702C3.80671 34.5727 3.63129 34.5 3.44838 34.5C3.26547 34.5 3.09006 34.5727 2.96072 34.702C2.83139 34.8313 2.75873 35.0067 2.75873 35.1897V38.7345C2.76235 39.4394 3.04398 40.1144 3.54243 40.6128C4.04088 41.1113 4.71589 41.3929 5.42079 41.3965H31.8208C32.5257 41.3929 33.2007 41.1113 33.6991 40.6128C34.1976 40.1144 34.4792 39.4394 34.4828 38.7345V8.96555C34.4839 8.8751 34.4661 8.78543 34.4305 8.70228C34.3948 8.61914 34.3422 8.54438 34.2759 8.4828ZM26.207 2.35867L32.1242 8.2759H26.207V2.35867Z" fill="#EC542F"/>
<rect y="18" width="29" height="15" rx="2" fill="#EC542F"/>
<path d="M6.94594 22C7.5665 22 8.10523 22.1 8.56212 22.3C9.02584 22.5 9.38044 22.7867 9.62594 23.16C9.87143 23.5333 9.99418 23.9767 9.99418 24.49C9.99418 24.9967 9.87143 25.44 9.62594 25.82C9.38044 26.1933 9.02584 26.48 8.56212 26.68C8.10523 26.88 7.5665 26.98 6.94594 26.98H5.32977V29H4V22H6.94594ZM6.88457 25.88C7.46421 25.88 7.90406 25.76 8.20411 25.52C8.50416 25.28 8.65418 24.9367 8.65418 24.49C8.65418 24.0433 8.50416 23.7 8.20411 23.46C7.90406 23.22 7.46421 23.1 6.88457 23.1H5.32977V25.88H6.88457Z" fill="white"/>
<path d="M11.3221 22H14.4522C15.2159 22 15.8945 22.1467 16.4877 22.44C17.081 22.7267 17.5413 23.1367 17.8686 23.67C18.196 24.1967 18.3596 24.8067 18.3596 25.5C18.3596 26.1933 18.196 26.8067 17.8686 27.34C17.5413 27.8667 17.081 28.2767 16.4877 28.57C15.8945 28.8567 15.2159 29 14.4522 29H11.3221V22ZM14.3908 27.9C14.9159 27.9 15.3762 27.8033 15.7717 27.61C16.174 27.41 16.4809 27.13 16.6923 26.77C16.9105 26.4033 17.0196 25.98 17.0196 25.5C17.0196 25.02 16.9105 24.6 16.6923 24.24C16.4809 23.8733 16.174 23.5933 15.7717 23.4C15.3762 23.2 14.9159 23.1 14.3908 23.1H12.6519V27.9H14.3908Z" fill="white"/>
<path d="M21.1028 23.09V25.22H24.5602V26.32H21.1028V29H19.773V22H25V23.09H21.1028Z" fill="white"/>
</svg>
