<svg width="35" height="42" viewBox="0 0 35 42" fill="none" xmlns="http://www.w3.org/2000/svg">
<path d="M34.2759 8.4828L26.0001 0.206944C25.9385 0.140686 25.8637 0.0880487 25.7806 0.0524163C25.6975 0.016784 25.6078 -0.00105448 25.5173 4.81711e-05H5.42079C4.71589 0.00367244 4.04088 0.285303 3.54243 0.783754C3.04398 1.2822 2.76235 1.95721 2.75873 2.66211V15.8621C2.75873 16.045 2.83139 16.2204 2.96072 16.3498C3.09006 16.4791 3.26547 16.5518 3.44838 16.5518C3.63129 16.5518 3.80671 16.4791 3.93604 16.3498C4.06538 16.2204 4.13804 16.045 4.13804 15.8621V2.66211C4.13804 2.32191 4.27318 1.99563 4.51375 1.75507C4.75431 1.5145 5.08059 1.37936 5.42079 1.37936H24.8277V8.96555C24.8277 9.14846 24.9003 9.32388 25.0297 9.45321C25.159 9.58255 25.3344 9.65521 25.5173 9.65521H33.1035V38.7345C33.1035 39.0747 32.9684 39.401 32.7278 39.6415C32.4872 39.8821 32.161 40.0172 31.8208 40.0172H5.42079C5.08059 40.0172 4.75431 39.8821 4.51375 39.6415C4.27318 39.401 4.13804 39.0747 4.13804 38.7345V35.1897C4.13804 35.0067 4.06538 34.8313 3.93604 34.702C3.80671 34.5727 3.63129 34.5 3.44838 34.5C3.26547 34.5 3.09006 34.5727 2.96072 34.702C2.83139 34.8313 2.75873 35.0067 2.75873 35.1897V38.7345C2.76235 39.4394 3.04398 40.1144 3.54243 40.6128C4.04088 41.1113 4.71589 41.3929 5.42079 41.3965H31.8208C32.5257 41.3929 33.2007 41.1113 33.6991 40.6128C34.1976 40.1144 34.4792 39.4394 34.4828 38.7345V8.96555C34.4839 8.8751 34.4661 8.78543 34.4305 8.70228C34.3948 8.61914 34.3422 8.54438 34.2759 8.4828ZM26.207 2.35867L32.1242 8.2759H26.207V2.35867Z" fill="#00BD13"/>
<rect y="18" width="29" height="15" rx="2" fill="#00BD13"/>
<path d="M10.4567 27.91V29H5V22H10.3112V23.09H6.35118V24.91H9.86425V25.98H6.35118V27.91H10.4567Z" fill="white"/>
<path d="M16.4654 29L14.4906 26.34L12.5366 29H10.9983L13.7007 25.43L11.1438 22H12.6717L14.5322 24.49L16.3718 22H17.8374L15.2909 25.38L18.0244 29H16.4654Z" fill="white"/>
<path d="M18.8447 22H20.1959V27.9H24V29H18.8447V22Z" fill="white"/>
</svg>
