<?xml version="1.0" encoding="utf-8"?>
<svg width="250" height="203" viewBox="0 0 250 203" fill="none" xmlns="http://www.w3.org/2000/svg">
  <rect width="250" height="203" rx="8" fill="#EEEEEE"/>
  <path d="M 107.675 80.838 C 107.432 80.838 107.207 80.692 107.11 80.455 C 106.988 80.144 107.14 79.792 107.45 79.664 L 140.347 66.545 L 140.347 64.411 C 140.347 64.076 140.621 63.802 140.956 63.802 C 141.29 63.802 141.564 64.076 141.564 64.411 L 141.564 66.959 C 141.564 67.208 141.412 67.433 141.181 67.524 L 107.9 80.795 C 107.821 80.826 107.748 80.838 107.675 80.838 Z" fill="#FF4415"/>
  <path d="M 141.12 63.091 L 106.605 63.091 L 106.605 64.307 L 141.12 64.307 L 141.12 63.091 Z" fill="#FF4415"/>
  <path d="M 160.618 63.2 C 157.863 61.357 156.361 60.384 155.516 59.855 C 155.254 59.697 155.06 59.582 154.907 59.496 C 154.512 59.271 154.427 59.259 154.354 59.253 L 154.299 59.247 L 149.598 58.724 C 149.428 58.706 149.257 58.761 149.13 58.876 C 149.026 58.973 148.953 59.101 148.929 59.247 C 148.923 59.271 148.923 59.302 148.923 59.332 L 148.923 60.463 L 150.139 60.463 L 150.139 60.007 L 154.147 60.451 C 154.184 60.47 154.238 60.5 154.299 60.536 C 154.445 60.628 154.652 60.755 154.907 60.914 C 155.698 61.406 156.945 62.221 158.265 63.097 L 153.691 63.097 L 153.691 64.192 L 149.166 64.192 C 149.27 64.265 149.397 64.313 149.531 64.313 L 160.278 64.313 C 160.545 64.313 160.783 64.137 160.862 63.881 C 160.941 63.626 160.837 63.346 160.618 63.2 Z" fill="#FF4415"/>
  <path d="M 131.365 52.703 L 121.238 52.703 L 121.238 53.919 L 131.365 53.919 L 131.365 52.703 Z" fill="#003CB6"/>
  <path d="M 108.314 61.084 L 104.902 61.084 L 104.902 81.549 L 108.314 81.549 L 108.314 61.084 Z" fill="#003CB6"/>
  <path d="M 140.95 59.855 L 140.95 64.8 L 154.3 64.8 L 154.3 59.855 L 140.95 59.855 Z M 153.691 64.192 L 141.558 64.192 L 141.558 60.463 L 153.691 60.463 L 153.691 64.192 Z" fill="white"/>
  <path d="M 140.341 59.247 L 140.341 65.408 L 154.908 65.408 L 154.908 59.247 L 140.341 59.247 Z M 153.691 64.192 L 141.558 64.192 L 141.558 60.463 L 153.691 60.463 L 153.691 64.192 Z" fill="#003CB6"/>
  <path d="M 162.327 48.835 C 162.303 48.829 162.279 48.829 162.248 48.829 L 158.325 48.829 C 157.79 48.829 157.346 49.267 157.346 49.808 L 157.346 56.82 C 157.346 57.362 157.79 57.8 158.325 57.8 L 162.248 57.8 C 162.771 57.8 163.191 57.398 163.221 56.881 C 163.227 56.863 163.227 56.839 163.227 56.82 L 163.227 49.808 C 163.227 49.297 162.832 48.871 162.327 48.835 Z M 162.011 56.583 L 158.563 56.583 L 158.563 50.045 L 162.011 50.045 L 162.011 56.583 Z" fill="#FF4415"/>
  <path d="M 135.062 55.166 L 131.139 55.166 C 130.932 55.166 130.768 55.002 130.768 54.795 L 130.768 51.827 C 130.768 51.62 130.932 51.456 131.139 51.456 L 135.062 51.456 C 135.269 51.456 135.433 51.62 135.433 51.827 L 135.433 54.795 C 135.433 55.002 135.269 55.166 135.062 55.166 Z" fill="#FF4415"/>
  <path d="M 159.553 48.829 C 159.115 47.631 157.966 46.773 156.616 46.773 L 137.281 46.773 C 135.554 46.773 134.155 48.172 134.155 49.899 L 134.155 56.729 C 134.155 58.456 135.554 59.855 137.281 59.855 L 156.616 59.855 C 157.966 59.855 159.115 58.998 159.553 57.8 C 159.675 57.465 159.742 57.106 159.742 56.729 L 159.742 49.899 C 159.742 49.522 159.675 49.163 159.553 48.829 Z M 138.163 49.51 L 144.47 49.51 C 144.811 49.51 145.078 49.784 145.078 50.118 C 145.078 50.453 144.811 50.726 144.47 50.726 L 138.163 50.726 C 137.829 50.726 137.555 50.453 137.555 50.118 C 137.555 49.784 137.829 49.51 138.163 49.51 Z M 138.163 53.944 C 137.829 53.944 137.555 53.67 137.555 53.335 C 137.555 53.001 137.829 52.727 138.163 52.727 L 144.47 52.727 C 144.811 52.727 145.078 53.001 145.078 53.335 C 145.078 53.67 144.811 53.944 144.47 53.944 L 138.163 53.944 Z M 153.879 53.579 C 152.857 53.579 152.024 52.752 152.024 51.724 C 152.024 50.702 152.857 49.875 153.879 49.875 C 154.907 49.875 155.734 50.702 155.734 51.724 C 155.734 52.752 154.907 53.579 153.879 53.579 Z" fill="#003CB6"/>
  <path d="M 121.323 58.462 L 118.708 58.462 C 118.142 58.462 117.68 58.006 117.68 57.435 L 117.68 49.577 C 117.68 49.011 118.136 48.549 118.708 48.549 L 121.323 48.549 C 121.889 48.549 122.351 49.005 122.351 49.577 L 122.351 57.435 C 122.351 58 121.889 58.462 121.323 58.462 Z" fill="#003CB6"/>
  <path d="M 120.016 48.556 L 107.231 48.556 L 107.231 58.463 L 120.016 58.463 L 120.016 48.556 Z" fill="#003CB6"/>
  <path d="M 106.313 59.527 L 109.032 59.527 C 109.719 59.527 110.279 58.967 110.279 58.28 L 110.279 48.738 C 110.279 48.05 109.719 47.491 109.032 47.491 L 106.313 47.491 C 105.626 47.491 105.066 48.05 105.066 48.738 L 105.066 58.28 C 105.066 58.967 105.626 59.527 106.313 59.527 Z" fill="#FF4415"/>
  <path d="M 108.801 45.198 L 104.416 45.198 C 103.102 45.198 102.038 46.262 102.038 47.576 L 102.038 59.448 C 102.038 60.755 103.102 61.826 104.416 61.826 L 108.801 61.826 C 110.108 61.826 111.179 60.755 111.179 59.448 L 111.179 47.576 C 111.179 46.262 110.108 45.198 108.801 45.198 Z M 109.962 59.448 C 109.962 60.086 109.439 60.609 108.801 60.609 L 104.416 60.609 C 103.777 60.609 103.254 60.086 103.254 59.448 L 103.254 47.576 C 103.254 46.931 103.777 46.414 104.416 46.414 L 108.801 46.414 C 109.439 46.414 109.962 46.931 109.962 47.576 L 109.962 59.448 Z" fill="#003CB6"/>
  <path d="M 228.426 98.603 C 225.702 98.457 224.181 93.02 223.257 91.761 C 223.153 90.392 224.534 89.669 224.607 89.632 C 224.753 89.553 224.814 89.371 224.735 89.225 C 224.662 89.073 224.479 89.012 224.327 89.091 C 223.652 89.431 222.661 90.313 222.642 91.584 C 221.116 92.156 214.815 95.453 211.397 96.785 C 207.742 98.208 205.114 96.553 204.847 94.96 C 204.573 93.366 203.107 78.983 203.01 77.985 C 202.888 76.66 205.674 77.639 208.265 76.836 C 210.856 76.039 212.467 74.215 213.471 73.588 C 214.468 72.962 213.909 81.264 213.842 82.583 C 213.775 83.903 213.477 86.53 213.897 86.518 C 214.316 86.512 223.318 83.848 224.692 83.404 C 226.073 82.96 228.28 82.717 228.603 83.958 C 228.846 84.9 230.038 89.845 230.549 92.485 C 231.06 95.124 231.096 98.743 228.426 98.603 Z" fill="#003CB6"/>
  <path d="M 215.417 66.679 C 215.405 65.08 215.009 58.189 214.468 57.873 C 213.927 57.55 213.179 58.067 212.978 56.753 C 212.777 55.434 210.527 55.969 210.393 57.538 C 210.266 59.107 211.172 59.369 210.302 59.831 C 209.432 60.293 201.148 62.829 199.476 63.085 C 197.603 63.377 197.049 62.282 198.789 61.728 C 202.043 60.688 208.757 59.296 209.153 59.144 C 209.694 58.931 208.769 57.386 207.662 55.592 C 206.549 53.798 201.337 43.227 192.403 42.759 C 183.474 42.297 181.607 45.593 180.835 46.956 C 180.062 48.318 178.384 51.304 175.799 52.095 C 173.318 52.849 164.31 47.187 162.328 48.835 C 162.255 48.896 162.188 48.969 162.133 49.054 C 161.951 49.334 161.799 49.674 161.677 50.045 C 161.075 51.888 161.16 54.631 162.011 56.018 C 162.315 56.516 162.717 56.839 163.222 56.881 C 163.24 56.887 163.258 56.887 163.276 56.887 C 165.533 57.003 164.961 53.822 168.051 55.932 C 171.043 57.97 174.935 60.591 180.142 58.438 C 183.918 56.881 184.66 56.328 186.242 56.626 C 189.112 57.173 194.428 63.948 194.495 64.557 C 194.562 65.165 194.495 65.809 192.488 65.907 C 188.753 66.083 184.472 65.663 183.596 68.321 C 182.641 71.216 185.177 85.484 185.305 86.749 C 185.378 87.473 185.427 88.288 185.019 88.915 C 186.905 89.34 187.951 90.228 188.018 90.283 C 188.145 90.392 188.157 90.581 188.048 90.709 C 187.939 90.836 187.75 90.849 187.622 90.739 C 187.604 90.727 186.479 89.784 184.484 89.432 C 184.484 89.432 184.484 89.432 184.478 89.432 C 184.149 89.644 183.706 89.803 183.109 89.882 C 180.719 90.192 175.823 90.903 175.683 93.026 C 175.458 96.456 190.931 95.818 192.536 95.678 C 194.142 95.532 194.197 92.631 194.02 90.447 C 193.844 88.258 192.646 75.802 193.053 75.388 C 193.467 74.975 203.679 76.988 208.179 75.139 C 212.68 73.29 213.27 69.355 213.404 68.631 C 213.538 67.914 213.89 69.532 214.055 70.073 C 214.219 70.614 214.499 71.764 215.022 71.453 C 215.551 71.143 214.681 68.771 214.657 68.285 C 214.632 67.804 215.429 68.279 215.417 66.679 Z M 192.67 48.567 C 192.609 48.64 192.518 48.677 192.427 48.677 C 192.366 48.677 192.299 48.658 192.238 48.616 C 192.226 48.598 190.469 47.223 187.488 46.39 C 184.575 45.581 182.745 46.633 182.726 46.645 C 182.58 46.731 182.398 46.682 182.313 46.536 C 182.228 46.39 182.27 46.207 182.416 46.122 C 182.495 46.074 184.472 44.918 187.653 45.806 C 190.761 46.67 192.543 48.081 192.622 48.135 C 192.749 48.239 192.774 48.433 192.67 48.567 Z" fill="#003CB6"/>
  <path d="M 191.88 34.214 C 191.837 33.521 191.715 32.846 191.509 32.189 C 191.18 31.149 190.639 30.169 189.909 29.312 C 188.474 27.615 186.455 26.581 184.241 26.399 C 182.021 26.216 179.868 26.91 178.171 28.345 C 177.18 29.184 176.413 30.218 175.915 31.38 C 175.702 31.86 175.544 32.359 175.428 32.87 C 175.343 33.247 175.282 33.63 175.252 34.019 C 174.881 38.599 178.299 42.625 182.878 43.002 C 183.11 43.021 183.335 43.033 183.566 43.033 C 187.853 43.033 191.503 39.73 191.861 35.382 C 191.892 34.986 191.898 34.597 191.88 34.214 Z M 190.651 35.278 C 190.329 39.189 186.886 42.108 182.976 41.792 C 181.084 41.634 179.363 40.752 178.135 39.305 C 177.034 38.003 176.444 36.397 176.444 34.719 C 176.444 34.518 176.45 34.317 176.468 34.117 C 176.492 33.782 176.541 33.454 176.614 33.131 C 176.748 32.541 176.955 31.976 177.228 31.447 C 177.648 30.626 178.232 29.89 178.956 29.275 C 180.251 28.175 181.863 27.585 183.547 27.585 C 183.742 27.585 183.943 27.591 184.137 27.609 C 186.035 27.767 187.756 28.649 188.985 30.096 C 189.502 30.705 189.909 31.392 190.189 32.116 C 190.463 32.803 190.621 33.533 190.663 34.275 C 190.682 34.609 190.675 34.944 190.651 35.278 Z" fill="#003CB6"/>
  <path d="M 174.005 28.911 C 174.631 27.22 175.945 25.547 177.739 23.814 C 178.208 23.364 179.114 22.816 179.637 22.579 C 178.621 22.19 177.064 21.983 176.663 22.233 C 175.124 23.187 174.133 28.509 174.005 28.911 Z" fill="#FF4415"/>
  <path d="M 175.379 30.449 C 175.13 30.467 169.662 29.975 169.456 30.261 C 169.249 30.547 169.395 31.07 169.9 31.465 C 170.404 31.866 175.525 32.627 175.483 31.964 C 175.44 31.301 175.379 30.449 175.379 30.449 Z" fill="#FF4415"/>
  <path d="M 173.975 32.225 C 175.222 33.283 179.911 33.539 183.627 33.843 C 187.343 34.147 191.983 34.658 193.388 33.819 C 194.824 32.961 193.729 28.491 191.047 24.903 C 189.307 22.579 186.546 22.549 184.563 22.385 L 184.551 22.385 C 183.012 22.257 181.024 21.977 179.236 22.792 C 178.713 23.029 178.208 23.358 177.739 23.808 C 175.939 25.541 174.577 27.615 173.95 29.306 C 173.944 29.318 173.944 29.324 173.944 29.324 C 173.452 30.668 173.415 31.751 173.975 32.225 Z" fill="#003CB6"/>
  <path d="M 194.02 32.31 L 173.567 31.252 L 173.579 31.051 C 174.035 25.413 178.986 21.211 184.63 21.679 C 190.128 22.129 194.239 26.843 194.02 32.31 Z" fill="#003CB6"/>
</svg>