<?xml version="1.0" encoding="utf-8"?>
<svg width="250" height="203" viewBox="0 0 250 203" fill="none" xmlns="http://www.w3.org/2000/svg">
  <rect width="250" height="203" rx="8" fill="#EEEEEE"/>
  <path d="M 211.825 81.897 L 217.597 80.942 C 218.199 80.845 218.753 81.295 218.753 81.891 L 218.753 86.513 C 218.753 86.914 218.503 87.267 218.12 87.413 L 213.686 89.073 C 213.358 89.195 212.987 89.14 212.713 88.927 L 211.375 87.881 C 211.138 87.699 211.004 87.419 211.004 87.127 L 211.004 82.845 C 211.004 82.377 211.351 81.976 211.825 81.897 Z" fill="#003CB6"/>
  <path d="M 213.96 120.353 C 212.561 120.821 200.458 121.241 200.391 119.671 C 200.336 118.492 197.313 86.616 197.313 86.616 C 197.313 86.616 194.291 118.492 194.242 119.671 C 194.175 121.241 182.066 120.821 180.673 120.353 C 179.493 119.963 179.031 115.165 182.169 115.031 C 182.693 115.007 183.203 114.994 183.696 114.982 C 183.696 114.982 183.702 114.982 183.708 114.982 C 185.01 115.153 186.123 115.615 186.135 115.627 C 186.171 115.645 186.214 115.651 186.25 115.651 C 186.372 115.651 186.482 115.584 186.53 115.469 C 186.597 115.311 186.524 115.134 186.372 115.067 C 186.305 115.037 185.277 114.611 184 114.411 L 184.237 88.946 L 184.237 58.208 C 184.237 58.208 184.262 58.019 184.335 57.727 C 184.578 56.718 185.356 54.449 187.479 54.449 L 207.488 54.449 C 209.337 54.449 210.396 56.906 210.396 57.934 L 210.396 81.745 C 210.396 85.911 210.396 88.946 210.396 88.946 L 210.627 114.398 C 209.349 114.55 208.297 114.921 208.224 114.946 C 208.194 114.958 208.17 114.97 208.145 114.982 C 208.133 115 208.115 115.013 208.103 115.031 C 208.03 115.11 208.005 115.225 208.042 115.335 C 208.084 115.457 208.2 115.536 208.328 115.536 C 208.358 115.536 208.395 115.53 208.431 115.517 C 208.443 115.511 209.392 115.183 210.554 115.031 C 210.578 115.025 210.608 115.019 210.633 115.019 C 210.742 115 210.852 114.988 210.967 114.982 C 211.448 114.994 211.946 115.007 212.457 115.031 C 212.664 115.037 212.859 115.067 213.035 115.116 C 213.065 115.122 213.096 115.128 213.126 115.14 C 215.523 115.882 215.048 119.994 213.96 120.353 Z" fill="#003CB6"/>
  <path d="M 183.83 58.037 C 181.166 60.415 178.782 73.467 179.093 76.064 C 179.141 76.453 179.178 76.885 179.19 77.329 L 179.19 77.335 L 179.999 78.485 C 180.157 78.71 180.212 78.983 180.163 79.245 L 180.139 79.361 L 180.145 79.354 C 180.163 79.336 180.181 79.312 180.205 79.288 C 180.504 78.278 180.431 77.049 180.297 75.918 C 180.017 73.558 182.188 62.374 184.238 59.418 L 184.238 58.208 C 184.238 58.208 184.262 58.019 184.335 57.727 C 184.128 57.818 183.964 57.922 183.83 58.037 Z M 183.83 58.037 C 181.166 60.415 178.782 73.467 179.093 76.064 C 179.141 76.453 179.178 76.885 179.19 77.329 L 179.19 77.335 L 179.999 78.485 C 180.157 78.71 180.212 78.983 180.163 79.245 L 180.145 79.354 C 180.163 79.336 180.181 79.312 180.205 79.288 C 180.504 78.278 180.431 77.049 180.297 75.918 C 180.017 73.558 182.188 62.374 184.238 59.418 L 184.238 58.208 C 184.238 58.208 184.262 58.019 184.335 57.727 C 184.128 57.818 183.964 57.922 183.83 58.037 Z M 219.172 64.946 L 219.16 64.746 C 218.947 60.61 216.563 49.462 215.408 47.199 C 214.222 44.87 207.452 43.015 205.172 43.015 C 203.955 43.015 202.648 43.617 201.261 44.256 C 199.917 44.876 198.524 45.515 197.314 45.515 C 195.952 45.515 194.218 44.901 192.698 44.365 C 191.421 43.909 190.314 43.52 189.48 43.49 C 187.631 43.41 181.574 45.551 180.06 47.279 C 178.582 48.963 176.337 55.301 174.16 61.65 C 173.832 62.623 173.54 63.469 173.315 64.095 C 172.19 67.282 171.575 74.744 171.411 77.001 L 171.411 77.007 C 171.399 77.183 171.387 77.329 171.381 77.433 C 171.375 77.548 171.369 77.615 171.369 77.645 L 171.356 77.877 L 171.502 78.065 C 171.618 78.199 174.245 81.404 177.171 81.404 C 177.919 81.404 178.545 81.246 179.044 80.924 C 179.135 80.869 179.214 80.808 179.293 80.741 L 179.299 80.741 C 179.403 80.662 179.494 80.571 179.579 80.474 C 179.804 80.224 179.968 79.938 180.09 79.628 L 180.096 79.61 C 180.139 79.507 180.175 79.397 180.205 79.288 C 180.504 78.278 180.431 77.049 180.297 75.918 C 180.017 73.558 182.188 62.374 184.238 59.418 C 184.372 59.223 184.505 59.065 184.639 58.944 C 184.949 58.664 185.813 58.487 187.029 58.463 C 188.319 58.433 190.01 58.567 191.889 58.925 C 193.768 59.278 195.842 59.85 197.886 60.689 C 206.625 64.296 208.754 69.885 209.003 73.936 C 209.216 77.481 209.733 79.993 210.396 81.745 C 210.591 82.249 210.791 82.693 211.004 83.077 C 211.892 84.707 212.932 85.363 213.863 85.57 C 214.1 85.625 214.331 85.649 214.568 85.649 C 216.21 85.649 217.755 84.427 218.473 83.107 C 218.576 82.918 218.667 82.693 218.753 82.438 C 219.756 79.367 219.513 71.576 219.172 64.946 Z M 217.408 82.523 C 216.898 83.454 215.505 84.688 214.124 84.384 C 213.577 84.263 212.622 83.77 211.783 81.909 C 211.217 80.662 210.7 78.807 210.396 76.034 C 210.323 75.365 210.262 74.641 210.214 73.863 C 209.837 67.641 205.622 62.568 198.348 59.564 C 194.51 57.989 190.417 57.247 187.504 57.247 C 186.141 57.247 185.035 57.405 184.335 57.727 C 184.128 57.818 183.964 57.922 183.83 58.037 C 181.166 60.415 178.782 73.467 179.093 76.064 C 179.141 76.453 179.178 76.885 179.19 77.329 L 179.19 77.335 C 179.208 77.883 179.178 78.43 179.05 78.892 C 178.971 79.196 178.843 79.464 178.667 79.665 C 178.357 80.017 177.864 80.188 177.171 80.188 C 175.243 80.188 173.303 78.248 172.67 77.548 C 172.646 77.524 172.621 77.499 172.603 77.475 C 172.621 77.226 172.652 76.794 172.694 76.234 C 172.919 73.382 173.509 67.191 174.464 64.502 C 174.689 63.87 174.975 63.025 175.316 62.045 C 176.787 57.739 179.53 49.723 180.972 48.081 C 182.152 46.731 187.297 44.852 189.152 44.718 C 189.255 44.706 189.353 44.7 189.432 44.706 C 189.529 44.712 189.639 44.724 189.76 44.742 C 190.411 44.846 191.329 45.168 192.29 45.509 C 193.908 46.08 195.739 46.731 197.314 46.731 C 198.792 46.731 200.306 46.032 201.772 45.357 C 202.897 44.84 203.967 44.347 204.868 44.25 C 204.971 44.238 205.074 44.232 205.172 44.232 C 205.269 44.232 205.366 44.238 205.476 44.244 C 207.878 44.39 213.504 46.147 214.325 47.753 C 215.408 49.876 217.743 60.872 217.95 64.807 L 217.956 65.013 C 218.12 68.2 218.57 76.946 217.877 80.942 C 217.755 81.623 217.603 82.17 217.408 82.523 Z M 183.83 58.037 C 181.166 60.415 178.782 73.467 179.093 76.064 C 179.141 76.453 179.178 76.885 179.19 77.329 L 179.19 77.335 L 179.999 78.485 C 180.157 78.71 180.212 78.983 180.163 79.245 L 180.145 79.354 C 180.163 79.336 180.181 79.312 180.205 79.288 C 180.504 78.278 180.431 77.049 180.297 75.918 C 180.017 73.558 182.188 62.374 184.238 59.418 L 184.238 58.208 C 184.238 58.208 184.262 58.019 184.335 57.727 C 184.128 57.818 183.964 57.922 183.83 58.037 Z" fill="#003CB6"/>
  <path d="M 189.462 52.606 C 189.291 52.606 189.158 52.472 189.158 52.302 L 189.158 44.152 C 189.158 43.982 189.291 43.848 189.462 43.848 C 189.632 43.848 189.766 43.982 189.766 44.152 L 189.766 52.302 C 189.766 52.472 189.626 52.606 189.462 52.606 Z" fill="#003CB6"/>
  <path d="M 205.171 52.606 C 205.001 52.606 204.867 52.472 204.867 52.302 L 204.867 43.739 C 204.867 43.569 205.001 43.435 205.171 43.435 C 205.341 43.435 205.475 43.569 205.475 43.739 L 205.475 52.302 C 205.475 52.472 205.341 52.606 205.171 52.606 Z" fill="#003CB6"/>
  <path d="M 206.455 30.225 C 205.816 27.166 203.682 24.648 200.847 23.486 C 199.759 23.036 198.567 22.787 197.314 22.787 C 196.067 22.787 194.875 23.036 193.786 23.486 C 190.946 24.642 188.811 27.16 188.173 30.225 C 188.051 30.839 187.984 31.472 187.984 32.116 C 187.984 37.262 192.169 41.446 197.314 41.446 C 202.459 41.446 206.644 37.262 206.644 32.116 C 206.644 31.472 206.577 30.839 206.455 30.225 Z M 197.314 40.23 C 192.844 40.23 189.201 36.593 189.201 32.116 C 189.201 31.466 189.28 30.833 189.426 30.225 C 190.022 27.725 191.785 25.676 194.097 24.672 C 195.082 24.24 196.171 24.003 197.314 24.003 C 198.457 24.003 199.552 24.24 200.537 24.672 C 202.848 25.676 204.606 27.731 205.202 30.225 C 205.348 30.833 205.427 31.466 205.427 32.116 C 205.427 36.593 201.79 40.23 197.314 40.23 Z" fill="#003CB6"/>
  <path d="M 197.338 18.171 C 199.576 18.171 202.696 17.952 204.867 20.403 C 206.437 22.179 206.662 23.194 206.662 24.064 C 206.662 24.934 206.431 25.974 207.246 26.57 C 208.133 27.214 208.279 30.225 207.02 30.225 C 206.51 30.225 197.32 30.225 197.32 30.225 C 197.32 30.225 188.136 30.225 187.619 30.225 C 186.354 30.225 186.506 27.214 187.394 26.57 C 188.215 25.974 187.978 24.934 187.978 24.064 C 187.978 23.194 188.197 22.179 189.772 20.403 C 191.937 17.952 195.094 18.171 197.338 18.171 Z" fill="#003CB6"/>
  <path d="M 200.391 25.22 C 200.391 25.22 202.507 17.502 201.96 16.887 C 201.413 16.273 199.162 15.519 197.314 15.592 C 195.471 15.525 193.214 16.273 192.667 16.887 C 192.12 17.502 194.236 25.22 194.236 25.22 L 200.391 25.22 Z" fill="#FF4415"/>
  <path d="M 177.243 84.555 L 159.356 82.949 C 158.548 82.876 157.951 82.164 158.024 81.355 L 158.347 77.731 C 158.42 76.922 159.131 76.326 159.94 76.399 L 177.827 78.004 C 178.636 78.077 179.232 78.789 179.159 79.598 L 178.837 83.223 C 178.764 84.031 178.052 84.627 177.243 84.555 Z" fill="#FF4415"/>
  <path d="M 179.147 81.319 C 179.475 79.014 183.727 75.523 188.172 76.161 C 192.624 76.794 194.102 78.582 193.993 79.342 C 193.883 80.103 191.846 79.865 189.419 79.519 C 186.993 79.172 185.989 86.172 188.422 86.519 C 190.855 86.866 192.874 87.206 192.764 87.966 C 192.655 88.727 190.739 90.028 186.287 89.396 C 181.835 88.763 178.733 84.22 179.062 81.915 L 179.147 81.319 Z" fill="#FF4415"/>
  <path d="M 172.548 76.222 L 178.344 76.739 C 178.636 76.764 178.903 76.922 179.074 77.159 L 179.998 78.485 C 180.15 78.704 180.211 78.977 180.162 79.245 L 179.183 84.469 C 179.086 84.986 178.605 85.339 178.082 85.278 L 171.915 84.561 C 171.447 84.506 171.082 84.135 171.039 83.667 L 170.541 78.765 C 170.516 78.539 170.571 78.314 170.693 78.126 L 171.617 76.678 C 171.818 76.368 172.177 76.192 172.548 76.222 Z" fill="#003CB6"/>
  <path d="M 187.479 57.825 L 191.438 57.825 C 191.687 57.825 191.888 58.025 191.888 58.275 L 191.888 59.394 C 191.888 59.643 191.687 59.844 191.438 59.844 L 187.479 59.844 C 187.229 59.844 187.029 59.643 187.029 59.394 L 187.029 58.275 C 187.029 58.025 187.229 57.825 187.479 57.825 Z" fill="#FF4415"/>
  <path d="M 203.195 57.825 L 207.154 57.825 C 207.403 57.825 207.604 58.025 207.604 58.275 L 207.604 59.394 C 207.604 59.643 207.403 59.844 207.154 59.844 L 203.195 59.844 C 202.945 59.844 202.745 59.643 202.745 59.394 L 202.745 58.275 C 202.745 58.025 202.945 57.825 203.195 57.825 Z" fill="#FF4415"/>
</svg>